<?xml version="1.0" encoding="utf-8"?>
<!-- Generator: Adobe Illustrator 16.0.0, SVG Export Plug-In . SVG Version: 6.00 Build 0)  -->
<!DOCTYPE svg PUBLIC "-//W3C//DTD SVG 1.1//EN" "http://www.w3.org/Graphics/SVG/1.1/DTD/svg11.dtd">
<svg version="1.1" id="Layer_1" xmlns="http://www.w3.org/2000/svg" xmlns:xlink="http://www.w3.org/1999/xlink" x="0px" y="0px"
	 width="1500.5px" height="1480.5px" viewBox="0 0 1500.5 1480.5" enable-background="new 0 0 1500.5 1480.5" xml:space="preserve">
<g>
	<path d="M717.529,401.804v-97.727c0-15.67-12.73-28.419-28.378-28.419H456.935V43.482c0-15.67-12.731-28.418-28.379-28.418h-97.792
		c-15.649,0-28.38,12.748-28.38,28.418v232.176H70.168c-15.648,0-28.378,12.749-28.378,28.419v97.727
		c0,15.663,12.73,28.406,28.378,28.406h232.216v232.189c0,15.662,12.731,28.405,28.38,28.405h97.792
		c15.648,0,28.379-12.743,28.379-28.405V430.21h232.216C704.799,430.21,717.529,417.467,717.529,401.804z"/>
	<g>
		<path d="M428.556,729.12h-97.792c-30.919,0-57.165-20.368-66.052-48.394L34.191,872.773c-11.709,9.907-13.51,28.822-3.601,40.53
			l55.842,66.653c4.504,5.404,11.709,9.006,18.916,9.905c8.106,0.903,15.312-1.799,21.617-6.302l305.272-254.54
			C431.017,729.085,429.791,729.12,428.556,729.12z"/>
		<path d="M750.25,543.116L232.346,970.049c0,1.801-0.901,3.604-0.901,5.404v432.338c0,31.524,26.121,57.645,57.646,57.645h345.87
			v-345.87h230.58v345.87h345.868c31.525,0,57.646-26.12,57.646-57.645V975.453c0-1.8,0-3.604-0.902-5.404L750.25,543.116z"/>
		<path d="M1466.307,872.773l-197.252-163.928V341.359c0-16.213-12.609-28.822-28.822-28.822h-172.936
			c-16.211,0-28.822,12.609-28.822,28.822v175.637L818.704,333.253c-16.83-14.025-38.296-21.794-60.272-23.34v89.305
			c0,38.217-31.079,69.309-69.281,69.309H519.423l-21.585,17.983v173.304c0,5.542-0.673,10.928-1.907,16.097l254.32-212.056
			l623.287,519.706c5.404,4.503,11.709,6.302,18.914,6.302c0.9,0,1.801,0,2.701,0c7.207-0.899,14.412-4.501,18.916-9.905
			l55.844-66.653C1479.82,901.596,1478.018,882.681,1466.307,872.773z"/>
	</g>
</g>
</svg>
