<?xml version="1.0" encoding="utf-8"?>
<!-- Generator: Adobe Illustrator 16.0.0, SVG Export Plug-In . SVG Version: 6.00 Build 0)  -->
<!DOCTYPE svg PUBLIC "-//W3C//DTD SVG 1.1//EN" "http://www.w3.org/Graphics/SVG/1.1/DTD/svg11.dtd">
<svg version="1.1" id="Layer_1" xmlns="http://www.w3.org/2000/svg" xmlns:xlink="http://www.w3.org/1999/xlink" x="0px" y="0px"
	 width="96.113px" height="93.609px" viewBox="0 0 96.113 93.609" enable-background="new 0 0 96.113 93.609" xml:space="preserve">
<g>
	<g>
		<path d="M88.197,49.781c1.267,1.244,3.307,1.227,4.551-0.039c1.245-1.268,1.228-3.305-0.037-4.552L75.42,28.116l-9.378-9.262
			L50.004,3.017V3.02c-1.264-1.242-3.289-1.23-4.539,0.021L3.378,45.217c-1.252,1.26-1.247,3.298,0.011,4.548
			c1.261,1.256,3.301,1.25,4.553-0.01L47.766,9.852L88.197,49.781z"/>
		<path d="M59.328,54.189c3.43-2.97,7.892-4.779,12.785-4.779c3.537,0,6.846,0.953,9.708,2.595v-2.028h-0.008
			c0-0.844-0.33-1.688-0.987-2.32L49.642,17.53c-1.264-1.214-3.271-1.199-4.512,0.048L15.407,47.361
			c-0.686,0.594-1.114,1.469-1.114,2.441v29.176h0.011c0,1.77,1.438,3.211,3.215,3.211h15.709c0.688,0,1.373-0.262,1.896-0.787
			c0.523-0.521,0.784-1.209,0.784-1.895V56.381c0-1.775,1.453-3.229,3.229-3.229h17.836C57.902,53.152,58.737,53.555,59.328,54.189z
			"/>
	</g>
	<path d="M73.113,52.4c-10.801,0-19.558,8.756-19.558,19.557s8.757,19.557,19.558,19.557S92.67,82.758,92.67,71.957
		S83.914,52.4,73.113,52.4z M82.802,74.578h-7.115v6.905H70.54v-6.905h-7.116v-5.127h7.116V62.43h5.146v7.021h7.115V74.578z"/>
</g>
</svg>
