<?xml version="1.0" encoding="utf-8"?>
<!-- Generator: Adobe Illustrator 16.0.3, SVG Export Plug-In . SVG Version: 6.00 Build 0)  -->
<!DOCTYPE svg PUBLIC "-//W3C//DTD SVG 1.1//EN" "http://www.w3.org/Graphics/SVG/1.1/DTD/svg11.dtd">
<svg version="1.1" id="Layer_1" xmlns="http://www.w3.org/2000/svg" xmlns:xlink="http://www.w3.org/1999/xlink" x="0px" y="0px"
	 width="96.113px" height="93.609px" viewBox="58.3 69.691 96.113 93.609" enable-background="new 58.3 69.691 96.113 93.609"
	 xml:space="preserve">
<g>
	<g>
		<path d="M146.497,119.472c1.267,1.245,3.307,1.227,4.551-0.04c1.245-1.266,1.227-3.304-0.037-4.551L133.72,97.807l-9.378-9.261
			l-16.038-15.838v0.003c-1.264-1.242-3.289-1.231-4.538,0.021l-42.087,42.176c-1.252,1.26-1.248,3.298,0.011,4.549
			c1.26,1.255,3.3,1.249,4.552-0.011l39.824-39.903L146.497,119.472z"/>
		<path d="M132.663,125.091c2.639,0,5.153,0.528,7.458,1.469v-6.892h-0.008c0-0.844-0.33-1.689-0.987-2.321l-31.185-30.126
			c-1.263-1.214-3.27-1.2-4.511,0.047l-29.723,29.785c-0.685,0.592-1.114,1.467-1.114,2.441v29.175h0.011
			c0,1.77,1.438,3.211,3.215,3.211h15.709c0.687,0,1.372-0.262,1.896-0.786c0.523-0.522,0.784-1.21,0.784-1.896v-23.127
			c0-1.774,1.453-3.228,3.229-3.228h17.837c1.774,0,3.227,1.45,3.227,3.228v5.007C122.101,127.391,127.115,125.091,132.663,125.091z
			"/>
	</g>
	<path d="M132.663,128.591c-9.006,0-16.307,7.301-16.307,16.307s7.301,16.307,16.307,16.307s16.307-7.301,16.307-16.307
		S141.669,128.591,132.663,128.591z M140.741,147.083h-5.932v5.758h-4.291v-5.758h-5.934v-4.275h5.934v-5.854h4.291v5.854h5.932
		V147.083z"/>
</g>
</svg>
