<?xml version="1.0" encoding="utf-8"?>
<!-- Generator: Adobe Illustrator 16.0.0, SVG Export Plug-In . SVG Version: 6.00 Build 0)  -->
<!DOCTYPE svg PUBLIC "-//W3C//DTD SVG 1.1//EN" "http://www.w3.org/Graphics/SVG/1.1/DTD/svg11.dtd">
<svg version="1.1" id="Layer_1" xmlns="http://www.w3.org/2000/svg" xmlns:xlink="http://www.w3.org/1999/xlink" x="0px" y="0px"
	 width="1500.5px" height="1480.5px" viewBox="0 0 1500.5 1480.5" enable-background="new 0 0 1500.5 1480.5" xml:space="preserve">
<path d="M390.16,629.76h150.573c-20.797,28.8-38.707,59.582-53.729,92.16H390.16V629.76z M390.16,906.24h48.414
	c2.611-31.596,8.095-62.285,15.837-92.16H390.16V906.24z M989.2,76.8H159.76c-50.673,0-92.16,41.487-92.16,92.16v921.6
	c0,50.766,41.487,92.16,92.16,92.16h308.613c-10.537-29.706-18.632-60.487-24.023-92.16H159.76v-921.6H989.2v276.48
	c31.503,0,62.1,3.24,92.159,8.278V168.96C1081.359,118.287,1039.872,76.8,989.2,76.8z M205.84,353.28H298v-92.16h-92.16V353.28z
	 M205.84,721.92H298v-92.16h-92.16V721.92z M205.84,537.6H298V445.44h-92.16V537.6z M943.12,261.12H390.16v92.16h552.96V261.12z
	 M390.16,537.6h234.179c42.839-37.708,91.253-69.027,144.184-92.159H390.16V537.6z M205.84,906.24H298v-92.16h-92.16V906.24z"/>
<path d="M1011.714,687.039c-25.374,0-46.079,20.705-46.079,46.08v230.4h-184.32c-25.375,0-46.08,20.705-46.08,46.08
	c0,25.374,20.705,46.079,46.08,46.079h230.399c25.375,0,46.08-20.705,46.08-46.079v-276.48
	C1057.794,707.744,1037.089,687.039,1011.714,687.039z"/>
<path d="M984.069,490.161c-254.515,0-460.8,206.377-460.8,460.801c0,254.515,206.285,460.8,460.8,460.8
	c254.516,0,460.801-206.285,460.801-460.8C1444.87,696.538,1238.585,490.161,984.069,490.161z M984.069,1319.602
	c-203.582,0-368.64-165.059-368.64-368.64c0-203.582,165.058-368.641,368.64-368.641S1352.71,747.38,1352.71,950.962
	C1352.71,1154.543,1187.651,1319.602,984.069,1319.602z"/>
</svg>
