<?xml version="1.0" encoding="utf-8"?>
<!-- Generator: Adobe Illustrator 16.0.0, SVG Export Plug-In . SVG Version: 6.00 Build 0)  -->
<!DOCTYPE svg PUBLIC "-//W3C//DTD SVG 1.1//EN" "http://www.w3.org/Graphics/SVG/1.1/DTD/svg11.dtd">
<svg version="1.1" id="Layer_1" xmlns="http://www.w3.org/2000/svg" xmlns:xlink="http://www.w3.org/1999/xlink" x="0px" y="0px"
	 width="27px" height="27px" viewBox="0 0 27 27" enable-background="new 0 0 27 27" xml:space="preserve">
<g>
	<g>
		<path d="M26,10.875H1c-0.276,0-0.5-0.224-0.5-0.5s0.224-0.5,0.5-0.5h25c0.275,0,0.5,0.224,0.5,0.5S26.275,10.875,26,10.875z"/>
	</g>
	<g>
		<path d="M26,5.208H1c-0.276,0-0.5-0.224-0.5-0.5s0.224-0.5,0.5-0.5h25c0.275,0,0.5,0.224,0.5,0.5S26.275,5.208,26,5.208z"/>
	</g>
	<g>
		<path d="M26,16.541H1c-0.276,0-0.5-0.224-0.5-0.5s0.224-0.5,0.5-0.5h25c0.275,0,0.5,0.224,0.5,0.5S26.275,16.541,26,16.541z"/>
	</g>
	<g>
		<path d="M26,22.208H1c-0.276,0-0.5-0.225-0.5-0.5s0.224-0.5,0.5-0.5h25c0.275,0,0.5,0.225,0.5,0.5S26.275,22.208,26,22.208z"/>
	</g>
</g>
</svg>
