<?xml version="1.0" encoding="utf-8"?>
<!-- Generator: Adobe Illustrator 16.0.0, SVG Export Plug-In . SVG Version: 6.00 Build 0)  -->
<!DOCTYPE svg PUBLIC "-//W3C//DTD SVG 1.1//EN" "http://www.w3.org/Graphics/SVG/1.1/DTD/svg11.dtd">
<svg version="1.1" id="Layer_1" xmlns="http://www.w3.org/2000/svg" xmlns:xlink="http://www.w3.org/1999/xlink" x="0px" y="0px"
	 width="44px" height="44px" viewBox="0 0 44 44" enable-background="new 0 0 44 44" xml:space="preserve">
<g>
	<path d="M42,42.5H2c-0.133,0-0.26-0.053-0.354-0.146S1.5,42.133,1.5,42L1.501,2c0-0.202,0.122-0.385,0.309-0.462
		c0.187-0.077,0.402-0.034,0.545,0.108l39.999,40c0.143,0.143,0.186,0.358,0.108,0.545S42.202,42.5,42,42.5z M2.5,41.5h38.293
		l-6.268-6.268l-2.376,2.375c-0.195,0.195-0.512,0.195-0.707,0c-0.098-0.098-0.146-0.226-0.146-0.354s0.049-0.256,0.146-0.354
		l2.376-2.375l-4.274-4.275l-2.378,2.375c-0.195,0.195-0.512,0.195-0.707,0c-0.098-0.098-0.146-0.226-0.146-0.354
		s0.049-0.256,0.146-0.354l2.377-2.375l-4.275-4.275l-2.377,2.375c-0.195,0.195-0.512,0.195-0.707,0
		c-0.098-0.098-0.146-0.226-0.146-0.354s0.049-0.256,0.146-0.354l2.377-2.375l-4.275-4.276l-2.376,2.376
		c-0.195,0.195-0.512,0.196-0.707,0.001c-0.098-0.098-0.146-0.226-0.146-0.354s0.049-0.256,0.146-0.354l2.376-2.377l-4.276-4.276
		l-2.375,2.377c-0.195,0.195-0.512,0.195-0.707,0c-0.098-0.097-0.146-0.225-0.146-0.354c0-0.128,0.049-0.256,0.146-0.354
		l2.375-2.377l-4.276-4.276l-2.375,2.377c-0.195,0.195-0.512,0.195-0.707,0c-0.195-0.195-0.195-0.512,0-0.707l2.375-2.377
		L2.501,3.207L2.5,41.5z M21.976,34.863H9.794c-0.276,0-0.5-0.224-0.5-0.5V22.181c0-0.202,0.122-0.385,0.309-0.462
		c0.188-0.077,0.402-0.035,0.545,0.108L22.33,34.01c0.143,0.143,0.186,0.358,0.108,0.545C22.361,34.741,22.178,34.863,21.976,34.863
		z M10.294,33.863h10.475L10.294,23.389V33.863z"/>
</g>
</svg>
