<?xml version="1.0" encoding="utf-8"?>
<!-- Generator: Adobe Illustrator 16.0.0, SVG Export Plug-In . SVG Version: 6.00 Build 0)  -->
<!DOCTYPE svg PUBLIC "-//W3C//DTD SVG 1.1//EN" "http://www.w3.org/Graphics/SVG/1.1/DTD/svg11.dtd">
<svg version="1.1" id="Layer_1" xmlns="http://www.w3.org/2000/svg" xmlns:xlink="http://www.w3.org/1999/xlink" x="0px" y="0px"
	 width="434.84px" height="434.84px" viewBox="0 0 434.84 434.84" enable-background="new 0 0 434.84 434.84" xml:space="preserve">
<path d="M204.213,419.596c-0.095,0-0.181-0.006-0.273-0.011c-9.156-0.555-18.065-1.191-26.478-1.906
	c-2.424-0.199-4.229-2.327-4.023-4.757c0.203-2.424,2.265-4.275,4.765-4.021c8.341,0.701,17.18,1.334,26.269,1.885
	c2.43,0.147,4.281,2.234,4.135,4.672C208.468,417.791,206.523,419.596,204.213,419.596z M151.529,415.095
	c-0.172,0-0.341-0.008-0.514-0.033c-9.322-1.067-18.196-2.274-26.382-3.568c-2.402-0.38-4.047-2.641-3.668-5.041
	c0.383-2.403,2.676-4.064,5.044-3.669c8.062,1.275,16.814,2.463,26.012,3.522c2.421,0.274,4.153,2.461,3.876,4.877
	C155.643,413.434,153.738,415.095,151.529,415.095z M99.355,406.666c-0.317,0-0.643-0.034-0.97-0.107
	c-9.734-2.179-18.458-4.606-25.933-7.215c-2.298-0.805-3.514-3.315-2.713-5.614c0.802-2.299,3.32-3.517,5.612-2.708
	c7.163,2.492,15.557,4.83,24.965,6.936c2.375,0.529,3.869,2.889,3.338,5.264C103.191,405.273,101.37,406.666,99.355,406.666z
	 M50.254,388.027c-0.908,0-1.825-0.278-2.613-0.862c-8.247-6.087-12.433-12.958-12.433-20.423c0-2.304,0.419-4.654,1.239-6.966
	c0.821-2.295,3.329-3.489,5.63-2.68c2.296,0.82,3.49,3.338,2.675,5.632c-0.484,1.365-0.731,2.711-0.731,4.012
	c0,4.513,2.977,9,8.849,13.328c1.956,1.447,2.376,4.208,0.931,6.166C52.939,387.405,51.608,388.027,50.254,388.027z M58.531,346.841
	c-1.466,0-2.898-0.729-3.736-2.062c-1.297-2.066-0.676-4.786,1.383-6.079c6.929-4.356,15.503-8.384,24.793-11.662
	c2.292-0.8,4.809,0.399,5.621,2.696c0.807,2.292-0.399,4.811-2.693,5.616c-8.686,3.057-16.646,6.793-23.03,10.807
	C60.148,346.622,59.331,346.841,58.531,346.841z M108.021,328.944c-2.107,0-3.967-1.516-4.336-3.659
	c-0.415-2.403,1.195-4.686,3.592-5.094c9.566-1.656,18.757-2.351,27.249-2.045c2.432,0.08,4.337,2.118,4.252,4.556
	c-0.083,2.428-2.049,4.459-4.555,4.252c-7.893-0.248-16.472,0.376-25.444,1.925C108.525,328.927,108.273,328.944,108.021,328.944z
	 M160.809,327.005c-2.39,0-4.352-1.712-4.405-4.106c-0.059-2.436,1.869-4.359,4.307-4.415c9.153-0.215,17.858-0.802,25.882-1.853
	c2.395-0.313,4.624,1.404,4.947,3.822c0.316,2.413-1.387,4.443-3.801,4.758c-8.336,1.099-17.36,1.794-26.828,1.794
	C160.879,327.005,160.843,327.005,160.809,327.005z M213.01,320.101c-1.899,0-3.649-1.239-4.223-3.15
	c-0.695-2.332,0.631-4.787,2.964-5.485c8.758-2.617,16.553-5.979,23.16-10c2.084-1.262,4.793-0.6,6.058,1.477
	c1.268,2.083,0.604,4.791-1.476,6.056c-7.259,4.409-15.737,8.08-25.221,10.912C213.852,320.036,213.432,320.101,213.01,320.101z
	 M256.744,292.123c-0.905,0-1.817-0.281-2.604-0.849c-1.964-1.446-2.387-4.202-0.946-6.165c4.803-6.548,8.027-14.043,9.591-22.284
	c0.452-2.394,2.765-3.948,5.148-3.513c2.395,0.456,3.96,2.765,3.515,5.149c-1.806,9.549-5.556,18.244-11.143,25.865
	C259.443,291.498,258.1,292.123,256.744,292.123z M267.119,241.736c-2.108,0-3.982-1.528-4.346-3.681
	c-1.348-8.057-3.883-16.148-7.533-24.061c-1.015-2.211-0.053-4.832,2.161-5.851c2.222-1.021,4.83-0.049,5.849,2.155
	c3.978,8.622,6.741,17.472,8.222,26.301c0.399,2.403-1.216,4.672-3.62,5.072C267.605,241.716,267.356,241.736,267.119,241.736z
	 M90.308,229.393c-5.796,0-11.152-0.922-15.922-2.738c-2.274-0.868-3.416-3.417-2.549-5.69c0.865-2.281,3.423-3.423,5.691-2.549
	c6.45,2.462,14.394,2.803,23.7,1.067c2.401-0.466,4.695,1.127,5.145,3.521c0.45,2.393-1.127,4.692-3.521,5.145
	C98.439,228.981,94.224,229.393,90.308,229.393z M388.353,237.785c-0.371,0.018-0.754-0.015-1.127-0.086
	c-2.387-0.504-3.91-2.841-3.413-5.222c1.079-5.128,2.056-10.066,2.948-14.848c0.444-2.394,2.751-3.974,5.141-3.529
	c2.388,0.445,3.974,2.749,3.525,5.143c-0.899,4.839-1.89,9.854-2.988,15.042C392.02,236.296,390.298,237.69,388.353,237.785z
	 M398.758,162.857c-0.34,0.147-0.71,0.252-1.083,0.314c-2.413,0.363-4.661-1.292-5.031-3.697c-0.783-5.178-1.597-10.146-2.44-14.935
	c-0.422-2.399,1.185-4.689,3.577-5.108c2.395-0.422,4.684,1.181,5.106,3.582c0.853,4.846,1.685,9.891,2.471,15.134
	C401.672,160.177,400.548,162.087,398.758,162.857z M127.24,220.289c-1.729,0-3.369-1.021-4.074-2.722
	c-0.931-2.248,0.131-4.825,2.383-5.761c6.802-2.826,14.311-6.363,23.616-11.141c2.164-1.12,4.823-0.255,5.934,1.909
	c1.11,2.166,0.255,4.825-1.909,5.935c-9.527,4.89-17.237,8.52-24.264,11.439C128.372,220.181,127.799,220.289,127.24,220.289z
	 M56.925,209.386c-1.49,0-2.944-0.754-3.773-2.124c-4.669-7.706-8.399-16.17-11.088-25.158c-0.698-2.331,0.626-4.787,2.957-5.488
	c2.33-0.691,4.787,0.626,5.49,2.959c2.476,8.271,5.901,16.052,10.183,23.115c1.262,2.086,0.594,4.794-1.485,6.059
	C58.489,209.18,57.7,209.386,56.925,209.386z M174.606,196.66c-1.582,0-3.117-0.857-3.906-2.355
	c-1.134-2.154-0.305-4.822,1.847-5.957c7.9-4.157,16.289-8.46,24.123-11.779c2.244-0.948,4.826,0.096,5.777,2.342
	c0.949,2.239-0.097,4.827-2.34,5.778c-7.53,3.192-15.724,7.394-23.455,11.463C175.999,196.496,175.299,196.66,174.606,196.66z
	 M245.201,194.222c-1.249,0-2.488-0.531-3.358-1.557c-6.509-7.652-13.295-12.523-18.616-13.36c-2.402-0.379-4.043-2.637-3.669-5.039
	c0.375-2.405,2.638-4.05,5.042-3.671c7.478,1.177,15.995,6.987,23.957,16.358c1.581,1.856,1.352,4.641-0.499,6.217
	C247.226,193.876,246.219,194.222,245.201,194.222z M395.727,205.707c-0.26,0.014-0.523,0.004-0.795-0.032
	c-2.417-0.317-4.11-2.528-3.793-4.947c1.227-9.32,2.045-18.053,2.442-25.965c0.123-2.431,2.161-4.321,4.617-4.185
	c2.434,0.121,4.311,2.188,4.19,4.621c-0.408,8.15-1.253,17.123-2.511,26.684C399.598,204.026,397.817,205.606,395.727,205.707z
	 M375.464,324.656c-0.263,0-0.524-0.026-0.793-0.074c-2.396-0.434-3.985-2.725-3.544-5.126c1.677-9.248,2.915-17.93,3.699-25.812
	c0.243-2.419,2.369-4.212,4.818-3.957c2.424,0.237,4.197,2.398,3.956,4.817c-0.806,8.124-2.084,17.044-3.805,26.53
	C379.409,323.165,377.556,324.656,375.464,324.656z M41.568,159.277c-2.288,0-4.22-1.765-4.392-4.079
	c-0.263-3.497-0.397-7.096-0.397-10.699c0-5.417,0.299-10.977,0.894-16.509c0.262-2.423,2.453-4.157,4.855-3.916
	c2.419,0.259,4.173,2.434,3.915,4.854c-0.561,5.226-0.845,10.466-0.845,15.571c0,3.387,0.126,6.762,0.371,10.042
	c0.187,2.428-1.638,4.546-4.064,4.727C41.787,159.273,41.677,159.277,41.568,159.277z M392.056,133.038
	c-2.344,0-4.294-1.068-4.4-3.425c-0.462-9.628-1.979-17.484-4.516-24.123c-0.871-2.276,0.271-4.63,2.536-5.503
	c2.279-0.863,4.819,0.361,5.69,2.642c2.874,7.512,4.587,15.958,5.097,26.517c0.112,2.428-1.764,3.891-4.201,3.891
	C392.194,133.038,392.125,133.038,392.056,133.038z M47.007,106.896c-0.383,0-0.778-0.052-1.169-0.156
	c-2.349-0.648-3.73-3.071-3.084-5.419c2.393-8.741,5.479-17.33,9.164-25.525c1-2.223,3.608-3.205,5.829-2.215
	c2.222,1.004,3.213,3.613,2.213,5.829c-3.5,7.782-6.426,15.933-8.703,24.238C50.717,105.608,48.946,106.896,47.007,106.896z
	 M384.814,245.792c2.263,0.322,3.927,2.342,3.769,4.662c-0.238,3.497-0.613,7.083-1.128,10.642
	c-0.772,5.364-1.856,10.821-3.231,16.221c-0.601,2.355-3.021,3.763-5.361,3.182c-2.355-0.604-3.782-2.999-3.186-5.353
	c1.297-5.099,2.321-10.248,3.048-15.302c0.482-3.349,0.838-6.705,1.06-9.992c0.164-2.428,2.27-4.268,4.696-4.101
	C384.594,245.765,384.701,245.776,384.814,245.792z M255.361,91.56c-3.129,0-6.116-0.136-8.88-0.409
	c-2.191-0.215-4.326-0.499-6.42-0.841c-2.401-0.398-4.029-2.667-3.629-5.069c0.401-2.404,2.623-4.017,5.067-3.633
	c1.898,0.314,3.849,0.567,5.847,0.767c5.512,0.542,11.841,0.491,19.406-0.181c2.391-0.186,4.568,1.579,4.777,4.002
	c0.217,2.424-1.57,4.568-4.002,4.78C263.104,91.364,259.115,91.56,255.361,91.56z M371.126,88.42c-0.791,0-1.572-0.206-2.295-0.642
	c-5.989-3.649-13.579-5.646-23.189-6.099c-2.432-0.114-4.316-2.184-4.196-4.613c0.112-2.434,2.308-4.289,4.61-4.196
	c11.13,0.526,20.081,2.94,27.363,7.378c2.079,1.271,2.737,3.98,1.467,6.062C374.06,87.672,372.604,88.42,371.126,88.42z
	 M293.342,87.37c-2.121,0-3.98-1.526-4.342-3.681c-0.404-2.401,1.219-4.673,3.616-5.074l4.521-0.76
	c7.172-1.208,14.59-2.46,21.762-3.403c2.476-0.318,4.628,1.379,4.945,3.792c0.318,2.416-1.377,4.628-3.788,4.944
	c-7.021,0.926-14.353,2.163-21.448,3.362l-4.534,0.761C293.823,87.344,293.58,87.37,293.342,87.37z M215.749,82.241
	c-0.666,0-1.339-0.15-1.974-0.467c-7.747-3.898-15.16-8.976-22.669-15.521c-1.833-1.602-2.023-4.387-0.423-6.221
	c1.604-1.833,4.386-2.022,6.221-0.425c6.939,6.058,13.754,10.731,20.829,14.289c2.177,1.098,3.049,3.748,1.958,5.919
	C218.92,81.349,217.364,82.241,215.749,82.241z M68.734,58.895c-0.845,0-1.704-0.243-2.458-0.755
	c-2.02-1.36-2.554-4.103-1.191-6.118c5.387-7.983,11.298-15.046,17.571-20.982c1.766-1.671,4.559-1.598,6.233,0.17
	c1.674,1.767,1.595,4.56-0.172,6.234c-5.805,5.501-11.298,12.064-16.324,19.513C71.544,58.211,70.151,58.895,68.734,58.895z
	 M375.523,331.862c2.004,1.109,2.828,3.595,1.853,5.699c-1.473,3.186-3.109,6.393-4.865,9.54c-2.634,4.735-5.608,9.441-8.822,13.983
	c-1.398,1.994-4.166,2.436-6.146,1.059c-1.986-1.409-2.461-4.158-1.056-6.148c3.035-4.291,5.834-8.729,8.321-13.186
	c1.646-2.961,3.183-5.971,4.569-8.959c1.015-2.207,3.641-3.168,5.848-2.147C375.327,331.76,375.429,331.807,375.523,331.862z
	 M345.267,374.969c0.337,0.186,0.654,0.423,0.947,0.706c1.736,1.705,1.757,4.499,0.051,6.233
	c-6.344,6.47-13.215,12.469-20.425,17.83c-1.96,1.456-4.716,1.048-6.17-0.903c-1.456-1.954-1.052-4.719,0.903-6.17
	c6.845-5.086,13.368-10.782,19.402-16.931C341.398,374.285,343.577,374.026,345.267,374.969z M302.919,406.317
	c0.737,0.415,1.374,1.039,1.774,1.861c1.105,2.17,0.237,4.818-1.933,5.916c-8.595,4.356-17.199,7.644-25.562,9.771
	c-2.362,0.604-4.765-0.822-5.364-3.182s0.826-4.763,3.185-5.359c7.753-1.981,15.748-5.036,23.76-9.098
	C300.13,405.545,301.684,405.624,302.919,406.317z M175.337,48.609c-1.195,0-2.381-0.479-3.25-1.423l-1.485-1.622
	c-5.766-6.283-11.209-12.218-16.677-16.802c-1.864-1.563-2.111-4.346-0.546-6.21c1.564-1.864,4.352-2.111,6.211-0.546
	c5.903,4.955,11.54,11.096,17.505,17.592l1.48,1.615c1.648,1.794,1.532,4.581-0.262,6.229
	C177.471,48.221,176.406,48.609,175.337,48.609z M107.354,23.699c-1.681,0-3.29-0.972-4.026-2.603c-1-2.22-0.009-4.831,2.213-5.826
	c7.61-3.423,15.316-5.153,22.912-5.153c1.523,0.123,3.374,0.087,5.064,0.258c2.424,0.248,4.183,2.413,3.938,4.832
	c-0.248,2.419-2.405,3.958-4.833,3.686c-1.389-0.149-2.772-0.471-4.156-0.471c-0.004,0-0.009,0-0.013,0
	c-6.34,0-12.829,1.729-19.29,4.631C108.569,23.312,107.956,23.699,107.354,23.699z M257.109,424.003c-0.09,0-0.18-0.004-0.267-0.008
	c-9.162-0.557-18.066-1.194-26.481-1.907c-2.427-0.199-4.227-2.329-4.024-4.757c0.206-2.424,2.264-4.276,4.766-4.021
	c8.337,0.7,17.174,1.333,26.27,1.885c2.431,0.146,4.281,2.234,4.136,4.672C261.363,422.199,259.425,424.003,257.109,424.003z"/>
</svg>
