<?xml version="1.0" encoding="utf-8"?>
<!-- Generator: Adobe Illustrator 16.0.0, SVG Export Plug-In . SVG Version: 6.00 Build 0)  -->
<!DOCTYPE svg PUBLIC "-//W3C//DTD SVG 1.1//EN" "http://www.w3.org/Graphics/SVG/1.1/DTD/svg11.dtd">
<svg version="1.1" id="path" xmlns="http://www.w3.org/2000/svg" xmlns:xlink="http://www.w3.org/1999/xlink" x="0px" y="0px"
	 width="381.89px" height="381.89px" viewBox="-141.145 -140.885 381.89 381.89"
	 enable-background="new -141.145 -140.885 381.89 381.89" xml:space="preserve">
<path d="M36.341,236.936c-0.088,0-0.167-0.005-0.252-0.009c-8.449-0.512-16.669-1.1-24.431-1.759
	c-2.236-0.184-3.901-2.148-3.713-4.389c0.188-2.236,2.091-3.945,4.397-3.711c7.696,0.647,15.851,1.231,24.238,1.739
	c2.242,0.136,3.95,2.062,3.815,4.311C40.266,235.271,38.472,236.936,36.341,236.936z M-12.271,232.784
	c-0.159,0-0.314-0.008-0.473-0.031c-8.602-0.985-16.79-2.098-24.343-3.293c-2.216-0.35-3.734-2.436-3.384-4.651
	c0.354-2.217,2.469-3.75,4.654-3.385c7.439,1.176,15.514,2.272,24.001,3.25c2.234,0.254,3.832,2.271,3.577,4.5
	C-8.475,231.251-10.233,232.784-12.271,232.784z M-60.41,225.007c-0.293,0-0.594-0.032-0.896-0.1
	c-8.981-2.01-17.031-4.25-23.928-6.657c-2.12-0.742-3.242-3.059-2.503-5.18c0.741-2.121,3.064-3.245,5.178-2.499
	c6.61,2.3,14.355,4.457,23.035,6.399c2.192,0.489,3.571,2.666,3.08,4.858C-56.871,223.721-58.551,225.007-60.41,225.007z
	 M-105.715,207.808c-0.838,0-1.684-0.255-2.411-0.795c-7.61-5.616-11.472-11.956-11.472-18.844c0-2.125,0.387-4.294,1.144-6.427
	c0.757-2.117,3.071-3.219,5.194-2.472c2.119,0.756,3.221,3.079,2.469,5.196c-0.447,1.259-0.675,2.502-0.675,3.702
	c0,4.163,2.747,8.303,8.165,12.298c1.805,1.335,2.192,3.881,0.858,5.688C-103.238,207.235-104.466,207.808-105.715,207.808z
	 M-98.077,169.806c-1.354,0-2.675-0.672-3.448-1.903c-1.197-1.906-0.624-4.416,1.277-5.608c6.393-4.02,14.304-7.737,22.876-10.761
	c2.115-0.738,4.437,0.369,5.186,2.487c0.745,2.116-0.368,4.44-2.485,5.183c-8.014,2.82-15.36,6.268-21.249,9.971
	C-96.586,169.604-97.34,169.806-98.077,169.806z M-52.414,153.294c-1.945,0-3.66-1.399-4.001-3.377
	c-0.383-2.217,1.102-4.322,3.314-4.699c8.826-1.529,17.307-2.169,25.142-1.887c2.244,0.074,4.002,1.954,3.924,4.203
	c-0.077,2.24-1.891,4.114-4.204,3.924c-7.282-0.23-15.198,0.346-23.476,1.775C-51.949,153.277-52.182,153.294-52.414,153.294z
	 M-3.708,151.505c-2.205,0-4.015-1.58-4.064-3.789c-0.054-2.248,1.724-4.023,3.974-4.075c8.445-0.198,16.477-0.739,23.881-1.709
	c2.209-0.289,4.266,1.296,4.564,3.528c0.292,2.225-1.279,4.099-3.507,4.389c-7.692,1.014-16.018,1.656-24.754,1.656
	C-3.643,151.505-3.677,151.505-3.708,151.505z M44.458,145.134c-1.752,0-3.367-1.144-3.897-2.907
	c-0.641-2.152,0.582-4.417,2.735-5.061c8.081-2.415,15.273-5.518,21.37-9.228c1.923-1.164,4.422-0.552,5.589,1.363
	c1.169,1.922,0.557,4.42-1.362,5.588c-6.697,4.068-14.521,7.456-23.271,10.069C45.234,145.074,44.846,145.134,44.458,145.134z
	 M84.81,119.319c-0.835,0-1.676-0.259-2.403-0.783c-1.812-1.334-2.201-3.877-0.873-5.688c4.432-6.042,7.407-12.958,8.85-20.561
	c0.417-2.208,2.55-3.643,4.75-3.241c2.209,0.421,3.654,2.55,3.242,4.751c-1.665,8.81-5.125,16.834-10.281,23.865
	C87.3,118.743,86.061,119.319,84.81,119.319z M94.383,72.828c-1.946,0-3.674-1.41-4.009-3.396c-1.243-7.433-3.583-14.9-6.951-22.201
	c-0.937-2.04-0.048-4.458,1.994-5.398c2.05-0.943,4.457-0.045,5.396,1.988c3.67,7.956,6.22,16.121,7.586,24.268
	c0.369,2.217-1.121,4.31-3.34,4.68C94.832,72.809,94.601,72.828,94.383,72.828z M-68.758,61.439c-5.348,0-10.29-0.85-14.691-2.526
	c-2.099-0.802-3.152-3.153-2.352-5.251c0.798-2.105,3.158-3.158,5.251-2.352c5.951,2.272,13.281,2.586,21.867,0.985
	c2.216-0.43,4.332,1.04,4.747,3.25c0.415,2.207-1.04,4.329-3.249,4.746C-61.256,61.059-65.145,61.439-68.758,61.439z
	 M206.243,69.182c-0.342,0.017-0.695-0.012-1.04-0.079c-2.201-0.465-3.607-2.621-3.15-4.818c0.997-4.731,1.898-9.287,2.721-13.699
	c0.41-2.209,2.539-3.667,4.743-3.256c2.204,0.41,3.667,2.536,3.253,4.745c-0.83,4.465-1.743,9.093-2.757,13.879
	C209.627,67.808,208.039,69.095,206.243,69.182z M215.844,0.048c-0.313,0.135-0.656,0.232-1,0.29
	c-2.225,0.335-4.299-1.192-4.641-3.411c-0.723-4.778-1.474-9.362-2.252-13.781c-0.389-2.214,1.093-4.326,3.301-4.713
	c2.209-0.389,4.321,1.09,4.711,3.305c0.787,4.472,1.554,9.126,2.28,13.964C218.533-2.425,217.496-0.663,215.844,0.048z
	 M-34.682,53.039c-1.595,0-3.108-0.942-3.759-2.511c-0.858-2.074,0.121-4.452,2.2-5.315c6.276-2.608,13.204-5.871,21.79-10.28
	c1.997-1.033,4.45-0.235,5.475,1.762c1.025,1.998,0.236,4.451-1.762,5.476c-8.791,4.511-15.904,7.861-22.387,10.555
	C-33.637,52.939-34.166,53.039-34.682,53.039z M-99.56,42.979c-1.375,0-2.717-0.696-3.481-1.96
	c-4.308-7.11-7.75-14.92-10.231-23.213c-0.643-2.151,0.578-4.417,2.729-5.064c2.149-0.638,4.417,0.578,5.065,2.73
	c2.285,7.631,5.446,14.811,9.396,21.329c1.164,1.924,0.548,4.422-1.37,5.589C-98.116,42.789-98.845,42.979-99.56,42.979z
	 M9.022,31.237c-1.46,0-2.876-0.791-3.604-2.173c-1.046-1.987-0.282-4.449,1.704-5.496c7.289-3.835,15.029-7.806,22.258-10.868
	c2.07-0.874,4.453,0.089,5.331,2.161c0.875,2.066-0.09,4.453-2.159,5.331c-6.948,2.945-14.508,6.822-21.642,10.576
	C10.307,31.086,9.662,31.237,9.022,31.237z M74.16,28.987c-1.152,0-2.296-0.489-3.099-1.436
	c-6.006-7.061-12.267-11.555-17.176-12.328c-2.217-0.349-3.731-2.433-3.386-4.649c0.346-2.22,2.433-3.737,4.652-3.388
	c6.9,1.086,14.758,6.447,22.105,15.094c1.459,1.712,1.248,4.281-0.46,5.736C76.027,28.669,75.098,28.987,74.16,28.987z
	 M213.048,39.585c-0.241,0.012-0.484,0.004-0.735-0.03c-2.229-0.293-3.792-2.333-3.499-4.564c1.132-8.6,1.887-16.657,2.253-23.958
	c0.114-2.242,1.994-3.986,4.261-3.861c2.245,0.111,3.977,2.018,3.866,4.263c-0.377,7.521-1.156,15.799-2.316,24.621
	C216.619,38.034,214.975,39.492,213.048,39.585z M194.351,149.337c-0.242,0-0.483-0.024-0.731-0.068
	c-2.212-0.4-3.678-2.514-3.271-4.73c1.548-8.532,2.691-16.544,3.414-23.817c0.224-2.231,2.186-3.885,4.446-3.65
	c2.236,0.219,3.872,2.213,3.65,4.445c-0.743,7.495-1.923,15.726-3.511,24.48C197.992,147.962,196.281,149.337,194.351,149.337z
	 M-113.73-3.255c-2.111,0-3.893-1.629-4.052-3.764c-0.244-3.226-0.367-6.548-0.367-9.872c0-4.999,0.277-10.128,0.826-15.233
	c0.241-2.236,2.262-3.835,4.479-3.613c2.232,0.24,3.851,2.246,3.612,4.479c-0.517,4.821-0.779,9.657-0.779,14.367
	c0,3.125,0.116,6.239,0.342,9.266c0.172,2.24-1.512,4.195-3.75,4.361C-113.528-3.259-113.629-3.255-113.73-3.255z M209.66-27.466
	c-2.162,0-3.961-0.985-4.061-3.16c-0.425-8.884-1.826-16.133-4.166-22.258c-0.803-2.1,0.25-4.271,2.34-5.077
	c2.104-0.797,4.447,0.333,5.251,2.437c2.652,6.932,4.233,14.725,4.702,24.467c0.104,2.24-1.627,3.591-3.876,3.591
	C209.787-27.466,209.724-27.466,209.66-27.466z M-108.711-51.587c-0.354,0-0.718-0.048-1.079-0.145
	c-2.167-0.597-3.442-2.833-2.846-5c2.208-8.065,5.055-15.99,8.455-23.551c0.923-2.051,3.329-2.957,5.378-2.043
	c2.05,0.925,2.965,3.333,2.042,5.378c-3.229,7.18-5.93,14.701-8.03,22.364C-105.288-52.775-106.922-51.587-108.711-51.587z
	 M202.978,76.57c2.087,0.298,3.623,2.161,3.477,4.302c-0.22,3.226-0.567,6.535-1.041,9.819c-0.712,4.949-1.712,9.985-2.982,14.967
	c-0.553,2.173-2.786,3.472-4.946,2.936c-2.173-0.557-3.49-2.768-2.939-4.94c1.196-4.704,2.141-9.455,2.812-14.118
	c0.445-3.09,0.774-6.188,0.978-9.22c0.151-2.24,2.093-3.937,4.333-3.784C202.775,76.546,202.875,76.555,202.978,76.57z
	 M83.534-65.738c-2.888,0-5.644-0.125-8.194-0.377c-2.022-0.199-3.992-0.46-5.923-0.776c-2.216-0.368-3.718-2.461-3.349-4.678
	c0.37-2.217,2.42-3.706,4.676-3.352c1.752,0.29,3.551,0.523,5.394,0.707c5.085,0.5,10.925,0.453,17.907-0.167
	c2.205-0.171,4.215,1.457,4.408,3.693c0.199,2.237-1.449,4.215-3.693,4.41C90.677-65.917,86.998-65.738,83.534-65.738z
	 M190.348-68.634c-0.729,0-1.451-0.19-2.117-0.593c-5.526-3.367-12.529-5.21-21.396-5.628c-2.243-0.105-3.983-2.014-3.872-4.256
	c0.103-2.245,2.129-3.957,4.254-3.871c10.269,0.486,18.529,2.713,25.247,6.808c1.919,1.172,2.526,3.672,1.354,5.593
	C193.055-69.324,191.713-68.634,190.348-68.634z M118.578-69.604c-1.956,0-3.672-1.408-4.006-3.396
	c-0.373-2.215,1.125-4.312,3.337-4.682l4.172-0.701c6.617-1.114,13.462-2.27,20.079-3.14c2.284-0.294,4.27,1.273,4.563,3.498
	c0.294,2.23-1.271,4.271-3.495,4.563c-6.479,0.854-13.243,1.995-19.79,3.101l-4.183,0.703
	C119.022-69.627,118.799-69.604,118.578-69.604z M46.984-74.335c-0.614,0-1.235-0.139-1.821-0.431
	c-7.148-3.597-13.988-8.282-20.916-14.321c-1.692-1.478-1.867-4.048-0.391-5.74c1.481-1.692,4.047-1.867,5.74-0.392
	c6.403,5.589,12.691,9.901,19.219,13.184c2.009,1.013,2.813,3.458,1.806,5.462C49.91-75.158,48.474-74.335,46.984-74.335z
	 M-88.664-95.876c-0.781,0-1.573-0.225-2.268-0.697c-1.863-1.255-2.356-3.786-1.099-5.645c4.97-7.366,10.425-13.883,16.212-19.36
	c1.63-1.542,4.207-1.474,5.752,0.157c1.545,1.63,1.472,4.207-0.159,5.752c-5.356,5.076-10.425,11.132-15.062,18.004
	C-86.072-96.508-87.357-95.876-88.664-95.876z M194.406,155.986c1.848,1.024,2.609,3.317,1.708,5.259
	c-1.358,2.939-2.868,5.898-4.488,8.803c-2.431,4.369-5.175,8.711-8.14,12.901c-1.291,1.84-3.845,2.248-5.672,0.978
	c-1.832-1.3-2.269-3.837-0.973-5.673c2.8-3.96,5.383-8.055,7.678-12.167c1.518-2.732,2.936-5.509,4.215-8.266
	c0.937-2.037,3.36-2.924,5.397-1.981C194.224,155.891,194.319,155.935,194.406,155.986z M166.489,195.76
	c0.311,0.171,0.604,0.39,0.874,0.651c1.602,1.573,1.621,4.151,0.047,5.752c-5.854,5.97-12.193,11.504-18.847,16.452
	c-1.808,1.343-4.35,0.966-5.692-0.834c-1.343-1.803-0.97-4.354,0.834-5.692c6.315-4.694,12.334-9.95,17.902-15.622
	C162.919,195.129,164.929,194.89,166.489,195.76z M127.415,224.685c0.68,0.382,1.268,0.958,1.637,1.717
	c1.021,2.002,0.219,4.445-1.783,5.458c-7.929,4.02-15.869,7.054-23.587,9.017c-2.178,0.557-4.395-0.759-4.949-2.936
	c-0.553-2.177,0.762-4.394,2.939-4.944c7.153-1.829,14.53-4.648,21.922-8.395C124.842,223.971,126.275,224.046,127.415,224.685z
	 M9.697-105.366c-1.103,0-2.197-0.443-2.998-1.314l-1.37-1.496c-5.32-5.797-10.343-11.273-15.388-15.503
	c-1.72-1.442-1.948-4.01-0.504-5.73c1.444-1.72,4.016-1.948,5.732-0.504c5.446,4.572,10.647,10.238,16.151,16.232l1.366,1.49
	c1.521,1.656,1.413,4.227-0.242,5.747C11.666-105.726,10.683-105.366,9.697-105.366z M-53.031-128.352
	c-1.55,0-3.035-0.896-3.714-2.401c-0.923-2.049-0.008-4.458,2.042-5.376c7.021-3.158,14.131-4.755,21.14-4.755
	c1.406,0.113,3.114,0.08,4.673,0.238c2.236,0.229,3.859,2.227,3.633,4.458c-0.229,2.233-2.219,3.653-4.459,3.401
	c-1.281-0.138-2.558-0.435-3.835-0.435c-0.004,0-0.008,0-0.012,0c-5.849,0-11.837,1.595-17.799,4.274
	C-51.909-128.708-52.474-128.352-53.031-128.352z M85.146,241.003c-0.083,0-0.166-0.004-0.246-0.008
	c-8.453-0.513-16.67-1.101-24.433-1.76c-2.24-0.183-3.901-2.148-3.714-4.389c0.19-2.236,2.09-3.945,4.397-3.71
	c7.693,0.646,15.846,1.23,24.238,1.739c2.244,0.135,3.952,2.062,3.817,4.31C89.072,239.339,87.284,241.003,85.146,241.003z"/>
</svg>
