<?xml version="1.0" encoding="utf-8"?>
<!-- Generator: Adobe Illustrator 16.0.0, SVG Export Plug-In . SVG Version: 6.00 Build 0)  -->
<!DOCTYPE svg PUBLIC "-//W3C//DTD SVG 1.1//EN" "http://www.w3.org/Graphics/SVG/1.1/DTD/svg11.dtd">
<svg version="1.1" id="Layer_1" xmlns="http://www.w3.org/2000/svg" xmlns:xlink="http://www.w3.org/1999/xlink" x="0px" y="0px"
	 width="7px" height="7px" viewBox="0 0 7 7" enable-background="new 0 0 7 7" xml:space="preserve">
<path d="M6.102,3.511C5.91,3.312,5.594,3.304,5.395,3.496L4,4.829V1c0-0.276-0.225-0.5-0.5-0.5C3.223,0.5,3,0.724,3,1v3.829
	L1.605,3.496C1.407,3.305,1.09,3.312,0.898,3.511c-0.191,0.2-0.184,0.516,0.016,0.707l2.24,2.144
	c0.021,0.021,0.048,0.03,0.071,0.046c0.028,0.019,0.054,0.042,0.085,0.055C3.371,6.486,3.435,6.5,3.5,6.5
	c0.064,0,0.128-0.014,0.188-0.038c0.035-0.015,0.063-0.038,0.094-0.06C3.802,6.388,3.826,6.38,3.845,6.361l0.007-0.007
	c0.001-0.001,0.002-0.001,0.002-0.002l2.232-2.134C6.285,4.027,6.292,3.711,6.102,3.511z"/>
</svg>
