<?xml version="1.0" encoding="utf-8"?>
<!-- Generator: Adobe Illustrator 16.0.0, SVG Export Plug-In . SVG Version: 6.00 Build 0)  -->
<!DOCTYPE svg PUBLIC "-//W3C//DTD SVG 1.1//EN" "http://www.w3.org/Graphics/SVG/1.1/DTD/svg11.dtd">
<svg version="1.1" id="Layer_1" xmlns="http://www.w3.org/2000/svg" xmlns:xlink="http://www.w3.org/1999/xlink" x="0px" y="0px"
	 width="7px" height="7px" viewBox="0 0 7 7" enable-background="new 0 0 7 7" xml:space="preserve">
<path d="M0.898,3.489C1.09,3.688,1.406,3.696,1.605,3.504L3,2.171V6c0,0.275,0.225,0.5,0.5,0.5C3.777,6.5,4,6.275,4,6V2.171
	l1.395,1.333C5.593,3.695,5.91,3.688,6.102,3.489c0.191-0.2,0.185-0.517-0.016-0.707l-2.24-2.144
	C3.825,0.617,3.798,0.607,3.775,0.592C3.747,0.573,3.721,0.55,3.69,0.537C3.629,0.514,3.565,0.5,3.5,0.5
	c-0.064,0-0.128,0.014-0.188,0.038c-0.035,0.015-0.063,0.038-0.094,0.06C3.198,0.611,3.174,0.62,3.155,0.639L3.148,0.646
	c-0.001,0-0.002,0-0.002,0.002L0.914,2.782C0.715,2.973,0.708,3.289,0.898,3.489z"/>
</svg>
