<?xml version="1.0" encoding="utf-8"?>
<!-- Generator: Adobe Illustrator 16.0.0, SVG Export Plug-In . SVG Version: 6.00 Build 0)  -->
<!DOCTYPE svg PUBLIC "-//W3C//DTD SVG 1.1//EN" "http://www.w3.org/Graphics/SVG/1.1/DTD/svg11.dtd">
<svg version="1.1" id="Layer_1" xmlns="http://www.w3.org/2000/svg" xmlns:xlink="http://www.w3.org/1999/xlink" x="0px" y="0px"
	 width="35px" height="35px" viewBox="0 0 35 35" enable-background="new 0 0 35 35" xml:space="preserve">
<g>
	<path d="M14.435,4.131l-1.283-1.393l-0.009-0.01C12.074,1.549,10.58,0.9,8.934,0.9H3.909C2.278,0.9,0.9,2.31,0.9,3.979v29.57
		c0,0.16,0.052,0.297,0.149,0.396C1.149,34.046,1.284,34.1,1.441,34.1c0.157,0,0.292-0.054,0.391-0.154
		c0.098-0.1,0.15-0.236,0.15-0.396V3.979c0-1.127,0.829-1.977,1.928-1.977h5.025c1.299,0,2.493,0.521,3.453,1.503l1.286,1.396
		c0.104,0.106,0.239,0.166,0.38,0.166c0.141,0,0.275-0.059,0.38-0.166C14.647,4.682,14.648,4.35,14.435,4.131z"/>
	<g>
		<path d="M29.191,5.615c-0.385-0.885-1.144-1.414-2.031-1.414H16.317c-1.201,0-2.215,1.038-2.215,2.266V17.48
			c0,0.898,0.505,1.669,1.354,2.064l0.001,0.009l0.039,0.009c0.251,0.087,0.536,0.185,0.821,0.185c0.622,0,1.15-0.237,1.484-0.663
			L28.73,8.072C29.382,7.405,29.559,6.463,29.191,5.615z M27.882,7.3L17.039,18.404c-0.286,0.292-0.581,0.353-0.778,0.353
			c-0.15,0-0.298-0.035-0.428-0.102c-0.243-0.125-0.651-0.432-0.651-1.084V6.467c0-0.486,0.26-0.896,0.678-1.074h11.212
			c0.636,0,0.935,0.417,1.057,0.667C28.284,6.379,28.3,6.872,27.882,7.3z"/>
		<path d="M26.997,17.598c0.057,0.009,0.111,0.009,0.145,0.009h0.002c0.066,0,0.167,0,0.26-0.093c0.168-0.168,0.168-0.421,0-0.589
			L26,15.517c-0.163-0.163-0.429-0.162-0.588,0c-0.168,0.168-0.168,0.421,0,0.589l1.404,1.408
			C26.859,17.557,26.921,17.585,26.997,17.598z"/>
		<path d="M29.768,19.296c-0.163-0.163-0.429-0.161-0.588,0c-0.168,0.168-0.168,0.421,0,0.589l1.404,1.408
			c0.043,0.043,0.104,0.071,0.182,0.085c0.056,0.008,0.11,0.008,0.144,0.008h0.002c0.066,0,0.167,0,0.26-0.093
			c0.168-0.168,0.168-0.421,0-0.589L29.768,19.296z"/>
	</g>
	<path d="M29.804,14.658c0.057,0.01,0.111,0.01,0.145,0.01h0.002c0.066,0,0.167,0,0.26-0.094c0.168-0.168,0.168-0.421,0-0.589
		l-1.403-1.408c-0.163-0.163-0.429-0.162-0.588,0c-0.168,0.168-0.168,0.421,0,0.589l1.404,1.408
		C29.666,14.617,29.728,14.646,29.804,14.658z"/>
	<path d="M33.567,18.431c0.057,0.01,0.111,0.01,0.145,0.01h0.002c0.066,0,0.167,0,0.26-0.094c0.168-0.168,0.168-0.422,0-0.589
		l-1.403-1.408c-0.163-0.163-0.429-0.162-0.588,0c-0.168,0.168-0.168,0.421,0,0.589l1.404,1.409
		C33.43,18.39,33.491,18.419,33.567,18.431z"/>
	<path d="M24.062,20.416c0.057,0.01,0.111,0.01,0.145,0.01h0.002c0.066,0,0.167,0,0.26-0.094c0.168-0.168,0.168-0.422,0-0.59
		l-1.403-1.408c-0.163-0.162-0.429-0.162-0.588,0c-0.168,0.168-0.168,0.422,0,0.59l1.404,1.408
		C23.924,20.375,23.985,20.404,24.062,20.416z"/>
	<path d="M27.827,24.191c0.057,0.01,0.111,0.01,0.145,0.01h0.002c0.066,0,0.167,0,0.26-0.094c0.168-0.168,0.168-0.422,0-0.59
		l-1.403-1.408c-0.163-0.162-0.429-0.162-0.588,0c-0.168,0.168-0.168,0.422,0,0.59l1.404,1.408
		C27.689,24.15,27.751,24.18,27.827,24.191z"/>
</g>
</svg>
