<?xml version="1.0" encoding="utf-8"?>
<!-- Generator: Adobe Illustrator 16.0.0, SVG Export Plug-In . SVG Version: 6.00 Build 0)  -->
<!DOCTYPE svg PUBLIC "-//W3C//DTD SVG 1.1//EN" "http://www.w3.org/Graphics/SVG/1.1/DTD/svg11.dtd">
<svg version="1.1" id="Layer_1" xmlns="http://www.w3.org/2000/svg" xmlns:xlink="http://www.w3.org/1999/xlink" x="0px" y="0px"
	 width="44px" height="44px" viewBox="0 0 44 44" enable-background="new 0 0 44 44" xml:space="preserve">
<g>
	<path d="M9.372,2c-1.354,0-2.653,0.576-3.61,1.602C4.805,4.628,4.266,6.018,4.266,7.468v21.134H1.46
		c-0.122,0-0.239,0.051-0.325,0.145C1.049,28.839,1,28.963,1,29.094s0.048,0.256,0.135,0.348c0.086,0.094,0.203,0.146,0.325,0.146
		h2.806c0.107,3.333,1.419,6.49,3.66,8.808c2.24,2.315,5.232,3.608,8.347,3.606h11.776c3.113,0.002,6.105-1.291,8.346-3.606
		c2.241-2.316,3.554-5.475,3.66-8.808H42.4c0.121,0,0.238-0.052,0.324-0.146c0.088-0.092,0.135-0.217,0.135-0.348
		s-0.047-0.256-0.135-0.349c-0.086-0.093-0.203-0.144-0.324-0.144H5.186V7.468c0-1.188,0.441-2.329,1.226-3.169
		c0.785-0.841,1.85-1.313,2.96-1.313s2.175,0.472,2.96,1.313c0.785,0.84,1.226,1.981,1.226,3.169v1.823
		c-1.196,0.051-2.326,0.6-3.15,1.528c-0.825,0.929-1.279,2.166-1.266,3.447c0,0.13,0.048,0.256,0.135,0.348
		c0.087,0.092,0.203,0.145,0.325,0.145h8.832c0.126-0.013,0.244-0.075,0.329-0.175c0.085-0.1,0.132-0.231,0.131-0.367
		c0.001-1.273-0.458-2.497-1.281-3.416c-0.824-0.918-1.947-1.459-3.135-1.511V7.468c0-1.45-0.538-2.841-1.496-3.866
		C12.025,2.576,10.727,2,9.372,2z M28.049,41.016H16.272c-2.87,0.002-5.629-1.188-7.696-3.32c-2.068-2.131-3.283-5.037-3.39-8.108
		h33.949c-0.107,3.071-1.322,5.979-3.391,8.108C33.677,39.827,30.918,41.018,28.049,41.016z M17.974,13.773h-7.866
		c0.102-0.958,0.527-1.843,1.197-2.488c0.67-0.645,1.537-1.004,2.438-1.01h0.552c0.909-0.006,1.787,0.348,2.466,0.993
		C17.439,11.915,17.872,12.807,17.974,13.773z"/>
	<path d="M14.476,18.357h-0.92v3.68h0.92V18.357z"/>
	<path d="M18.664,18.357h-0.92v3.68h0.92V18.357z"/>
	<path d="M10.29,18.357H9.37v3.68h0.92V18.357z"/>
</g>
</svg>
