<?xml version="1.0" encoding="utf-8"?>
<!-- Generator: Adobe Illustrator 16.0.0, SVG Export Plug-In . SVG Version: 6.00 Build 0)  -->
<!DOCTYPE svg PUBLIC "-//W3C//DTD SVG 1.1//EN" "http://www.w3.org/Graphics/SVG/1.1/DTD/svg11.dtd">
<svg version="1.1" id="Your_Icon" xmlns="http://www.w3.org/2000/svg" xmlns:xlink="http://www.w3.org/1999/xlink" x="0px" y="0px"
	 width="100px" height="100px" viewBox="0 0 100 100" enable-background="new 0 0 100 100" xml:space="preserve">
<path d="M99.402,38.469c0,1.726-1.398,3.126-3.125,3.126H3.985c-1.726,0-3.125-1.4-3.125-3.126v-0.002
	c0-1.728,1.399-3.127,3.125-3.127h92.292c1.727,0,3.125,1.399,3.125,3.127V38.469z"/>
<path d="M9.779,44.098c0,0,4.146,24.728,24.73,24.728h33.423c20.585,0,24.729-24.728,24.729-24.728H9.779z"/>
<path fill="#FFFFFF" d="M18.083,48.93h-3.321c0,0,2.668,15.859,15.507,17.359C21.441,62.322,18.632,51.493,18.083,48.93z"/>
<path d="M32.425,70.91c-4.304,0-7.888-1.084-10.869-2.797l-2.602,6.23c0,0-2.162,4.316,5.021,1.023l8.816-4.457H32.425z"/>
<path d="M70.033,70.91c4.306,0,7.889-1.084,10.869-2.797l2.604,6.23c0,0,2.159,4.316-5.021,1.023l-8.82-4.457H70.033z"/>
<path d="M7.299,31.673h5.844c0,0,0.38-7.246,4.616-7.246c0,0,2.28,0.03,3.77,3.185l2.12-2.118c0,0-2.967-3.229-5.685-3.229
	C15.246,22.264,7.913,28.605,7.299,31.673z"/>
</svg>
