<?xml version="1.0" encoding="utf-8"?>
<!-- Generator: Adobe Illustrator 16.0.0, SVG Export Plug-In . SVG Version: 6.00 Build 0)  -->
<!DOCTYPE svg PUBLIC "-//W3C//DTD SVG 1.1//EN" "http://www.w3.org/Graphics/SVG/1.1/DTD/svg11.dtd">
<svg version="1.1" id="Layer_1" xmlns="http://www.w3.org/2000/svg" xmlns:xlink="http://www.w3.org/1999/xlink" x="0px" y="0px"
	 width="44px" height="44px" viewBox="0 0 44 44" enable-background="new 0 0 44 44" xml:space="preserve">
<path d="M40.053,7.333C36.633,3.819,30.555,2.025,21.989,2c-0.005,0-0.011,0-0.017,0h-0.166c-0.006,0-0.012,0-0.018,0
	C13.224,2.025,7.146,3.819,3.726,7.333c-2.924,3.003-2.729,6.13-2.72,6.227V41.5c0,0.275,0.234,0.5,0.522,0.5
	c0.288,0,0.522-0.225,0.522-0.5v-6.1h39.679v6.1c0,0.275,0.234,0.5,0.521,0.5c0.289,0,0.523-0.225,0.523-0.5l-0.002-27.905
	C42.781,13.463,42.977,10.335,40.053,7.333z M2.049,23.297c0.657-0.222,4.722-1.526,11.15-2.207
	c6.449-0.683,16.625-0.848,28.529,2.219v5.504H2.049V23.297z M19.402,19.717C13.85,19.848,9.346,20.533,6.255,21.18v-5.042
	c0-0.694,0.59-1.258,1.315-1.258h10.517c0.725,0,1.315,0.564,1.315,1.258V19.717z M37.523,21.32
	c-4.719-0.946-9.138-1.415-13.146-1.568v-3.616c0-0.694,0.59-1.258,1.314-1.258h10.517c0.726,0,1.315,0.564,1.315,1.258V21.32z
	 M4.513,7.991C7.702,4.737,13.709,3.012,21.889,3c8.181,0.012,14.188,1.737,17.376,4.991c2.623,2.677,2.467,5.506,2.463,5.568v8.718
	c-1.067-0.271-2.121-0.515-3.162-0.738v-5.402c0-1.245-1.058-2.258-2.358-2.258H25.691c-1.301,0-2.359,1.013-2.359,2.258v3.586
	c-0.988-0.025-1.952-0.033-2.885-0.023v-3.562c0-1.245-1.059-2.258-2.36-2.258H7.57c-1.301,0-2.359,1.013-2.359,2.258v5.271
	c-1.516,0.346-2.595,0.658-3.162,0.834v-8.718C2.047,13.497,1.889,10.668,4.513,7.991z M2.05,34.402v-4.592h39.679v4.592H2.05z"/>
</svg>
