<?xml version="1.0" encoding="utf-8"?>
<!-- Generator: Adobe Illustrator 16.0.0, SVG Export Plug-In . SVG Version: 6.00 Build 0)  -->
<!DOCTYPE svg PUBLIC "-//W3C//DTD SVG 1.1//EN" "http://www.w3.org/Graphics/SVG/1.1/DTD/svg11.dtd">
<svg version="1.1" id="Layer_1" xmlns="http://www.w3.org/2000/svg" xmlns:xlink="http://www.w3.org/1999/xlink" x="0px" y="0px"
	 width="18.008px" height="18.105px" viewBox="0 0 18.008 18.105" enable-background="new 0 0 18.008 18.105" xml:space="preserve">
<path id="XMLID_60_" fill="#818282" d="M17.607,3.293h-1.27c-0.107,0-0.215,0.06-0.275,0.156H15.63c-0.107,0-0.191,0.06-0.215,0.167
	l-0.455,2.06h-0.322c-0.096-1.581-1.461-2.85-3.09-2.85c-0.539,0-1.053,0.131-1.531,0.383C9.453,2.287,8.471,1.725,7.37,1.725
	c-1.377,0-2.586,0.898-2.969,2.215C4.125,3.808,3.813,3.748,3.502,3.748c-1.114,0-2.048,0.862-2.155,1.952H0.856
	c-0.06,0-0.132,0.048-0.168,0.084c-0.048,0.06-0.048,0.131-0.023,0.191L1.91,9.566c-1.113,0.637-1.892,1.822-1.892,3.199
	c0,1.975,1.616,3.615,3.616,3.615c2,0,3.616-1.641,3.616-3.615c0-0.156-0.024-0.275-0.024-0.432l2.646-0.49l2.885,4.082
	c0.049,0.061,0.107,0.084,0.168,0.084c0.023,0,0.023,0,0.049,0c0.084-0.023,0.154-0.084,0.166-0.168L15.812,3.88h0.262
	c0.061,0.083,0.168,0.155,0.275,0.155h1.27c0.191,0,0.371-0.167,0.371-0.371S17.81,3.293,17.607,3.293z M3.526,4.179
	c0.323,0,0.646,0.083,0.922,0.275C4.508,4.503,4.58,4.503,4.64,4.479C4.7,4.455,4.748,4.395,4.771,4.323
	c0.24-1.246,1.353-2.155,2.598-2.155c1.006,0,1.917,0.563,2.372,1.461c0.023,0.06,0.082,0.083,0.131,0.107
	c0.061,0.024,0.131,0,0.168-0.024c0.43-0.299,0.945-0.455,1.484-0.455c1.4,0,2.537,1.078,2.646,2.455H1.802
	C1.91,4.85,2.641,4.179,3.526,4.179z M3.634,15.926c-1.749,0-3.186-1.424-3.186-3.16c0-1.75,1.425-3.186,3.186-3.186
	c1.485,0,2.729,1.031,3.077,2.406l-1.592,0.275c-0.216-0.621-0.791-1.078-1.485-1.078c-0.862,0-1.569,0.707-1.569,1.57
	c0,0.861,0.707,1.566,1.569,1.566c0.862,0,1.568-0.705,1.568-1.566c0-0.025,0-0.049,0-0.061l1.593-0.275
	c0.023,0.107,0.023,0.24,0.023,0.348C6.819,14.502,5.37,15.926,3.634,15.926z M3.634,12.98c0.024,0,0.024,0,0.048,0l1.101-0.191
	c0,0.623-0.515,1.137-1.137,1.137s-1.138-0.514-1.138-1.137s0.515-1.137,1.138-1.137c0.479,0,0.898,0.299,1.054,0.729l-1.102,0.168
	c-0.108,0.025-0.192,0.133-0.167,0.264C3.442,12.896,3.526,12.98,3.634,12.98z M12.841,15.279l-2.502-3.533l3.436-0.621
	L12.841,15.279z M13.871,10.681l-6.752,1.221C6.735,10.334,5.311,9.148,3.61,9.148c-0.479,0-0.922,0.084-1.329,0.264L1.156,6.143
	h13.709L13.871,10.681z"/>
</svg>
