<?xml version="1.0" encoding="utf-8"?>
<!-- Generator: Adobe Illustrator 16.0.0, SVG Export Plug-In . SVG Version: 6.00 Build 0)  -->
<!DOCTYPE svg PUBLIC "-//W3C//DTD SVG 1.1//EN" "http://www.w3.org/Graphics/SVG/1.1/DTD/svg11.dtd">
<svg version="1.1" id="Layer_1" xmlns="http://www.w3.org/2000/svg" xmlns:xlink="http://www.w3.org/1999/xlink" x="0px" y="0px"
	 width="22px" height="22px" viewBox="0 0 22 22" enable-background="new 0 0 22 22" xml:space="preserve">
<g>
	<path d="M7.724,11.503c0.363,0,0.657-0.31,0.657-0.693s-0.294-0.693-0.657-0.693s-0.657,0.31-0.657,0.693S7.36,11.503,7.724,11.503
		z"/>
	<path d="M16.9,3.432c-0.081-1.241-1.035-2.275-2.22-2.404c-2.556-0.279-5.183-0.279-7.735,0C5.762,1.157,4.807,2.19,4.726,3.436
		c-0.295,5.02-0.295,10.11,0,15.134c0.082,1.241,1.036,2.274,2.22,2.403c1.277,0.14,2.579,0.211,3.868,0.211
		c1.288,0,2.59-0.071,3.866-0.211c1.186-0.129,2.14-1.162,2.221-2.407C17.195,13.546,17.195,8.456,16.9,3.432z M7.054,2.022
		c1.242-0.136,2.506-0.205,3.759-0.205c1.252,0,2.517,0.069,3.758,0.205c0.709,0.077,1.281,0.711,1.331,1.472
		c0.068,1.172,0.118,2.348,0.154,3.525H5.569c0.036-1.177,0.086-2.352,0.155-3.522C5.773,2.733,6.346,2.099,7.054,2.022z
		 M15.902,18.504c-0.05,0.764-0.622,1.397-1.331,1.475c-2.483,0.272-5.034,0.272-7.517,0c-0.708-0.077-1.28-0.711-1.331-1.472
		C5.519,15.029,5.466,11.518,5.547,8.02h10.531C16.159,11.518,16.106,15.028,15.902,18.504z"/>
	<path d="M10.813,11.503c0.363,0,0.657-0.31,0.657-0.693s-0.294-0.693-0.657-0.693c-0.362,0-0.657,0.31-0.657,0.693
		S10.451,11.503,10.813,11.503z"/>
	<path d="M13.9,11.503c0.363,0,0.657-0.31,0.657-0.693s-0.294-0.693-0.657-0.693s-0.657,0.31-0.657,0.693S13.537,11.503,13.9,11.503
		z"/>
	<path d="M7.724,14.794c0.363,0,0.657-0.311,0.657-0.693s-0.294-0.693-0.657-0.693s-0.657,0.311-0.657,0.693
		S7.36,14.794,7.724,14.794z"/>
	<path d="M10.813,14.794c0.363,0,0.657-0.311,0.657-0.693s-0.294-0.693-0.657-0.693c-0.362,0-0.657,0.311-0.657,0.693
		S10.451,14.794,10.813,14.794z"/>
	<path d="M13.9,14.794c0.363,0,0.657-0.311,0.657-0.693s-0.294-0.693-0.657-0.693s-0.657,0.311-0.657,0.693
		S13.537,14.794,13.9,14.794z"/>
	<path d="M7.724,18.087c0.363,0,0.657-0.311,0.657-0.693S8.087,16.7,7.724,16.7s-0.657,0.311-0.657,0.693S7.36,18.087,7.724,18.087z
		"/>
	<path d="M10.813,18.087c0.363,0,0.657-0.311,0.657-0.693S11.177,16.7,10.813,16.7c-0.362,0-0.657,0.311-0.657,0.693
		S10.451,18.087,10.813,18.087z"/>
	<path d="M13.9,18.087c0.363,0,0.657-0.311,0.657-0.693S14.264,16.7,13.9,16.7s-0.657,0.311-0.657,0.693S13.537,18.087,13.9,18.087z
		"/>
</g>
</svg>
