<?xml version="1.0" encoding="utf-8"?>
<!-- Generator: Adobe Illustrator 16.0.0, SVG Export Plug-In . SVG Version: 6.00 Build 0)  -->
<!DOCTYPE svg PUBLIC "-//W3C//DTD SVG 1.0//EN" "http://www.w3.org/TR/2001/REC-SVG-20010904/DTD/svg10.dtd">
<svg version="1.0" id="Layer_1" xmlns="http://www.w3.org/2000/svg" xmlns:xlink="http://www.w3.org/1999/xlink" x="0px" y="0px"
	 width="621px" height="621px" viewBox="-285.635 -287.124 621 621" enable-background="new -285.635 -287.124 621 621"
	 xml:space="preserve">
<g>
	<g>
		<g>
			<path d="M-146.087-257.422c0-6.134-4.963-11.116-11.085-11.116c-6.134,0-11.11,4.958-11.11,11.116v52.109h22.17L-146.087-257.422
				L-146.087-257.422z"/>
			<path d="M218.035-257.422c0-6.134-4.951-11.116-11.122-11.116c-6.121,0-11.072,4.958-11.072,11.116v52.109h22.158
				L218.035-257.422L218.035-257.422z"/>
			<path d="M-285.611,261.449c0,29.659,20.256,53.842,45.146,53.842h530.683c24.891,0,45.146-24.183,45.146-53.842V-78.66h-620.976
				V261.449z"/>
			<path d="M290.255-205.325H218.06v61.116c0,6.146-4.963,11.116-11.135,11.116c-6.109,0-11.072-4.945-11.072-11.116v-61.116
				h-341.939v61.116c0,6.146-4.963,11.116-11.085,11.116c-6.134,0-11.11-4.945-11.11-11.116v-61.116h-72.244
				c-24.854,0-45.109,24.153-45.109,53.848v50.652h621v-50.652C335.376-181.172,315.109-205.325,290.255-205.325z"/>
		</g>
	</g>
</g>
</svg>
