<?xml version="1.0" encoding="utf-8"?>
<!-- Generator: Adobe Illustrator 16.0.0, SVG Export Plug-In . SVG Version: 6.00 Build 0)  -->
<!DOCTYPE svg PUBLIC "-//W3C//DTD SVG 1.1//EN" "http://www.w3.org/Graphics/SVG/1.1/DTD/svg11.dtd">
<svg version="1.1" id="Layer_1" xmlns="http://www.w3.org/2000/svg" xmlns:xlink="http://www.w3.org/1999/xlink" x="0px" y="0px"
	 width="25px" height="25px" viewBox="0 0 25 25" enable-background="new 0 0 25 25" xml:space="preserve">
<path d="M21.056,2.799h-3.167V1c0-0.276-0.224-0.5-0.5-0.5s-0.5,0.224-0.5,0.5v1.799H8.111V1c0-0.276-0.224-0.5-0.5-0.5
	s-0.5,0.224-0.5,0.5v1.799H3.944C2.321,2.799,1,4.056,1,5.6v16.1C1,23.243,2.321,24.5,3.944,24.5h17.111
	c1.623,0,2.944-1.257,2.944-2.801V5.6C24,4.056,22.679,2.799,21.056,2.799z M3.944,3.799h3.167V5.6c0,0.276,0.224,0.5,0.5,0.5
	s0.5-0.224,0.5-0.5V3.799h8.777V5.6c0,0.276,0.224,0.5,0.5,0.5s0.5-0.224,0.5-0.5V3.799h3.167C22.128,3.799,23,4.607,23,5.6V9.7H2
	V5.6C2,4.607,2.872,3.799,3.944,3.799z M21.056,23.5H3.944C2.872,23.5,2,22.692,2,21.699V10.7h21v10.999
	C23,22.692,22.128,23.5,21.056,23.5z"/>
</svg>
