<?xml version="1.0" encoding="utf-8"?>
<!-- Generator: Adobe Illustrator 16.0.0, SVG Export Plug-In . SVG Version: 6.00 Build 0)  -->
<!DOCTYPE svg PUBLIC "-//W3C//DTD SVG 1.1//EN" "http://www.w3.org/Graphics/SVG/1.1/DTD/svg11.dtd">
<svg version="1.1" id="Layer_1" xmlns="http://www.w3.org/2000/svg" xmlns:xlink="http://www.w3.org/1999/xlink" x="0px" y="0px"
	 width="633.88px" height="633.88px" viewBox="0 0 633.88 633.88" enable-background="new 0 0 633.88 633.88" xml:space="preserve">
<g>
	<path d="M142.463,30.324c0-6.268-5.085-11.342-11.341-11.342c-6.279,0-11.319,5.074-11.319,11.342v53.192h22.661V30.324z"/>
	<path d="M514.1,30.324c0-6.268-5.063-11.342-11.32-11.342c-6.278,0-11.318,5.074-11.318,11.342v53.192H514.1V30.324z"/>
	<path d="M587.807,83.516H514.1v62.367c0,6.268-5.063,11.341-11.32,11.341c-6.278,0-11.318-5.074-11.318-11.341V83.516H142.463
		v62.367c0,6.268-5.085,11.341-11.341,11.341c-6.279,0-11.319-5.074-11.319-11.341V83.516h-73.73
		c-25.402,0-46.073,24.628-46.073,54.938v51.689h633.882v-51.689C633.881,108.144,613.209,83.516,587.807,83.516z"/>
	<path d="M-0.001,212.792v347.189c0,30.288,20.671,54.916,46.073,54.916h541.734c25.402,0,46.074-24.628,46.074-54.916V212.792
		H-0.001z M416.359,356.522l-118.83,118.831c-1.637,1.636-3.781,2.453-5.926,2.453s-4.289-0.817-5.925-2.453l-68.159-68.138
		c-3.272-3.294-3.272-8.6,0-11.872c3.294-3.271,8.6-3.271,11.872,0l62.211,62.212L404.51,344.65c3.271-3.271,8.578-3.271,11.85,0
		C419.631,347.944,419.631,353.25,416.359,356.522z"/>
</g>
</svg>
