<?xml version="1.0" encoding="utf-8"?>
<!-- Generator: Adobe Illustrator 16.0.0, SVG Export Plug-In . SVG Version: 6.00 Build 0)  -->
<!DOCTYPE svg PUBLIC "-//W3C//DTD SVG 1.1//EN" "http://www.w3.org/Graphics/SVG/1.1/DTD/svg11.dtd">
<svg version="1.1" id="Layer_1" xmlns="http://www.w3.org/2000/svg" xmlns:xlink="http://www.w3.org/1999/xlink" x="0px" y="0px"
	 width="25px" height="25px" viewBox="0 0 25 25" enable-background="new 0 0 25 25" xml:space="preserve">
<path d="M23,10.167c0-0.002-0.001-0.003-0.001-0.005V5.968c0.001-0.83-0.323-1.609-0.912-2.195
	c-0.588-0.584-1.368-0.906-2.198-0.906h-2.166v-1.1c0-0.552-0.447-1-1-1s-1,0.448-1,1v1.1H9.277v-1.1c0-0.552-0.448-1-1-1
	s-1,0.448-1,1v1.1H5.111C3.396,2.867,2,4.258,2,5.967v14.698c0,1.711,1.396,3.103,3.111,3.103h14.778c1.715,0,3.11-1.392,3.11-3.103
	V10.172C22.999,10.17,23,10.169,23,10.167z M5.111,4.867h2.166v1.1c0,0.552,0.448,1,1,1s1-0.448,1-1v-1.1h6.446v1.1
	c0,0.552,0.447,1,1,1s1-0.448,1-1v-1.1h2.166c0.298,0,0.577,0.115,0.787,0.324c0.209,0.208,0.323,0.482,0.323,0.776v3.2H4v-3.2
	C4,5.36,4.499,4.867,5.111,4.867z M19.889,21.768H5.111C4.499,21.768,4,21.273,4,20.665v-9.498h16.999v9.498
	C20.999,21.273,20.501,21.768,19.889,21.768z"/>
</svg>
