<?xml version="1.0" encoding="utf-8"?>
<!-- Generator: Adobe Illustrator 16.0.0, SVG Export Plug-In . SVG Version: 6.00 Build 0)  -->
<!DOCTYPE svg PUBLIC "-//W3C//DTD SVG 1.1//EN" "http://www.w3.org/Graphics/SVG/1.1/DTD/svg11.dtd">
<svg version="1.1" id="Layer_1" xmlns="http://www.w3.org/2000/svg" xmlns:xlink="http://www.w3.org/1999/xlink" x="0px" y="0px"
	 width="49.729px" height="49.73px" viewBox="6.749 -1.24 49.729 49.73" enable-background="new 6.749 -1.24 49.729 49.73"
	 xml:space="preserve">
<g>
	<g>
		<g>
			<path d="M17.924,1.138c0-0.491-0.397-0.888-0.888-0.888c-0.491,0-0.887,0.397-0.887,0.888v4.173h1.775V1.138z"/>
			<path d="M47.081,1.138c0-0.491-0.397-0.888-0.888-0.888c-0.492,0-0.887,0.397-0.887,0.888v4.173h1.774V1.138z"/>
			<path d="M6.75,42.69c0,2.375,1.622,4.31,3.615,4.31h42.499c1.993,0,3.615-1.935,3.615-4.31V15.454H6.75V42.69z"/>
			<path d="M52.864,5.311h-5.783v4.894c0,0.492-0.397,0.889-0.888,0.889c-0.492,0-0.887-0.397-0.887-0.889V5.311H17.924v4.894
				c0,0.492-0.397,0.889-0.888,0.889c-0.491,0-0.887-0.397-0.887-0.889V5.311h-5.785c-1.993,0-3.615,1.934-3.615,4.312v4.055h49.729
				V9.623C56.479,7.245,54.856,5.311,52.864,5.311z"/>
		</g>
	</g>
</g>
</svg>
