<?xml version="1.0" encoding="utf-8"?>
<!-- Generator: Adobe Illustrator 16.0.0, SVG Export Plug-In . SVG Version: 6.00 Build 0)  -->
<!DOCTYPE svg PUBLIC "-//W3C//DTD SVG 1.1//EN" "http://www.w3.org/Graphics/SVG/1.1/DTD/svg11.dtd">
<svg version="1.1" id="Your_Icon" xmlns="http://www.w3.org/2000/svg" xmlns:xlink="http://www.w3.org/1999/xlink" x="0px" y="0px"
	 width="100px" height="100px" viewBox="0 0 100 100" enable-background="new 0 0 100 100" xml:space="preserve">
<g>
	<path d="M25.194,8.646c0-0.926-0.751-1.674-1.673-1.674c-0.927,0-1.671,0.749-1.671,1.674v7.849h3.344V8.646L25.194,8.646z"/>
	<path d="M80.034,8.646c0-0.926-0.748-1.674-1.671-1.674c-0.928,0-1.67,0.749-1.67,1.674v7.849h3.341V8.646z"/>
	<path d="M90.911,16.495H80.034v9.203c0,0.925-0.748,1.674-1.671,1.674c-0.928,0-1.67-0.749-1.67-1.674v-9.203h-51.5v9.203
		c0,0.925-0.751,1.674-1.673,1.674c-0.927,0-1.671-0.749-1.671-1.674v-9.203H10.97c-3.749,0-6.799,3.634-6.799,8.107v7.627h93.538
		v-7.627C97.709,20.128,94.659,16.495,90.911,16.495z"/>
	<path d="M4.171,35.571v51.234c0,4.469,3.05,8.104,6.799,8.104h79.941c3.748,0,6.798-3.635,6.798-8.104V35.571H4.171z"/>
</g>
</svg>
