<?xml version="1.0" encoding="utf-8"?>
<!-- Generator: Adobe Illustrator 16.0.0, SVG Export Plug-In . SVG Version: 6.00 Build 0)  -->
<!DOCTYPE svg PUBLIC "-//W3C//DTD SVG 1.1//EN" "http://www.w3.org/Graphics/SVG/1.1/DTD/svg11.dtd">
<svg version="1.1" id="Layer_1" xmlns="http://www.w3.org/2000/svg" xmlns:xlink="http://www.w3.org/1999/xlink" x="0px" y="0px"
	 width="100px" height="90px" viewBox="0 0 100 90" enable-background="new 0 0 100 90" xml:space="preserve">
<g id="Layer_x0020_1">
	<path fill="#373435" d="M87.423,40.557C85.925,21.96,69.732,7.322,50.344,7.322c-19.39,0-39.002,12.781-36.993,41.355
		c4.285-14.497,25.724,3.099,53.356-27.473C62.337,33.463,78.761,39.345,87.423,40.557L87.423,40.557z"/>
	<path fill="#373435" d="M60.435,68.698c1.907,3.62-2.145,9.423-9.921,9.423c-7.267,0-12.361-5.844-10.385-9.229
		c2.414,1.439,5.997,2.353,9.997,2.353C54.302,71.245,58.023,70.25,60.435,68.698L60.435,68.698z"/>
	<ellipse fill="#373435" cx="35.564" cy="50.328" rx="7.308" ry="7.52"/>
	<ellipse fill="#373435" cx="63.967" cy="50.328" rx="7.307" ry="7.52"/>
	<path fill="#373435" d="M49.978,44.578l0.327,0.135l-0.328-0.149L49.978,44.578z M99.647,45.917c0-6.747-2.94-12.409-6.909-13.97
		c-5.279-17.883-21.51-31.216-41.17-31.918C30.877-0.71,12.978,12.776,7.287,31.717c-3.981,1.546-6.935,7.218-6.935,13.979
		c0,7.226,3.373,13.207,7.768,14.238c5.658,15.403,19.599,26.909,36.603,28.909C45.339,89.553,46.246,90,47.259,90
		c1.855,0,3.36-1.505,3.36-3.361c0-1.855-1.504-3.359-3.36-3.359c-1.02,0-1.933,0.454-2.549,1.171
		C24.373,81.789,9.023,64.039,9.77,43.127C10.562,20.921,29.207,3.562,51.413,4.355s39.565,19.437,38.772,41.643
		c-0.171,4.796-1.199,9.519-3.03,13.945C96.367,61.213,99.648,52.062,99.647,45.917L99.647,45.917L99.647,45.917z"/>
</g>
</svg>
