<?xml version="1.0" encoding="utf-8"?>
<!-- Generator: Adobe Illustrator 16.0.0, SVG Export Plug-In . SVG Version: 6.00 Build 0)  -->
<!DOCTYPE svg PUBLIC "-//W3C//DTD SVG 1.1//EN" "http://www.w3.org/Graphics/SVG/1.1/DTD/svg11.dtd">
<svg version="1.1" id="Layer_1" xmlns="http://www.w3.org/2000/svg" xmlns:xlink="http://www.w3.org/1999/xlink" x="0px" y="0px"
	 width="1500.5px" height="1480.5px" viewBox="0 0 1500.5 1480.5" enable-background="new 0 0 1500.5 1480.5" xml:space="preserve">
<g id="P8qOMD_1_">
	<g>
		<path stroke="#000000" stroke-width="10" stroke-miterlimit="10" d="M845.454,352.633
			c-68.551-47.785-187.922-32.376-244.035,32.555c3.407,5.591,6.991,11.67,10.733,17.637c16.276,25.963,19.016,26.453,44.178,9.219
			c34.022-23.336,71.031-33.712,112.046-24.139c35.896,8.351,58.853,33.58,61.592,67.893c2.604,33.289-10.133,61.01-34.514,82.922
			c-17.729,15.943-37.119,29.994-55.445,45.313c-17.612,14.739-35.494,30.461-35.717,55.422
			c-0.222,24.828,2.916,49.678,4.653,75.729c7.414,0,12.714,0,18.015,0c10.109,0,20.195,0,32.175,0
			c1.938-16.5,4.432-30.615,5.031-44.821c1.047-24.385,10.913-43.243,30.684-57.762c19.238-14.14,38.613-28.346,56.215-44.423
			C918.354,506.764,915.282,401.308,845.454,352.633z"/>
		<path stroke="#000000" stroke-width="10" stroke-miterlimit="10" d="M731.59,926.918c-29.058-0.244-50.324-21.91-50.211-51.169
			c0.112-29.081,21.867-51.325,50.391-51.459c29.146-0.179,51.525,22.801,51.191,52.551
			C782.625,905.921,760.85,927.164,731.59,926.918z"/>
	</g>
</g>
<path stroke="#000000" stroke-width="10" stroke-miterlimit="10" d="M1142.182,992.318c-3.83-22.088-1.424-37.273,15.635-54.865
	c89.154-91.873,136.94-202.829,136.051-331.108c-0.98-146.427-61.457-267.56-171.812-362.505
	C996.646,135.891,849.24,92.069,685.121,103.916c-150.437,10.866-280.296,68.403-383.457,179.336
	c-106.681,114.697-150.77,250.993-123.159,406.282c27.499,154.755,117.993,266.423,251.037,345.003
	c103.741,61.258,217.079,84.637,336.965,79.271c8.951-0.444,19.017,1.916,27.031,6.013c85.54,43.844,170.776,88.334,256.104,132.578
	c48.143,24.981,96.371,49.786,146.918,75.93c-0.938-8.906-1.248-14.271-2.14-19.529
	C1177.186,1203.275,1160.442,1097.688,1142.182,992.318z M1138.278,1248.863c-40.57-20.978-80.25-41.506-119.928-62.08
	c-72.547-37.701-145.047-75.621-217.872-112.896c-6.901-3.541-15.966-4.678-23.892-4.207
	c-139.838,8.015-268.384-23.938-380.609-109.934c-104.03-79.715-168.539-183.791-179.961-315.855
	c-10.956-126.61,30.06-237.03,116.366-329.527c103.721-111.113,234.139-164.732,384.839-168.271
	c157.995-3.697,295.65,47.54,408.009,160.567c165.664,166.734,167.046,434.425,0.533,600.072
	c-28.724,28.59-35.003,53.639-27.522,91.313c16.078,80.783,27.479,162.482,40.75,243.846
	C1139.259,1243.518,1138.679,1245.277,1138.278,1248.863z"/>
</svg>
