<?xml version="1.0" encoding="utf-8"?>
<!-- Generator: Adobe Illustrator 16.0.0, SVG Export Plug-In . SVG Version: 6.00 Build 0)  -->
<!DOCTYPE svg PUBLIC "-//W3C//DTD SVG 1.1//EN" "http://www.w3.org/Graphics/SVG/1.1/DTD/svg11.dtd">
<svg version="1.1" id="Layer_1" xmlns="http://www.w3.org/2000/svg" xmlns:xlink="http://www.w3.org/1999/xlink" x="0px" y="0px"
	 width="55.551px" height="55.55px" viewBox="23.521 6.669 55.551 55.55" enable-background="new 23.521 6.669 55.551 55.55"
	 xml:space="preserve">
<path d="M36.492,58.355c-0.002,0-0.009,0-0.011,0c-1.587,0-2.563-0.68-3.103-1.251c-1.335-1.41-1.265-3.429-1.252-3.655
	l-0.002-3.476l-0.436-0.009c-4.486,0-8.166-3.683-8.166-8.208v-12.89c0-4.524,3.681-8.207,8.205-8.207h29.037
	c4.523,0,8.205,3.683,8.205,8.207v12.891c0,4.553-3.682,8.255-8.205,8.255H46.898l-5.501,5.645
	C40.589,56.531,38.909,58.349,36.492,58.355z M31.726,23.993c-2.687,0-4.872,2.188-4.872,4.874v12.891
	c0,2.687,2.185,4.874,4.872,4.874l2.103,0.047c0.905,0.021,1.627,0.762,1.627,1.667v5.195c-0.011,0.342,0.063,0.983,0.348,1.277
	c0.052,0.056,0.195,0.203,0.677,0.203v1.666l0.004-1.666c0.961-0.002,1.864-0.979,2.46-1.625l0.311-0.33l5.749-5.885
	c0.312-0.322,0.742-0.501,1.191-0.501h14.565c2.688,0,4.873-2.207,4.873-4.922V28.867c0-2.687-2.186-4.874-4.873-4.874H31.726z"/>
<path d="M71.775,36.228c-0.92,0-1.666-0.747-1.666-1.667s0.746-1.667,1.666-1.667c2.186,0,3.963-1.777,3.963-3.963v-8.88
	c0-4.336-1.849-6.185-6.186-6.185H46.775c-2.183,0-3.96,1.777-3.96,3.963c0,0.92-0.747,1.667-1.667,1.667
	c-0.92,0-1.667-0.747-1.667-1.667c0-4.024,3.272-7.296,7.294-7.296h22.777c6.227,0,9.52,3.292,9.52,9.519v8.88
	C79.072,32.956,75.799,36.228,71.775,36.228z"/>
<path d="M54.927,34.188H35.205c-0.92,0-1.667-0.747-1.667-1.667s0.747-1.667,1.667-1.667h19.722c0.92,0,1.667,0.747,1.667,1.667
	S55.848,34.188,54.927,34.188z"/>
<path d="M46.245,41.41h-11.04c-0.92,0-1.667-0.747-1.667-1.667s0.747-1.667,1.667-1.667h11.04c0.92,0,1.667,0.747,1.667,1.667
	S47.165,41.41,46.245,41.41z"/>
</svg>
