<?xml version="1.0" encoding="utf-8"?>
<!-- Generator: Adobe Illustrator 16.0.0, SVG Export Plug-In . SVG Version: 6.00 Build 0)  -->
<!DOCTYPE svg PUBLIC "-//W3C//DTD SVG 1.1//EN" "http://www.w3.org/Graphics/SVG/1.1/DTD/svg11.dtd">
<svg version="1.1" id="Layer_1" xmlns="http://www.w3.org/2000/svg" xmlns:xlink="http://www.w3.org/1999/xlink" x="0px" y="0px"
	 width="204.811px" height="204.81px" viewBox="0 0 204.811 204.81" enable-background="new 0 0 204.811 204.81"
	 xml:space="preserve">
<g>
	<path fill="#010101" d="M31.606,178.746c-0.105,0-0.444-0.02-0.551-0.026c-1.256-0.107-2.492-0.833-3.106-1.935
		c-0.617-1.099-0.76-2.439-0.193-3.565c4.064-8.062,6.124-16.663,6.124-25.579c0,0,0,0,0-0.004
		C12.32,134.444,0.001,115.634,0.001,95.779c0-38.44,45.938-69.714,102.404-69.714c56.463,0,102.403,31.274,102.403,69.714
		c0,38.439-45.94,69.714-102.403,69.714c-9.633,0-19.19-0.912-28.434-2.712C62.188,173.091,47.221,178.746,31.606,178.746z
		 M102.405,33.649c-52.283,0-94.819,27.872-94.819,62.129c0,17.622,11.619,34.523,31.886,46.366c1.11,0.646,1.816,1.817,1.875,3.102
		l0.045,0.737c0.041,0.551,0.075,1.099,0.075,1.656c0,8.021-1.468,15.818-4.374,23.252c12.334-1.194,23.948-6.412,33.174-14.989
		c0.903-0.839,2.153-1.185,3.361-0.933c9.319,1.948,19.001,2.938,28.775,2.938c52.284,0,94.819-27.873,94.819-62.13
		C197.225,61.521,154.689,33.649,102.405,33.649z"/>
</g>
</svg>
