<?xml version="1.0" encoding="utf-8"?>
<!-- Generator: Adobe Illustrator 16.0.0, SVG Export Plug-In . SVG Version: 6.00 Build 0)  -->
<!DOCTYPE svg PUBLIC "-//W3C//DTD SVG 1.1//EN" "http://www.w3.org/Graphics/SVG/1.1/DTD/svg11.dtd">
<svg version="1.1" id="Layer_1" xmlns="http://www.w3.org/2000/svg" xmlns:xlink="http://www.w3.org/1999/xlink" x="0px" y="0px"
	 width="1500.5px" height="1480.5px" viewBox="0 0 1500.5 1480.5" enable-background="new 0 0 1500.5 1480.5" xml:space="preserve">
<g id="P8qOMD_1_">
	<g>
		<path stroke="#000000" stroke-width="10" stroke-miterlimit="10" d="M845.454,352.633
			c-68.551-47.785-187.922-32.376-244.035,32.555c3.407,5.591,6.991,11.67,10.733,17.637c16.276,25.963,19.016,26.453,44.178,9.219
			c34.022-23.336,71.031-33.712,112.046-24.139c35.896,8.351,58.853,33.58,61.592,67.893c2.604,33.289-10.133,61.01-34.514,82.922
			c-17.729,15.943-37.119,29.994-55.445,45.313c-17.612,14.739-35.494,30.461-35.717,55.422
			c-0.222,24.828,2.916,49.678,4.653,75.729c7.414,0,12.714,0,18.015,0c10.109,0,20.195,0,32.175,0
			c1.938-16.5,4.432-30.615,5.031-44.821c1.047-24.385,10.913-43.243,30.684-57.762c19.238-14.14,38.613-28.346,56.215-44.423
			C918.354,506.764,915.282,401.308,845.454,352.633z"/>
		<path stroke="#000000" stroke-width="10" stroke-miterlimit="10" d="M731.59,926.918c-29.058-0.244-50.324-21.91-50.211-51.169
			c0.112-29.081,21.867-51.325,50.391-51.459c29.146-0.179,51.525,22.801,51.191,52.551
			C782.625,905.921,760.85,927.164,731.59,926.918z"/>
	</g>
</g>
<path d="M1142.182,985.664c-3.83-22.088-1.424-37.273,15.635-54.865c89.154-91.873,136.94-202.83,136.051-331.109
	c-0.98-146.427-61.457-267.56-171.812-362.505C996.646,129.236,849.24,85.414,685.121,97.261
	c-150.437,10.866-280.296,68.403-383.457,179.336C194.982,391.294,150.895,527.59,178.505,682.879
	c27.499,154.755,117.993,266.423,251.037,345.003c103.741,61.258,217.079,84.637,336.965,79.27
	c8.951-0.443,19.017,1.916,27.031,6.014c85.54,43.844,170.776,88.334,256.104,132.578c48.143,24.98,96.371,49.785,146.918,75.93
	c-0.938-8.906-1.248-14.271-2.14-19.529C1177.186,1196.621,1160.442,1091.033,1142.182,985.664z M1132.869,1232.229
	c-39.63-20.492-78.391-40.545-117.148-60.643c-70.866-36.828-141.686-73.869-212.824-110.279
	c-6.741-3.459-15.596-4.568-23.338-4.109c-136.598,7.828-262.165-23.385-371.789-107.387
	c-101.62-77.867-164.634-179.531-175.791-308.537c-10.703-123.677,29.363-231.538,113.669-321.892
	C446.965,210.843,574.36,158.467,721.569,155.009c154.334-3.611,288.8,46.439,398.555,156.847
	c161.825,162.871,163.175,424.359,0.521,586.169c-28.058,27.926-34.191,52.395-26.885,89.197
	c15.706,78.91,26.844,158.717,39.807,238.195C1133.827,1227.006,1133.261,1228.725,1132.869,1232.229z"/>
</svg>
