<?xml version="1.0" encoding="utf-8"?>
<!-- Generator: Adobe Illustrator 16.0.0, SVG Export Plug-In . SVG Version: 6.00 Build 0)  -->
<!DOCTYPE svg PUBLIC "-//W3C//DTD SVG 1.1//EN" "http://www.w3.org/Graphics/SVG/1.1/DTD/svg11.dtd">
<svg version="1.1" id="Layer_1" xmlns="http://www.w3.org/2000/svg" xmlns:xlink="http://www.w3.org/1999/xlink" x="0px" y="0px"
	 width="1500.5px" height="1480.5px" viewBox="0 0 1500.5 1480.5" enable-background="new 0 0 1500.5 1480.5" xml:space="preserve">
<g id="P8qOMD_1_">
	<g>
		<path fill-rule="evenodd" clip-rule="evenodd" stroke="#000000" stroke-width="10" stroke-miterlimit="10" d="M1214.639,1353.396
			c-50.547-26.142-98.777-50.947-146.918-75.93c-85.326-44.244-170.564-88.734-256.104-132.578
			c-8.016-4.096-18.08-6.457-27.031-6.012c-119.886,5.366-233.224-18.013-336.965-79.271
			c-133.044-78.58-223.538-190.248-251.037-345.003c-27.611-155.289,16.478-291.585,123.159-406.282
			C422.904,197.387,552.765,139.85,703.2,128.984c164.119-11.847,311.525,31.975,436.933,139.924
			c110.355,94.945,170.832,216.078,171.812,362.505c0.891,128.279-46.895,239.235-136.051,331.108
			c-17.057,17.591-19.463,32.777-15.633,54.866c18.26,105.368,35.004,210.957,52.238,316.48
			C1213.391,1339.124,1213.701,1344.49,1214.639,1353.396z M1156.432,1273.904c0.4-3.585,0.98-5.346,0.713-6.971
			c-13.27-81.363-24.672-163.061-40.75-243.844c-7.48-37.676-1.201-62.726,27.523-91.316
			c166.512-165.645,165.131-433.336-0.533-600.071c-112.359-113.027-250.014-164.264-408.009-160.567
			c-150.701,3.539-281.119,57.158-384.839,168.271c-86.306,92.497-127.322,202.917-116.366,329.528
			c11.422,132.064,75.93,236.141,179.961,315.855c112.225,85.994,240.771,117.947,380.609,109.933
			c7.926-0.469,16.99,0.667,23.891,4.208c72.826,37.274,145.326,75.194,217.873,112.894
			C1076.182,1232.398,1115.861,1252.929,1156.432,1273.904z"/>
		<path fill-rule="evenodd" clip-rule="evenodd" stroke="#000000" stroke-width="10" stroke-miterlimit="10" d="M759.135,715.182
			c-11.98,0-22.066,0-32.175,0c-5.301,0-10.601,0-18.015,0c-1.737-26.051-4.875-50.901-4.653-75.729
			c0.223-24.961,18.104-40.682,35.717-55.422c18.326-15.319,37.718-29.37,55.445-45.313c24.381-21.912,37.117-49.633,34.514-82.922
			c-2.74-34.313-25.697-59.542-61.592-67.893c-41.015-9.573-78.023,0.803-112.046,24.139c-25.162,17.234-27.9,16.744-44.178-9.219
			c-3.742-5.967-7.326-12.046-10.733-17.635c56.113-64.931,175.484-80.34,244.035-32.555c69.828,48.675,72.9,154.131,5.611,215.543
			c-17.602,16.077-36.977,30.283-56.215,44.423c-19.771,14.517-29.637,33.377-30.684,57.76
			C763.566,684.565,761.072,698.682,759.135,715.182z"/>
		<path fill-rule="evenodd" clip-rule="evenodd" stroke="#000000" stroke-width="10" stroke-miterlimit="10" d="M731.59,926.918
			c-29.058-0.244-50.324-21.91-50.211-51.169c0.112-29.081,21.867-51.325,50.39-51.459c29.147-0.179,51.526,22.801,51.192,52.551
			C782.625,905.921,760.85,927.164,731.59,926.918z"/>
	</g>
</g>
</svg>
