<?xml version="1.0" encoding="utf-8"?>
<!-- Generator: Adobe Illustrator 16.0.0, SVG Export Plug-In . SVG Version: 6.00 Build 0)  -->
<!DOCTYPE svg PUBLIC "-//W3C//DTD SVG 1.1//EN" "http://www.w3.org/Graphics/SVG/1.1/DTD/svg11.dtd">
<svg version="1.1" id="Layer_1" xmlns="http://www.w3.org/2000/svg" xmlns:xlink="http://www.w3.org/1999/xlink" x="0px" y="0px"
	 width="1500.5px" height="1480.5px" viewBox="0 0 1500.5 1480.5" enable-background="new 0 0 1500.5 1480.5" xml:space="preserve">
<g id="P8qOMD_1_">
	<g>
		<path d="M859.614,315.454c-80.401-56.046-220.409-37.974-286.223,38.183c3.997,6.559,8.2,13.688,12.589,20.687
			c19.089,30.452,22.303,31.026,51.815,10.812c39.903-27.37,83.311-39.539,131.416-28.312c42.102,9.794,69.027,39.385,72.24,79.63
			c3.055,39.044-11.885,71.557-40.48,97.257c-20.795,18.7-43.537,35.18-65.031,53.147c-20.656,17.286-41.629,35.727-41.891,65.003
			c-0.26,29.12,3.42,58.266,5.458,88.82c8.696,0,14.912,0,21.129,0c11.857,0,23.687,0,37.736,0
			c2.274-19.353,5.198-35.906,5.901-52.569c1.228-28.601,12.8-50.719,35.988-67.749c22.563-16.583,45.289-33.246,65.934-52.103
			C945.117,496.23,941.514,372.544,859.614,315.454z"/>
		<path d="M726.065,906.911c-34.081-0.287-59.024-25.698-58.891-60.015c0.131-34.109,25.648-60.198,59.102-60.355
			c34.186-0.21,60.433,26.742,60.042,61.636C785.923,882.284,760.384,907.2,726.065,906.911z"/>
	</g>
</g>
<path d="M1142.182,985.664c-3.83-22.088-1.424-37.273,15.636-54.865c89.153-91.873,136.939-202.83,136.051-331.108
	c-0.98-146.428-61.457-267.561-171.812-362.505C996.646,129.236,849.24,85.414,685.121,97.261
	c-150.438,10.866-280.296,68.403-383.457,179.336C194.982,391.294,150.895,527.59,178.505,682.879
	c27.499,154.755,117.993,266.423,251.037,345.003c103.741,61.259,217.079,84.638,336.965,79.271
	c8.951-0.443,19.017,1.916,27.031,6.014c85.54,43.844,170.776,88.334,256.104,132.578c48.144,24.98,96.371,49.785,146.918,75.93
	c-0.938-8.905-1.248-14.271-2.14-19.528C1177.186,1196.621,1160.442,1091.033,1142.182,985.664z M1132.869,1232.229
	c-39.63-20.491-78.391-40.545-117.148-60.643c-70.865-36.828-141.686-73.869-212.824-110.279c-6.74-3.459-15.596-4.567-23.338-4.108
	c-136.598,7.828-262.165-23.386-371.789-107.388c-101.62-77.866-164.634-179.53-175.791-308.536
	c-10.703-123.678,29.363-231.538,113.669-321.893C446.965,210.843,574.36,158.467,721.569,155.009
	c154.334-3.611,288.8,46.439,398.555,156.848c161.825,162.87,163.175,424.358,0.521,586.169
	c-28.058,27.926-34.19,52.395-26.885,89.196c15.706,78.91,26.844,158.718,39.808,238.195
	C1133.827,1227.006,1133.261,1228.725,1132.869,1232.229z"/>
</svg>
