<?xml version="1.0" encoding="utf-8"?>
<!-- Generator: Adobe Illustrator 16.0.0, SVG Export Plug-In . SVG Version: 6.00 Build 0)  -->
<!DOCTYPE svg PUBLIC "-//W3C//DTD SVG 1.1//EN" "http://www.w3.org/Graphics/SVG/1.1/DTD/svg11.dtd">
<svg version="1.1" id="Layer_1" xmlns="http://www.w3.org/2000/svg" xmlns:xlink="http://www.w3.org/1999/xlink" x="0px" y="0px"
	 width="100px" height="100px" viewBox="0 0 100 100" enable-background="new 0 0 100 100" xml:space="preserve">
<rect x="31" y="68" width="7" height="8"/>
<rect x="19" y="78" width="19" height="2"/>
<g>
	<path d="M38,61H11.272C10.271,61,10,60.758,10,59.757V25.922C10,24.921,10.271,25,11.272,25H38v-5H7.676
		C6.198,20,5,20.848,5,22.326v41.027C5,64.831,6.198,66,7.676,66H38V61z"/>
</g>
<path d="M61,39H50V28h11V39z M52,37h7v-7h-7V37z"/>
<rect x="64" y="30" width="21" height="2"/>
<rect x="64" y="34" width="18" height="2"/>
<path d="M61,56H50V45h11V56z M52,54h7v-7h-7V54z"/>
<rect x="64" y="49" width="16" height="2"/>
<rect x="64" y="53" width="19" height="2"/>
<path d="M61,73H50V62h11V73z M52,71h7v-7h-7V71z"/>
<rect x="64" y="64" width="17" height="2"/>
<rect x="64" y="45" width="20" height="2"/>
<rect x="64" y="68" width="11" height="2"/>
<path d="M12,32.137V59h26v-9.025c0,0-8.486,4.74-14.143-2.803c-1.692-2.256-0.743-6.6-4.234-10.575
	C17.126,33.753,12,32.137,12,32.137z"/>
<path d="M89.73,16H78.378c0-1-0.847-2-1.892-2H60.404c-1.045,0-1.891,1-1.891,2H45.27C43.703,16,42,17.096,42,18.58v62.73
	C42,82.796,43.703,84,45.27,84h44.46c1.566,0,3.27-1.204,3.27-2.688V18.58C93,17.096,91.297,16,89.73,16z M74.596,16.838
	c0.521,0,0.945,0.423,0.945,0.946c0,0.522-0.423,0.946-0.945,0.946c-0.523,0-0.947-0.424-0.947-0.946
	C73.648,17.261,74.072,16.838,74.596,16.838z M62.297,16.838c0.521,0,0.946,0.423,0.946,0.946c0,0.522-0.423,0.946-0.946,0.946
	s-0.945-0.424-0.945-0.946C61.352,17.261,61.775,16.838,62.297,16.838z M89,79.27c0,0-0.216,0.73-1.162,0.73H47.162
	C46.216,80,46,79.27,46,79.27V20.622C46,19.676,47.162,20,47.162,20h11.352c0,1,0.846,2,1.891,2h16.082c1.045,0,1.892-1,1.892-2
	h9.459c0,0,1.162-0.324,1.162,0.622L89,79.27L89,79.27z"/>
</svg>
