<?xml version="1.0" encoding="utf-8"?>
<!-- Generator: Adobe Illustrator 16.0.0, SVG Export Plug-In . SVG Version: 6.00 Build 0)  -->
<!DOCTYPE svg PUBLIC "-//W3C//DTD SVG 1.1//EN" "http://www.w3.org/Graphics/SVG/1.1/DTD/svg11.dtd">
<svg version="1.1" id="Layer_1" xmlns="http://www.w3.org/2000/svg" xmlns:xlink="http://www.w3.org/1999/xlink" x="0px" y="0px"
	 width="24px" height="24px" viewBox="0 -4 24 24" enable-background="new 0 -4 24 24" xml:space="preserve">
<g>
	<g>
		<path d="M12,10.5c-0.128,0-0.256-0.049-0.354-0.146l-3-3c-0.195-0.195-0.195-0.512,0-0.707s0.512-0.195,0.707,0L12,9.293
			l9.646-9.646c0.195-0.195,0.512-0.195,0.707,0s0.195,0.512,0,0.707l-10,10C12.256,10.451,12.128,10.5,12,10.5z"/>
	</g>
	<g>
		<path d="M19,17.5H5c-0.667,0-1.295-0.26-1.768-0.732S2.5,15.668,2.5,15V1c0-0.667,0.26-1.295,0.732-1.768S4.333-1.5,5-1.5h11
			c0.276,0,0.5,0.224,0.5,0.5S16.276-0.5,16-0.5H5c-0.395,0-0.781,0.16-1.061,0.439S3.5,0.605,3.5,1v14
			c0,0.395,0.16,0.781,0.439,1.061S4.605,16.5,5,16.5h14c0.4,0,0.777-0.156,1.062-0.44C20.345,15.777,20.5,15.401,20.5,15V8
			c0-0.276,0.224-0.5,0.5-0.5s0.5,0.224,0.5,0.5v7c0,0.668-0.26,1.296-0.731,1.768C20.295,17.24,19.667,17.5,19,17.5z"/>
	</g>
</g>
</svg>
