<svg xmlns="http://www.w3.org/2000/svg" xmlns:xlink="http://www.w3.org/1999/xlink" version="1.1" id="Layer_1" x="0px" y="0px" viewBox="0 0 100 100" enable-background="new 0 0 100 100" xml:space="preserve" height="100px" width="100px">
<path fill="#000000" d="M68.604,36.099L43.513,61.19L32.396,50.073c-0.781-0.781-2.048-0.781-2.828,0  c-0.781,0.781-0.781,2.047,0,2.828l12.531,12.532c0.375,0.375,0.884,0.585,1.414,0.585s1.039-0.21,1.414-0.585l26.506-26.506  c0.781-0.781,0.781-2.047,0-2.828S69.385,35.317,68.604,36.099z"/>
<path fill="#000000" d="M50,8C27.234,8,8,27.233,8,50s19.234,42,42,42s42-19.233,42-42S72.766,8,50,8z M50,88  c-20.598,0-38-17.402-38-38s17.402-38,38-38s38,17.402,38,38S70.598,88,50,88z"/>
</svg>