<?xml version="1.0" encoding="utf-8"?>
<!-- Generator: Adobe Illustrator 16.0.0, SVG Export Plug-In . SVG Version: 6.00 Build 0)  -->
<!DOCTYPE svg PUBLIC "-//W3C//DTD SVG 1.1//EN" "http://www.w3.org/Graphics/SVG/1.1/DTD/svg11.dtd">
<svg version="1.1" id="Your_Icon" xmlns="http://www.w3.org/2000/svg" xmlns:xlink="http://www.w3.org/1999/xlink" x="0px" y="0px"
	 width="100px" height="100px" viewBox="0 0 100 100" enable-background="new 0 0 100 100" xml:space="preserve">
<g>
	<path fill-rule="evenodd" clip-rule="evenodd" fill="#020202" d="M44.924,54.472c-0.822,0.112-1.459,0.299-1.833,0.524
		c-0.636,0.411-0.934,0.974-0.934,1.758c0,0.712,0.188,1.197,0.561,1.534c0.375,0.3,0.825,0.448,1.388,0.448
		c0.896,0,1.621-0.261,2.368-0.785c0.71-0.524,1.026-1.459,1.026-2.807v-1.569l-0.689,0.41L44.924,54.472z"/>
	<path fill-rule="evenodd" clip-rule="evenodd" fill="#020202" d="M71.748,49.122c-1.16-0.037-2.17,0.375-2.992,1.237
		c-0.823,0.823-1.273,1.831-1.273,3.066c0,1.159,0.45,2.169,1.273,3.03c0.822,0.861,1.832,1.271,2.992,1.271
		c1.199,0,2.208-0.41,3.03-1.271c0.823-0.861,1.234-1.871,1.272-3.03c-0.038-1.235-0.449-2.243-1.235-3.066
		C73.956,49.496,72.947,49.085,71.748,49.122z"/>
	<path fill-rule="evenodd" clip-rule="evenodd" fill="#020202" d="M50,2.788c-26.23,0-47.494,21.264-47.494,47.495
		S23.77,97.776,50,97.776s47.494-21.264,47.494-47.494S76.23,2.788,50,2.788z M71.5,30.5h2v11h-2V30.5z M16.153,55.763
		c1.198,1.197,2.656,1.851,4.378,1.851c1.198,0,2.283-0.632,3.33-1.271c0.936-0.674,1.683-0.842,2.207-2.842h4.079
		c-0.599,2-1.758,4.189-3.519,5.611c-1.794,1.384-3.854,2.149-6.097,2.149c-2.806,0-5.126-0.891-7.07-2.839
		c-1.984-1.982-2.956-4.375-2.956-7.143c0-2.808,0.971-5.152,2.956-7.136c1.944-2.021,4.265-3.001,7.07-2.964
		c2.244-0.037,4.303,0.63,6.097,2.053c1.76,1.385,2.919,4.268,3.519,5.268h-4.079c-0.524-1-1.271-1.858-2.207-2.494
		c-1.047-0.672-2.132-0.93-3.33-0.93c-1.722,0-3.18,0.644-4.378,1.841c-1.234,1.236-1.833,2.699-1.796,4.422
		C14.32,53.058,14.919,54.526,16.153,55.763z M35.5,61.5h-5v-20h5V61.5z M51.5,61.5h-4v-1.603c-1,1.047-2.729,1.57-4.86,1.608
		c-1.309-0.038-2.277-0.412-3.063-1.084c-0.897-0.825-1.329-1.946-1.292-3.331c-0.037-1.984,0.681-3.367,2.14-4.228
		c0.861-0.486,1.988-0.826,3.373-1.012l2.994-0.487c0.598-0.262,0.898-0.68,0.898-1.203c-0.037-0.635-0.223-1.091-0.672-1.315
		c-0.449-0.263-1.084-0.427-1.908-0.389c-0.973-0.039-1.647,0.173-2.058,0.7c-0.263,0.295-0.487,1.343-0.561,1.343h-3.891
		c0.112,0,0.446-2.467,1.12-3.326c1.048-1.388,2.878-2.027,5.496-1.988c1.685-0.039,3.09,0.302,4.436,1.013
		c1.272,0.675,1.848,1.987,1.848,3.858V61.5z M62.128,49.16c-0.749,0-1.464,0.225-2.138,0.673c-0.599,0.412-0.908,0.896-1.17,1.497
		c-0.336,0.561-0.32,1.46-0.32,2.729v7.44h-5V45.942l5,0.037v1.984c0-1.085,1.48-1.796,2.527-2.207l1.352-0.412l0.959-0.075
		l0.013,3.966L62.128,49.16z M77.51,59.186c-1.608,1.609-3.554,2.432-5.762,2.432c-2.206,0-4.116-0.822-5.686-2.432
		c-1.609-1.57-2.396-3.517-2.396-5.761c0-2.243,0.786-4.189,2.396-5.798c1.569-1.609,3.479-2.395,5.686-2.395
		c2.208,0,4.153,0.786,5.762,2.395c1.569,1.609,2.356,3.555,2.356,5.798C79.866,55.669,79.079,57.615,77.51,59.186z M78.07,43.361
		l9.393-9.391l2.469,2.471l-9.393,9.39L78.07,43.361z M81.5,52.5v-2h11v2H81.5z"/>
</g>
</svg>
