<?xml version="1.0" encoding="utf-8"?>
<!-- Generator: Adobe Illustrator 16.0.0, SVG Export Plug-In . SVG Version: 6.00 Build 0)  -->
<!DOCTYPE svg PUBLIC "-//W3C//DTD SVG 1.1//EN" "http://www.w3.org/Graphics/SVG/1.1/DTD/svg11.dtd">
<svg version="1.1" id="Layer_1" xmlns="http://www.w3.org/2000/svg" xmlns:xlink="http://www.w3.org/1999/xlink" x="0px" y="0px"
	 width="641.881px" height="641.879px" viewBox="0 0 641.881 641.879" enable-background="new 0 0 641.881 641.879"
	 xml:space="preserve">
<g>
	<path d="M639.139,119.032v53.093c0,7.189-2.636,13.404-7.873,18.675c-5.271,5.238-11.482,7.873-18.673,7.873H311.764
		c-7.189,0-13.404-2.634-18.673-7.873c-5.238-5.271-7.873-11.485-7.873-18.675v-53.093c0-7.189,2.635-13.402,7.873-18.673
		c5.27-5.238,11.484-7.872,18.673-7.872h300.829c7.19,0,13.401,2.634,18.673,7.872C636.504,105.63,639.139,111.843,639.139,119.032z
		 M497.557,296.009v53.109c0,7.158-2.635,13.404-7.873,18.675c-5.268,5.205-11.482,7.873-18.673,7.873h-300.83
		c-7.189,0-13.401-2.668-18.672-7.873c-5.239-5.271-7.874-11.517-7.874-18.675v-53.109c0-7.188,2.635-13.402,7.874-18.674
		c5.271-5.235,11.482-7.872,18.672-7.872h300.83c7.19,0,13.405,2.637,18.673,7.872C494.923,282.607,497.557,288.821,497.557,296.009
		z M355.944,473.004v53.093c0,7.158-2.637,13.404-7.875,18.674c-5.269,5.205-11.482,7.872-18.672,7.872H28.568
		c-7.189,0-13.403-2.667-18.673-7.872c-5.237-5.27-7.873-11.516-7.873-18.674v-53.093c0-7.222,2.636-13.404,7.873-18.675
		c5.27-5.271,11.483-7.873,18.673-7.873h300.83c7.189,0,13.403,2.603,18.672,7.873C353.307,459.6,355.944,465.783,355.944,473.004z"
		/>
</g>
</svg>
