<?xml version="1.0" encoding="utf-8"?>
<!-- Generator: Adobe Illustrator 16.0.0, SVG Export Plug-In . SVG Version: 6.00 Build 0)  -->
<!DOCTYPE svg PUBLIC "-//W3C//DTD SVG 1.1//EN" "http://www.w3.org/Graphics/SVG/1.1/DTD/svg11.dtd">
<svg version="1.1" id="Layer_1" xmlns="http://www.w3.org/2000/svg" xmlns:xlink="http://www.w3.org/1999/xlink" x="0px" y="0px"
	 width="434.84px" height="434.84px" viewBox="0 0 434.84 434.84" enable-background="new 0 0 434.84 434.84" xml:space="preserve">
<g>
	<path fill="#010101" d="M237.318,21.649c-0.417-0.039-0.836-0.085-1.275-0.085c-11.235,0-18.997,9.103-18.997,20.317
		c0,11.06,4.31,20.056,21.196,20.297v0.06c80.212,1.105,150.375,69.62,150.375,153.698c0,84.763-69.613,154.706-154.377,154.706
		c-80.893,0-148.066-61.037-153.98-141.249h35.687l-55.102-91.558L5.786,229.414H39.56c5.958,101.32,90.7,181.861,193.998,181.861
		c107.169,0,194.395-87.643,194.395-194.833C427.952,110.508,342.75,23.653,237.318,21.649z"/>
	<path fill="#010101" d="M256.128,116.31c0-9.562-7.674-17.764-17.217-17.764h-3.716c-9.543,0-17.041,8.202-17.041,17.764v102.177
		l-50.065,49.979c-7.388,7.387-7.014,19.376-0.022,26.714c7.014,7.428,19.283,7.428,26.671,0l55.299-55.299
		c0.418-0.462,0.771-0.924,1.188-1.341c3.035-3.145,4.903-7.41,4.903-12.116V116.31z"/>
</g>
</svg>
