<?xml version="1.0" encoding="utf-8"?>
<!-- Generator: Adobe Illustrator 16.0.0, SVG Export Plug-In . SVG Version: 6.00 Build 0)  -->
<!DOCTYPE svg PUBLIC "-//W3C//DTD SVG 1.1//EN" "http://www.w3.org/Graphics/SVG/1.1/DTD/svg11.dtd">
<svg version="1.1" id="Layer_1" xmlns="http://www.w3.org/2000/svg" xmlns:xlink="http://www.w3.org/1999/xlink" x="0px" y="0px"
	 width="215.006px" height="215.006px" viewBox="63.998 -20.938 215.006 215.006"
	 enable-background="new 63.998 -20.938 215.006 215.006" xml:space="preserve">
<g>
	<path d="M171.5-13.772c55.424,0,100.336,44.912,100.336,100.336S226.924,186.899,171.5,186.899
		c-55.422,0-100.336-44.912-100.336-100.336S116.076-13.772,171.5-13.772 M171.5-20.938c-59.484,0-107.502,48.018-107.502,107.502
		S112.016,194.067,171.5,194.067c59.486,0,107.504-48.02,107.504-107.504S230.986-20.938,171.5-20.938L171.5-20.938z"/>
	<path d="M210.439,129.565l-41.566-41.568c-0.717-0.717-0.955-1.672-0.955-2.627V18.239h7.166v65.697l40.611,40.611L210.439,129.565
		z"/>
</g>
</svg>
