<?xml version="1.0" encoding="utf-8"?>
<!-- Generator: Adobe Illustrator 16.0.0, SVG Export Plug-In . SVG Version: 6.00 Build 0)  -->
<!DOCTYPE svg PUBLIC "-//W3C//DTD SVG 1.1//EN" "http://www.w3.org/Graphics/SVG/1.1/DTD/svg11.dtd">
<svg version="1.1" id="Layer_1" xmlns="http://www.w3.org/2000/svg" xmlns:xlink="http://www.w3.org/1999/xlink" x="0px" y="0px"
	 width="100px" height="100px" viewBox="0 0 100 100" enable-background="new 0 0 100 100" xml:space="preserve">
<g transform="translate(0.000000,2000.000000) scale(0.100000,-0.100000)">
	<path d="M585.049,19805.291c-9.141-0.465-21.006-1.523-27.939-2.535c-6.729-0.971-13.145-2.592-22.607-5.732
		c-42.744-14.213-84.575-43.939-110.894-78.705c-3.511-4.664-9.229-13.525-12.827-19.854c-1.895-3.281-3.467-6.094-3.564-6.182
		c-0.039-0.098-2.676,0.961-5.762,2.393c-16.206,7.393-32.134,11.684-51.846,13.994c-9.932,1.195-32.544,1.195-41.548,0.049
		c-18.101-2.359-32.964-6.842-49.399-14.863c-19.849-9.746-35.82-21.012-51.191-36.158c-20.186-19.887-31.353-38.125-40.674-66.332
		c-4.482-13.477-7.524-27.193-8.677-39.014l-0.562-5.768l-11.074-5.541c-13.667-6.787-21.006-11.494-31.851-20.361
		c-15.103-12.324-29.824-28.525-39.565-43.574c-12.329-18.926-20.776-42.793-24.189-68.096c-1.021-7.52-1.206-28.428-0.278-35.781
		c4.062-32.91,15.605-60.186,36.289-86.094c4.517-5.625,17.539-18.975,24.741-25.342c19.297-17.031,36.377-25.576,65.649-32.822
		c16.987-4.199,33.418-5.312,95.693-6.24c78.198-1.191,396.421-2.168,440.64-1.377c71.836,1.299,98.838,4.424,123.955,14.307
		c17.959,7.061,32.686,14.824,44.316,23.311c41.221,30.107,64.863,76.875,66.572,131.807c0.693,22.764-3.418,43.633-13.105,66.24
		c-8.965,20.918-19.434,36.191-36.338,53.096c-23.184,23.125-48.936,38.451-77.1,45.746c-3.223,0.836-6.035,1.666-6.182,1.797
		c-0.137,0.143,0.322,5.176,1.104,11.227c1.201,9.736,1.348,12.275,1.299,23.402c0,17.311-1.562,29.961-5.771,46.529
		c-13.662,54.57-48.613,104.018-93.76,132.822c-21.104,13.477-62.041,29.818-81.396,32.549
		C625.996,19805.705,604.023,19806.213,585.049,19805.291z M627.51,19778.977c9.473-0.742,15.84-2.309,28.721-6.967
		c13.662-4.941,29.688-12.002,41.006-18.047c17.305-9.332,36.504-25.865,51.182-44.141c20.049-25.016,34.307-55.211,40.449-85.914
		c2.48-12.416,2.998-17.953,2.998-31.85c-0.049-11.637-0.137-13.619-1.523-24.01c-1.992-14.863-2.305-21.234-1.289-24.277
		c0.918-2.861,2.959-5.352,5.537-6.879c1.113-0.65,4.57-1.895,7.715-2.725c3.135-0.879,9.229-2.539,13.467-3.691
		c23.184-6.328,44.092-18.613,63.076-36.982c9.18-8.955,16.426-17.725,22.422-27.246c3.555-5.615,9.795-18.496,12.607-26.074
		c6.553-17.598,8.779-30.781,8.262-49.121c-1.104-38.223-14.951-72.197-39.463-97.08c-11.084-11.211-22.402-19.111-38.457-26.865
		c-28.945-13.945-44.414-16.846-101.289-18.975c-18.604-0.693-109.688-1.436-144.268-1.152
		c-16.611,0.137-69.795,0.312-118.179,0.459c-48.384,0.137-98.237,0.322-110.796,0.459c-12.554,0.137-38.315,0.322-57.246,0.469
		c-53.867,0.41-89.922,1.24-107.095,2.588c-8.999,0.693-14.961,1.602-23.086,3.633c-28.809,7.246-43.159,15.664-65.137,38.135
		c-7.798,7.988-12.93,14.268-18.242,22.354c-11.396,17.344-18.32,35.166-21.509,55.439c-0.874,5.771-1.011,8.389-1.011,19.58
		c0,14.619,0.688,20.586,3.691,32.539c6.323,25.195,17.31,44.6,36.426,64.121c14.722,15.098,25.708,23.164,43.022,31.67
		c10.713,5.264,13.853,7.109,17.036,10.01c5.215,4.805,7.012,9.336,7.617,19.115c0.64,11.08,3.33,23.316,8.354,37.949
		c5.903,17.314,11.636,28.258,21.235,40.391c4.614,5.875,18.003,19.254,24.053,24.053c18.418,14.678,38.643,25.113,57.979,30.055
		c22.441,5.674,51.982,4.809,76.543-2.256c8.818-2.545,13.901-4.625,25.298-10.348c10.02-5.023,10.801-5.307,13.984-5.537
		c3.047-0.18,3.608-0.098,6.333,1.25c1.753,0.875,3.462,2.125,4.287,3.184c0.737,0.924,4.385,7.105,8.179,13.707
		c9.741,17.129,14.995,24.561,25.43,36.01c24.561,26.826,61.777,49.771,96.025,59.088
		C565.889,19778.934,603.604,19780.871,627.51,19778.977z"/>
	<path d="M673.223,19621.047c-0.742-0.277-2.119-1.016-2.998-1.615c-0.879-0.553-15.42-14.82-32.324-31.666
		c-88.359-88.08-203.999-202.855-204.639-203.129c-0.098-0.039-23.174,22.773-51.289,50.693
		c-35.601,35.361-51.851,51.191-53.511,52.168c-2.119,1.25-2.812,1.377-6.084,1.377c-3.281,0-3.979-0.127-6.24-1.426
		c-6.235-3.516-8.54-10.938-5.356-17.217c1.533-2.92,112.827-113.662,116.294-115.684c2.124-1.25,2.817-1.387,6.089-1.387
		c3.096,0,4.106,0.176,5.859,1.152c2.549,1.338,2.593,1.377,103.789,101.973c143.477,142.65,145.42,144.545,146.611,147.084
		c1.338,2.77,1.475,6.832,0.381,10.064c-0.879,2.533-3.799,5.717-6.426,7.016
		C681.211,19621.512,675.342,19621.828,673.223,19621.047z"/>
</g>
</svg>
