<?xml version="1.0" encoding="utf-8"?>
<!-- Generator: Adobe Illustrator 16.0.0, SVG Export Plug-In . SVG Version: 6.00 Build 0)  -->
<!DOCTYPE svg PUBLIC "-//W3C//DTD SVG 1.1//EN" "http://www.w3.org/Graphics/SVG/1.1/DTD/svg11.dtd">
<svg version="1.1" id="Layer_1" xmlns="http://www.w3.org/2000/svg" xmlns:xlink="http://www.w3.org/1999/xlink" x="0px" y="0px"
	 width="583.54px" height="583.54px" viewBox="0 0 583.54 583.54" enable-background="new 0 0 583.54 583.54" xml:space="preserve">
<g id="WgPxwR_1_">
	<g>
		<path fill="#010101" d="M519.917,375.317c-2.739-1.533-2.97-3.387-2.977-6.008c-0.232-77.343-0.539-154.686-0.73-232.03
			c-0.007-2.984-0.756-4.7-3.45-6.248c-52.03-29.883-104.009-59.857-155.972-89.857c-21.649-12.499-43.239-25.1-64.856-37.654
			c-1.905-0.465-3.25,0.751-4.705,1.595C215.154,46.934,143.103,88.791,70.96,130.489c-3.346,1.933-4.338,3.958-4.316,7.641
			c0.435,76.723,0.727,153.448,1.143,230.171c0.018,3.143-0.769,4.991-3.671,6.579c-11.175,6.119-22.188,12.537-33.242,18.879
			c-10.214,5.859-20.403,11.766-30.872,17.805c1.033,0.682,1.617,1.109,2.24,1.469c75.926,43.848,151.864,87.674,227.779,131.543
			c19.768,11.424,39.461,22.973,59.189,34.467c2.893,2.023,5.31,0.873,8.051-0.719c94.239-54.734,188.523-109.395,282.771-164.115
			c1.248-0.725,3.031-0.959,3.507-2.744C562.347,399.387,541.194,387.243,519.917,375.317z M122.111,399.86
			c-0.001,0.34-0.429,0.68-0.685,1.059c-11.59-6.635-23.043-13.209-34.521-19.74c-1.753-0.996-2.723-2.131-2.704-4.377
			c0.112-13.27,0.056-26.542,0.056-40.696c4.106,2.301,7.554,4.189,10.962,6.148c8.082,4.648,16.144,9.336,24.219,13.998
			c1.487,0.857,2.832,1.559,2.812,3.779C122.125,373.307,122.164,386.584,122.111,399.86z M122.343,315.275
			c-12.486-7.225-24.23-14.08-36.061-20.789c-1.585-0.9-1.67-2.002-1.67-3.43c0.009-13.396,0.006-26.792,0.006-41.004
			c5.32,3.053,10.105,5.794,14.887,8.543c6.589,3.789,13.181,7.572,19.757,11.383c1.427,0.826,3.121,1.318,3.111,3.586
			C122.313,287.216,122.343,300.866,122.343,315.275z M122.879,229.313c-12.894-7.437-24.565-14.197-36.278-20.887
			c-1.395-0.797-1.919-1.717-1.912-3.321c0.057-13.418,0.033-26.836,0.033-40.156c1.214-0.562,1.943-0.032,2.772,0.448
			c10.757,6.219,21.543,12.386,32.296,18.613c1.418,0.822,3.123,1.404,3.114,3.648C122.853,201.208,122.879,214.757,122.879,229.313
			z M183.457,436.559c-7.127-4.105-14.239-8.236-21.355-12.361c-1.474-0.854-2.875-1.543-2.857-3.777
			c0.101-13.52,0.05-27.041,0.05-41.633c5.071,2.857,9.067,5.096,13.052,7.357c6.886,3.906,13.68,7.984,20.68,11.668
			c3.242,1.707,4.205,3.377,4.011,7.475c0,11.887,0.134,37.135,0.134,39.078C192.23,441.555,187.832,439.079,183.457,436.559z
			 M197.382,357.496c-1.711,0.766-2.529-0.5-3.521-1.066c-10.531-6.01-21.021-12.092-31.561-18.088
			c-1.732-0.986-2.745-1.971-2.723-4.252c0.133-13.273,0.064-26.551,0.064-40.8c12.615,7.238,24.45,14.031,36.287,20.82
			c1.45,0.832,1.471,2.186,1.469,3.641C197.371,331.027,197.382,344.307,197.382,357.496z M197.882,272.576
			c-12.955-7.497-24.711-14.353-36.541-21.081c-1.572-0.895-1.615-2.023-1.612-3.45c0.028-12.472,0.085-24.943,0.009-37.414
			c-0.018-2.857,0.665-3.234,3.128-1.792c10.842,6.349,21.76,12.568,32.648,18.837c1.39,0.8,2.417,1.685,2.407,3.598
			C197.847,244.661,197.882,258.048,197.882,272.576z M272.242,487.831c-5.203-2.949-9.873-5.572-14.518-8.238
			c-6.874-3.947-13.732-7.918-20.588-11.895c-1.45-0.842-2.96-1.459-2.945-3.713c0.092-13.531,0.046-27.062,0.046-41.451
			c12.835,7.354,24.796,14.197,36.743,21.064c1.031,0.592,1.287,1.582,1.284,2.779C272.228,459.936,272.242,473.495,272.242,487.831
			z M272.406,401.762c-12.512-7.199-24.062-13.854-35.623-20.49c-1.246-0.715-2.18-1.381-2.169-3.148
			c0.085-13.538,0.047-27.075,0.047-41.489c3.835,2.16,7.03,3.924,10.192,5.746c8.208,4.729,16.399,9.482,24.602,14.219
			c1.457,0.842,3.004,1.389,2.99,3.643C272.365,373.788,272.406,387.334,272.406,401.762z M272.918,293.668
			c-0.071,0-0.143,0-0.214,0c0,6.248-0.045,12.494,0.023,18.74c0.025,2.369-0.291,3.197-2.816,1.713
			c-10.98-6.457-22.057-12.751-33.108-19.083c-1.272-0.73-2.11-1.477-2.099-3.209c0.096-12.805,0.094-25.612,0.051-38.417
			c-0.008-2.268,0.527-2.815,2.636-1.592c11.149,6.471,22.334,12.88,33.524,19.278c1.739,0.994,2.072,2.425,2.041,4.301
			C272.855,281.488,272.918,287.579,272.918,293.668z M309.824,275.023c-0.024-2.039,0.779-3.188,2.377-4.105
			c10.918-6.269,21.868-12.481,32.718-18.866c3.186-1.875,3.204-0.274,3.174,2.205c-0.072,6.093-0.022,12.188-0.022,18.283
			c0.02,0,0.038,0,0.058,0c0,6.094-0.06,12.189,0.035,18.282c0.029,1.855-0.272,3.184-2.066,4.199
			c-11.093,6.281-22.156,12.615-33.159,19.052c-2.212,1.295-2.963,1.172-2.961-1.549
			C309.993,300.024,309.972,287.522,309.824,275.023z M310.262,360.604c-0.005-1.588,0.548-2.652,1.898-3.426
			c11.704-6.711,23.398-13.436,36.006-20.68c0,2.84-0.002,4.906,0,6.975c0.011,11.092,0.024,22.184,0.027,33.276
			c0,1.658,0.255,3.166-1.763,4.303c-11.751,6.623-23.397,13.432-36.144,20.795C310.288,387.44,310.307,374.022,310.262,360.604z
			 M346.423,467.225c-11.693,6.674-23.331,13.449-35.767,20.646c0-7.129,0.004-13.57-0.001-20.012
			c-0.005-6.861-0.01-13.723-0.029-20.586c-0.004-1.396-0.214-2.861,1.275-3.717c11.933-6.852,23.869-13.693,36.479-20.926
			c0,14.293-0.019,27.814,0.025,41.336C348.412,465.563,347.827,466.422,346.423,467.225z M385.005,250.015
			c-0.038,0-0.077,0-0.114,0c0-5.78,0.106-11.562-0.052-17.338c-0.065-2.431,0.524-3.951,2.801-5.231
			c10.703-6.016,21.321-12.186,31.898-18.422c2.788-1.645,3.634-1.378,3.597,2.068c-0.133,12.183-0.083,24.369,0.055,36.552
			c0.025,2.195-0.759,3.364-2.57,4.395c-10.805,6.149-21.588,12.338-32.311,18.63c-2.591,1.52-3.432,1.254-3.352-1.91
			C385.118,262.514,385.005,256.263,385.005,250.015z M385.313,315.838c0-0.602,37.196-21.779,37.899-21.779
			c0,13.701-0.009,27.373,0.015,41.044c0.002,1.24-0.5,1.889-1.595,2.516c-11.812,6.764-23.58,13.605-36.296,20.967
			C385.336,344.336,385.313,329.088,385.313,315.838z M422.079,445.217c-11.953,6.814-23.861,13.705-36.396,20.926
			c0-13.305,0.005-25.887-0.002-38.469c-0.004-7.805-0.01-15.607-0.051-23.412c-0.01-1.75,0-3.203,1.922-4.293
			c11.721-6.639,23.359-13.426,35.947-20.693c0,21.43,0.003,41.871-0.008,62.312C423.49,442.956,423.682,444.303,422.079,445.217z
			 M460.065,206.837c-0.046,0-0.092,0-0.138,0c0-5.938,0.105-11.879-0.052-17.813c-0.062-2.321,0.663-3.636,2.725-4.801
			c10.691-6.039,21.316-12.199,31.897-18.43c2.631-1.549,3.688-1.646,3.65,1.963c-0.128,12.187-0.074,24.377,0.063,36.564
			c0.025,2.175-0.691,3.426-2.514,4.464c-10.803,6.153-21.594,12.33-32.321,18.615c-2.474,1.45-3.45,1.495-3.361-1.814
			C460.185,219.341,460.065,213.087,460.065,206.837z M460.369,271.388c0,0,28.391-15.964,37.86-21.417
			c0,14.472-0.019,28.153,0.027,41.833c0.005,1.537-0.846,2.156-1.982,2.811c-11.68,6.709-23.344,13.447-35.854,20.664
			C460.42,304.496,460.369,281.337,460.369,271.388z M496.836,380.557c-11.841,6.723-23.623,13.549-36.159,20.762
			c0-14.17,0.037-27.426-0.042-40.682c-0.011-1.924,0.476-3.16,2.202-4.143c11.584-6.586,23.125-13.25,35.494-20.359
			c0,3.072-0.005,5.594,0.001,8.117c0.028,10.607,0.074,21.215,0.079,31.825C498.413,377.719,498.842,379.418,496.836,380.557z"/>
	</g>
</g>
</svg>
