<?xml version="1.0" encoding="utf-8"?>
<!-- Generator: Adobe Illustrator 16.0.0, SVG Export Plug-In . SVG Version: 6.00 Build 0)  -->
<!DOCTYPE svg PUBLIC "-//W3C//DTD SVG 1.0//EN" "http://www.w3.org/TR/2001/REC-SVG-20010904/DTD/svg10.dtd">
<svg version="1.0" id="Layer_1" xmlns="http://www.w3.org/2000/svg" xmlns:xlink="http://www.w3.org/1999/xlink" x="0px" y="0px"
	 width="601px" height="601px" viewBox="0 46.445 601 601" enable-background="new 0 46.445 601 601" xml:space="preserve">
<path d="M374.05,272.125v-148.82c0-41.093-33.317-74.41-74.41-74.41H76.41C35.317,48.895,2,82.212,2,123.305v520.87h372.05H597.28
	V383.74L374.05,272.125z M113.615,513.958c0,10.282-8.32,18.603-18.603,18.603H57.808c-10.283,0-18.603-8.32-18.603-18.603v-37.205
	c0-10.283,8.319-18.603,18.603-18.603h37.205c10.282,0,18.603,8.319,18.603,18.603V513.958z M113.615,402.343
	c0,10.282-8.32,18.603-18.603,18.603H57.808c-10.283,0-18.603-8.32-18.603-18.603v-37.205c0-10.283,8.319-18.603,18.603-18.603
	h37.205c10.282,0,18.603,8.32,18.603,18.603V402.343z M113.615,290.728c0,10.282-8.32,18.603-18.603,18.603H57.808
	c-10.283,0-18.603-8.32-18.603-18.603v-37.205c0-10.282,8.319-18.603,18.603-18.603h37.205c10.282,0,18.603,8.32,18.603,18.603
	V290.728z M113.615,179.112c0,10.283-8.32,18.603-18.603,18.603H57.808c-10.283,0-18.603-8.32-18.603-18.603v-37.205
	c0-10.282,8.319-18.603,18.603-18.603h37.205c10.282,0,18.603,8.32,18.603,18.603V179.112z M225.23,513.958
	c0,10.282-8.319,18.603-18.603,18.603h-37.205c-10.282,0-18.603-8.32-18.603-18.603v-37.205c0-10.283,8.32-18.603,18.603-18.603
	h37.205c10.283,0,18.603,8.319,18.603,18.603V513.958z M225.23,402.343c0,10.282-8.319,18.603-18.603,18.603h-37.205
	c-10.282,0-18.603-8.32-18.603-18.603v-37.205c0-10.283,8.32-18.603,18.603-18.603h37.205c10.283,0,18.603,8.32,18.603,18.603
	V402.343z M225.23,290.728c0,10.282-8.319,18.603-18.603,18.603h-37.205c-10.282,0-18.603-8.32-18.603-18.603v-37.205
	c0-10.282,8.32-18.603,18.603-18.603h37.205c10.283,0,18.603,8.32,18.603,18.603V290.728z M225.23,179.112
	c0,10.283-8.319,18.603-18.603,18.603h-37.205c-10.282,0-18.603-8.32-18.603-18.603v-37.205c0-10.282,8.32-18.603,18.603-18.603
	h37.205c10.283,0,18.603,8.32,18.603,18.603V179.112z M336.845,513.958c0,10.282-8.32,18.603-18.603,18.603h-37.205
	c-10.282,0-18.603-8.32-18.603-18.603v-37.205c0-10.283,8.32-18.603,18.603-18.603h37.205c10.282,0,18.603,8.319,18.603,18.603
	V513.958z M336.845,402.343c0,10.282-8.32,18.603-18.603,18.603h-37.205c-10.282,0-18.603-8.32-18.603-18.603v-37.205
	c0-10.283,8.32-18.603,18.603-18.603h37.205c10.282,0,18.603,8.32,18.603,18.603V402.343z M336.845,290.728
	c0,10.282-8.32,18.603-18.603,18.603h-37.205c-10.282,0-18.603-8.32-18.603-18.603v-37.205c0-10.282,8.32-18.603,18.603-18.603
	h37.205c10.282,0,18.603,8.32,18.603,18.603V290.728z M336.845,179.112c0,10.283-8.32,18.603-18.603,18.603h-37.205
	c-10.282,0-18.603-8.32-18.603-18.603v-37.205c0-10.282,8.32-18.603,18.603-18.603h37.205c10.282,0,18.603,8.32,18.603,18.603
	V179.112z M522.87,606.97H411.255V476.753c0-30.811,24.997-55.808,55.808-55.808s55.808,24.997,55.808,55.808V606.97z"/>
</svg>
