<?xml version="1.0" encoding="utf-8"?>
<!-- Generator: Adobe Illustrator 16.0.0, SVG Export Plug-In . SVG Version: 6.00 Build 0)  -->
<!DOCTYPE svg PUBLIC "-//W3C//DTD SVG 1.1//EN" "http://www.w3.org/Graphics/SVG/1.1/DTD/svg11.dtd">
<svg version="1.1" id="Layer_1" xmlns="http://www.w3.org/2000/svg" xmlns:xlink="http://www.w3.org/1999/xlink" x="0px" y="0px"
	 width="28px" height="28px" viewBox="0 0 28 28" enable-background="new 0 0 28 28" xml:space="preserve">
<g>
	<path d="M10.419,1.001H2.581C1.975,1.001,1.5,1.487,1.5,2.107v23.785C1.5,26.514,1.975,27,2.581,27h7.838
		c0.486,0,0.903-0.351,1.061-0.895L11.5,2.107C11.5,1.487,11.025,1.001,10.419,1.001z M10.5,25.885
		c-0.034,0.082-0.072,0.112-0.083,0.116H7.269C7.183,25.646,6.88,25.376,6.5,25.376s-0.683,0.271-0.769,0.625h-3.15
		c-0.081,0-0.081-0.077-0.081-0.106V2.107c0-0.071,0.027-0.106,0.081-0.106h7.838c0.081,0,0.081,0.077,0.081,0.106V25.885z"/>
	<path d="M25.419,5.011h-7.838c-0.606,0-1.081,0.486-1.081,1.106v19.775c0,0.621,0.475,1.106,1.081,1.106h7.838
		c0.638,0,1.081-0.511,1.081-0.969V6.118C26.5,5.497,26.025,5.011,25.419,5.011z M25.419,26.001H22.27
		c-0.086-0.354-0.391-0.625-0.77-0.625s-0.684,0.271-0.77,0.625h-3.149c-0.081,0-0.081-0.077-0.081-0.106V6.118
		c0-0.048,0.014-0.106,0.081-0.106h7.838c0.081,0,0.081,0.077,0.081,0.106l0.016,19.842C25.514,25.961,25.484,26.001,25.419,26.001z
		"/>
</g>
</svg>
