<?xml version="1.0" encoding="utf-8"?>
<!-- Generator: Adobe Illustrator 16.0.0, SVG Export Plug-In . SVG Version: 6.00 Build 0)  -->
<!DOCTYPE svg PUBLIC "-//W3C//DTD SVG 1.1//EN" "http://www.w3.org/Graphics/SVG/1.1/DTD/svg11.dtd">
<svg version="1.1" id="Layer_1" xmlns="http://www.w3.org/2000/svg" xmlns:xlink="http://www.w3.org/1999/xlink" x="0px" y="0px"
	 width="100px" height="100px" viewBox="0 0 100 100" enable-background="new 0 0 100 100" xml:space="preserve">
<g>
	<path fill="#020202" d="M81.04,22.645l-10.93,6.422v0.053v28.411l3.644,2.26l-8.035,5.021V24.463l-15.647-9.191l-15.647,9.192
		v0.078v39.222l-7.161-4.477l2.77-1.705V29.066l-10.93-6.42L8.172,29.067v0.053v28.41l10.931,6.777h0.002l5.134-3.158l10.186,6.365
		v6.627l15.647,9.703h0.002l15.646-9.621v-5.658l11.05-6.904l4.271,2.646h0.002l10.929-6.725V29.066L81.04,22.645z M10.987,29.514
		l8.117-4.767l8.119,4.763l-8.116,4.952L10.987,29.514z M23.422,54.023v5.621l-3.121,1.904V36.46l8.424-5.138v25.09l-2.582,1.574
		v-5.621L23.422,54.023z M50.071,32.707l-12.467-7.603l12.467-7.322l12.465,7.322L50.071,32.707z M63.846,73.402l-3.692,2.252V66.75
		l-3.898,2.379v8.906l-4.466,2.725V34.712l12.057-7.355V73.402L63.846,73.402z M72.924,29.514l8.117-4.767l8.118,4.763l-8.117,4.952
		L72.924,29.514z M90.661,56.412l-2.578,1.574v-5.621l-2.722,1.66v5.619l-3.122,1.904V36.46l8.422-5.138V56.412z"/>
</g>
</svg>
