<?xml version="1.0" encoding="utf-8"?>
<!-- Generator: Adobe Illustrator 16.0.0, SVG Export Plug-In . SVG Version: 6.00 Build 0)  -->
<!DOCTYPE svg PUBLIC "-//W3C//DTD SVG 1.1//EN" "http://www.w3.org/Graphics/SVG/1.1/DTD/svg11.dtd">
<svg version="1.1" id="Layer_1" xmlns="http://www.w3.org/2000/svg" xmlns:xlink="http://www.w3.org/1999/xlink" x="0px" y="0px"
	 width="100px" height="100px" viewBox="0 0 100 100" enable-background="new 0 0 100 100" xml:space="preserve">
<g id="Your_Icon">
	<path d="M87,42.75c-3.525,0-6.436,2.25-6.921,6.25H61c0-3-0.62-4.209-1.682-5.796l15.82-15.945c0.576,0.231,1.201,0.304,1.86,0.304
		c2.762,0,5-2.27,5-5.031c0-2.761-2.238-5.016-5-5.016c-2.763,0-5,2.23-5,4.992c0,1.289,0.501,2.448,1.302,3.335L57.883,41.26
		c-1.566-1.489-3.609-2.483-5.883-2.709V19.42c3.391-0.486,6-3.394,6-6.92c0-3.866-3.134-7-7-7s-7,3.134-7,7
		c0,3.526,2.609,6.434,6,6.92v19.13c-2.135,0.212-4.066,1.102-5.592,2.443L29.489,26.075C30.419,25.167,31,23.903,31,22.5
		c0-2.762-2.238-5-5-5s-5,2.238-5,5s2.238,5,5,5c0.619,0,1.206-0.127,1.753-0.333l15.292,15.542C41.767,44.388,41,46,41,49H20.92
		c-0.486-4-3.395-6.25-6.92-6.25c-3.866,0-7,3.009-7,6.875c0,3.867,3.134,7.188,7,7.188c3.526,0,6.434-2.812,6.92-5.812H41.2
		c0.38,1,1.29,3.3,2.557,4.633L29.338,69.927c-0.886-0.801-2.049-1.364-3.338-1.364c-2.762,0-5,2.207-5,4.97
		c0,2.762,2.238,4.983,5,4.983s5-2.246,5-5.008c0-0.658-0.135-1.289-0.366-1.863l14.82-14.822c1.326,0.886,2.875,1.462,4.546,1.628
		v20.13c-3.391,0.486-6,3.396-6,6.921c0,3.867,3.134,7,7,7s7-3.133,7-7c0-3.524-2.609-6.435-6-6.921V58.45
		c1.887-0.188,3.611-0.906,5.042-1.994l15.291,15.291C72.127,72.294,72,72.881,72,73.5c0,2.762,2.238,5,5,5s5-2.238,5-5
		s-2.238-5-5-5c-1.402,0-2.666,0.581-3.574,1.511L58.507,55.342C59.635,54.059,60.445,52,60.799,51h19.28
		c0.485,3,3.396,5.75,6.921,5.75c3.866,0,7-3.133,7-7C94,45.884,90.866,42.75,87,42.75z"/>
</g>
</svg>
