<?xml version="1.0" encoding="utf-8"?>
<!-- Generator: Adobe Illustrator 16.0.0, SVG Export Plug-In . SVG Version: 6.00 Build 0)  -->
<!DOCTYPE svg PUBLIC "-//W3C//DTD SVG 1.1//EN" "http://www.w3.org/Graphics/SVG/1.1/DTD/svg11.dtd">
<svg version="1.1" id="Layer_1" xmlns="http://www.w3.org/2000/svg" xmlns:xlink="http://www.w3.org/1999/xlink" x="0px" y="0px"
	 width="18.008px" height="18.105px" viewBox="0 0 18.008 18.105" enable-background="new 0 0 18.008 18.105" xml:space="preserve">
<path id="XMLID_57_" fill="#818282" d="M17.131,15.16c-1.9-1.006-3.334-1.543-4.602-1.723l0.299-0.418l-0.311-1.254
	c0.119-0.168,0.238-0.346,0.346-0.537c1.459-0.479,1.732-1.305,1.77-2.009h0.061c0.477,0,0.857-0.382,0.857-0.86V6.089
	c0-0.478-0.381-0.86-0.857-0.86h-0.061C14.537,0.592,10.678,0.09,9.004,0.09c-1.673,0-5.533,0.502-5.628,5.15h-0.06
	c-0.478,0-0.86,0.382-0.86,0.86v2.271c0,0.478,0.382,0.86,0.86,0.86H3.77c0.215,0,0.418-0.083,0.573-0.215
	c0.155,0.981,0.55,1.948,1.136,2.761L5.18,13.033l0.299,0.418c-1.267,0.178-2.701,0.717-4.601,1.721
	c-0.514,0.273-0.837,0.799-0.837,1.375v1.469h7.374h10.552v-1.469C17.967,15.959,17.645,15.433,17.131,15.16z M7.583,16.498
	l-0.227,1.158H0.4v-1.123c0-0.455,0.251-0.861,0.645-1.064c1.948-1.027,3.382-1.553,4.637-1.695h0.037l1.876,2.568L7.583,16.498z
	 M3.328,5.599h0.454c0.275,0,0.502,0.227,0.502,0.502v2.271c0,0.274-0.227,0.501-0.502,0.501H3.328
	c-0.276,0-0.502-0.227-0.502-0.501V6.101C2.814,5.825,3.041,5.599,3.328,5.599z M3.782,5.24H3.734
	c0.095-4.326,3.704-4.792,5.27-4.792c1.566,0,5.174,0.466,5.271,4.792h-0.051c-0.201,0-0.393,0.072-0.535,0.191
	c-0.287-2.331-2.297-4.134-4.686-4.134c-2.39,0-4.397,1.792-4.685,4.134C4.164,5.312,3.973,5.24,3.782,5.24z M14.68,8.873h-0.455
	c-0.273,0-0.5-0.227-0.5-0.501V6.101c0-0.275,0.227-0.502,0.5-0.502h0.455c0.275,0,0.502,0.227,0.502,0.502v2.271
	C15.193,8.646,14.967,8.873,14.68,8.873z M13.104,10.785c0.273-0.561,0.453-1.172,0.549-1.769c0.154,0.144,0.359,0.215,0.572,0.215
	h0.051C14.25,9.781,14.047,10.379,13.104,10.785z M10.414,16.342l1.875-2.568h0.037c1.268,0.154,2.699,0.682,4.648,1.695
	c0.395,0.215,0.645,0.621,0.645,1.064v1.123h-6.955l-0.225-1.158L10.414,16.342z M8.06,16.15l0.944-2.113l0.945,2.113H8.06z
	 M10.26,15.97l-0.98-2.209c0.011,0,0.011,0,0.023,0c0.023,0,0.059,0,0.083-0.012h0.024c0.048,0,0.083-0.012,0.13-0.012l0.049-0.014
	c0.98-0.154,1.898-0.729,2.641-1.6l0.203,0.824L10.26,15.97z M9.303,11.299h-0.12v0.357h0.12c1.255,0,2.269-0.096,3.058-0.271
	c-0.072,0.105-0.143,0.213-0.227,0.309l-0.023,0.023c-0.754,0.969-1.686,1.543-2.677,1.674H9.386
	c-0.06,0.012-0.106,0.012-0.167,0.012c-0.036,0-0.072,0-0.107,0H8.896c-0.035,0-0.071,0-0.107,0c-0.06,0-0.107-0.012-0.167-0.012
	H8.574c-1.004-0.131-1.924-0.717-2.676-1.674l-0.013-0.023l-0.012-0.012c-0.764-1.002-1.23-2.331-1.23-3.549V6.017
	c0-2.414,1.959-4.374,4.374-4.374s4.373,1.96,4.373,4.374v2.115c0,0.932-0.262,1.924-0.752,2.809
	C11.824,11.191,10.736,11.299,9.303,11.299z M5.766,12.125c0.741,0.871,1.672,1.434,2.641,1.6l0.048,0.014
	c0.048,0.012,0.083,0.012,0.143,0.012h0.024c0.024,0,0.06,0.012,0.084,0.012c0.011,0,0.011,0,0.023,0l-0.98,2.209L5.55,12.949
	L5.766,12.125z M7.939,16.498h2.141l0.227,1.158H7.714L7.939,16.498z"/>
</svg>
