<?xml version="1.0" encoding="utf-8"?>
<!-- Generator: Adobe Illustrator 16.0.0, SVG Export Plug-In . SVG Version: 6.00 Build 0)  -->
<!DOCTYPE svg PUBLIC "-//W3C//DTD SVG 1.1//EN" "http://www.w3.org/Graphics/SVG/1.1/DTD/svg11.dtd">
<svg version="1.1" id="Layer_1" xmlns="http://www.w3.org/2000/svg" xmlns:xlink="http://www.w3.org/1999/xlink" x="0px" y="0px"
	 width="45px" height="45px" viewBox="0 -15 45 45" enable-background="new 0 -15 45 45" xml:space="preserve">
<g>
	<path d="M40.703,15.612c0.398-0.548,0.609-1.194,0.609-1.87v-3.528l0.322-0.123c0.971-0.369,1.785-1.065,2.293-1.961
		c0.508-0.894,0.686-1.941,0.5-2.951c-0.186-1.009-0.727-1.929-1.523-2.589c-0.795-0.662-1.807-1.03-2.848-1.036h-1.303v-3.872
		c0-1.116-0.439-2.166-1.238-2.955C36.729-6.053,35.635-6.5,34.52-6.5H10.367c-1.133,0-2.197,0.436-2.997,1.227
		c-0.799,0.79-1.239,1.839-1.239,2.955v3.918H4.826C3.82,1.63,2.831,2.008,2.056,2.666c-0.773,0.657-1.3,1.563-1.483,2.554
		C0.389,6.21,0.557,7.242,1.044,8.126c0.487,0.885,1.275,1.585,2.219,1.97l0.311,0.127v3.52c-0.001,0.675,0.21,1.321,0.609,1.869
		c0.399,0.55,0.954,0.953,1.604,1.168l0.343,0.113v3.171c0,0.116,0.045,0.225,0.128,0.306c0.171,0.169,0.47,0.168,0.637,0.001
		c0.083-0.082,0.129-0.19,0.129-0.307v-3.075h30.836v2.889c0,0.115,0.045,0.225,0.129,0.307c0.166,0.163,0.465,0.167,0.637-0.001
		c0.082-0.081,0.127-0.19,0.127-0.306v-2.984l0.344-0.113C39.748,16.564,40.303,16.16,40.703,15.612z M7.025-2.318
		c0-0.885,0.348-1.716,0.981-2.342c0.631-0.624,1.469-0.967,2.361-0.967H34.52c0.891,0,1.73,0.344,2.359,0.967
		c0.633,0.625,0.982,1.457,0.982,2.342v4.361l-0.248,0.145c-0.293,0.17-0.559,0.378-0.795,0.62c-0.52,0.474-0.898,1.049-1.117,1.685
		l-0.115,0.338H9.299L9.183,4.493C8.966,3.857,8.588,3.282,8.088,2.828c-0.257-0.262-0.524-0.47-0.815-0.641L7.025,2.043V-2.318z
		 M35.445,5.704v4.652H9.44V5.704H35.445z M5.009,2.426c0.446,0,0.881,0.083,1.293,0.247C6.731,2.841,7.116,3.09,7.447,3.41
		c0.347,0.33,0.622,0.723,0.812,1.166C8.45,5.02,8.546,5.488,8.546,5.97v4.823c0,0.113,0.047,0.226,0.129,0.307
		c0.083,0.082,0.198,0.129,0.318,0.129h26.899c0.121,0,0.234-0.046,0.318-0.129c0.082-0.082,0.129-0.191,0.129-0.307V5.97
		c-0.021-0.443,0.049-0.904,0.209-1.346c0.162-0.441,0.404-0.84,0.725-1.186c0.645-0.699,1.525-1.108,2.479-1.151l0.166-0.004
		c0.895,0,1.75,0.328,2.41,0.924c0.699,0.63,1.125,1.526,1.166,2.459c0.088,0.832-0.141,1.693-0.65,2.397
		c-0.508,0.701-1.254,1.195-2.104,1.391c-0.084,0.021-0.168,0.076-0.23,0.152c-0.057,0.072-0.09,0.165-0.092,0.26v3.876
		c0,0.627-0.258,1.239-0.703,1.681c-0.453,0.446-1.053,0.692-1.691,0.692H6.862c-0.639,0-1.239-0.246-1.691-0.693
		c-0.447-0.441-0.703-1.054-0.703-1.68V9.856C4.466,9.771,4.433,9.679,4.374,9.605C4.313,9.53,4.229,9.476,4.135,9.451
		C3.279,9.305,2.486,8.825,1.938,8.11C1.39,7.395,1.137,6.508,1.229,5.613C1.32,4.719,1.746,3.899,2.427,3.307
		c0.653-0.568,1.492-0.881,2.362-0.881l0.098,0.001"/>
</g>
</svg>
