<?xml version="1.0" encoding="utf-8"?>
<!-- Generator: Adobe Illustrator 16.0.0, SVG Export Plug-In . SVG Version: 6.00 Build 0)  -->
<!DOCTYPE svg PUBLIC "-//W3C//DTD SVG 1.1//EN" "http://www.w3.org/Graphics/SVG/1.1/DTD/svg11.dtd">
<svg version="1.1" id="Layer_1" xmlns="http://www.w3.org/2000/svg" xmlns:xlink="http://www.w3.org/1999/xlink" x="0px" y="0px"
	 width="18.008px" height="18.105px" viewBox="0 0 18.008 18.105" enable-background="new 0 0 18.008 18.105" xml:space="preserve">
<path id="XMLID_1_" fill="#818282" d="M16.496,6.656c-0.107,0-0.203,0.012-0.299,0.023V4.858c0-1.319-1.068-2.398-2.397-2.398h-9.59
	c-1.318,0-2.397,1.079-2.397,2.398v1.821c-0.096-0.023-0.191-0.023-0.3-0.023c-0.839,0-1.498,0.671-1.498,1.498v2.386
	c0,0.839,0.671,1.51,1.498,1.51h0.3v3.297c0,0.168,0.132,0.299,0.3,0.299H3.07c0.168,0,0.336-0.131,0.372-0.286l0.863-3.31h9.386
	l0.863,3.31c0.036,0.155,0.203,0.286,0.371,0.286h0.959c0.168,0,0.3-0.143,0.3-0.299V12.05h0.312c0.827,0,1.499-0.671,1.499-1.498
	V8.154C17.995,7.327,17.323,6.656,16.496,6.656z M2.411,4.858c0-0.996,0.803-1.799,1.798-1.799h9.59
	c0.994,0,1.798,0.803,1.798,1.799v2.085c-0.36,0.275-0.6,0.707-0.6,1.199v0.91H3.011V8.154c0-0.492-0.24-0.923-0.6-1.199V4.858z
	 M2.915,15.047H2.411V12.05h1.282L2.915,15.047z M15.597,15.047h-0.504l-0.779-2.997h1.283V15.047z M17.395,10.552
	c0,0.491-0.396,0.899-0.899,0.899H1.512c-0.491,0-0.899-0.408-0.899-0.899V8.154c0-0.492,0.396-0.899,0.899-0.899
	c0.492,0,0.899,0.407,0.899,0.899v1.199c0,0.167,0.132,0.299,0.3,0.299h12.586c0.168,0,0.3-0.132,0.3-0.299V8.154
	c0-0.492,0.395-0.899,0.898-0.899c0.492,0,0.899,0.407,0.899,0.899V10.552z"/>
</svg>
