<?xml version="1.0" encoding="utf-8"?>
<!-- Generator: Adobe Illustrator 16.0.0, SVG Export Plug-In . SVG Version: 6.00 Build 0)  -->
<!DOCTYPE svg PUBLIC "-//W3C//DTD SVG 1.1//EN" "http://www.w3.org/Graphics/SVG/1.1/DTD/svg11.dtd">
<svg version="1.1" id="Layer_1" xmlns="http://www.w3.org/2000/svg" xmlns:xlink="http://www.w3.org/1999/xlink" x="0px" y="0px"
	 width="1500.5px" height="1480.5px" viewBox="0 0 1500.5 1480.5" enable-background="new 0 0 1500.5 1480.5" xml:space="preserve">
<g>
	<path d="M1253.488,456.552c-85.715-190.467-277.293-323.403-499.348-323.403c-221.568,0-412.807,132.368-498.791,322.182
		C138.544,470.706,48.838,562.091,48.838,672.514c0,109.474,88.192,200.179,203.55,216.681
		c37.733,97.344,103.385,205.555,212.63,285.512c-7.063,15.438-11.003,32.6-11.003,50.686c0,67.355,54.603,121.959,121.958,121.959
		s121.958-54.604,121.958-121.959s-54.603-121.959-121.958-121.959c-28.367,0-54.472,9.688-75.188,25.93
		c-117.664-85.1-180.036-206.203-210.542-304.959V524.085c65.364-193.501,248.619-333.198,463.896-333.198
		c207.283,0,384.867,129.502,456.129,311.845v389.155c133.334,0,241.393-98.193,241.393-219.373
		C1451.662,564.729,1366.203,475.073,1253.488,456.552z"/>
	<path d="M966.986,668.918c-144.193,0-267.596-84.867-325.868-206.84C593.04,562.842,500.665,638.512,388.365,661.497
		c0,2.556-0.708,4.866-0.708,7.436c0,199.997,162.097,362.079,362.079,362.079c199.983,0,362.081-162.096,362.081-362.079
		c0-9.918-2.121-19.232-2.902-28.991C1065.268,658.538,1017.334,668.918,966.986,668.918z"/>
</g>
</svg>
