<?xml version="1.0" encoding="utf-8"?>
<!-- Generator: Adobe Illustrator 16.0.0, SVG Export Plug-In . SVG Version: 6.00 Build 0)  -->
<!DOCTYPE svg PUBLIC "-//W3C//DTD SVG 1.1//EN" "http://www.w3.org/Graphics/SVG/1.1/DTD/svg11.dtd">
<svg version="1.1" id="Layer_1" xmlns="http://www.w3.org/2000/svg" xmlns:xlink="http://www.w3.org/1999/xlink" x="0px" y="0px"
	 width="100px" height="100px" viewBox="0 0 100 100" enable-background="new 0 0 100 100" xml:space="preserve">
<g id="browser_2_">
	<path d="M89.347,21.1H11.79c-3.889,0-7.053,3.164-7.053,7.05v46.12c0,3.888,3.162,7.051,7.053,7.051h77.557
		c3.889,0,7.053-3.163,7.053-7.051V28.148C96.399,24.263,93.235,21.1,89.347,21.1z M11.783,25.799h77.561
		c1.303,0,2.352,1.053,2.352,2.349v7.914H9.438v-7.914C9.438,26.852,10.49,25.799,11.783,25.799z M89.347,76.612H11.79
		c-1.3,0-2.351-1.05-2.351-2.347V40.757h82.259v33.509C91.698,75.564,90.646,76.612,89.347,76.612z"/>
	<circle cx="15.9" cy="31.071" r="2.52"/>
	<circle cx="22.953" cy="31.071" r="2.52"/>
	<circle cx="30.002" cy="31.071" r="2.52"/>
	<path d="M15.9,69.307h23.891V46.391H15.9V69.307z M20.6,51.09h14.496v13.519H20.6V51.09z"/>
	<rect x="44.919" y="46.2" width="29.58" height="4.697"/>
	<rect x="50.781" y="49.027" transform="matrix(-0.0052 -1 1 -0.0052 -3.8449 110.6809)" width="4.701" height="16.451"/>
	<rect x="44.919" y="64.411" width="16.454" height="4.701"/>
</g>
</svg>
