<?xml version="1.0" encoding="utf-8"?>
<!-- Generator: Adobe Illustrator 16.0.0, SVG Export Plug-In . SVG Version: 6.00 Build 0)  -->
<!DOCTYPE svg PUBLIC "-//W3C//DTD SVG 1.1//EN" "http://www.w3.org/Graphics/SVG/1.1/DTD/svg11.dtd">
<svg version="1.1" id="Layer_1" xmlns="http://www.w3.org/2000/svg" xmlns:xlink="http://www.w3.org/1999/xlink" x="0px" y="0px"
	 width="1500.5px" height="1480.5px" viewBox="0 0 1500.5 1480.5" enable-background="new 0 0 1500.5 1480.5" xml:space="preserve">
<path d="M746.107,317.728c58.29,30.189,116.541,60.456,174.885,90.542c42.496,21.914,85.121,43.587,130.39,66.749
	c0-45.444,0-88.485,0-132.603c34.149,0,66.175,0,100.403,0c0,8.764,0,17.458,0,26.155c0,46.33,0.924,92.687-0.509,138.972
	c-0.493,15.834,5.868,22.101,18.616,28.495c71.688,35.96,142.947,72.78,214.342,109.328c2.439,1.248,4.768,2.707,8.786,5.006
	c-16.756,24.693-33.135,48.829-50.149,73.892c-6.229-2.883-11.744-5.205-17.055-7.922
	c-189.424-96.969-378.881-193.87-568.096-291.251c-10.646-5.48-18.197-3.23-27.584,1.585
	c-191.724,98.336-383.563,196.446-575.394,294.577c-1.922,0.982-4.021,1.623-7.432,2.977
	c-16.372-23.941-32.648-47.751-50.169-73.375c6.4-3.683,11.784-7.097,17.436-9.988c204.341-104.511,408.715-208.96,613.038-313.506
	c5.302-2.712,10.104-6.397,15.142-9.629C743.874,317.728,744.987,317.728,746.107,317.728z"/>
<path d="M585.7,903.367c0,42.651,0,85.31,0,129.258c-30.045,0-58.68,0-88.673,0c0-90.495,0-180.583,0-273.024
	c29.933,0,59.844-0.474,89.704,0.531c4.285,0.148,9.349,6.798,12.318,11.521c17.106,27.229,33.691,54.783,51.527,83.985
	c16.471-27.053,32.6-51.744,46.756-77.52c7.639-13.901,16.506-19.857,32.747-18.88c24.353,1.481,48.86,0.389,74.174,0.389
	c0,91.561,0,181.686,0,273.061c-30.107,0-59.242,0-89.965,0c0-43.771,0-86.964,0-130.153c-1.035-0.337-2.07-0.68-3.109-1.02
	c-20.076,30.842-40.153,61.675-61.382,94.277c-20.81-31.907-40.912-62.729-61.015-93.556
	C587.756,902.611,586.73,902.987,585.7,903.367z"/>
<path d="M1156.084,1032.23c0-90.72,0-180.732,0-272.709c44.844,0,88.737-0.407,132.625,0.176
	c20.512,0.276,41.594-0.157,61.398,4.287c49.279,11.051,70.492,62.71,41.799,100.371c-8.049,10.568-20.727,17.614-31.632,26.567
	c3.181,1.518,7.408,3.841,11.85,5.604c23.907,9.508,38.136,26.85,40.387,52.488c2.476,28.255-6.541,53.031-32.515,66.129
	c-17.332,8.743-37.481,15.58-56.642,16.33C1268.358,1033.618,1213.222,1032.23,1156.084,1032.23z M1245.932,963.988
	c19.267,0,36.814,1.873,53.632-0.835c7.795-1.254,17.883-10.446,19.872-17.918c1.393-5.246-8.435-18.901-14.47-19.709
	c-19.413-2.59-39.392-0.962-59.034-0.962C1245.932,938.414,1245.932,950.497,1245.932,963.988z M1246.011,866.18
	c17.97,0,34.32,1.853,49.881-0.844c6.938-1.202,15.6-10.848,17.148-18.027c0.972-4.496-9.084-15.383-15.53-16.674
	c-16.445-3.287-33.646-2.796-51.499-3.876C1246.011,841.468,1246.011,853.374,1246.011,866.18z"/>
<path d="M79.006,1033.982c0-92.256,0-182.375,0-274.756c33.931,0,67.213-0.771,100.434,0.279c21.582,0.681,43.62,1.71,64.518,6.589
	c66.206,15.452,102.098,61.034,102.97,127.53c0.839,63.942-35.323,114.111-98.302,130.247c-27.656,7.08-57.089,8.121-85.839,9.779
	C135.657,1035.215,108.367,1033.982,79.006,1033.982z M170.649,954.101c30.292-1.463,60.448,0.625,76.46-29.428
	c11.432-21.454,10.654-45.007-4.929-64.435c-18.511-23.063-45.003-21.67-71.531-19.77
	C170.649,878.81,170.649,915.298,170.649,954.101z"/>
<path d="M1021.115,1142.119c-27.364,0-52.778,0-80.496,0c0-30.287-0.608-60.221,0.294-90.109
	c0.372-12.433-2.886-18.034-15.515-22.309c-62.569-21.169-101.267-81.991-95.046-146.826
	c6.225-64.885,56.347-116.75,122.771-127.027c66.541-10.301,128.1,16.765,157.805,69.387
	c43.297,76.706,9.634,171.129-73.359,202.624c-13.759,5.222-17.126,11.822-16.725,25.189
	C1021.718,1082.408,1021.115,1111.812,1021.115,1142.119z M1090.831,896.15c-0.003-59.978-49.465-109.545-109.366-109.6
	c-61.065-0.049-110.88,49.379-110.934,110.07c-0.052,60.114,51.136,110.627,111.397,109.919
	C1042.103,1005.833,1090.831,956.436,1090.831,896.15z"/>
<path d="M464.058,760.181c0,91.843,0,181.546,0,272.568c-29.869,0-59.108,0-90.125,0c0-90.464,0-180.996,0-272.568
	C403.311,760.181,433.11,760.181,464.058,760.181z"/>
</svg>
