<?xml version="1.0" encoding="utf-8"?>
<!-- Generator: Adobe Illustrator 16.0.0, SVG Export Plug-In . SVG Version: 6.00 Build 0)  -->
<!DOCTYPE svg PUBLIC "-//W3C//DTD SVG 1.1//EN" "http://www.w3.org/Graphics/SVG/1.1/DTD/svg11.dtd">
<svg version="1.1" id="Layer_1" xmlns="http://www.w3.org/2000/svg" xmlns:xlink="http://www.w3.org/1999/xlink" x="0px" y="0px"
	 width="100px" height="100px" viewBox="0 0 100 100" enable-background="new 0 0 100 100" xml:space="preserve">
<g id="Calque_2">
	<path display="none" d="M87.927,84.595H7.788l0.035-8.929c0.369-1.671,0.917-3.254,1.629-4.704
		c0.593-1.275,1.414-2.529,2.498-3.806c1.13-1.332,2.601-2.338,4.373-2.99c0.667-0.277,7.497-3.873,12.485-6.497
		c3.852-2.026,6.601-3.47,7.954-4.165v-2.483l-0.313-1.188c-0.164-0.583-0.336-1.198-0.524-1.829
		c-0.206-0.688-0.449-1.437-0.722-2.233c-1.108-2.087-2.005-4.472-2.658-7.096c-0.093-0.375-0.169-0.754-0.245-1.132l-0.251-1.247
		l0.882-0.546c1.336-0.826,2.134-2.249,2.134-3.806v-3.652c0-1.149-0.435-2.238-1.221-3.065l-0.487-0.512l0.086-0.7
		c0.496-4.023,1.868-7.253,4.08-9.603c3.136-3.331,7.312-4.217,9.521-4.45l1.265-0.068l2.046,0.164
		c2.039,0.305,5.891,1.276,8.789,4.353c2.212,2.349,3.582,5.58,4.077,9.604l0.087,0.7l-0.485,0.512
		c-0.788,0.828-1.223,1.916-1.223,3.065v3.652c0,1.062,0.38,2.092,1.068,2.895l0.544,0.638l-0.261,0.797
		c-0.524,1.603-1.386,2.933-2.557,3.954c-1.874,1.629-4.574,2.47-8.029,2.505l-0.635,0.005l-0.443-0.453
		c-0.778-0.792-1.855-1.246-2.955-1.246c-2.285,0-4.144,1.859-4.144,4.145s1.859,4.145,4.144,4.145c0.918,0,1.823-0.311,2.548-0.88
		l0.429-0.332l0.834,0.021c2.312,0,4.464-0.303,6.397-0.9l2.686-0.831l-1.1,3.634c-0.212,0.748-0.214,1.005-0.214,1.016v2.838
		c1.474,0.759,4.552,2.394,8.896,4.705c4.462,2.374,10.014,5.329,10.602,5.579c1.783,0.642,3.28,1.648,4.411,2.979
		c1.064,1.249,1.888,2.502,2.509,3.83c0.712,1.469,1.243,3.062,1.567,4.717l0.028,0.285v8.606H87.927z M30.197,60.312
		c-10.024,5.273-12.435,6.522-12.895,6.671c-1.25,0.464-2.274,1.156-3.079,2.105c-0.908,1.069-1.588,2.104-2.081,3.161
		c-0.598,1.221-1.057,2.526-1.372,3.906v5.455H84.94v-5.472c-0.277-1.355-0.717-2.655-1.306-3.868
		c-0.516-1.101-1.195-2.134-2.087-3.18c-0.803-0.944-1.845-1.638-3.188-2.12c-0.395-0.137-2.341-1.156-10.954-5.738
		c-4.248-2.261-9.063-4.822-9.584-5.049l-0.895-0.391l-0.003-4.739c0-0.111,0.006-0.231,0.02-0.36
		c-1.483,0.275-3.046,0.419-4.674,0.427c-1.163,0.77-2.544,1.191-3.94,1.191c-3.931,0-7.128-3.199-7.128-7.13
		c0-3.932,3.198-7.129,7.128-7.129c1.669,0,3.303,0.604,4.582,1.679c2.438-0.102,4.294-0.691,5.522-1.759
		c0.588-0.512,1.061-1.159,1.407-1.93c-0.797-1.208-1.229-2.633-1.229-4.099v-3.652c0-1.666,0.548-3.257,1.555-4.555
		c-0.473-3.076-1.549-5.524-3.201-7.28c-2.259-2.396-5.336-3.183-7.006-3.439l-1.694-0.133l-0.993,0.052
		c-1.369,0.146-5.013,0.794-7.582,3.523c-1.652,1.755-2.728,4.203-3.201,7.278c1.007,1.298,1.555,2.888,1.555,4.555v3.652
		c0,2.238-0.984,4.309-2.676,5.717c0.021,0.1,0.044,0.197,0.067,0.294c0.605,2.425,1.43,4.615,2.449,6.508l0.096,0.222
		c0.304,0.88,0.572,1.706,0.799,2.464c0.193,0.647,0.371,1.278,0.546,1.903l0.417,1.774v4.563 M67.459,25.445
		c-0.354-5.812-2.146-10.464-5.365-13.866c-5.535-5.853-13.205-5.798-13.764-5.78c-0.585-0.017-8.236-0.062-13.763,5.78
		c-3.218,3.403-5.012,8.053-5.366,13.866c-1.058,0.516-1.794,1.591-1.794,2.848v3.653c0,1.757,1.423,3.178,3.176,3.178
		c1.754,0,3.178-1.421,3.178-3.178v-3.653c0-1.244-0.722-2.309-1.763-2.831c0.335-5.052,1.862-9.057,4.575-11.939
		c4.744-5.04,11.661-4.936,11.719-4.932l0.039-1.347l0.038,1.347c0.055-0.003,6.974-0.108,11.717,4.931
		c2.713,2.88,4.24,6.886,4.574,11.94c-1.039,0.522-1.761,1.587-1.761,2.831v3.653c0,1.236,0.713,2.295,1.74,2.821
		c-0.219,1.454-0.945,4.314-3.393,6.442c-2.395,2.081-5.869,3.009-10.336,2.794c-0.448-0.979-1.432-1.663-2.58-1.663
		c-1.571,0-2.843,1.272-2.843,2.843c0,1.57,1.272,2.843,2.843,2.843c0.976,0,1.835-0.492,2.347-1.24
		c0.493,0.023,0.987,0.051,1.464,0.051c4.596,0,8.274-1.19,10.972-3.551c3.314-2.904,4.138-6.735,4.344-8.491
		c1.06-0.514,1.796-1.591,1.796-2.849v-3.653C69.254,27.035,68.519,25.96,67.459,25.445z"/>
	<path d="M74.447,36.438H24.669v-2.984h49.778V36.438z M65.702,20.523H33.415v2.984h32.288V20.523z M74.447,41.413H24.669v2.983
		h49.778V41.413z M74.447,49.371H24.669v2.984h49.778V49.371z M74.447,57.328H24.669v2.984h49.778V57.328z M74.447,65.285H24.669
		v2.985h49.778V65.285z M78.952,5.92H20.62c-2.748,0-4.974,2.226-4.974,4.973v78.336c0,2.746,2.226,4.974,4.974,4.974h44.706
		c-2.056-0.479-3.894-1.531-5.329-2.985H20.62c-1.097,0-1.989-0.891-1.989-1.988V10.893c0-1.098,0.892-1.989,1.989-1.989h58.332
		c1.097,0,1.989,0.891,1.989,1.989v78.336c0,1.098-0.893,1.988-1.989,1.988h-3.295c-1.436,1.454-3.274,2.506-5.331,2.985h8.626
		c2.747,0,4.974-2.228,4.974-4.974V10.893C83.926,8.147,81.699,5.92,78.952,5.92z M63.812,73.244H24.669v2.984h34.898
		C60.717,74.922,62.167,73.891,63.812,73.244z M74.447,73.244h-2.605c0.938,0.368,1.812,0.864,2.605,1.465V73.244z M75.855,83.488
		c0,3.692-2.494,6.793-5.889,7.729c-0.685,0.188-1.396,0.299-2.14,0.299c-0.742,0-1.457-0.109-2.138-0.299
		c-3.395-0.937-5.891-4.039-5.891-7.729c0-3.214,1.893-5.978,4.618-7.26c1.035-0.487,2.189-0.769,3.409-0.769
		c1.221,0,2.375,0.281,3.41,0.769C73.963,77.511,75.855,80.274,75.855,83.488z M72.64,80.335c-0.334-0.334-0.771-0.5-1.208-0.5
		s-0.875,0.166-1.208,0.5l-3.44,3.442l-1.354-1.354c-0.335-0.333-0.771-0.501-1.208-0.501s-0.872,0.168-1.207,0.501
		c-0.667,0.666-0.667,1.749,0,2.416l2.561,2.561c0.319,0.32,0.756,0.5,1.208,0.5c0.453,0,0.889-0.18,1.209-0.5l4.647-4.651
		C73.307,82.084,73.307,81.002,72.64,80.335z"/>
	<path display="none" d="M31.167,49.384c0-1.407-1.14-2.548-2.548-2.548h-4.077c-1.406,0-2.547,1.141-2.547,2.548v4.669
		c0,1.408,1.141,2.548,2.547,2.548h4.077c1.407,0,2.548-1.14,2.548-2.548V49.384z M43.109,49.384c0-1.407-1.14-2.548-2.548-2.548
		h-4.076c-1.407,0-2.548,1.141-2.548,2.548v4.669c0,1.408,1.14,2.548,2.548,2.548h4.076c1.407,0,2.548-1.14,2.548-2.548V49.384z
		 M55.052,49.384c0-1.407-1.141-2.548-2.547-2.548h-4.076c-1.408,0-2.548,1.141-2.548,2.548v4.669c0,1.408,1.14,2.548,2.548,2.548
		h4.076c1.406,0,2.547-1.14,2.547-2.548V49.384z M28.619,63.083c0.308,0,0.559,0.251,0.559,0.559v4.67
		c0,0.309-0.251,0.559-0.559,0.559h-4.077c-0.308,0-0.558-0.25-0.558-0.559v-4.67c0-0.308,0.25-0.559,0.558-0.559H28.619
		 M28.619,61.093h-4.077c-1.406,0-2.547,1.142-2.547,2.549v4.67c0,1.407,1.141,2.548,2.547,2.548h4.077
		c1.407,0,2.548-1.14,2.548-2.548v-4.67C31.167,62.235,30.026,61.093,28.619,61.093L28.619,61.093z M40.562,63.083
		c0.308,0,0.558,0.251,0.558,0.559v4.67c0,0.309-0.25,0.559-0.558,0.559h-4.076c-0.307,0-0.558-0.25-0.558-0.559v-4.67
		c0-0.308,0.251-0.559,0.558-0.559H40.562 M40.562,61.093h-4.076c-1.407,0-2.548,1.142-2.548,2.549v4.67
		c0,1.407,1.14,2.548,2.548,2.548h4.076c1.407,0,2.548-1.14,2.548-2.548v-4.67C43.109,62.235,41.969,61.093,40.562,61.093
		L40.562,61.093z M52.505,63.083c0.308,0,0.558,0.251,0.558,0.559v4.67c0,0.309-0.25,0.559-0.558,0.559h-4.076
		c-0.308,0-0.559-0.25-0.559-0.559v-4.67c0-0.308,0.25-0.559,0.559-0.559H52.505 M52.505,61.093h-4.076
		c-1.408,0-2.548,1.142-2.548,2.549v4.67c0,1.407,1.14,2.548,2.548,2.548h4.076c1.406,0,2.547-1.14,2.547-2.548v-4.67
		C55.052,62.235,53.911,61.093,52.505,61.093L52.505,61.093z M64.447,63.083c0.31,0,0.56,0.251,0.56,0.559v4.67
		c0,0.309-0.25,0.559-0.56,0.559h-4.075c-0.308,0-0.56-0.25-0.56-0.559v-4.67c0-0.308,0.252-0.559,0.56-0.559H64.447 M64.447,61.093
		h-4.075c-1.406,0-2.549,1.142-2.549,2.549v4.67c0,1.407,1.14,2.548,2.549,2.548h4.075c1.407,0,2.549-1.14,2.549-2.548v-4.67
		C66.996,62.235,65.854,61.093,64.447,61.093L64.447,61.093z M62.595,55.803l5.224-5.225c0.751-0.75,0.751-1.966,0-2.715
		c-0.749-0.75-1.966-0.75-2.715,0l-3.867,3.869l-1.522-1.522c-0.748-0.75-1.964-0.75-2.715,0c-0.75,0.748-0.75,1.966,0,2.715
		l2.88,2.878c0.361,0.36,0.85,0.562,1.357,0.562C61.745,56.364,62.234,56.163,62.595,55.803z M60.417,49.506l0.819,0.819L64.4,47.16
		c0.109-0.109,0.232-0.202,0.355-0.293c-0.103-0.012-0.201-0.031-0.31-0.031h-4.075c-1.166,0-2.14,0.789-2.44,1.859
		c0.142-0.021,0.28-0.043,0.428-0.043C59.136,48.652,59.867,48.955,60.417,49.506z M63.183,56.601h1.265
		c1.407,0,2.549-1.14,2.549-2.548v-1.245l-3.699,3.698C63.263,56.542,63.221,56.567,63.183,56.601z M84.958,33.915
		c-0.239-0.43-0.663-0.688-1.114-0.747v-5.795v-2.984v-0.977v-2.302c0-0.293-0.041-0.577-0.088-0.856
		c-0.411-2.455-2.527-4.33-5.098-4.33h-4.296c-1.375-3.757-4.98-6.45-9.208-6.45c-4.229,0-7.829,2.693-9.203,6.45H37.842
		c-1.374-3.757-4.979-6.45-9.208-6.45c-5.407,0-9.805,4.398-9.805,9.805c0,0.295,0.019,0.587,0.043,0.877l-0.104,0.047
		c-0.031,0.014-0.062,0.029-0.093,0.042l-0.126,0.057h0.021c-1.77,0.826-3.005,2.609-3.005,4.691v12.802
		c-0.824,0-1.493,0.668-1.493,1.492s0.669,1.493,1.493,1.493v38.238c0,2.864,2.321,5.186,5.186,5.186h41.94h0.995h2.985l4.152-4.33
		h4.451c2.131-0.394,3.793-2.089,4.148-4.231c2.409-0.448,4.235-2.554,4.235-5.09V36.353l0.729-0.407
		C85.105,35.544,85.359,34.634,84.958,33.915z M80.634,20.156c0.141,0.289,0.227,0.609,0.227,0.953v2.031v1.249v2.984v7.126
		l-5.587,3.126v-6.368v-2.984v-0.979v-2.303c0-0.293-0.038-0.576-0.088-0.856c-0.409-2.455-2.526-4.33-5.097-4.33H58.359
		c-0.015-0.176-0.026-0.351-0.026-0.528c0-0.125,0.013-0.248,0.02-0.371h20.307C79.527,18.906,80.275,19.419,80.634,20.156z
		 M65.154,12.456c2.54,0,4.754,1.4,5.928,3.466H59.221C60.395,13.856,62.609,12.456,65.154,12.456z M55.374,19.804H26.083
		l2.131-0.898h27.153c-0.004,0.124-0.02,0.246-0.02,0.37C55.348,19.455,55.366,19.629,55.374,19.804z M28.634,12.456
		c2.541,0,4.755,1.4,5.929,3.466h-5.244c-0.672,0-1.309,0.139-1.898,0.37h-0.021l-0.047,0.021c-0.045,0.02-0.089,0.041-0.134,0.061
		l-5.381,2.438C22.077,15.268,25.028,12.456,28.634,12.456z M18.547,24.991c0-0.797,0.43-1.489,1.065-1.876
		c1.497,3.504,4.977,5.966,9.021,5.966c0.825,0,1.491-0.667,1.491-1.491c0-0.824-0.667-1.492-1.491-1.492
		c-2.476,0-4.641-1.33-5.836-3.309H56.01c1.416,3.674,4.975,6.292,9.143,6.292c0.824,0,1.492-0.667,1.492-1.491
		c0-0.824-0.668-1.492-1.492-1.492c-2.476,0-4.64-1.33-5.836-3.309h10.77c0.87,0,1.62,0.513,1.976,1.249
		c0.142,0.289,0.226,0.61,0.226,0.953v2.031v1.249v2.984v6.538h-53.74V24.991z M20.749,81.22c-1.214,0-2.202-0.989-2.202-2.204
		V40.778h53.827V72.16h-3.716c-2.746,0-4.975,2.227-4.975,4.974v4.086H20.749z M66.669,80.107v-2.977
		c0-1.097,0.892-1.987,1.989-1.987h2.833L66.669,80.107z M76.523,74.783c0,0.343-0.086,0.662-0.227,0.953
		c-0.202,0.417-0.547,0.757-1.023,0.976h-1.421l1.506-1.568v-2.392v-0.594v-0.994V40.778h0.39l0.775-0.435v32.406V74.783z
		 M80.672,70.551c0,0.836-0.477,1.556-1.163,1.929V38.673l1.163-0.65V70.551z"/>
	<path display="none" d="M85.134,36.389c-0.239-0.43-0.663-0.688-1.115-0.747v-5.795v-2.985v-0.977v-2.303
		c0-0.293-0.038-0.577-0.086-0.856c-0.411-2.455-2.529-4.329-5.101-4.329h-4.295c-1.374-3.759-4.979-6.452-9.209-6.452
		c-4.227,0-7.828,2.695-9.2,6.452H38.019c-1.375-3.759-4.979-6.452-9.208-6.452c-5.408,0-9.805,4.399-9.805,9.805
		c0,0.297,0.019,0.589,0.045,0.879l-0.105,0.047c-0.031,0.013-0.062,0.028-0.093,0.042l-0.126,0.058h0.021
		c-1.771,0.825-3.005,2.608-3.005,4.692v12.799c-0.824,0-1.493,0.669-1.493,1.492c0,0.824,0.668,1.492,1.493,1.492v38.24
		c0,2.862,2.321,5.184,5.186,5.184h41.939h0.995h2.984l4.152-4.328h4.45c2.132-0.396,3.792-2.092,4.15-4.233
		c2.408-0.446,4.234-2.553,4.234-5.09V38.827l0.729-0.408C85.277,38.016,85.536,37.106,85.134,36.389z M80.808,22.63
		c0.14,0.289,0.226,0.609,0.226,0.952v2.032v1.248v2.985v7.127l-5.585,3.125v-6.371v-2.984v-0.976v-2.302
		c0-0.293-0.039-0.577-0.086-0.856c-0.409-2.455-2.529-4.331-5.1-4.331H58.535c-0.013-0.175-0.025-0.351-0.025-0.529
		c0-0.124,0.011-0.246,0.018-0.369h20.307C79.703,21.38,80.453,21.893,80.808,22.63z M65.328,14.927c2.543,0,4.757,1.4,5.93,3.468
		H59.396C60.57,16.33,62.788,14.927,65.328,14.927z M55.552,22.278H26.257l2.13-0.898h27.156c-0.004,0.124-0.02,0.244-0.02,0.369
		C55.523,21.928,55.541,22.102,55.552,22.278z M28.81,14.927c2.541,0,4.754,1.4,5.929,3.468h-5.244c-0.671,0-1.308,0.137-1.898,0.37
		h-0.022l-0.052,0.022c-0.04,0.017-0.077,0.037-0.117,0.054l-5.394,2.441C22.252,17.741,25.205,14.927,28.81,14.927z M18.725,27.464
		c0-0.797,0.43-1.489,1.064-1.875c1.497,3.503,4.976,5.966,9.02,5.966c0.824,0,1.492-0.667,1.492-1.492
		c0-0.825-0.668-1.492-1.492-1.492c-2.475,0-4.64-1.33-5.835-3.309h33.212c1.418,3.673,4.976,6.292,9.143,6.292
		c0.824,0,1.492-0.667,1.492-1.492c0-0.825-0.668-1.492-1.492-1.492c-2.475,0-4.641-1.33-5.836-3.309h10.77
		c0.872,0,1.62,0.513,1.976,1.25c0.14,0.289,0.226,0.61,0.226,0.952v2.032v1.248v2.984v6.538H18.725V27.464z M20.926,83.691
		c-1.214,0-2.201-0.987-2.201-2.201V43.25H72.55v31.381h-3.714c-2.75,0-4.976,2.228-4.976,4.974v4.086H20.926z M66.846,82.581
		v-2.976c0-1.098,0.89-1.99,1.99-1.99h2.833L66.846,82.581z M76.698,77.254c0,0.344-0.086,0.664-0.226,0.953
		c-0.201,0.417-0.548,0.758-1.025,0.978h-1.418l1.506-1.569v-2.392V74.63v-0.995V43.25h0.389l0.774-0.434v32.407V77.254z
		 M80.847,73.022c0,0.837-0.476,1.558-1.164,1.928V41.148l1.164-0.652V73.022z M54.548,57.336v-5.253c0-1.58,1.28-2.863,2.861-2.863
		h4.583c1.581,0,2.863,1.283,2.863,2.863v5.252c0,1.582-1.282,2.863-2.863,2.863h-4.583C55.828,60.199,54.548,58.918,54.548,57.336z
		 M64.855,73.362v-5.248c0-1.583-1.282-2.866-2.863-2.866h-4.583c-1.581,0-2.861,1.283-2.861,2.866v5.248
		c0,1.584,1.28,2.866,2.861,2.866h4.583C63.573,76.229,64.855,74.946,64.855,73.362z M62.619,73.362c0,0.348-0.282,0.63-0.627,0.63
		h-4.583c-0.346,0-0.625-0.282-0.625-0.63v-5.248c0-0.346,0.279-0.627,0.625-0.627h4.583c0.345,0,0.627,0.281,0.627,0.627V73.362z
		 M39.13,57.336v-5.253c0-1.58,1.281-2.863,2.864-2.863h4.582c1.581,0,2.864,1.283,2.864,2.863v5.252
		c0,1.582-1.283,2.863-2.864,2.863h-4.582C40.412,60.199,39.13,58.918,39.13,57.336z M50.367,66.403
		c0.842,0.843,0.842,2.211,0,3.054l-5.874,5.872c-0.405,0.404-0.954,0.634-1.526,0.634c-0.572,0-1.121-0.229-1.525-0.634
		l-3.236-3.236c-0.844-0.841-0.844-2.209,0-3.053c0.843-0.84,2.208-0.84,3.05,0l1.711,1.712l4.348-4.349
		C48.155,65.562,49.523,65.562,50.367,66.403z M34.024,52.083v5.252c0,1.582-1.282,2.863-2.865,2.863h-4.581
		c-1.583,0-2.865-1.281-2.865-2.863v-5.252c0-1.58,1.282-2.863,2.865-2.863h4.581C32.742,49.221,34.024,50.503,34.024,52.083z
		 M45.283,76.122l4.157-4.159v1.401c0,1.582-1.283,2.864-2.864,2.864h-1.423C45.195,76.191,45.243,76.161,45.283,76.122z
		 M34.024,68.114v5.248c0,1.584-1.282,2.866-2.865,2.866h-4.581c-1.583,0-2.865-1.282-2.865-2.866v-5.248
		c0-1.583,1.282-2.866,2.865-2.866h4.581C32.742,65.248,34.024,66.531,34.024,68.114z M46.576,65.248
		c0.119,0,0.231,0.021,0.348,0.036c-0.14,0.103-0.277,0.206-0.401,0.33l-3.556,3.558l-0.92-0.922
		c-0.619-0.617-1.441-0.958-2.317-0.958c-0.163,0-0.321,0.023-0.478,0.047c0.339-1.203,1.432-2.091,2.743-2.091H46.576
		L46.576,65.248z"/>
</g>
</svg>
