<?xml version="1.0" encoding="utf-8"?>
<!-- Generator: Adobe Illustrator 16.0.0, SVG Export Plug-In . SVG Version: 6.00 Build 0)  -->
<!DOCTYPE svg PUBLIC "-//W3C//DTD SVG 1.1//EN" "http://www.w3.org/Graphics/SVG/1.1/DTD/svg11.dtd">
<svg version="1.1" id="Layer_1" xmlns="http://www.w3.org/2000/svg" xmlns:xlink="http://www.w3.org/1999/xlink" x="0px" y="0px"
	 width="100px" height="100px" viewBox="0 0 100 100" enable-background="new 0 0 100 100" xml:space="preserve">
<g>
	<path d="M68.107,38.126L43.564,63.213L32.895,52.308c-0.483-0.493-1.273-0.502-1.768-0.02c-0.494,0.482-0.502,1.274-0.02,1.768
		L42.67,65.874c0.235,0.24,0.557,0.376,0.894,0.376s0.658-0.136,0.894-0.376l25.437-26c0.482-0.493,0.474-1.285-0.02-1.768
		C69.382,37.624,68.59,37.632,68.107,38.126z"/>
	<path d="M80.605,2H32.786c-0.021,0-0.038,0.011-0.059,0.012c-0.019,0-0.035-0.011-0.055-0.011c-0.532,0-0.988,0.321-1.186,0.778
		L12.618,22.528c-0.362,0.229-0.616,0.612-0.616,1.071c0,0.017,0.009,0.031,0.01,0.048c0,0.014-0.008,0.026-0.008,0.04v67.021
		c0,4.173,4.451,7.292,8.43,7.292h60.171c3.826,0,6.396-2.93,6.396-7.292V9.471C87.001,5.002,84.429,2,80.605,2z M31.38,6.629
		v10.966c0,1.106-0.275,4.715-3.809,4.715H16.399L31.38,6.629z M84.414,90.708c0,1.106-0.275,4.716-3.809,4.716H20.433
		c-2.645,0-5.841-2.104-5.841-4.716V24.887h12.979c3.825,0,6.396-2.93,6.396-7.292V4.577h46.639c2.808,0,3.809,2.527,3.809,4.894
		V90.708z"/>
</g>
</svg>
