<?xml version="1.0" encoding="utf-8"?>
<!-- Generator: Adobe Illustrator 16.0.0, SVG Export Plug-In . SVG Version: 6.00 Build 0)  -->
<!DOCTYPE svg PUBLIC "-//W3C//DTD SVG 1.1//EN" "http://www.w3.org/Graphics/SVG/1.1/DTD/svg11.dtd">
<svg version="1.1" id="Your_Icon" xmlns="http://www.w3.org/2000/svg" xmlns:xlink="http://www.w3.org/1999/xlink" x="0px" y="0px"
	 width="100px" height="100px" viewBox="0 0 100 100" enable-background="new 0 0 100 100" xml:space="preserve">
<g>
	<path d="M71.117,67.52l-10.893-7.787c-0.291-0.244-0.648-0.36-1.027-0.36c-0.758,0-1.604,0.463-2.205,1.295l-9.168,12.672
		c-0.802,1.11-0.288,2.415,0.796,2.415c0.135,0,0.28-0.02,0.432-0.062l4.452-1.283L53.57,100l12.268-3.549l-0.064-25.596
		l4.455-1.285C71.592,69.177,71.994,68.255,71.117,67.52z"/>
	<g>
		<path d="M46.795,34.15c-1.22,0-2.34-0.807-2.684-2.04c-0.415-1.484,0.452-3.022,1.936-3.436l22.393-6.253
			c1.482-0.415,3.021,0.453,3.437,1.936c0.414,1.484-0.453,3.022-1.937,3.436l-22.393,6.253
			C47.296,34.117,47.043,34.15,46.795,34.15z"/>
	</g>
	<g>
		<path d="M46.795,45.188c-1.22,0-2.34-0.807-2.684-2.04c-0.415-1.484,0.452-3.022,1.936-3.436l22.393-6.253
			c1.482-0.414,3.021,0.453,3.437,1.936c0.414,1.484-0.453,3.022-1.937,3.436l-22.393,6.253
			C47.296,45.155,47.043,45.188,46.795,45.188z"/>
	</g>
	<g>
		<path d="M46.795,55.557c-1.22,0-2.34-0.807-2.684-2.039c-0.415-1.483,0.452-3.021,1.936-3.437l22.393-6.253
			c1.482-0.414,3.021,0.453,3.437,1.936c0.414,1.484-0.453,3.022-1.937,3.436l-22.393,6.253
			C47.296,55.523,47.043,55.557,46.795,55.557z"/>
	</g>
	<path d="M77.564,6.743c-1.84,0.403-4.142,0.993-6.728,1.696V6.655c0-3.613-3.021-7.324-6.551-6.551
		c-9.412,2.06-30.718,8.959-41.853,11.353c-3.531,0.759-6.552,3.736-6.552,7.349v60.952c0,3.613,2.976,7.061,6.552,6.553
		c1.999-0.285,4.267-0.748,6.728-1.341v1.429c0,3.612,2.975,7.061,6.551,6.552c4.176-0.595,9.636-1.999,15.438-3.71l-0.014-5.614
		c-5.567,1.638-10.976,3.147-15.425,4.188c-0.761,0.179-1.416-0.635-1.416-1.416V26.74c-0.078-1.792,0.619-3.287,2.715-3.847
		c6.07-1.623,21.952-5.945,31.944-8.668l1.881-0.512l0,0c4.035-1.1,6.729-1.834,6.729-1.834c0.781,0,1.416,0.635,1.416,1.416v60.953
		c0,0.781-0.666,1.203-1.416,1.416c-2.597,0.738-5.82,1.713-9.383,2.801l0.014,5.374c3.404-1.119,6.602-2.17,9.369-3.039
		c3.445-1.083,6.552-2.368,6.552-6.552V13.294C84.117,9.682,81.096,5.97,77.564,6.743z M35.713,18.096
		c-3.531,0.76-6.551,3.737-6.551,7.349V79.46c-2.39,0.647-4.651,1.229-6.728,1.715c-0.761,0.179-1.416-0.636-1.416-1.417V20.1
		c-0.078-1.792,0.619-3.287,2.715-3.847C32.876,13.81,64.287,5.239,64.287,5.239c0.781,0,1.416,0.635,1.416,1.416v3.217
		C55.645,12.732,43.312,16.462,35.713,18.096z"/>
</g>
</svg>
