<?xml version="1.0" encoding="utf-8"?>
<!-- Generator: Adobe Illustrator 16.0.0, SVG Export Plug-In . SVG Version: 6.00 Build 0)  -->
<!DOCTYPE svg PUBLIC "-//W3C//DTD SVG 1.1//EN" "http://www.w3.org/Graphics/SVG/1.1/DTD/svg11.dtd">
<svg version="1.1" id="Layer_1" xmlns="http://www.w3.org/2000/svg" xmlns:xlink="http://www.w3.org/1999/xlink" x="0px" y="0px"
	 width="25px" height="25px" viewBox="0 0 25 25" enable-background="new 0 0 25 25" xml:space="preserve">
<g>
	<path d="M6.586,17.65v0.368h0.25h11.327h0.25V17.65v-0.827v-0.368h-0.25H6.836h-0.25v0.368V17.65z"/>
	<path d="M6.587,14.783v0.367h0.25h11.327h0.25v-0.367v-0.829v-0.367h-0.25H6.837h-0.25v0.367V14.783z"/>
	<path d="M9.129,11.915v0.368h0.25h8.785h0.25v-0.368v-0.828v-0.368h-0.25H9.379h-0.25v0.368V11.915z"/>
	<path d="M20.973,2.118c-0.355-0.399-0.86-0.619-1.423-0.619H8.711c-0.005,0-0.01,0.003-0.015,0.003
		c-0.004,0-0.007-0.002-0.01-0.002c-0.252,0-0.467,0.124-0.612,0.306L3.785,6.138C3.614,6.281,3.5,6.487,3.5,6.725
		c0,0.003,0.002,0.006,0.002,0.009S3.5,6.741,3.5,6.744v14.66c0,0.581,0.287,1.127,0.81,1.535C4.768,23.296,5.351,23.5,5.91,23.5
		h13.64c0.563,0,1.067-0.215,1.42-0.604c0.346-0.382,0.529-0.897,0.529-1.49V3.634C21.499,3.03,21.317,2.505,20.973,2.118z
		 M7.893,4.227v1.184c0,0.054-0.005,0.239-0.077,0.38C7.791,5.84,7.762,5.875,7.728,5.898C7.683,5.928,7.616,5.943,7.529,5.943
		H6.195L7.893,4.227z M19.838,21.784c-0.023,0.047-0.054,0.081-0.093,0.108c-0.029,0.02-0.087,0.043-0.195,0.043H5.911
		c-0.19,0-0.418-0.079-0.593-0.206c-0.17-0.124-0.231-0.249-0.231-0.325V7.507h2.442c0.562,0,1.066-0.214,1.42-0.603
		c0.347-0.381,0.53-0.897,0.53-1.492V3.064H19.55c0.153,0,0.213,0.058,0.255,0.12c0.067,0.101,0.108,0.27,0.108,0.45l0.001,17.771
		C19.914,21.515,19.894,21.673,19.838,21.784z"/>
</g>
</svg>
