<?xml version="1.0" encoding="utf-8"?>
<!-- Generator: Adobe Illustrator 19.2.1, SVG Export Plug-In . SVG Version: 6.00 Build 0)  -->
<svg version="1.1" id="Camada_1" xmlns="http://www.w3.org/2000/svg" xmlns:xlink="http://www.w3.org/1999/xlink" x="0px" y="0px"
	 width="150px" height="150px" viewBox="0 0 150 150" enable-background="new 0 0 150 150" xml:space="preserve">
<g>
	<g>
		<path d="M120.2,43.4c0-2.5-3-4.6-6.7-4.6h-1.6c-0.3,0-0.5-0.2-0.6-0.5c-2.3-11.6-7.7-21.6-14.8-28.3c-0.2-0.2-0.5-0.2-0.7,0
			c-4,3.3-13.2,12.6-17.6,17.2c-0.4,0.4-1.1,0-0.9-0.6c2-7.7,6.5-17.5,9.9-23c0.2-0.3,0.1-0.8-0.3-0.9C83.2,0.9,79.2,0,75,0
			c-4.2,0-8.2,0.9-11.9,2.6c-0.3,0.2-0.5,0.6-0.3,0.9c3.4,5.5,7.9,15.2,9.8,22.9c0.2,0.6-0.5,1.1-0.9,0.6
			c-4.3-4.7-13.4-13.9-17.6-17.1c-0.2-0.2-0.5-0.1-0.7,0c-7.2,6.7-12.5,16.7-14.8,28.3c-0.1,0.3-0.3,0.5-0.6,0.5h-1.6
			c-3.7,0-6.7,2.1-6.7,4.6c0,2.5,3,4.6,6.6,4.6c-0.1,0.9-0.1,1.8-0.1,2.7c-0.1,5.8,1,11.3,3.1,16.6c2.1,5.1,5,9.6,8.8,13.4
			C55.5,88,65,92.1,75,92.1c5.2,0,10.3-1.1,15.1-3.3c4.6-2.1,8.8-5.1,12.3-8.9c7.3-7.8,11.3-18.2,11.3-29.2c0-0.9,0-1.8-0.1-2.7
			C117.3,47.9,120.2,45.9,120.2,43.4z M111.8,48C111.8,48,111.8,48,111.8,48C111.8,48,111.8,48,111.8,48L111.8,48z M38.2,48
			C38.2,48,38.2,48,38.2,48C38.2,48,38.2,48,38.2,48L38.2,48z M38.1,50.7c0-0.3,0-0.5,0-0.8C38.1,50.1,38.1,50.4,38.1,50.7
			c0,0.2,0,0.4,0,0.5C38.1,51,38.1,50.9,38.1,50.7z M38.2,48.1c0,0.2,0,0.5,0,0.7C38.2,48.5,38.2,48.3,38.2,48.1z M38.2,49
			c0,0.2,0,0.4,0,0.6C38.1,49.4,38.1,49.2,38.2,49z M38.1,51.8c0-0.1,0-0.2,0-0.4C38.1,51.5,38.1,51.6,38.1,51.8z M38.1,52
			c0,0.1,0,0.2,0,0.3C38.1,52.2,38.1,52.1,38.1,52z M38.1,52.5c0,0.1,0,0.2,0,0.3C38.1,52.8,38.1,52.6,38.1,52.5z M38.1,53.1
			c0,0.1,0,0.2,0,0.3C38.2,53.3,38.2,53.2,38.1,53.1z M38.2,53.6c0,0.1,0,0.3,0,0.4C38.2,53.9,38.2,53.7,38.2,53.6z M38.2,54.2
			c0,0.2,0,0.3,0,0.5C38.2,54.5,38.2,54.3,38.2,54.2z M38.2,54.7c0,0.2,0,0.4,0.1,0.6C38.3,55.1,38.3,54.9,38.2,54.7z M38.3,55.3
			c0,0.2,0,0.3,0.1,0.5C38.3,55.6,38.3,55.4,38.3,55.3z M38.4,55.9c0,0.1,0,0.3,0.1,0.4C38.4,56.2,38.4,56,38.4,55.9z M38.4,56.5
			c0,0.1,0,0.3,0.1,0.4C38.5,56.7,38.5,56.6,38.4,56.5z M38.5,57c0,0.1,0,0.3,0.1,0.4C38.5,57.3,38.5,57.1,38.5,57z M38.6,57.5
			c0,0.1,0,0.3,0.1,0.4C38.6,57.8,38.6,57.7,38.6,57.5z M38.7,58.1c0,0.2,0.1,0.3,0.1,0.5C38.7,58.4,38.7,58.2,38.7,58.1z
			 M38.8,58.6c0.1,0.4,0.1,0.7,0.2,1.1C38.9,59.3,38.8,58.9,38.8,58.6z M75,90.2c-17.5,0-32.3-13.1-36-30.6h3.1
			c-0.7-2.9-1-5.9-0.9-9c0-0.9,0.1-1.8,0.1-2.8h67.4c0.1,0.9,0.1,1.8,0.1,2.7c0,3.1-0.3,6.1-1,9h3.1c0.1-0.4,0.1-0.7,0.2-1.1
			C107.8,76.6,92.9,90.2,75,90.2z M111.9,51.2c0-0.2,0-0.4,0-0.5c0-0.3,0-0.5,0-0.8c0,0.3,0,0.5,0,0.8
			C111.9,50.9,111.9,51,111.9,51.2z M111.2,58.5c0-0.2,0.1-0.3,0.1-0.5C111.2,58.2,111.2,58.4,111.2,58.5z M111.3,57.9
			c0-0.1,0-0.3,0.1-0.4C111.3,57.7,111.3,57.8,111.3,57.9z M111.4,57.4c0-0.1,0-0.3,0.1-0.4C111.4,57.1,111.4,57.3,111.4,57.4z
			 M111.5,56.9c0-0.1,0-0.3,0.1-0.4C111.5,56.6,111.5,56.7,111.5,56.9z M111.5,56.3c0-0.1,0-0.3,0.1-0.4
			C111.6,56,111.6,56.2,111.5,56.3z M111.6,55.8c0-0.2,0-0.3,0.1-0.5C111.6,55.4,111.6,55.6,111.6,55.8z M111.7,55.2
			c0-0.2,0-0.4,0.1-0.6C111.7,54.9,111.7,55.1,111.7,55.2z M111.7,54.6c0-0.2,0-0.3,0-0.5C111.8,54.3,111.7,54.5,111.7,54.6z
			 M111.8,54c0-0.1,0-0.3,0-0.4C111.8,53.7,111.8,53.9,111.8,54z M111.8,53.4c0-0.1,0-0.2,0-0.3C111.8,53.2,111.8,53.3,111.8,53.4z
			 M111.8,52.9c0-0.1,0-0.2,0-0.3C111.9,52.6,111.9,52.8,111.8,52.9z M111.9,52.3c0-0.1,0-0.2,0-0.3
			C111.9,52.1,111.9,52.2,111.9,52.3z M111.9,51.8c0-0.1,0-0.2,0-0.4C111.9,51.5,111.9,51.6,111.9,51.8z M111.8,48.1
			c0,0.2,0,0.5,0,0.7C111.9,48.5,111.8,48.3,111.8,48.1z M111.9,49c0,0.2,0,0.4,0,0.6C111.9,49.4,111.9,49.2,111.9,49z"/>
		<path d="M75,126.1c1.4-1.1,3.4-3.2,6.1-6.7l-1.9-24c-1.4,0.1-2.8,0.1-4.2,0.1c-1.4,0-2.8-0.1-4.2-0.2l-1.9,24.1
			C71.6,122.9,73.6,125,75,126.1z"/>
		<path d="M105.9,135.5c-0.6,0-1.1-0.5-1.1-1.1v-13.1c0-0.6,0.5-1.1,1.1-1.1h23.5c0.6,0,1.1,0.5,1.1,1.1v3.9
			c5.3-5.9,9.6-12.5,12.7-19.8l-41.7-14.4c0,0-16.6,34.3-26.5,40c-9.9-5.7-26.5-40-26.5-40L6.8,105.4c3.7,8.5,9,16.2,15.6,22.8
			c6.8,6.8,14.8,12.2,23.7,16c9.2,3.9,18.9,5.9,29,5.9s19.8-2,29-5.9c5.4-2.3,10.5-5.2,15.2-8.7H105.9z"/>
	</g>
	<path d="M74.6,84.3c7.2,0,13.1-5.9,13.1-13.1H61.5C61.5,78.4,67.4,84.3,74.6,84.3z"/>
</g>
</svg>
