<?xml version="1.0" encoding="utf-8"?>
<!-- Generator: Adobe Illustrator 16.0.0, SVG Export Plug-In . SVG Version: 6.00 Build 0)  -->
<!DOCTYPE svg PUBLIC "-//W3C//DTD SVG 1.1//EN" "http://www.w3.org/Graphics/SVG/1.1/DTD/svg11.dtd">
<svg version="1.1" id="Layer_1" xmlns="http://www.w3.org/2000/svg" xmlns:xlink="http://www.w3.org/1999/xlink" x="0px" y="0px"
	 width="18.008px" height="18.105px" viewBox="0 0 18.008 18.105" enable-background="new 0 0 18.008 18.105" xml:space="preserve">
<path id="XMLID_27_" fill="#818282" d="M15.697,2.276H2.311c-1.206,0-2.176,0.981-2.176,2.176v9.201c0,1.194,0.97,2.176,2.176,2.176
	h13.387c1.194,0,2.176-0.97,2.176-2.176V4.452C17.873,3.258,16.903,2.276,15.697,2.276z M17.211,13.133
	c0,1.146-0.935,2.081-2.081,2.081H2.878c-1.147,0-2.082-0.935-2.082-2.081V6.664l6.765,4.518c0.852,0.567,1.975,0.579,2.838,0
	l6.823-4.529v6.48H17.211z M17.211,5.635l-7.32,4.872c-0.544,0.367-1.241,0.367-1.785,0L0.797,5.635V4.972
	c0-1.147,0.935-2.081,2.082-2.081h12.263c1.146,0,2.081,0.934,2.081,2.081v0.662H17.211z"/>
</svg>
