<?xml version="1.0" encoding="utf-8"?>
<!-- Generator: Adobe Illustrator 16.0.0, SVG Export Plug-In . SVG Version: 6.00 Build 0)  -->
<!DOCTYPE svg PUBLIC "-//W3C//DTD SVG 1.1//EN" "http://www.w3.org/Graphics/SVG/1.1/DTD/svg11.dtd">
<svg version="1.1" id="Layer_1" xmlns="http://www.w3.org/2000/svg" xmlns:xlink="http://www.w3.org/1999/xlink" x="0px" y="0px"
	 width="1500.5px" height="1480.5px" viewBox="0 0 1500.5 1480.5" enable-background="new 0 0 1500.5 1480.5" xml:space="preserve">
<path d="M749.505,809.314c-149.521,0-271.163,121.65-271.163,271.173c0,149.503,121.66,271.173,271.163,271.173
	s271.173-121.67,271.173-271.173C1020.678,930.965,899.027,809.314,749.505,809.314z M749.505,1411.92
	c-182.769,0-331.442-148.692-331.442-331.433c0-182.778,148.692-331.434,331.442-331.434c182.74,0,331.434,148.693,331.434,331.434
	S932.245,1411.92,749.505,1411.92z"/>
<path d="M1291.851,1053.106h-120.521c-16.647,0-30.131-13.483-30.131-30.13c0-16.629,13.483-30.131,30.131-30.131h120.521
	c49.865,0,90.391-40.525,90.391-90.391V239.598c0-49.865-40.525-90.4-90.391-90.4H207.159c-49.865,0-90.381,40.535-90.381,90.4
	v662.857c0,49.865,40.516,90.391,90.381,90.391h120.521c16.638,0,30.14,13.483,30.14,30.131c0,16.646-13.502,30.13-30.14,30.13
	H207.159c-83.093,0-150.66-67.643-150.66-150.651V239.598c0-83.019,67.567-150.661,150.66-150.661h1084.691
	c83.084,0,150.651,67.643,150.651,150.661v662.857C1442.502,985.464,1374.935,1053.106,1291.851,1053.106z"/>
<path d="M749.505,631.885c-32.164,0-64.328-9.868-91.747-29.678L189.533,264.069c-13.559-9.792-16.562-28.614-6.788-42.116
	c9.802-13.559,28.558-16.412,42.041-6.771L693.001,553.32c34.217,24.782,78.801,24.782,112.998,0l468.225-338.137
	c13.483-9.717,32.315-6.788,42.032,6.771c9.792,13.502,6.704,32.399-6.779,42.041L841.252,602.131
	C813.833,621.942,781.669,631.885,749.505,631.885z"/>
<path d="M207.159,932.585c-7.673,0-15.441-2.938-21.308-8.813c-11.76-11.75-11.76-30.883,0-42.634l301.304-301.303
	c11.741-11.75,30.874-11.75,42.615,0c11.76,11.751,11.76,30.884,0,42.635L228.468,923.771
	C222.602,929.647,214.833,932.585,207.159,932.585z"/>
<path d="M1291.851,932.585c-7.684,0-15.442-2.938-21.317-8.813L969.231,622.469c-11.732-11.751-11.732-30.884,0-42.635
	c11.75-11.75,30.902-11.75,42.634,0l301.303,301.303c11.732,11.751,11.732,30.884,0,42.634
	C1307.292,929.647,1299.533,932.585,1291.851,932.585z"/>
<g>
	<path d="M841.835,1266.391c-33.199,17.477-66.983,24.143-107.414,24.143c-98.978,0-182.844-72.426-182.844-188.314
		c0-124.287,86.295-231.74,220.28-231.74c104.985,0,175.604,73.631,175.604,174.417c0,90.504-50.694,143.608-107.414,143.608
		c-24.143,0-46.477-16.289-44.669-53.104h-2.41c-21.11,35.63-48.858,53.104-85.08,53.104c-34.998,0-65.176-28.359-65.176-76.021
		c0-74.837,59.121-143.025,143.024-143.025c25.95,0,48.868,5.424,64.592,12.654l-20.526,109.223
		c-9.076,45.873-1.808,67.021,18.116,67.623c30.771,0.584,65.157-40.431,65.157-110.465c0-87.51-52.503-150.274-146.038-150.274
		c-98.366,0-181.055,77.849-181.055,200.386c0,100.785,65.797,162.93,155.096,162.93c34.414,0,66.371-7.232,91.135-21.129
		L841.835,1266.391z M808.636,1005.67c-6.026-1.826-16.309-4.237-30.168-4.237c-53.104,0-95.956,50.092-95.956,108.639
		c0,26.552,13.268,45.854,39.819,45.854c34.998,0,66.983-44.631,73.631-82.067L808.636,1005.67z"/>
</g>
</svg>
