<?xml version="1.0" encoding="utf-8"?>
<!-- Generator: Adobe Illustrator 16.0.0, SVG Export Plug-In . SVG Version: 6.00 Build 0)  -->
<!DOCTYPE svg PUBLIC "-//W3C//DTD SVG 1.1//EN" "http://www.w3.org/Graphics/SVG/1.1/DTD/svg11.dtd">
<svg version="1.1" id="Layer_1" xmlns="http://www.w3.org/2000/svg" xmlns:xlink="http://www.w3.org/1999/xlink" x="0px" y="0px"
	 width="1500.5px" height="1480.5px" viewBox="0 0 1500.5 1480.5" enable-background="new 0 0 1500.5 1480.5" xml:space="preserve">
<g>
	<path d="M536.882,285.469V208.48c34.985-21,52.483-59.497,38.48-97.988C561.37,68.5,515.877,47.507,473.878,61.498
		c-41.986,13.998-62.979,59.491-48.987,104.984c7.001,17.493,20.993,31.496,38.491,41.999v234.461c0,416.399,0,794.009,0,794.009
		h-0.046v48.205c0,9.807,8.649,18.456,18.457,18.456h36.89c9.818,0,18.456-8.649,18.456-18.456
		C537.139,1285.155,536.882,462.544,536.882,285.469z"/>
	<path d="M1077.049,991.682c-0.281-8.649-0.584-16.902-0.877-24.593c-1.239-33.104,2.268-41.169-2.314-47.188
		c-9.094-11.958-14.868-1.215-48.777-43.751c-20.55-25.786-48.088-69.923-83.552-145.176
		c-82.466-180.277-263.585-385.488-363.314-439.186c0,0,4.546,84.919,2.875,89.396c-5.821,183.294-1.59,554.579-2.584,597.198
		c-0.584,24.99,10.135,47.947,27.399,69.033c0,0,4.758,9.317,7.06,10.79c13.303,8.544,33.22,25.656,33.22,25.656
		c13.432,9.585,28.767,19.169,42.186,24.921c47.948,23.027,170.693,105.492,237.823,174.538
		c67.117,69.035,122.744,139.998,122.744,139.998s28.767-172.609,30.684-260.838
		C1080.648,1114.884,1078.896,1045.475,1077.049,991.682z"/>
</g>
</svg>
