<?xml version="1.0" encoding="utf-8"?>
<!-- Generator: Adobe Illustrator 16.0.0, SVG Export Plug-In . SVG Version: 6.00 Build 0)  -->
<!DOCTYPE svg PUBLIC "-//W3C//DTD SVG 1.1//EN" "http://www.w3.org/Graphics/SVG/1.1/DTD/svg11.dtd">
<svg version="1.1" id="Layer_1" xmlns="http://www.w3.org/2000/svg" xmlns:xlink="http://www.w3.org/1999/xlink" x="0px" y="0px"
	 width="1500.5px" height="1480.5px" viewBox="0 0 1500.5 1480.5" enable-background="new 0 0 1500.5 1480.5" xml:space="preserve">
<g>
	<path d="M448.25,230.778V1404.61c0,13.329-11.755,25.103-25.103,25.103h-50.171c-13.348,0-25.102-11.773-25.102-25.103V230.778
		c-30.585-18.032-50.19-50.188-50.19-86.261c0-55.678,44.69-100.378,100.377-100.378s100.378,44.7,100.378,100.378
		C498.439,180.59,478.834,212.746,448.25,230.778z M1202.815,1342.1c0,17.697-10.997,24.396-24.893,31.574
		c-54.06,29.187-113.883,55.509-176.57,55.509c-88.038,0-130.148-67-234.45-67c-76.106,0-156.028,34.454-222.04,69.865
		c-5.269,2.881-10.059,4.312-15.805,4.312c-16.758,0-30.618-13.878-30.618-30.619v-355.069c0-11.472,5.729-19.604,14.833-26.322
		c11.49-7.638,25.367-14.354,37.813-20.577c60.281-30.62,133.506-57.42,201.444-57.42c75.115,0,133.983,24.891,200.489,55.987
		c13.401,6.7,27.297,9.104,42.11,9.104c75.133,0,155.993-65.092,177.066-65.092c16.759,0,30.619,13.896,30.619,30.618V1342.1z"/>
</g>
</svg>
