<?xml version="1.0" encoding="utf-8"?>
<!-- Generator: Adobe Illustrator 16.0.0, SVG Export Plug-In . SVG Version: 6.00 Build 0)  -->
<!DOCTYPE svg PUBLIC "-//W3C//DTD SVG 1.1//EN" "http://www.w3.org/Graphics/SVG/1.1/DTD/svg11.dtd">
<svg version="1.1" id="Layer_1" xmlns="http://www.w3.org/2000/svg" xmlns:xlink="http://www.w3.org/1999/xlink" x="0px" y="0px"
	 width="190.189px" height="190.189px" viewBox="0 0 190.189 190.189" enable-background="new 0 0 190.189 190.189"
	 xml:space="preserve">
<path d="M190.191,74.635c-0.847,0.045-0.624,0.778-0.775,1.242c-1.612,4.881-6.471,7.949-11.333,7.136
	c-5.146-0.856-8.834-5.206-8.751-10.311c0.082-5.225,3.948-9.46,9.203-10.086c4.76-0.567,9.508,2.608,10.883,7.282
	c0.139,0.473,0.271,0.942,0.409,1.413c0.472,0.812-0.134,1.775,0.364,2.584C190.191,74.142,190.191,74.389,190.191,74.635z"/>
<path d="M134.801,138.301c-0.053,5.488-4.771,10.293-10.148,10.124c-6.188-0.198-10.198-4.345-10.381-10.474
	c-0.16-5.445,4.884-10.201,10.351-10.125C130.331,127.907,134.855,132.561,134.801,138.301z"/>
<path d="M145.232,12.948c5.687,0.009,10.265,4.646,10.252,10.383c-0.012,5.59-4.659,10.187-10.268,10.152
	c-5.68-0.034-10.367-4.77-10.275-10.381C135.033,17.456,139.61,12.941,145.232,12.948z"/>
<path d="M64.941,62.439c-5.622-0.038-10.306-4.831-10.216-10.451c0.085-5.508,4.731-10.068,10.212-10.028
	c5.856,0.043,10.452,4.646,10.399,10.416C75.286,57.907,70.566,62.478,64.941,62.439z"/>
<path d="M0.042,117.834c-0.013-0.738-0.024-1.479-0.037-2.219c1.067-5.509,3.828-8.423,8.812-9.302
	c4.654-0.819,9.168,1.859,11.105,6.593c1.639,4.006,0.129,9.135-3.44,11.684c-6.242,4.459-14.228,1.543-16.138-5.887
	C0.27,118.406,0.144,118.124,0.042,117.834z"/>
<path d="M174.039,113.833c-5.697,0.011-10.35-4.65-10.305-10.326c0.042-5.605,4.649-10.19,10.245-10.198
	c5.688-0.007,10.316,4.639,10.3,10.329C184.263,109.223,179.643,113.822,174.039,113.833z"/>
<path d="M74.725,182.441c-5.626-0.054-10.16-4.805-10.068-10.55c0.087-5.412,4.811-10.024,10.273-10.029
	c5.48-0.006,10.365,4.931,10.336,10.441C85.234,177.89,80.447,182.495,74.725,182.441z"/>
<path d="M26.308,85.781c-0.011,5.685-4.514,10.237-10.13,10.245c-5.705,0.009-10.273-4.592-10.259-10.329
	c0.013-5.632,4.577-10.253,10.157-10.281C21.708,75.385,26.318,80.054,26.308,85.781z"/>
<path d="M119.506,88.281c-5.667-0.036-10.233-4.721-10.175-10.444c0.058-5.61,4.654-10.142,10.301-10.157
	c5.399-0.012,10.247,4.877,10.229,10.318C129.846,83.697,125.192,88.314,119.506,88.281z"/>
<path d="M95.766,68.011c-5.578-0.001-10.174-4.447-10.288-9.953c-0.12-5.781,4.485-10.495,10.296-10.54
	c5.652-0.043,10.271,4.625,10.245,10.355C105.991,63.514,101.44,68.013,95.766,68.011z"/>
<path d="M114.544,7.371c5.604,0.009,10.217,4.605,10.237,10.208c0.021,5.682-4.619,10.291-10.341,10.264
	c-5.63-0.026-10.199-4.577-10.229-10.187C104.181,11.982,108.823,7.364,114.544,7.371z"/>
<path d="M94.146,161.752c0.031-5.738,4.609-10.246,10.369-10.209c5.531,0.037,10.045,4.725,10.021,10.399
	c-0.027,5.656-4.57,10.173-10.226,10.164C98.562,172.1,94.115,167.569,94.146,161.752z"/>
<path d="M10.368,145.823c0.02-5.68,4.706-10.294,10.384-10.23c5.392,0.062,10.126,4.848,10.097,10.207
	c-0.03,5.788-4.594,10.436-10.223,10.406C14.952,156.179,10.348,151.517,10.368,145.823z"/>
<path d="M45.888,62.829c0.23,5.06-3.857,10.049-10.159,10.223c-5.668,0.159-10.243-4.631-10.23-10.366
	c0.012-5.604,4.611-10.195,10.208-10.188C41.456,52.502,45.897,57.007,45.888,62.829z"/>
<path d="M143.553,127.127c0.111-5.756,4.746-10.217,10.484-10.092c5.621,0.121,10.065,4.757,9.984,10.407
	c-0.082,5.728-4.708,10.171-10.488,10.069C147.906,137.417,143.441,132.772,143.553,127.127z"/>
<path d="M74.949,28.081c0.056-5.626,4.619-10.146,10.26-10.16c5.65-0.015,10.26,4.675,10.213,10.395
	c-0.045,5.698-4.723,10.237-10.447,10.141C79.355,38.36,74.893,33.743,74.949,28.081z"/>
<path d="M179.262,43.593c-0.058,5.738-4.678,10.191-10.465,10.089c-5.594-0.098-10.074-4.753-10.013-10.397
	c0.06-5.641,4.633-10.116,10.299-10.083C174.817,33.235,179.318,37.83,179.262,43.593z"/>
<path d="M119.975,107.407c-0.004-5.771,4.371-10.229,10.058-10.255c5.729-0.022,10.317,4.528,10.327,10.25
	c0.009,5.697-4.407,10.17-10.11,10.234C124.494,117.703,119.98,113.205,119.975,107.407z"/>
<path d="M43.944,156.17c5.615-0.293,10.407,4.02,10.56,9.954c0.145,5.565-3.813,9.988-9.375,10.39
	c-5.845,0.42-10.847-3.932-11.12-9.422C33.705,161.001,37.808,156.491,43.944,156.17z"/>
</svg>
