<?xml version="1.0" encoding="utf-8"?>
<!-- Generator: Adobe Illustrator 16.0.0, SVG Export Plug-In . SVG Version: 6.00 Build 0)  -->
<!DOCTYPE svg PUBLIC "-//W3C//DTD SVG 1.1//EN" "http://www.w3.org/Graphics/SVG/1.1/DTD/svg11.dtd">
<svg version="1.1" id="Layer_1" xmlns="http://www.w3.org/2000/svg" xmlns:xlink="http://www.w3.org/1999/xlink" x="0px" y="0px"
	 width="787.4px" height="787.4px" viewBox="0 0 787.4 787.4" enable-background="new 0 0 787.4 787.4" xml:space="preserve">
<g>
	<path fill-rule="evenodd" clip-rule="evenodd" d="M427.546,576.703c-7.34,13.122-14.53,25.974-21.723,38.825
		c-1.77,3.164-3.666,6.266-5.272,9.51c-0.726,1.466-0.886,3.212-1.433,5.338c-32.564,5.701-65.88,11.496-99.181,17.378
		c-27.675,4.89-55.329,9.906-82.999,14.82c-22.775,4.044-45.509,8.354-68.363,11.896c-12.154,1.883-24.485,2.438-36.736-0.431
		c-17.19-4.026-28.955-14.493-36.577-30.043c-6.501-13.265-8.947-27.647-11.442-42.019c-3.574-20.587-7.225-41.162-10.849-61.742
		c-3.386-19.227-6.77-38.455-10.172-57.68c-3.402-19.226-6.843-38.444-10.237-57.672c-3.611-20.453-7.179-40.912-10.779-61.367
		c-3.385-19.232-7.06-38.417-10.082-57.706c-1.887-12.042-2.57-24.199,0.092-36.342c4.325-19.72,16.749-32.366,35.019-39.307
		c9.023-3.429,18.638-5.365,28.072-7.614c3.333-0.794,4.846-1.393,4.092-5.501c-2.923-15.94-6.203-31.881-5.375-48.247
		c0.383-7.561,1.934-14.825,5.981-21.37c5.603-9.059,14.233-14.134,24.141-16.437c15.129-3.517,30.456-6.211,45.739-9.029
		c17.855-3.292,35.707-6.666,53.657-9.348c7.905-1.181,16.149-1.673,24.067-0.84c16.2,1.701,24.981,12.717,30.547,26.951
		c5.542,14.172,7.68,29.162,10.527,43.978c1.034,5.381,0.901,5.456,6.393,4.5c16.512-2.876,33.023-5.751,49.514-8.742
		c2.474-0.449,4.105-0.006,5.887,1.922c10.438,11.29,21.01,22.456,31.62,33.583c1.823,1.911,2.283,3.392,0.7,5.814
		c-2.382,3.649-4.626,7.479-6.268,11.501c-2.256,5.526-6.427,7.827-11.844,9.449c-34.792,10.418-62.784,30.658-84.529,59.582
		c-14.622,19.45-24.423,41.177-29.38,65.008c-3.243,15.587-4.102,31.287-2.802,47.235c1.989,24.407,8.809,47.24,21.107,68.312
		c22.335,38.27,54.878,63.771,97.282,76.751c20.777,6.359,41.975,7.769,63.511,6.192c1.506-0.11,3.398,0.498,4.586,1.439
		C418.537,568.816,422.819,572.654,427.546,576.703z"/>
	<path fill-rule="evenodd" clip-rule="evenodd" d="M424.584,171.312c5.792,0,11.118-0.01,16.445,0.001
		c45.162,0.095,90.325,0.156,135.488,0.303c43.611,0.141,87.223,0.3,130.834,0.618c10.386,0.075,20.672,1.355,30.611,4.725
		c19.863,6.733,32.059,20.478,36.207,40.843c1.905,9.355,2.919,19.038,3.025,28.587c0.334,30.518,0.087,61.042,0,91.563
		c-0.053,18.085-0.297,36.169-0.343,54.253c-0.138,55.319-0.182,110.639-0.362,165.959c-0.036,11.291-1.55,22.444-5.257,33.155
		c-6.714,19.406-20.778,30.627-40.356,35.434c-13.994,3.438-28.275,3.025-42.525,2.993c-31.767-0.073-63.534-0.073-95.301-0.172
		c-17.822-0.055-35.645-0.307-53.468-0.361c-39.813-0.124-79.624-0.183-119.438-0.271c-0.751-0.001-1.521,0.056-2.245-0.097
		c-0.913-0.19-1.787-0.565-2.678-0.861c0.372-0.838,0.587-1.802,1.142-2.493c10.96-13.653,21.871-27.349,33.023-40.845
		c2.338-2.829,2.331-4.542-0.163-7.189c-3.569-3.781-6.631-8.04-10.368-12.664c56.086-9.415,98.394-37.785,125.589-87.298
		c16.289-29.659,22.269-61.679,18.587-95.26c-8.332-75.976-68.093-137.014-145.9-146.97c2.842-3.48,5.452-6.689,8.08-9.884
		c1.826-2.221,3.524-4.577,5.56-6.589c2.246-2.219,1.96-4.003,0.298-6.496c-8.535-12.791-16.887-25.702-25.289-38.581
		C425.395,173.125,425.143,172.446,424.584,171.312z"/>
	<path fill-rule="evenodd" clip-rule="evenodd" d="M379.419,307.728c-8.893,15.841-17.48,31.341-26.312,46.696
		c-1.661,2.886-1.355,4.392,1.146,6.508c13.825,11.688,27.491,23.563,41.491,35.618c-4.279,7.733-8.487,15.351-12.711,22.962
		c-4.787,8.628-9.487,17.307-14.446,25.834c-1.391,2.394-0.934,3.615,1.031,5.292c13.127,11.192,26.168,22.487,39.179,33.817
		c1,0.87,1.552,2.254,2.312,3.402c-1.278,0.771-2.483,2.039-3.845,2.238c-34.381,5.018-62.871-6.12-85.633-31.998
		c-12.209-13.877-19.209-30.484-21.044-48.714c-2.756-27.406,4.922-51.903,23.473-72.611c13.976-15.602,31.573-24.875,51.927-29.18
		c0.604-0.127,1.23-0.187,1.846-0.198C378.19,307.388,378.55,307.536,379.419,307.728z"/>
	<path fill-rule="evenodd" clip-rule="evenodd" d="M415.258,444.14c11.092-13.439,21.891-26.562,32.734-39.646
		c4.584-5.532,4.686-5.544,0.237-11.1c-10.159-12.693-20.336-25.373-30.627-37.96c-1.565-1.916-1.686-3.15-0.079-5.071
		c9.714-11.604,19.385-23.244,28.891-35.017c1.985-2.458,3.865-2.186,6.196-1.163c28.555,12.545,47.478,33.46,55.172,63.942
		c10.589,41.947-10.23,85.169-47.613,104.225c-9.726,4.958-9.679,5.079-16.527-3.324
		C434.247,467.497,424.869,455.952,415.258,444.14z"/>
</g>
</svg>
