<?xml version="1.0" encoding="utf-8"?>
<!-- Generator: Adobe Illustrator 16.0.0, SVG Export Plug-In . SVG Version: 6.00 Build 0)  -->
<!DOCTYPE svg PUBLIC "-//W3C//DTD SVG 1.1//EN" "http://www.w3.org/Graphics/SVG/1.1/DTD/svg11.dtd">
<svg version="1.1" id="Layer_1" xmlns="http://www.w3.org/2000/svg" xmlns:xlink="http://www.w3.org/1999/xlink" x="0px" y="0px"
	 width="190.19px" height="190.19px" viewBox="0 0 190.19 190.19" enable-background="new 0 0 190.19 190.19" xml:space="preserve">
<path fill-rule="evenodd" clip-rule="evenodd" d="M190.191,74.635c-0.847,0.045-0.624,0.778-0.776,1.242
	c-1.612,4.881-6.47,7.949-11.333,7.136c-5.145-0.857-8.834-5.206-8.751-10.311c0.082-5.224,3.948-9.46,9.203-10.086
	c4.76-0.567,9.508,2.609,10.883,7.283c0.139,0.472,0.272,0.942,0.409,1.413c0.472,0.811-0.133,1.775,0.365,2.584
	C190.191,74.142,190.191,74.389,190.191,74.635z"/>
<path fill-rule="evenodd" clip-rule="evenodd" d="M134.801,138.301c-0.053,5.488-4.772,10.293-10.148,10.124
	c-6.188-0.198-10.199-4.345-10.381-10.474c-0.16-5.445,4.883-10.201,10.35-10.125C130.331,127.907,134.855,132.561,134.801,138.301z
	"/>
<path fill-rule="evenodd" clip-rule="evenodd" d="M145.232,12.948c5.686,0.009,10.264,4.646,10.252,10.383
	c-0.012,5.59-4.66,10.187-10.268,10.153c-5.68-0.035-10.367-4.77-10.275-10.381C135.033,17.456,139.61,12.941,145.232,12.948z"/>
<path fill-rule="evenodd" clip-rule="evenodd" d="M64.941,62.439c-5.622-0.038-10.306-4.831-10.216-10.452
	c0.085-5.507,4.731-10.068,10.212-10.028c5.856,0.043,10.452,4.646,10.399,10.416C75.286,57.907,70.566,62.478,64.941,62.439z"/>
<path fill-rule="evenodd" clip-rule="evenodd" d="M0.042,117.834c-0.013-0.738-0.024-1.479-0.037-2.219
	c1.067-5.508,3.828-8.422,8.813-9.301c4.654-0.82,9.168,1.859,11.105,6.592c1.639,4.006,0.129,9.135-3.44,11.684
	c-6.243,4.459-14.228,1.543-16.138-5.887C0.27,118.406,0.144,118.124,0.042,117.834z"/>
<path fill-rule="evenodd" clip-rule="evenodd" d="M174.039,113.833c-5.697,0.011-10.349-4.65-10.304-10.326
	c0.042-5.605,4.649-10.19,10.245-10.198c5.687-0.007,10.316,4.638,10.299,10.329C184.263,109.223,179.643,113.821,174.039,113.833z"
	/>
<path fill-rule="evenodd" clip-rule="evenodd" d="M74.725,182.441c-5.626-0.054-10.16-4.805-10.069-10.55
	c0.087-5.412,4.811-10.025,10.274-10.029c5.48-0.006,10.365,4.93,10.336,10.441C85.234,177.89,80.446,182.495,74.725,182.441z"/>
<path fill-rule="evenodd" clip-rule="evenodd" d="M26.308,85.78c-0.011,5.685-4.514,10.238-10.13,10.246
	c-5.705,0.008-10.274-4.592-10.259-10.33c0.013-5.631,4.577-10.252,10.157-10.281C21.708,75.385,26.318,80.054,26.308,85.78z"/>
<path fill-rule="evenodd" clip-rule="evenodd" d="M119.506,88.28c-5.667-0.036-10.233-4.72-10.175-10.444
	c0.058-5.61,4.655-10.141,10.301-10.157c5.399-0.012,10.247,4.877,10.229,10.318C129.846,83.696,125.192,88.314,119.506,88.28z"/>
<path fill-rule="evenodd" clip-rule="evenodd" d="M95.766,68.011c-5.578-0.001-10.174-4.447-10.288-9.953
	c-0.12-5.781,4.485-10.495,10.296-10.54c5.652-0.043,10.27,4.625,10.245,10.355C105.991,63.514,101.44,68.013,95.766,68.011z"/>
<path fill-rule="evenodd" clip-rule="evenodd" d="M114.544,7.371c5.604,0.009,10.217,4.606,10.237,10.208
	c0.021,5.682-4.619,10.291-10.34,10.264c-5.63-0.026-10.2-4.577-10.23-10.187C104.181,11.982,108.823,7.363,114.544,7.371z"/>
<path fill-rule="evenodd" clip-rule="evenodd" d="M94.146,161.752c0.031-5.738,4.609-10.246,10.369-10.209
	c5.531,0.037,10.045,4.725,10.02,10.4c-0.027,5.656-4.57,10.172-10.225,10.164C98.562,172.1,94.115,167.569,94.146,161.752z"/>
<path fill-rule="evenodd" clip-rule="evenodd" d="M10.368,145.823c0.02-5.679,4.706-10.294,10.384-10.23
	c5.392,0.062,10.126,4.848,10.097,10.207c-0.03,5.788-4.594,10.436-10.223,10.406C14.952,156.179,10.348,151.517,10.368,145.823z"/>
<path fill-rule="evenodd" clip-rule="evenodd" d="M45.888,62.829c0.23,5.06-3.858,10.049-10.159,10.223
	c-5.668,0.159-10.243-4.631-10.231-10.366c0.012-5.604,4.612-10.196,10.208-10.189C41.456,52.502,45.897,57.007,45.888,62.829z"/>
<path fill-rule="evenodd" clip-rule="evenodd" d="M143.553,127.127c0.111-5.756,4.746-10.217,10.484-10.092
	c5.621,0.121,10.066,4.757,9.985,10.408c-0.082,5.727-4.708,10.17-10.489,10.069C147.906,137.417,143.441,132.772,143.553,127.127z"
	/>
<path fill-rule="evenodd" clip-rule="evenodd" d="M74.949,28.081c0.056-5.626,4.62-10.145,10.26-10.16
	c5.651-0.015,10.26,4.675,10.213,10.395c-0.045,5.698-4.723,10.237-10.447,10.14C79.355,38.36,74.893,33.743,74.949,28.081z"/>
<path fill-rule="evenodd" clip-rule="evenodd" d="M179.262,43.593c-0.058,5.738-4.678,10.191-10.465,10.089
	c-5.594-0.098-10.074-4.753-10.013-10.398c0.06-5.64,4.633-10.116,10.299-10.083C174.817,33.235,179.318,37.83,179.262,43.593z"/>
<path fill-rule="evenodd" clip-rule="evenodd" d="M119.975,107.407c-0.004-5.77,4.371-10.229,10.057-10.254
	c5.73-0.023,10.318,4.528,10.328,10.25c0.008,5.697-4.408,10.169-10.111,10.234C124.494,117.703,119.98,113.205,119.975,107.407z"/>
<path fill-rule="evenodd" clip-rule="evenodd" d="M43.944,156.17c5.615-0.293,10.407,4.02,10.559,9.954
	c0.145,5.566-3.813,9.988-9.375,10.39c-5.845,0.42-10.847-3.932-11.12-9.422C33.705,161.001,37.808,156.491,43.944,156.17z"/>
<path fill-rule="evenodd" clip-rule="evenodd" d="M73.146,182.819c-0.168-0.936-1.038-0.738-1.612-0.938
	c-4.85-1.676-7.787-6.941-6.608-11.932c1.235-5.229,6.067-8.646,11.232-7.945c5.251,0.715,9.236,5.293,9.074,10.43
	c-0.146,4.661-3.326,8.54-7.9,9.721c-0.544,0.141-1.273-0.039-1.6,0.664C74.869,182.819,74.007,182.819,73.146,182.819z"/>
<path fill-rule="evenodd" clip-rule="evenodd" d="M134.8,138.211c-0.027,5.604-4.714,10.283-10.233,10.217
	c-5.71-0.068-10.285-4.672-10.311-10.379c-0.023-5.491,4.727-10.207,10.279-10.205C130.225,127.846,134.83,132.499,134.8,138.211z"
	/>
<path fill-rule="evenodd" clip-rule="evenodd" d="M65.004,62.437c-5.679-0.022-10.296-4.697-10.261-10.386
	c0.032-5.559,4.774-10.207,10.319-10.118c5.75,0.091,10.29,4.685,10.263,10.382C75.299,57.873,70.62,62.459,65.004,62.437z"/>
<path fill-rule="evenodd" clip-rule="evenodd" d="M0.042,117.834c-0.015-0.738-0.027-1.479-0.042-2.221
	c1.118-5.592,3.969-8.556,8.992-9.344c3.83-0.604,8.006,1.395,10.041,4.805c2.225,3.725,2.005,8.125-0.578,11.602
	c-2.286,3.073-6.67,4.681-10.332,3.781C3.56,125.336,1.074,122.264,0.042,117.834z"/>
<path fill-rule="evenodd" clip-rule="evenodd" d="M95.731,68.023C90.117,68.01,85.402,63.317,85.49,57.83
	c0.091-5.815,4.609-10.333,10.319-10.323c5.673,0.01,10.26,4.682,10.213,10.405C105.979,63.527,101.389,68.037,95.731,68.023z"/>
<path fill-rule="evenodd" clip-rule="evenodd" d="M5.903,85.717c0.009-5.64,4.55-10.234,10.153-10.278
	c5.673-0.043,10.293,4.592,10.282,10.323c-0.012,5.67-4.528,10.237-10.141,10.252C10.478,96.031,5.893,91.444,5.903,85.717z"/>
<path fill-rule="evenodd" clip-rule="evenodd" d="M94.124,161.634c0.084-5.64,4.646-10.092,10.327-10.08
	c5.622,0.013,10.184,4.761,10.1,10.511c-0.082,5.695-4.772,10.158-10.541,10.033C98.396,171.977,94.037,167.363,94.124,161.634z"/>
<path fill-rule="evenodd" clip-rule="evenodd" d="M30.846,145.963c-0.125,5.809-4.732,10.35-10.384,10.23
	c-5.757-0.12-10.24-4.886-10.09-10.723c0.143-5.465,4.85-9.941,10.373-9.858C26.298,135.694,30.962,140.474,30.846,145.963z"/>
<path fill-rule="evenodd" clip-rule="evenodd" d="M45.924,62.819c-0.005,5.621-4.585,10.232-10.174,10.243
	c-5.674,0.01-10.266-4.626-10.262-10.364c0.006-5.606,4.601-10.195,10.205-10.195C41.446,52.506,45.93,57.027,45.924,62.819z"/>
<path fill-rule="evenodd" clip-rule="evenodd" d="M119.941,107.354c0.006-5.7,4.469-10.19,10.141-10.201
	c5.713-0.012,10.289,4.572,10.283,10.299c-0.006,5.666-4.493,10.158-10.175,10.186C124.438,117.663,119.936,113.145,119.941,107.354
	z"/>
<path fill-rule="evenodd" clip-rule="evenodd" d="M44.245,176.575c-5.703-0.02-10.281-4.646-10.247-10.356
	c0.033-5.796,4.61-10.155,10.629-10.122c5.305,0.03,10.001,4.928,9.922,10.348C54.466,172.065,49.86,176.594,44.245,176.575z"/>
</svg>
