<?xml version="1.0" encoding="utf-8"?>
<!-- Generator: Adobe Illustrator 16.0.0, SVG Export Plug-In . SVG Version: 6.00 Build 0)  -->
<!DOCTYPE svg PUBLIC "-//W3C//DTD SVG 1.1//EN" "http://www.w3.org/Graphics/SVG/1.1/DTD/svg11.dtd">
<svg version="1.1" id="Layer_1" xmlns="http://www.w3.org/2000/svg" xmlns:xlink="http://www.w3.org/1999/xlink" x="0px" y="0px"
	 width="42px" height="42px" viewBox="0 0 42 42" enable-background="new 0 0 42 42" xml:space="preserve">
<g>
	<path d="M10.089,20.159c-0.574,0-1.134,0.17-1.611,0.489S7.629,21.42,7.41,21.949c-0.219,0.531-0.277,1.113-0.165,1.678
		c0.112,0.562,0.388,1.078,0.794,1.484c0.405,0.406,0.922,0.682,1.485,0.795c0.563,0.111,1.146,0.053,1.676-0.166
		c0.53-0.219,0.983-0.592,1.302-1.068s0.489-1.037,0.489-1.611c0-0.381-0.075-0.758-0.221-1.11s-0.359-0.669-0.629-0.939
		c-0.269-0.27-0.589-0.483-0.941-0.629C10.847,20.234,10.47,20.159,10.089,20.159z M10.089,25.052c-0.402,0-0.796-0.12-1.13-0.344
		c-0.334-0.226-0.595-0.541-0.75-0.914c-0.154-0.371-0.194-0.778-0.116-1.177c0.079-0.395,0.272-0.756,0.557-1.041
		c0.284-0.284,0.647-0.477,1.042-0.556s0.804-0.039,1.176,0.116c0.372,0.154,0.689,0.416,0.913,0.75
		c0.224,0.334,0.343,0.729,0.343,1.132c0,0.267-0.053,0.53-0.155,0.776c-0.103,0.248-0.252,0.474-0.441,0.659
		c-0.188,0.189-0.413,0.341-0.66,0.441C10.621,25,10.356,25.052,10.089,25.052z"/>
	<path d="M31.911,20.159c-0.573,0-1.134,0.17-1.611,0.489c-0.477,0.319-0.849,0.772-1.067,1.301
		c-0.221,0.531-0.275,1.113-0.166,1.678c0.111,0.562,0.391,1.078,0.795,1.484s0.924,0.682,1.484,0.795
		c0.562,0.111,1.146,0.053,1.676-0.166c0.53-0.219,0.982-0.592,1.303-1.068s0.488-1.037,0.488-1.611c0-0.381-0.076-0.758-0.222-1.11
		s-0.358-0.669-0.629-0.939c-0.269-0.27-0.589-0.483-0.94-0.629C32.669,20.234,32.292,20.159,31.911,20.159z M31.911,25.052
		c-0.402,0-0.796-0.12-1.13-0.344c-0.336-0.226-0.596-0.541-0.75-0.914c-0.154-0.371-0.194-0.778-0.115-1.177
		c0.078-0.395,0.271-0.756,0.557-1.041c0.284-0.284,0.646-0.477,1.041-0.556c0.396-0.079,0.805-0.039,1.176,0.116
		c0.373,0.154,0.689,0.416,0.914,0.75s0.342,0.729,0.342,1.132c0,0.267-0.053,0.53-0.152,0.776
		c-0.104,0.248-0.252,0.474-0.439,0.659c-0.188,0.189-0.414,0.341-0.66,0.441C32.443,25,32.178,25.052,31.911,25.052z"/>
	<path d="M24.809,22.584H17.19c-0.115,0-0.225,0.045-0.306,0.127c-0.082,0.08-0.127,0.191-0.127,0.305
		c0,0.115,0.045,0.226,0.127,0.308c0.081,0.082,0.191,0.127,0.306,0.127h7.619c0.115,0,0.227-0.045,0.309-0.127
		c0.081-0.082,0.127-0.19,0.127-0.308c0-0.113-0.046-0.225-0.127-0.305C25.033,22.629,24.924,22.584,24.809,22.584z"/>
	<path d="M41,16.261v-1.256c0-0.459-0.184-0.9-0.508-1.225c-0.324-0.325-0.766-0.507-1.225-0.507h-4.502L32.34,7.818
		c-0.234-0.54-0.623-0.999-1.113-1.321C30.734,6.174,30.16,6.001,29.57,6H12.255c-0.628,0.001-1.241,0.197-1.753,0.562
		c-0.511,0.365-0.898,0.88-1.104,1.473l-1.861,5.239H2.731c-0.459,0-0.899,0.183-1.224,0.507C1.182,14.105,1,14.546,1,15.005v1.255
		c0,0.459,0.183,0.9,0.507,1.225c0.325,0.325,0.765,0.507,1.224,0.507h1.472c-0.408,0.366-0.734,0.813-0.958,1.313
		c-0.224,0.5-0.34,1.042-0.34,1.589v13.594c0,0.346,0.137,0.676,0.38,0.918c0.244,0.244,0.574,0.381,0.918,0.381h4.675
		c0.344,0,0.675-0.137,0.918-0.381c0.244-0.242,0.381-0.572,0.381-0.918v-4.545h21.646v4.545c0,0.346,0.137,0.676,0.381,0.918
		c0.241,0.244,0.573,0.381,0.918,0.381h4.676c0.345,0,0.675-0.137,0.918-0.381c0.244-0.242,0.382-0.572,0.382-0.918V20.72
		c-0.005-1.021-0.408-2.001-1.127-2.728h1.301c0.459,0,0.897-0.182,1.224-0.507C40.816,17.161,41,16.72,41,16.261z M39.27,14.14
		c0.229,0,0.449,0.091,0.611,0.253c0.162,0.163,0.254,0.383,0.254,0.612v1.255c0,0.23-0.092,0.45-0.254,0.612
		c-0.162,0.163-0.383,0.254-0.611,0.254h-2.252l-0.908-0.779v-0.13L35.2,14.139L39.27,14.14L39.27,14.14z M10.221,8.295
		c0.151-0.418,0.428-0.78,0.792-1.036c0.364-0.255,0.798-0.393,1.243-0.393h17.316c0.423-0.001,0.836,0.121,1.188,0.352
		c0.354,0.231,0.634,0.56,0.802,0.948l3.463,7.793H7.494L10.221,8.295z M1.866,16.261v-1.256c0-0.229,0.091-0.45,0.253-0.612
		c0.163-0.162,0.383-0.253,0.612-0.253h4.502l-0.735,2.121l-1.126,0.823H2.775c-0.114,0.005-0.228-0.011-0.335-0.049
		s-0.206-0.097-0.29-0.174c-0.085-0.076-0.153-0.169-0.202-0.272C1.899,16.486,1.871,16.375,1.866,16.261z M9.312,34.488
		c0,0.115-0.045,0.225-0.126,0.307c-0.082,0.08-0.191,0.127-0.306,0.127H4.204c-0.115,0-0.225-0.047-0.306-0.127
		c-0.081-0.082-0.127-0.191-0.127-0.307v-4.545h5.541V34.488z M37.797,34.922h-4.676c-0.115,0-0.225-0.047-0.307-0.127
		c-0.08-0.082-0.127-0.191-0.127-0.307v-4.545h5.541v4.545c0,0.115-0.045,0.225-0.127,0.307
		C38.021,34.875,37.911,34.922,37.797,34.922z M38.229,20.72v8.354H3.771v-8.18c-0.002-0.482,0.111-0.957,0.329-1.386
		c0.218-0.429,0.536-0.8,0.926-1.082l2.208-1.602h28.095l1.86,1.602c0.328,0.286,0.591,0.638,0.77,1.034
		C38.139,19.856,38.23,20.286,38.229,20.72z"/>
</g>
</svg>
