<?xml version="1.0" encoding="utf-8"?>
<!-- Generator: Adobe Illustrator 16.0.0, SVG Export Plug-In . SVG Version: 6.00 Build 0)  -->
<!DOCTYPE svg PUBLIC "-//W3C//DTD SVG 1.1//EN" "http://www.w3.org/Graphics/SVG/1.1/DTD/svg11.dtd">
<svg version="1.1" id="Layer_1" xmlns="http://www.w3.org/2000/svg" xmlns:xlink="http://www.w3.org/1999/xlink" x="0px" y="0px"
	 width="434.84px" height="434.84px" viewBox="0 0 434.84 434.84" enable-background="new 0 0 434.84 434.84" xml:space="preserve">
<g>
	<path fill-rule="evenodd" clip-rule="evenodd" d="M365.176,60.66c-11.4,10.197-22.747,20.346-34.607,30.954
		c-4.076-3.045-9.483-7.332-15.136-11.262c-25.523-17.75-53.905-25.935-84.958-26.698c-35.51-0.874-68.052,7.792-96.966,28.34
		c-37.07,26.343-60.332,61.932-66.902,107.199c-4.465,30.785-2.567,61.24,9.608,90.555c13.385,32.231,34.605,57.714,63.932,76.496
		c21.975,14.074,46.2,21.579,72.088,23.24c32.458,2.082,64.014-1.409,92.913-18.028c42.354-24.352,65.787-60.308,67.543-110.764
		c-47.065,0-93.742,0-141.086,0c0-16.282,0-31.561,0-47.31c62.332,0,124.235,0,187.096,0c0,13.809,0.08,27.657,0.08,41.028
		c0,37.649-8.392,72.047-29.673,102.93c-17.729,25.731-40.87,45.359-69.095,59.248c-31.742,15.621-65.259,23.019-100.269,20.79
		c-83.754-5.32-147.104-43.895-185.656-119.376c-24.226-48.646-25.26-113.296-9.621-160.552C44,88.432,85.835,47.754,142.636,23.141
		c30.19-13.081,62.153-19.143,95.173-16.852C283.231,9.44,326.745,25.538,365.176,60.66z"/>
</g>
</svg>
