<?xml version="1.0" encoding="utf-8"?>
<!-- Generator: Adobe Illustrator 16.0.0, SVG Export Plug-In . SVG Version: 6.00 Build 0)  -->
<!DOCTYPE svg PUBLIC "-//W3C//DTD SVG 1.1//EN" "http://www.w3.org/Graphics/SVG/1.1/DTD/svg11.dtd">
<svg version="1.1" id="Layer_1" xmlns="http://www.w3.org/2000/svg" xmlns:xlink="http://www.w3.org/1999/xlink" x="0px" y="0px"
	 width="1500.5px" height="1480.5px" viewBox="0 0 1500.5 1480.5" enable-background="new 0 0 1500.5 1480.5" xml:space="preserve">
<g id="_x34_sHlO6_1_">
	<g>
		<path fill-rule="evenodd" clip-rule="evenodd" d="M434.371,785.479c-60.819,48.42-67.263,103.87-31.188,162.376
			c46.234,74.994,92.645,150.093,143.146,222.221c38.419,54.865,58.569,113.203,58.339,179.618
			c-0.104,28.792-13.1,47.563-41.503,48.775c-29.098,1.276-45.449-18.852-44.812-45.931c1.465-63.212-29.558-110.941-63.497-160.492
			c-48.964-71.521-94.267-145.866-136.47-221.572c-42.761-76.71-32.017-151.892,21.028-221.279
			c14.617-19.104,26.281-42.351,44.895-56.182c44.454-33.061,49.435-76.396,48.23-126.887
			c-2.625-111.047-0.605-222.202-0.857-333.311c-0.125-60.473,17.472-111.342,76.418-138.398
			c88.114-40.403,181.125,21.972,183.112,123.624c1.579,81.483,0.313,163.047,0.313,248.4
			c52.596-6.509,100.345-2.031,137.946,37.371c3.141,3.286,12.848,3.306,18.018,1.192c73.424-29.796,130.026-6.885,173.55,54.823
			c130.066-33.897,192.338,52.439,187.173,154.676c-5.297,104.122-2.304,208.787-0.838,313.181
			c1.13,78.846-20.968,149.194-62.085,216.236c-22.515,36.723-33.416,80.415-54.34,118.331
			c-8.707,15.819-29.086,33.438-45.449,34.86c-25.069,2.177-43.859-19.964-38.188-45.45c8.558-38.459,16.173-81.188,38.459-111.674
			c59.427-81.292,79.491-168.843,74.011-267.838c-5.19-93.428-1.591-187.339-0.836-281.039c0.209-29.588-8.475-51.33-40.93-52.354
			c-32.978-1.068-43.146,21.384-43.46,50.261c-0.315,29.42-0.377,58.881-0.146,88.344c0.209,30.299-3.83,59.386-42.269,59.803
			c-37.748,0.376-44.173-26.784-43.712-58.213c0.69-48.168,0.481-96.379,0-144.568c-0.292-29.546-8.852-54.802-44.424-54.238
			c-35.78,0.586-42.436,26.387-42.414,55.806c0.021,32.12-0.23,64.26,0.021,96.379c0.252,29.463-15.378,46.14-43.356,46.767
			c-27.159,0.586-41.724-18.477-42.832-43.835c-1.883-42.771-1.443-85.667-0.671-128.479c0.545-29.817-4.749-55.911-40.739-56.288
			c-34.935-0.336-43.911,23.476-42.688,54.529c1.109,28.061-0.166,56.205,0.336,84.327c0.555,31.137-6.476,59.028-43.303,59.572
			c-36.996,0.565-44.152-26.531-44.069-58.233c0.472-153.943,0.88-307.887-0.68-461.83c-0.188-17.745-7.836-41.202-20.549-51.768
			c-26.05-21.656-61.268,0.335-62.313,37.896c-1.527,54.843-0.532,109.771-0.532,164.635
			c-0.032,161.979,0.051,323.957-0.137,485.936c-0.012,13.308,2.971,29.734-3.517,39.19c-10.054,14.648-27.171,33.94-41.095,33.773
			c-13.831-0.165-37.277-20.549-39.214-34.44C430.834,865.202,434.371,825.11,434.371,785.479z"/>
	</g>
</g>
</svg>
