<?xml version="1.0" encoding="utf-8"?>
<!-- Generator: Adobe Illustrator 16.0.0, SVG Export Plug-In . SVG Version: 6.00 Build 0)  -->
<!DOCTYPE svg PUBLIC "-//W3C//DTD SVG 1.1//EN" "http://www.w3.org/Graphics/SVG/1.1/DTD/svg11.dtd">
<svg version="1.1" id="Layer_1" xmlns="http://www.w3.org/2000/svg" xmlns:xlink="http://www.w3.org/1999/xlink" x="0px" y="0px"
	 width="28px" height="28px" viewBox="0 0 28 28" enable-background="new 0 0 28 28" xml:space="preserve">
<g>
	<path d="M14,25c-0.249,0-0.498-0.093-0.691-0.277L3.16,15.026C1.787,13.714,1,11.895,1,10.035c0-1.861,0.787-3.68,2.159-4.99
		C4.54,3.726,6.371,3,8.316,3c1.946,0,3.778,0.726,5.158,2.045L14,5.548l0.525-0.502c0.682-0.653,1.479-1.163,2.372-1.516
		c1.784-0.704,3.795-0.701,5.57,0c0.893,0.354,1.69,0.864,2.372,1.517c0.686,0.654,1.223,1.421,1.597,2.281
		C26.811,8.193,27,9.103,27,10.035s-0.189,1.843-0.562,2.707c-0.37,0.856-0.907,1.625-1.596,2.284L14.69,24.723
		C14.498,24.907,14.249,25,14,25z M8.316,5C6.888,5,5.547,5.529,4.541,6.491C3.547,7.44,3,8.699,3,10.035
		c0,1.336,0.547,2.595,1.541,3.545L14,22.617l9.46-9.038c0.494-0.472,0.878-1.021,1.142-1.631C24.866,11.336,25,10.693,25,10.035
		c0-0.657-0.134-1.301-0.398-1.912c-0.266-0.612-0.651-1.162-1.144-1.631c-0.495-0.475-1.076-0.845-1.727-1.103
		c-1.303-0.515-2.785-0.516-4.1,0c-0.648,0.257-1.229,0.628-1.724,1.101l-1.217,1.164c-0.388,0.37-0.996,0.37-1.382,0l-1.217-1.163
		C11.086,5.529,9.745,5,8.316,5z"/>
</g>
</svg>
