<?xml version="1.0" encoding="utf-8"?>
<!-- Generator: Adobe Illustrator 16.0.0, SVG Export Plug-In . SVG Version: 6.00 Build 0)  -->
<!DOCTYPE svg PUBLIC "-//W3C//DTD SVG 1.1//EN" "http://www.w3.org/Graphics/SVG/1.1/DTD/svg11.dtd">
<svg version="1.1" id="Layer_1" xmlns="http://www.w3.org/2000/svg" xmlns:xlink="http://www.w3.org/1999/xlink" x="0px" y="0px"
	 width="28px" height="28px" viewBox="0 0 28 28" enable-background="new 0 0 28 28" xml:space="preserve">
<g>
	<path d="M14,25c-0.249,0-0.498-0.093-0.691-0.277L3.16,15.025C1.787,13.714,1,11.895,1,10.035c0-1.861,0.787-3.68,2.159-4.99
		C4.54,3.726,6.371,3,8.316,3c1.946,0,3.778,0.726,5.158,2.045L14,5.548l0.525-0.502c0.682-0.653,1.479-1.163,2.371-1.516
		c1.785-0.704,3.795-0.701,5.57,0c0.893,0.354,1.69,0.864,2.372,1.517c0.687,0.654,1.224,1.421,1.597,2.281
		C26.811,8.193,27,9.103,27,10.035c0,0.932-0.189,1.843-0.562,2.707c-0.369,0.856-0.906,1.625-1.596,2.283l-10.152,9.697
		C14.498,24.907,14.249,25,14,25z"/>
</g>
</svg>
