<?xml version="1.0" encoding="utf-8"?>
<!-- Generator: Adobe Illustrator 16.0.0, SVG Export Plug-In . SVG Version: 6.00 Build 0)  -->
<!DOCTYPE svg PUBLIC "-//W3C//DTD SVG 1.1//EN" "http://www.w3.org/Graphics/SVG/1.1/DTD/svg11.dtd">
<svg version="1.1" id="Layer_1" xmlns="http://www.w3.org/2000/svg" xmlns:xlink="http://www.w3.org/1999/xlink" x="0px" y="0px"
	 width="217.6px" height="217.6px" viewBox="0 0 217.6 217.6" enable-background="new 0 0 217.6 217.6" xml:space="preserve">
<path d="M9.655,123.798c-0.492,0.426-0.802,1.055-0.802,1.755v20.98h0.009c0,1.273,1.035,2.309,2.312,2.309h11.297
	c0.493,0,0.987-0.188,1.363-0.565c0.377-0.376,0.565-0.871,0.565-1.364v-16.632c0-1.275,1.045-2.32,2.321-2.32h12.828
	c1.275,0,2.32,1.043,2.32,2.32v16.632c0,0.493,0.188,0.987,0.565,1.364c0.376,0.376,0.87,0.565,1.364,0.565H54.88l0.213,0.011
	c1.281,0,2.32-1.04,2.32-2.32v-20.856h-0.005c0-0.606-0.237-1.215-0.71-1.669l-22.425-21.664c-0.908-0.874-2.352-0.863-3.245,0.034
	L9.655,123.798z M64.912,122.236l-12.435-12.278l-6.745-6.66L34.2,91.909v0.002c-0.908-0.893-2.365-0.885-3.263,0.015L0.67,122.255
	c-0.9,0.906-0.897,2.372,0.008,3.271c0.906,0.902,2.373,0.898,3.273-0.007L32.59,96.823l29.076,28.715
	c0.91,0.895,2.377,0.882,3.271-0.028C65.834,124.599,65.821,123.133,64.912,122.236z"/>
<path d="M161.322,123.798c-0.492,0.426-0.802,1.055-0.802,1.755v20.98h0.008c0,1.273,1.035,2.309,2.312,2.309h11.297
	c0.493,0,0.986-0.188,1.363-0.565s0.564-0.871,0.564-1.364v-16.632c0-1.275,1.045-2.32,2.321-2.32h12.827
	c1.275,0,2.32,1.043,2.32,2.32v16.632c0,0.493,0.189,0.987,0.565,1.364s0.87,0.565,1.364,0.565h11.084l0.213,0.011
	c1.28,0,2.32-1.04,2.32-2.32v-20.856h-0.006c0-0.606-0.237-1.215-0.71-1.669l-22.425-21.664c-0.908-0.874-2.352-0.863-3.244,0.034
	L161.322,123.798z M216.912,122.236l-12.435-12.278l-6.744-6.66L186.2,91.909v0.002c-0.908-0.893-2.365-0.885-3.264,0.015
	l-30.266,30.33c-0.9,0.906-0.897,2.372,0.008,3.271c0.906,0.902,2.373,0.898,3.273-0.007l28.639-28.696l29.076,28.715
	c0.91,0.895,2.377,0.882,3.271-0.028C217.834,124.599,217.821,123.133,216.912,122.236z"/>
<path d="M76.152,114.012c-0.685,0.592-1.115,1.467-1.115,2.441v29.175h0.011c0,1.77,1.439,3.211,3.215,3.211h15.709
	c0.686,0,1.372-0.262,1.896-0.786c0.524-0.523,0.785-1.21,0.785-1.896v-23.127c0-1.774,1.453-3.227,3.228-3.227h17.837
	c1.774,0,3.227,1.45,3.227,3.227v23.127c0,0.686,0.264,1.373,0.787,1.896s1.21,0.786,1.897,0.786h15.413l0.296,0.016
	c1.78,0,3.227-1.446,3.227-3.227v-29.001h-0.008c0-0.844-0.33-1.689-0.987-2.321L110.385,84.18c-1.263-1.214-3.27-1.2-4.511,0.047
	L76.152,114.012z M153.454,111.84l-17.291-17.074l-9.378-9.261l-16.038-15.838v0.003c-1.263-1.242-3.289-1.231-4.538,0.021
	l-42.087,42.175c-1.252,1.26-1.248,3.298,0.011,4.549c1.26,1.255,3.3,1.249,4.552-0.01l39.824-39.904l40.432,39.93
	c1.266,1.245,3.306,1.226,4.55-0.04C154.737,115.125,154.718,113.087,153.454,111.84z"/>
</svg>
