<?xml version="1.0" encoding="utf-8"?>
<!-- Generator: Adobe Illustrator 16.0.0, SVG Export Plug-In . SVG Version: 6.00 Build 0)  -->
<!DOCTYPE svg PUBLIC "-//W3C//DTD SVG 1.1//EN" "http://www.w3.org/Graphics/SVG/1.1/DTD/svg11.dtd">
<svg version="1.1" id="Layer_1" xmlns="http://www.w3.org/2000/svg" xmlns:xlink="http://www.w3.org/1999/xlink" x="0px" y="0px"
	 width="17px" height="17px" viewBox="0 0 17 17" enable-background="new 0 0 17 17" xml:space="preserve">
<g>
	<path d="M5.699,7.401c0.938,0,1.701-0.763,1.701-1.7c0-0.938-0.763-1.7-1.701-1.7s-1.701,0.763-1.701,1.7
		C3.998,6.638,4.761,7.401,5.699,7.401z M5.699,5.001c0.387,0,0.701,0.314,0.701,0.7c0,0.386-0.314,0.7-0.701,0.7
		c-0.386,0-0.701-0.314-0.701-0.7C4.998,5.315,5.312,5.001,5.699,5.001z"/>
	<path d="M16.205,10.892V2.901c0-1.158-0.942-2.1-2.102-2.1H2.896c-1.159,0-2.101,0.942-2.101,2.1v11.2c0,1.158,0.942,2.1,2.101,2.1
		h11.208c1.159,0,2.102-0.941,2.102-2.1v-3.189C16.205,10.904,16.205,10.898,16.205,10.892z M1.795,14.101v-11.2
		c0-0.606,0.494-1.1,1.101-1.1h11.208c0.607,0,1.102,0.494,1.102,1.1v6.792l-3.146-3.145c-0.195-0.195-0.512-0.195-0.707,0
		l-8.625,8.619C2.203,15.081,1.795,14.646,1.795,14.101z M14.104,15.2H4.106l7.599-7.592l3.5,3.499v2.994
		C15.205,14.707,14.711,15.2,14.104,15.2z"/>
</g>
</svg>
