<?xml version="1.0" encoding="utf-8"?>
<!-- Generator: Adobe Illustrator 16.0.0, SVG Export Plug-In . SVG Version: 6.00 Build 0)  -->
<!DOCTYPE svg PUBLIC "-//W3C//DTD SVG 1.1//EN" "http://www.w3.org/Graphics/SVG/1.1/DTD/svg11.dtd">
<svg version="1.1" id="Layer_1" xmlns="http://www.w3.org/2000/svg" xmlns:xlink="http://www.w3.org/1999/xlink" x="0px" y="0px"
	 width="18px" height="18px" viewBox="0 0 18 18" enable-background="new 0 0 18 18" xml:space="preserve">
<g>
	<g>
		<path d="M6.198,8.15c-1.076,0-1.951-0.875-1.951-1.95c0-1.075,0.875-1.95,1.951-1.95c1.076,0,1.951,0.875,1.951,1.95
			C8.149,7.275,7.273,8.15,6.198,8.15z M6.198,5.75c-0.249,0-0.451,0.202-0.451,0.45s0.202,0.45,0.451,0.45S6.649,6.448,6.649,6.2
			S6.446,5.75,6.198,5.75z"/>
	</g>
	<path d="M16.954,11.393V3.4c0-1.296-1.056-2.35-2.353-2.35H3.395c-1.296,0-2.351,1.054-2.351,2.35v11.202
		c0,1.295,1.055,2.35,2.351,2.35h11.208c1.297,0,2.352-1.055,2.352-2.35v-3.189C16.954,11.404,16.954,11.398,16.954,11.393z
		 M2.544,3.4c0-0.469,0.382-0.85,0.851-0.85h11.208c0.47,0,0.852,0.381,0.852,0.85v6.189L12.734,6.87
		c-0.293-0.292-0.767-0.293-1.061,0l-8.535,8.528c-0.342-0.109-0.595-0.42-0.595-0.797V3.4z M14.604,15.45H5.209l6.995-6.989
		l3.25,3.249v2.892C15.454,15.068,15.072,15.45,14.604,15.45z"/>
</g>
</svg>
