<?xml version="1.0" encoding="utf-8"?>
<!-- Generator: Adobe Illustrator 16.0.0, SVG Export Plug-In . SVG Version: 6.00 Build 0)  -->
<!DOCTYPE svg PUBLIC "-//W3C//DTD SVG 1.1//EN" "http://www.w3.org/Graphics/SVG/1.1/DTD/svg11.dtd">
<svg version="1.1" id="Layer_1" xmlns="http://www.w3.org/2000/svg" xmlns:xlink="http://www.w3.org/1999/xlink" x="0px" y="0px"
	 width="434.84px" height="434.84px" viewBox="0 0 434.84 434.84" enable-background="new 0 0 434.84 434.84" xml:space="preserve">
<g>
	<path fill="#301215" d="M424.032,127.063c-49.551-21.373-99.267-42.361-148.99-63.328c-17.493-7.375-34.29-16.649-53.092-20.705
		c-3.02,0-6.039,0-9.06,0c-5.571,1.346-11.037,2.949-16.342,5.205c-58.89,25.051-117.753,50.162-176.717,75.039
		c-6.839,2.885-14.497,4.475-19.833,10.348c0,0.504,0,1.007,0,1.51c5.877,4.277,12.64,2.356,19.014,2.471
		c15.822,0.287,16.111,0.387,16.172,15.936c0.01,2.512,0.003,5.023,0.003,7.537c0,70.596-0.001,141.192,0.003,211.788
		c0,3.267-0.005,6.53,0.141,9.796c0.179,4.046,1.516,7.352,5.435,9.151c14.093,0,28.185,0,42.276,0
		c7.745-2.409,7.021-8.966,7.035-14.901c0.111-45.033,0.038-90.067,0.062-135.102c0.008-14.936,0.096-15.023,15.2-15.025
		c74.722-0.012,149.443-0.006,224.165-0.002c2.767,0,5.53,0.044,8.297,0.189c4.212,0.221,6.425,2.263,6.688,6.543
		c0.184,3.019,0.214,6.033,0.215,9.051c0.008,43.273,0.002,86.546,0.008,129.818c0.001,3.27-0.046,6.541,0.21,9.807
		c0.358,4.598,1.877,8.352,6.878,9.622c14.093,0,28.185,0,42.276,0c6.712-3.277,5.522-9.564,5.528-15.179
		c0.079-72.104,0.062-144.207,0.042-216.311c-0.007-25.676-0.679-22.332,22.214-22.66c4.447-0.064,9.14,0.782,12.982-2.529
		c0-0.503,0-1.006,0-1.51C432.036,130.12,427.948,128.752,424.032,127.063z M343.192,202.045c-1.76-0.016-3.519,0.004-5.277,0.004
		c-39.955,0-79.91,0-119.865,0c-40.458,0-80.915,0-121.373-0.001c-2.011,0-4.023,0.044-6.029-0.041
		c-1.692-0.072-2.873-0.968-2.984-2.724c-0.14-2.193,1.162-3.182,3.229-3.245c1.758-0.054,3.519-0.028,5.276-0.028
		c80.915,0,161.831,0,242.747,0c1.507,0,3.015,0.023,4.522,0.006c1.956-0.022,3.598,0.549,3.728,2.761
		C347.325,201.497,345.444,202.065,343.192,202.045z M87.664,179.133c0.121-1.751,1.304-2.637,3-2.713
		c1.755-0.08,3.518-0.038,5.275-0.038c80.915-0.001,161.831-0.001,242.746-0.001c0.503,0,1.021-0.08,1.505,0.014
		c2.608,0.502,7.028-1.63,6.842,3.27c-0.156,4.103-4.155,2.693-6.628,2.703c-23.872,0.09-47.744,0.053-71.617,0.053
		c-17.088,0-34.175,0-51.263,0c-40.458,0-80.916,0-121.373,0c-1.759,0-3.52,0.025-5.276-0.029
		C88.801,182.327,87.512,181.319,87.664,179.133z M344.015,161.25c-1.757,0.062-3.518,0.032-5.276,0.032
		c-80.915,0.001-161.83,0.001-242.746,0c-1.508,0-3.016-0.027-4.522-0.004c-1.94,0.028-3.631-0.477-3.794-2.693
		c-0.197-2.678,1.597-3.371,3.898-3.338c1.758,0.024,3.518-0.002,5.277-0.004c40.206,0,80.412,0,120.618,0
		c40.458,0,80.915,0,121.373,0.002c1.759,0,3.52-0.027,5.276,0.031c1.705,0.059,2.908,0.923,3.052,2.664
		C347.349,160.097,346.109,161.176,344.015,161.25z"/>
</g>
</svg>
