<?xml version="1.0" encoding="utf-8"?>
<!-- Generator: Adobe Illustrator 16.0.0, SVG Export Plug-In . SVG Version: 6.00 Build 0)  -->
<!DOCTYPE svg PUBLIC "-//W3C//DTD SVG 1.1//EN" "http://www.w3.org/Graphics/SVG/1.1/DTD/svg11.dtd">
<svg version="1.1" id="Layer_1" xmlns="http://www.w3.org/2000/svg" xmlns:xlink="http://www.w3.org/1999/xlink" x="0px" y="0px"
	 width="435.206px" height="435.21px" viewBox="10.147 -369.484 435.206 435.21"
	 enable-background="new 10.147 -369.484 435.206 435.21" xml:space="preserve">
<path d="M345.05-298.352c-3.523-1.174-8.798-3.522-12.32-5.281l-98.528-42.812c-3.517-1.174-8.797-1.174-12.313,0l-98.533,42.812
	c-3.517,1.758-8.797,4.106-12.314,5.281L12.513-255.54c-3.522,1.174-2.933,2.342,0.584,2.342h27.565c3.517,0,6.45,2.933,6.45,6.455
	V37.111c0,3.522,2.932,6.455,6.454,6.455h28.734c3.522,0,6.454-2.933,6.454-6.455v-93.837c0-3.517,2.933-6.449,6.45-6.449h38.121
	c3.521,0,6.454,2.933,6.454,6.449v93.837c0,3.522,2.933,6.455,6.448,6.455h25.219c3.521,0,6.454-2.933,6.454-6.455v-158.35
	c0-3.517,2.934-6.449,6.449-6.449h175.944c3.518,0,6.449,2.932,6.449,6.449v158.35c0,3.522,2.933,6.455,6.455,6.455h28.734
	c3.522,0,6.454-2.933,6.454-6.455v-283.854c0-3.522,2.933-6.455,6.449-6.455h27.565c3.517,0,4.106-1.168,0.585-2.342L345.05-298.352
	z"/>
</svg>
