<?xml version="1.0" encoding="utf-8"?>
<!-- Generator: Adobe Illustrator 16.0.0, SVG Export Plug-In . SVG Version: 6.00 Build 0)  -->
<!DOCTYPE svg PUBLIC "-//W3C//DTD SVG 1.1//EN" "http://www.w3.org/Graphics/SVG/1.1/DTD/svg11.dtd">
<svg version="1.1" id="Layer_1" xmlns="http://www.w3.org/2000/svg" xmlns:xlink="http://www.w3.org/1999/xlink" x="0px" y="0px"
	 width="434.84px" height="434.84px" viewBox="0 0 434.84 434.84" enable-background="new 0 0 434.84 434.84" xml:space="preserve">
<path d="M331.65,69.646c-3.451-1.149-8.618-3.45-12.068-5.172l-96.511-41.937c-3.446-1.15-8.618-1.15-12.062,0l-96.517,41.937
	c-3.445,1.722-8.617,4.022-12.062,5.172L5.918,111.582c-3.449,1.15-2.873,2.294,0.572,2.294h27.001c3.444,0,6.317,2.873,6.317,6.323
	v278.045c0,3.449,2.873,6.323,6.322,6.323h28.146c3.45,0,6.322-2.874,6.322-6.323v-91.917c0-3.444,2.873-6.316,6.318-6.316h37.341
	c3.448,0,6.321,2.873,6.321,6.316v91.917c0,3.449,2.874,6.323,6.316,6.323h24.703c3.449,0,6.322-2.874,6.322-6.323V243.134
	c0-3.444,2.875-6.316,6.317-6.316H346.58c3.445,0,6.316,2.872,6.316,6.316v155.109c0,3.449,2.874,6.323,6.323,6.323h28.146
	c3.449,0,6.321-2.874,6.321-6.323V120.198c0-3.45,2.873-6.323,6.317-6.323h27.001c3.444,0,4.021-1.144,0.572-2.294L331.65,69.646z"
	/>
</svg>
