<?xml version="1.0" encoding="utf-8"?>
<!-- Generator: Adobe Illustrator 16.0.0, SVG Export Plug-In . SVG Version: 6.00 Build 0)  -->
<!DOCTYPE svg PUBLIC "-//W3C//DTD SVG 1.1//EN" "http://www.w3.org/Graphics/SVG/1.1/DTD/svg11.dtd">
<svg version="1.1" id="Layer_1" xmlns="http://www.w3.org/2000/svg" xmlns:xlink="http://www.w3.org/1999/xlink" x="0px" y="0px"
	 width="100px" height="100px" viewBox="0 0 100 100" enable-background="new 0 0 100 100" xml:space="preserve">
<g>
	<path d="M52.915,74.826c0.576,0.771,0.932,1.789,0.932,3.061c0,0.056-0.023,0.116-0.027,0.172
		c-0.151,3.052-4.401,7.149-4.401,7.149s-4.249-4.098-4.401-7.149c-0.004-0.056-0.028-0.116-0.028-0.172
		c0-1.273,0.355-2.289,0.932-3.061c-2.088,1.061-3.373,3.101-3.373,5.758c0,3.813,5.476,12.74,6.101,13.746l0.771,1.239l0.77-1.239
		c0.625-1.006,6.1-9.933,6.1-13.746C56.287,77.929,55.003,75.887,52.915,74.826z"/>
	<path d="M49.415,69.251c-2.056,0-4.108-0.145-6.147-0.414c-0.735-0.1-1.471-0.21-2.204-0.343c0.405,1.321,0.888,2.624,1.479,3.892
		l0.201,0.431l0.461,0.116c1.396,0.348,2.822,0.537,4.256,0.648c0.652,0.049,1.303,0.12,1.958,0.12s1.305-0.071,1.959-0.12
		c1.434-0.111,2.861-0.299,4.256-0.648l0.461-0.116l0.2-0.433c0.59-1.269,1.072-2.571,1.479-3.892
		c-0.73,0.134-1.468,0.241-2.204,0.342C53.528,69.105,51.471,69.251,49.415,69.251z"/>
	<path d="M67.517,46.338c-0.056,1.07-0.144,2.133-0.264,3.194c-0.584,5.22-1.943,10.31-4.035,15.218
		c-0.245,0.578-0.481,1.154-0.748,1.727l-0.055,0.115l10.836,3.248V54.896L67.517,46.338z"/>
	<path d="M35.617,64.75c-2.093-4.908-3.454-10.002-4.037-15.221c-0.118-1.06-0.206-2.124-0.262-3.195l-5.733,8.562v14.944
		l10.837-3.249l-0.054-0.115C36.1,65.906,35.864,65.326,35.617,64.75z"/>
	<path d="M59.556,18.458c-3.607-6.575-7.605-10.64-9.02-11.96c-0.144-1.386-0.446-2.444-0.817-2.824
		c-0.037-0.039-0.073-0.07-0.111-0.096l-0.189-0.162l-0.19,0.162c-0.037,0.025-0.074,0.057-0.109,0.096
		c-0.373,0.382-0.674,1.438-0.819,2.824c-1.412,1.321-5.411,5.385-9.018,11.96C45.983,17.342,52.85,17.342,59.556,18.458z"/>
	<path d="M49.418,33.396c-3.222,0-5.841,2.621-5.841,5.841c0,3.219,2.62,5.841,5.841,5.841c3.22,0,5.841-2.622,5.841-5.841
		C55.259,36.017,52.638,33.396,49.418,33.396z"/>
	<path d="M61.025,21.327c-0.181-0.379-0.364-0.741-0.549-1.107c-7.296-1.365-14.825-1.365-22.12,0
		c-0.182,0.366-0.37,0.728-0.547,1.107c-3.301,6.982-4.975,14.434-4.975,22.156s1.677,15.232,4.98,22.323l0.181,0.39l0.42,0.104
		c3.591,0.904,7.293,1.359,11,1.359c0.002,0,0.002,0,0.002,0c3.706,0,7.411-0.457,11.006-1.36l0.419-0.105l0.182-0.39
		c3.302-7.085,4.976-14.594,4.976-22.32C65.999,35.761,64.326,28.308,61.025,21.327z M49.418,48.504
		c-5.11,0-9.268-4.157-9.268-9.267c0-5.109,4.157-9.267,9.268-9.267c5.111,0,9.267,4.157,9.267,9.267
		C58.685,44.349,54.527,48.504,49.418,48.504z"/>
</g>
</svg>
