<?xml version="1.0" encoding="utf-8"?>
<!-- Generator: Adobe Illustrator 16.0.0, SVG Export Plug-In . SVG Version: 6.00 Build 0)  -->
<!DOCTYPE svg PUBLIC "-//W3C//DTD SVG 1.1//EN" "http://www.w3.org/Graphics/SVG/1.1/DTD/svg11.dtd">
<svg version="1.1" id="Layer_1" xmlns="http://www.w3.org/2000/svg" xmlns:xlink="http://www.w3.org/1999/xlink" x="0px" y="0px"
	 width="18.143px" height="18.143px" viewBox="0 0 18.143 18.143" enable-background="new 0 0 18.143 18.143" xml:space="preserve">
<g>
	<g>
		<path id="XMLID_2970_" fill="#818282" d="M2.244,1.254c-1.262,0-2.188,1.033-2.188,2.188c0,1.262,1.033,2.187,2.188,2.187
			c1.262,0,2.188-1.033,2.188-2.187C4.42,2.156,3.506,1.254,2.244,1.254z M2.93,3.442c0,0.384-0.312,0.685-0.686,0.685
			S1.56,3.814,1.56,3.442c0-0.386,0.312-0.687,0.685-0.687S2.93,3.056,2.93,3.442z"/>
		<path id="XMLID_2969_" fill="#818282" d="M18.085,3.442c0,0.349-0.229,0.575-0.576,0.575H6.608c-0.35,0-0.577-0.228-0.577-0.575
			l0,0c0-0.35,0.229-0.577,0.577-0.577H17.52C17.856,2.865,18.085,3.093,18.085,3.442L18.085,3.442z"/>
	</g>
	<g>
		<path id="XMLID_2974_" fill="#818282" d="M18.085,9.066c0,0.349-0.229,0.577-0.576,0.577H6.608c-0.35,0-0.577-0.229-0.577-0.577
			l0,0c0-0.349,0.229-0.576,0.577-0.576H17.52C17.856,8.49,18.085,8.837,18.085,9.066L18.085,9.066z"/>
		<path id="XMLID_1_" fill="#818282" d="M2.244,6.878c-1.262,0-2.188,1.034-2.188,2.188c0,1.263,1.033,2.187,2.188,2.187
			c1.262,0,2.188-1.033,2.188-2.187C4.42,7.781,3.506,6.878,2.244,6.878z M2.93,9.066c0,0.385-0.312,0.686-0.686,0.686
			S1.56,9.439,1.56,9.066c0-0.385,0.312-0.686,0.685-0.686S2.93,8.681,2.93,9.066z"/>
	</g>
	<g>
		<path id="XMLID_2979_" fill="#818282" d="M18.085,14.691c0,0.348-0.229,0.576-0.576,0.576H6.608c-0.35,0-0.577-0.229-0.577-0.576
			l0,0c0-0.35,0.229-0.578,0.577-0.578H17.52C17.856,14.113,18.085,14.355,18.085,14.691L18.085,14.691z"/>
		<path id="XMLID_2_" fill="#818282" d="M2.244,12.513c-1.262,0-2.188,1.035-2.188,2.189c0,1.262,1.033,2.186,2.188,2.186
			c1.262,0,2.188-1.031,2.188-2.186C4.42,13.404,3.506,12.513,2.244,12.513z M2.93,14.691c0,0.385-0.312,0.684-0.686,0.684
			S1.56,15.064,1.56,14.691s0.312-0.686,0.685-0.686S2.93,14.318,2.93,14.691z"/>
	</g>
</g>
</svg>
