<?xml version="1.0" encoding="utf-8"?>
<!-- Generator: Adobe Illustrator 16.0.0, SVG Export Plug-In . SVG Version: 6.00 Build 0)  -->
<!DOCTYPE svg PUBLIC "-//W3C//DTD SVG 1.1//EN" "http://www.w3.org/Graphics/SVG/1.1/DTD/svg11.dtd">
<svg version="1.1" id="Layer_1" xmlns="http://www.w3.org/2000/svg" xmlns:xlink="http://www.w3.org/1999/xlink" x="0px" y="0px"
	 width="19px" height="19px" viewBox="0 0 19 19" enable-background="new 0 0 19 19" xml:space="preserve">
<g>
	<path d="M15.38,2.573c-1.573-1.415-3.661-2.194-5.88-2.194c-2.219,0-4.308,0.779-5.881,2.194C2.054,3.98,1.156,5.934,1.156,7.933
		c0,5.703,7.756,10.419,8.086,10.617c0.079,0.048,0.168,0.071,0.257,0.071s0.178-0.023,0.258-0.071
		c0.33-0.198,8.086-4.914,8.086-10.617C17.844,5.935,16.946,3.981,15.38,2.573z M9.5,17.53c-1.329-0.858-7.344-5-7.344-9.598
		c0-1.741,0.757-3.38,2.132-4.616C5.657,2.085,7.557,1.379,9.5,1.379c1.942,0,3.843,0.706,5.212,1.938
		c1.375,1.237,2.132,2.876,2.132,4.616C16.844,12.525,10.828,16.671,9.5,17.53z"/>
	<path d="M9.497,5.082c-1.717,0-3.114,1.279-3.114,2.851s1.397,2.851,3.114,2.851c1.717,0,3.114-1.279,3.114-2.851
		S11.214,5.082,9.497,5.082z M9.497,9.784c-1.166,0-2.114-0.831-2.114-1.851s0.948-1.851,2.114-1.851s2.114,0.831,2.114,1.851
		S10.663,9.784,9.497,9.784z"/>
</g>
</svg>
