<?xml version="1.0" encoding="utf-8"?>
<!-- Generator: Adobe Illustrator 16.0.0, SVG Export Plug-In . SVG Version: 6.00 Build 0)  -->
<!DOCTYPE svg PUBLIC "-//W3C//DTD SVG 1.1//EN" "http://www.w3.org/Graphics/SVG/1.1/DTD/svg11.dtd">
<svg version="1.1" id="Layer_1" xmlns="http://www.w3.org/2000/svg" xmlns:xlink="http://www.w3.org/1999/xlink" x="0px" y="0px"
	 width="17px" height="17px" viewBox="0 0 17 17" enable-background="new 0 0 17 17" xml:space="preserve">
<g>
	<g>
		<path d="M8.531,16.434c-0.133,0-0.267-0.035-0.386-0.106C7.864,16.158,1.25,12.134,1.25,7.194c0-1.76,0.788-3.478,2.162-4.713
			c1.373-1.234,3.19-1.915,5.12-1.915c1.932,0,3.75,0.68,5.121,1.915c1.373,1.237,2.16,2.955,2.16,4.713
			c0,4.94-6.614,8.964-6.896,9.133C8.798,16.398,8.665,16.434,8.531,16.434z M8.531,2.066c-1.536,0-3.036,0.558-4.117,1.53
			C3.341,4.562,2.75,5.839,2.75,7.194c0,3.484,4.43,6.699,5.781,7.598c1.352-0.899,5.781-4.114,5.781-7.598
			c0-1.353-0.591-2.631-1.664-3.599C11.569,2.624,10.068,2.066,8.531,2.066z"/>
	</g>
	<g>
		<path d="M8.531,9.902c-1.614,0-2.927-1.215-2.927-2.708s1.313-2.709,2.927-2.709s2.928,1.215,2.928,2.709
			S10.146,9.902,8.531,9.902z M8.531,5.985c-0.787,0-1.427,0.542-1.427,1.209s0.64,1.208,1.427,1.208S9.959,7.86,9.959,7.194
			S9.318,5.985,8.531,5.985z"/>
	</g>
</g>
</svg>
