<?xml version="1.0" encoding="utf-8"?>
<!-- Generator: Adobe Illustrator 16.0.0, SVG Export Plug-In . SVG Version: 6.00 Build 0)  -->
<!DOCTYPE svg PUBLIC "-//W3C//DTD SVG 1.1//EN" "http://www.w3.org/Graphics/SVG/1.1/DTD/svg11.dtd">
<svg version="1.1" id="Your_Icon" xmlns="http://www.w3.org/2000/svg" xmlns:xlink="http://www.w3.org/1999/xlink" x="0px" y="0px"
	 width="100px" height="100px" viewBox="0 0 100 100" enable-background="new 0 0 100 100" xml:space="preserve">
<g>
	<path d="M50,2.875c-16.577,0-30.026,13.449-30.026,30.026c0,5.108,1.25,9.905,3.441,14.075C29.877,59.277,43.743,78.254,50,97.124
		c6.149-18.767,19.808-37.532,26.376-49.834v-0.104c0-0.105,0.105-0.105,0.105-0.209c0.104-0.104,0.104-0.209,0.207-0.416
		c2.085-4.066,3.337-8.758,3.337-13.657C80.025,16.325,66.576,2.875,50,2.875z M50,43.327c-5.735,0-10.426-4.692-10.426-10.426
		S44.265,22.476,50,22.476c5.733,0,10.424,4.692,10.424,10.426C60.424,38.637,55.733,43.327,50,43.327z"/>
</g>
</svg>
