<?xml version="1.0" encoding="utf-8"?>
<!-- Generator: Adobe Illustrator 16.0.0, SVG Export Plug-In . SVG Version: 6.00 Build 0)  -->
<!DOCTYPE svg PUBLIC "-//W3C//DTD SVG 1.1//EN" "http://www.w3.org/Graphics/SVG/1.1/DTD/svg11.dtd">
<svg version="1.1" id="Layer_1" xmlns="http://www.w3.org/2000/svg" xmlns:xlink="http://www.w3.org/1999/xlink" x="0px" y="0px"
	 width="18.008px" height="18.105px" viewBox="0 0 18.008 18.105" enable-background="new 0 0 18.008 18.105" xml:space="preserve">
<g>
	<path fill="#818282" d="M9.004,2.077c-2.194,0-3.968,1.786-3.968,3.967c0,2.181,1.774,3.966,3.968,3.966
		c2.193,0,3.966-1.785,3.966-3.966C12.971,3.863,11.197,2.077,9.004,2.077z M9.004,9.712c-2.026,0-3.667-1.643-3.667-3.667
		c0-2.025,1.642-3.667,3.667-3.667c2.025,0,3.667,1.642,3.667,3.667C12.672,8.069,11.029,9.712,9.004,9.712z"/>
	<path fill="#818282" d="M9.004,0.063c-3.296,0-5.981,2.685-5.981,5.981c0,3.236,5.622,11.47,5.861,11.817l0.12,0.181l0.119-0.181
		c0.24-0.347,5.861-8.581,5.861-11.817C14.984,2.748,12.301,0.063,9.004,0.063z M9.004,17.514c-0.839-1.259-5.681-8.582-5.681-11.47
		c0-3.128,2.541-5.682,5.681-5.682c3.14,0,5.681,2.553,5.681,5.682C14.686,8.933,9.842,16.256,9.004,17.514z"/>
	<path fill="#818282" d="M10.658,4.234c0-0.336-0.264-0.599-0.6-0.599c-0.275,0-0.503,0.18-0.575,0.432
		C9.172,3.85,8.752,3.887,8.489,4.15L6.188,6.032h0.875v1.366c0,0.408,0.335,0.743,0.743,0.743c0.407,0,0.743-0.335,0.743-0.743
		V7.123c0-0.251,0.179-0.48,0.407-0.491c0.132-0.012,0.252,0.036,0.348,0.12C9.4,6.835,9.447,6.955,9.447,7.087v0.312
		c0,0.408,0.336,0.755,0.756,0.755c0.406,0,0.754-0.335,0.754-0.755V6.032h0.863l-1.162-0.971V4.234z M10.994,5.732h-0.336v1.654
		c0,0.251-0.205,0.456-0.455,0.456c-0.252,0-0.455-0.204-0.455-0.456V7.074c0-0.215-0.085-0.407-0.24-0.551
		C9.364,6.391,9.184,6.32,8.992,6.32c-0.023,0-0.047,0-0.059,0C8.549,6.356,8.249,6.703,8.249,7.111v0.275
		c0,0.251-0.204,0.444-0.443,0.444c-0.252,0-0.444-0.204-0.444-0.444V5.732H7.027l1.666-1.366C8.884,4.174,9.196,4.174,9.4,4.378
		L9.76,4.69V4.234c0-0.167,0.131-0.3,0.299-0.3s0.299,0.132,0.299,0.3v0.959L10.994,5.732z"/>
</g>
</svg>
