<?xml version="1.0" encoding="utf-8"?>
<!-- Generator: Adobe Illustrator 16.0.0, SVG Export Plug-In . SVG Version: 6.00 Build 0)  -->
<!DOCTYPE svg PUBLIC "-//W3C//DTD SVG 1.1//EN" "http://www.w3.org/Graphics/SVG/1.1/DTD/svg11.dtd">
<svg version="1.1" id="Layer_1" xmlns="http://www.w3.org/2000/svg" xmlns:xlink="http://www.w3.org/1999/xlink" x="0px" y="0px"
	 width="105.7px" height="105.7px" viewBox="368.094 245.981 105.7 105.7" enable-background="new 368.094 245.981 105.7 105.7"
	 xml:space="preserve">
<g>
	<path d="M420.945,245.98c-18.591,0-33.675,15.083-33.675,33.675c0,5.729,1.403,11.108,3.859,15.785
		c7.249,13.797,22.8,35.079,29.816,56.242c6.898-21.047,22.216-42.094,29.582-55.891v-0.117c0-0.117,0.117-0.117,0.117-0.234
		c0.117-0.117,0.117-0.234,0.233-0.467c2.339-4.561,3.742-9.822,3.742-15.317C454.619,261.064,439.535,245.98,420.945,245.98z
		 M420.945,291.347c-6.431,0-11.692-5.262-11.692-11.692c0-6.431,5.262-11.693,11.692-11.693s11.692,5.262,11.692,11.693
		C432.637,286.086,427.375,291.347,420.945,291.347z"/>
</g>
</svg>
