<?xml version="1.0" encoding="utf-8"?>
<!-- Generator: Adobe Illustrator 16.0.0, SVG Export Plug-In . SVG Version: 6.00 Build 0)  -->
<!DOCTYPE svg PUBLIC "-//W3C//DTD SVG 1.1//EN" "http://www.w3.org/Graphics/SVG/1.1/DTD/svg11.dtd">
<svg version="1.1" id="Layer_1" xmlns="http://www.w3.org/2000/svg" xmlns:xlink="http://www.w3.org/1999/xlink" x="0px" y="0px"
	 width="372.891px" height="372.89px" viewBox="0 0 372.891 372.89" enable-background="new 0 0 372.891 372.89"
	 xml:space="preserve">
<g>
	<path d="M234.158,143.937c-0.334,14.328-21.543,25.899-47.715,25.899c-26.161,0-47.384-11.571-47.697-25.899
		c-32.365,2.952-59.043,25.536-68.062,55.737h231.52C293.186,169.472,266.508,146.889,234.158,143.937z"/>
</g>
<path d="M243.715,53.671c-4.406-30.386-29.339-53.667-59.454-53.667c-30.109,0-55.05,23.295-59.449,53.675
	c-0.443,3.143-0.677,6.357-0.677,9.63c0,1.323,0.044,2.632,0.124,3.949c0.108,1.897,0.298,3.788,0.553,5.65
	c0.044,0.56,0.102,1.12,0.152,1.688c3.79,42.918,28.896,76.062,59.297,76.062c30.812,0,56.182-34.024,59.454-77.727
	c0.451-3.135,0.698-6.364,0.698-9.637S244.166,56.807,243.715,53.671z M236.456,73.221c-2.866,38.379-25.149,68.25-52.188,68.25
	c-29.754,0-48.811-30.933-52.817-75c4.11-8.785,9.288-17.928,15.724-27.696c0,0,41.556,20.205,69.498,0l20.379,26.867
	C237.052,65.642,236.82,70.741,236.456,73.221z"/>
<g>
	<path d="M308.343,364.292H64.525c-2.372,0-4.292,1.936-4.292,4.32c0,2.371,1.927,4.275,4.292,4.275h243.817
		c2.386,0,4.307-1.904,4.307-4.275C312.649,366.227,310.728,364.292,308.343,364.292z"/>
</g>
<g>
	<path d="M315.326,205.299c6.807,0,12.374,5.183,12.635,11.647l-21.404,120.855l-0.093,0.526l0.001,0.536
		c0.008,3.051-1.263,5.974-3.579,8.23c-2.411,2.349-5.624,3.642-9.046,3.642H79.027c-6.973,0-12.646-5.438-12.646-12.121v-0.528
		l-0.092-0.52L44.931,217.165c0.105-3.18,1.366-6.029,3.661-8.266c2.383-2.321,5.562-3.6,8.95-3.6H315.326 M315.326,199.299H57.542
		c-4.961,0-9.626,1.883-13.136,5.302c-3.545,3.454-5.494,8.066-5.481,13.051l21.458,120.964c0,9.992,8.364,18.121,18.646,18.121
		H293.84c4.995,0,9.694-1.897,13.232-5.344c3.488-3.398,5.405-7.875,5.393-12.545L333.97,217.42
		C333.97,207.428,325.606,199.299,315.326,199.299L315.326,199.299z"/>
</g>
</svg>
