<?xml version="1.0" encoding="utf-8"?>
<!-- Generator: Adobe Illustrator 16.0.0, SVG Export Plug-In . SVG Version: 6.00 Build 0)  -->
<!DOCTYPE svg PUBLIC "-//W3C//DTD SVG 1.1//EN" "http://www.w3.org/Graphics/SVG/1.1/DTD/svg11.dtd">
<svg version="1.1" id="Layer_1" xmlns="http://www.w3.org/2000/svg" xmlns:xlink="http://www.w3.org/1999/xlink" x="0px" y="0px"
	 width="372.89px" height="372.89px" viewBox="0 0 372.89 372.89" enable-background="new 0 0 372.89 372.89" xml:space="preserve">
<g>
	<path fill="none" d="M184.261,141.47c27.045,0,49.315-29.871,52.196-68.25c0.349-2.48,0.552-5.004,0.596-7.579l-8.451,9.695
		c4.655-10.32-11.928-36.562-11.928-36.562c-27.958,20.205-69.505,0-69.505,0c-12.538,4.953-6.604,40.22-6.604,40.22
		c-3.135-2.175-5.993-3.331-8.342-3.92C135.685,112.574,157.663,141.47,184.261,141.47z"/>
	<path fill="none" d="M315.326,201.811H57.542c-8.895,0-16.117,7.229-16.117,16.117l21.47,124.413
		c0.014,9.062,7.244,16.306,16.124,16.306H293.84c8.873,0,16.117-7.244,16.117-16.132l21.499-124.775
		C331.443,209.04,324.212,201.811,315.326,201.811z M186.443,285.8c-4.27,0-7.731-3.433-7.731-7.725
		c0-4.247,3.461-7.708,7.731-7.708c4.266,0,7.728,3.461,7.728,7.708C194.17,282.367,190.708,285.8,186.443,285.8z"/>
	<path d="M234.158,143.936c-0.334,14.328-21.543,25.899-47.715,25.899c-26.161,0-47.384-11.571-47.697-25.899
		c-32.365,2.952-59.043,25.536-68.062,55.737h231.52C293.186,169.471,266.508,146.888,234.158,143.936z"/>
	<path d="M124.811,72.907c0.044,0.56,0.102,1.12,0.153,1.688c3.79,42.918,28.896,76.062,59.297,76.062
		c30.812,0,56.181-34.024,59.454-77.727c0.451-3.135,0.698-6.364,0.698-9.637s-0.247-6.487-0.698-9.623
		c-4.407-30.386-29.339-53.667-59.454-53.667c-30.11,0-55.05,23.295-59.45,53.675c-0.443,3.143-0.676,6.357-0.676,9.63
		c0,1.323,0.043,2.632,0.124,3.949C124.367,69.154,124.556,71.045,124.811,72.907z M147.175,38.774c0,0,41.555,20.205,69.498,0
		l20.379,26.867c0,0-0.232,5.099-0.596,7.579c-2.866,38.379-25.15,68.25-52.188,68.25c-29.754,0-48.81-30.933-52.817-75
		C135.561,57.685,140.739,48.542,147.175,38.774z"/>
	<path d="M308.343,364.29H64.525c-2.372,0-4.292,1.936-4.292,4.321c0,2.37,1.927,4.276,4.292,4.276h243.818
		c2.385,0,4.306-1.906,4.306-4.276C312.649,366.226,310.728,364.29,308.343,364.29z"/>
	<path stroke="#000000" stroke-width="0.75" stroke-miterlimit="10" d="M315.326,199.673h-13.121H70.685H57.542
		c-10.066,0-18.263,8.189-18.248,18.43l21.463,124.427c0,10.066,8.197,18.256,18.27,18.256H293.84c10.08,0,18.27-8.189,18.255-18.08
		l21.5-124.777C333.595,207.862,325.391,199.673,315.326,199.673z M309.972,342.529c0,8.873-7.244,16.117-16.132,16.117H79.027
		c-8.887,0-16.117-7.244-16.125-16.306l-21.47-124.398c0-8.889,7.222-16.132,16.11-16.132h257.783
		c8.887,0,16.117,7.243,16.131,15.942L309.972,342.529z"/>
</g>
</svg>
