<?xml version="1.0" encoding="utf-8"?>
<!-- Generator: Adobe Illustrator 16.0.0, SVG Export Plug-In . SVG Version: 6.00 Build 0)  -->
<!DOCTYPE svg PUBLIC "-//W3C//DTD SVG 1.1//EN" "http://www.w3.org/Graphics/SVG/1.1/DTD/svg11.dtd">
<svg version="1.1" id="Layer_1" xmlns="http://www.w3.org/2000/svg" xmlns:xlink="http://www.w3.org/1999/xlink" x="0px" y="0px"
	 width="1226.128px" height="1227.812px" viewBox="-1656.994 126.344 1226.128 1227.812"
	 enable-background="new -1656.994 126.344 1226.128 1227.812" xml:space="preserve">
<g>
	<path d="M-1044.338,564.544c97.971-0.217,178.867,80.541,178,177.72c-0.713,96.816-80.604,176.352-177.286,176.42
		c-97.715,0.076-179.04-81.179-178.179-177.859C-1220.803,643.434-1141.479,564.761-1044.338,564.544z"/>
	<path d="M-1043.19,1353.729c-98.148,0.427-179.188-79.897-178.613-177c0.714-97.104,80.177-176.573,177.032-176.93
		c97.684-0.356,178.294,79.68,178.434,177.362C-866.044,1273.689-945.794,1353.3-1043.19,1353.729z"/>
	<path d="M-1043.624,480.708c-97.715,0.14-179.04-81.185-178.179-177.79c1-97.466,80.324-176.14,177.465-176.356
		c97.971-0.217,178.867,80.541,178,177.72C-867.051,401.167-946.803,480.561-1043.624,480.708z"/>
	<path d="M-1480.848,564.403c96.962-0.721,176.712,78.169,177.427,175.488c0.72,97.684-77.596,178.076-174.131,178.791
		c-98.971,0.722-179.008-77.454-179.435-175.564C-1657.561,644.154-1579.679,565.188-1480.848,564.403z"/>
	<path d="M-1479.272,126.421c98.256,0.645,176.425,80.107,175.999,179.078c-0.574,96.816-80.611,175.712-178.007,175.208
		c-98.11-0.504-176.566-80.394-175.707-179.155C-1656.273,204.233-1576.663,125.848-1479.272,126.421z"/>
	<path d="M-605.139,564.684c100.406,2.442,176.566,82.34,174.132,182.668c-2.294,97.318-84.199,173.773-183.598,171.332
		c-96.675-2.436-172.409-84.914-169.828-185.024C-781.998,639.487-700.232,562.466-605.139,564.684z"/>
	<path d="M-1480.421,1354.154c-97.249,0.146-176.426-78.96-176.566-176.279c-0.287-98.686,78.744-178.217,176.854-178.076
		c97.249,0.075,176.859,79.322,176.859,176.284C-1303.135,1274.697-1382.024,1353.944-1480.421,1354.154z"/>
	<path d="M-430.867,302.777c0.293,98.391-78.883,178-177.287,177.931c-96.963-0.07-176.42-79.394-176.713-176.426
		c-0.279-98.187,79.61-178.293,177.287-177.938C-509.749,126.778-431.295,205.241-430.867,302.777z"/>
	<path d="M-607.285,1354.154c-97.11,0.504-176.859-78.604-177.434-175.706c-0.428-98.612,78.455-178.574,176.425-178.649
		c97.537-0.141,176.854,78.387,177.427,175.711C-430.433,1274.264-508.749,1353.511-607.285,1354.154z"/>
</g>
</svg>
