<?xml version="1.0" encoding="utf-8"?>
<!-- Generator: Adobe Illustrator 16.0.0, SVG Export Plug-In . SVG Version: 6.00 Build 0)  -->
<!DOCTYPE svg PUBLIC "-//W3C//DTD SVG 1.1//EN" "http://www.w3.org/Graphics/SVG/1.1/DTD/svg11.dtd">
<svg version="1.1" id="Layer_1" xmlns="http://www.w3.org/2000/svg" xmlns:xlink="http://www.w3.org/1999/xlink" x="0px" y="0px"
	 width="1500.5px" height="1480.5px" viewBox="0 0 1500.5 1480.5" enable-background="new 0 0 1500.5 1480.5" xml:space="preserve">
<g>
	<path fill-rule="evenodd" clip-rule="evenodd" d="M749.842,564.544c97.97-0.217,178.867,80.541,178,177.72
		c-0.713,96.816-80.604,176.351-177.286,176.42c-97.715,0.076-179.04-81.179-178.179-177.86
		C573.377,643.434,652.701,564.761,749.842,564.544z"/>
	<path fill-rule="evenodd" clip-rule="evenodd" d="M750.989,1353.728c-98.148,0.427-179.187-79.897-178.613-177
		c0.714-97.103,80.177-176.573,177.032-176.929c97.684-0.357,178.294,79.68,178.434,177.362
		C928.136,1273.69,848.386,1353.3,750.989,1353.728z"/>
	<path fill-rule="evenodd" clip-rule="evenodd" d="M750.556,480.708c-97.715,0.14-179.04-81.185-178.179-177.79
		c1-97.466,80.324-176.14,177.465-176.356c97.97-0.217,178.867,80.541,178,177.72C927.129,401.167,847.377,480.561,750.556,480.708z
		"/>
	<path fill-rule="evenodd" clip-rule="evenodd" d="M313.332,564.403c96.962-0.72,176.712,78.169,177.427,175.489
		c0.72,97.683-77.596,178.076-174.131,178.791c-98.971,0.721-179.008-77.455-179.435-175.565
		C136.619,644.154,214.501,565.188,313.332,564.403z"/>
	<path fill-rule="evenodd" clip-rule="evenodd" d="M314.907,126.421c98.256,0.645,176.425,80.107,175.999,179.078
		c-0.574,96.816-80.611,175.712-178.007,175.208c-98.11-0.504-176.566-80.394-175.706-179.155
		C137.906,204.233,217.517,125.848,314.907,126.421z"/>
	<path fill-rule="evenodd" clip-rule="evenodd" d="M1189.041,564.684c100.406,2.442,176.567,82.339,174.132,182.668
		c-2.294,97.318-84.199,173.773-183.598,171.332c-96.675-2.436-172.409-84.915-169.828-185.025
		C1012.182,639.487,1093.947,562.466,1189.041,564.684z"/>
	<path fill-rule="evenodd" clip-rule="evenodd" d="M313.759,1354.154c-97.249,0.146-176.426-78.96-176.566-176.279
		c-0.287-98.685,78.744-178.217,176.854-178.076c97.249,0.075,176.859,79.322,176.859,176.284
		C491.045,1274.697,412.155,1353.944,313.759,1354.154z"/>
	<path fill-rule="evenodd" clip-rule="evenodd" d="M1363.312,302.777c0.294,98.391-78.882,178-177.287,177.931
		c-96.962-0.07-176.419-79.394-176.712-176.426c-0.28-98.186,79.61-178.293,177.287-177.937
		C1284.431,126.778,1362.885,205.241,1363.312,302.777z"/>
	<path fill-rule="evenodd" clip-rule="evenodd" d="M1186.894,1354.154c-97.11,0.504-176.859-78.603-177.433-175.706
		c-0.428-98.612,78.455-178.574,176.425-178.649c97.537-0.141,176.854,78.386,177.427,175.711
		C1363.747,1274.264,1285.431,1353.511,1186.894,1354.154z"/>
</g>
</svg>
