<?xml version="1.0" encoding="utf-8"?>
<!-- Generator: Adobe Illustrator 16.0.0, SVG Export Plug-In . SVG Version: 6.00 Build 0)  -->
<!DOCTYPE svg PUBLIC "-//W3C//DTD SVG 1.1//EN" "http://www.w3.org/Graphics/SVG/1.1/DTD/svg11.dtd">
<svg version="1.1" id="Layer_1" xmlns="http://www.w3.org/2000/svg" xmlns:xlink="http://www.w3.org/1999/xlink" x="0px" y="0px"
	 width="1500.5px" height="1480.5px" viewBox="0 0 1500.5 1480.5" enable-background="new 0 0 1500.5 1480.5" xml:space="preserve">
<path d="M695.521,201.681v164.18c0,22.783-7.991,42.175-23.92,58.13c-15.982,15.957-35.35,23.947-58.157,23.947h-273.59
	c-22.808,0-42.202-7.99-58.132-23.947c-15.98-15.955-23.945-35.347-23.945-58.13v-164.18c0-22.783,7.965-42.175,23.945-58.133
	c15.93-15.955,35.324-23.944,58.132-23.944h273.59c22.808,0,42.175,7.989,58.157,23.944
	C687.53,159.506,695.521,178.898,695.521,201.681z M695.521,639.451v164.153c0,22.807-7.991,42.202-23.92,58.156
	c-15.982,15.955-35.35,23.92-58.157,23.92h-273.59c-22.808,0-42.202-7.965-58.132-23.92c-15.98-15.954-23.945-35.35-23.945-58.156
	V639.451c0-22.783,7.965-42.178,23.945-58.132c15.93-15.955,35.324-23.944,58.132-23.944h273.59
	c22.808,0,42.175,7.989,58.157,23.944C687.53,597.272,695.521,616.668,695.521,639.451z M695.521,1077.218v164.156
	c0,22.807-7.991,42.175-23.92,58.129c-15.982,15.981-35.35,23.947-58.157,23.947h-273.59c-22.808,0-42.202-7.966-58.132-23.947
	c-15.98-15.954-23.945-35.322-23.945-58.129v-164.156c0-22.807,7.965-42.176,23.945-58.156c15.93-15.955,35.324-23.92,58.132-23.92
	h273.59c22.808,0,42.175,7.965,58.157,23.92C687.53,1035.042,695.521,1054.411,695.521,1077.218z M1242.725,201.681v164.18
	c0,22.783-7.99,42.175-23.945,58.13c-15.955,15.957-35.35,23.947-58.131,23.947h-273.59c-22.807,0-42.201-7.99-58.156-23.947
	c-15.955-15.955-23.92-35.347-23.92-58.13v-164.18c0-22.783,7.965-42.175,23.92-58.133c15.955-15.955,35.35-23.944,58.156-23.944
	h273.59c22.781,0,42.176,7.989,58.131,23.944C1234.734,159.506,1242.725,178.898,1242.725,201.681z M1242.725,639.451v164.153
	c0,22.807-7.99,42.202-23.945,58.156c-15.955,15.955-35.35,23.92-58.131,23.92h-273.59c-22.807,0-42.201-7.965-58.156-23.92
	c-15.955-15.954-23.92-35.35-23.92-58.156V639.451c0-22.783,7.965-42.178,23.92-58.132c15.955-15.955,35.35-23.944,58.156-23.944
	h273.59c22.781,0,42.176,7.989,58.131,23.944C1234.734,597.272,1242.725,616.668,1242.725,639.451z M1242.725,1077.218v164.156
	c0,22.807-7.99,42.175-23.945,58.129c-15.955,15.981-35.35,23.947-58.131,23.947h-273.59c-22.807,0-42.201-7.966-58.156-23.947
	c-15.955-15.954-23.92-35.322-23.92-58.129v-164.156c0-22.807,7.965-42.176,23.92-58.156c15.955-15.955,35.35-23.92,58.156-23.92
	h273.59c22.781,0,42.176,7.965,58.131,23.92C1234.734,1035.042,1242.725,1054.411,1242.725,1077.218z"/>
</svg>
