<?xml version="1.0" encoding="utf-8"?>
<!-- Generator: Adobe Illustrator 16.0.0, SVG Export Plug-In . SVG Version: 6.00 Build 0)  -->
<!DOCTYPE svg PUBLIC "-//W3C//DTD SVG 1.1//EN" "http://www.w3.org/Graphics/SVG/1.1/DTD/svg11.dtd">
<svg version="1.1" id="Layer_1" xmlns="http://www.w3.org/2000/svg" xmlns:xlink="http://www.w3.org/1999/xlink" x="0px" y="0px"
	 width="100px" height="100px" viewBox="0 0 100 100" enable-background="new 0 0 100 100" xml:space="preserve">
<g id="Captions">
</g>
<g id="Your_Icon">
	<g>
		<path d="M64.156,3.103H34.145c-8.202,0-14.846,6.648-14.846,14.849v63.245c0,8.205,6.644,14.848,14.846,14.848h30.012
			C72.354,96.044,79,89.4,79,81.195V17.951C79,9.751,72.354,3.103,64.156,3.103z M49.148,88.943c-2.496,0-4.518-2.023-4.518-4.52
			c0-2.497,2.021-4.519,4.518-4.519c2.495,0,4.516,2.021,4.516,4.519C53.664,86.92,51.645,88.943,49.148,88.943z M73.352,66.354
			c0,4.275-3.47,7.748-7.744,7.748H32.69c-4.278,0-7.745-3.473-7.745-7.748V27.31c0-4.277,3.467-7.75,7.745-7.75h32.917
			c4.273,0,7.744,3.473,7.744,7.75V66.354L73.352,66.354z"/>
	</g>
</g>
</svg>
