<?xml version="1.0" encoding="utf-8"?>
<!-- Generator: Adobe Illustrator 16.0.0, SVG Export Plug-In . SVG Version: 6.00 Build 0)  -->
<!DOCTYPE svg PUBLIC "-//W3C//DTD SVG 1.1//EN" "http://www.w3.org/Graphics/SVG/1.1/DTD/svg11.dtd">
<svg version="1.1" id="Layer_1" xmlns="http://www.w3.org/2000/svg" xmlns:xlink="http://www.w3.org/1999/xlink" x="0px" y="0px"
	 width="18.008px" height="18.105px" viewBox="0 0 18.008 18.105" enable-background="new 0 0 18.008 18.105" xml:space="preserve">
<g id="XMLID_28_">
	<path id="XMLID_32_" fill="#818282" d="M12.46,3.867H5.547c-0.12,0-0.216,0.048-0.3,0.132S5.115,4.191,5.115,4.3v9.505
		c0,0.121,0.048,0.217,0.132,0.301c0.084,0.086,0.192,0.133,0.3,0.133h6.913c0.121,0,0.218-0.047,0.301-0.133
		c0.084-0.084,0.133-0.191,0.133-0.301V4.3c0-0.121-0.049-0.216-0.133-0.3C12.678,3.904,12.581,3.867,12.46,3.867z M12.509,13.494
		c0,0.18-0.144,0.311-0.312,0.311H5.811c-0.18,0-0.312-0.143-0.312-0.311V4.611c0-0.18,0.144-0.312,0.312-0.312h6.374
		c0.181,0,0.312,0.144,0.312,0.312v8.883H12.509z"/>
	<path id="XMLID_35_" fill="#818282" d="M9.004,14.886c-0.3,0-0.552,0.107-0.769,0.312c-0.216,0.215-0.312,0.467-0.312,0.768
		c0,0.299,0.108,0.553,0.312,0.766c0.216,0.219,0.468,0.314,0.769,0.314c0.3,0,0.552-0.107,0.769-0.314
		c0.216-0.213,0.312-0.467,0.312-0.766c0-0.301-0.108-0.553-0.312-0.768C9.556,14.994,9.304,14.886,9.004,14.886z M9.004,16.135
		c-0.084,0-0.156-0.072-0.156-0.158c0-0.082,0.072-0.154,0.156-0.154s0.156,0.072,0.156,0.154
		C9.16,16.062,9.088,16.135,9.004,16.135z"/>
	<path id="XMLID_38_" fill="#818282" d="M12.652,0.05H5.355c-1.056,0-1.92,0.864-1.92,1.92v14.164c0,1.055,0.864,1.92,1.92,1.92
		h7.297c1.057,0,1.921-0.865,1.921-1.92V1.97C14.573,0.914,13.709,0.05,12.652,0.05z M14.188,15.967
		c0,0.467-0.167,0.877-0.516,1.213c-0.348,0.348-0.744,0.514-1.213,0.514H5.547c-0.468,0-0.876-0.166-1.212-0.514
		c-0.348-0.336-0.517-0.746-0.517-1.213V2.138c0-0.468,0.168-0.876,0.517-1.213C4.671,0.578,5.079,0.41,5.547,0.41h6.913
		c0.469,0,0.878,0.168,1.213,0.515c0.336,0.349,0.516,0.745,0.516,1.213V15.967z"/>
	<path id="XMLID_39_" fill="#818282" d="M7.924,2.571h2.161c0.145,0,0.216-0.072,0.216-0.216s-0.071-0.216-0.216-0.216H7.924
		c-0.144,0-0.216,0.072-0.216,0.216S7.78,2.571,7.924,2.571z"/>
</g>
</svg>
