<?xml version="1.0" encoding="utf-8"?>
<!-- Generator: Adobe Illustrator 16.0.0, SVG Export Plug-In . SVG Version: 6.00 Build 0)  -->
<!DOCTYPE svg PUBLIC "-//W3C//DTD SVG 1.1//EN" "http://www.w3.org/Graphics/SVG/1.1/DTD/svg11.dtd">
<svg version="1.1" id="Layer_1" xmlns="http://www.w3.org/2000/svg" xmlns:xlink="http://www.w3.org/1999/xlink" x="0px" y="0px"
	 width="1500.5px" height="1480.5px" viewBox="0 0 1500.5 1480.5" enable-background="new 0 0 1500.5 1480.5" xml:space="preserve">
<g transform="translate(0,-952.36218)">
	<rect x="77.689" y="1684.227" width="1345.121" height="131.111"/>
	<path d="M162.219,1781.308v495.283h1175.923v-495.283H162.219z M729.788,1821.076h52.411v25.238
		c32.841,4.595,65.451,18.542,97.977,41.215l-40.271,57.729c-20.664-14.767-39.979-24.655-57.705-29.577v71.304
		c35.478,9.19,61.649,21.437,78.559,36.854c16.946,15.467,25.25,37.253,25.25,65.499c0,28.27-9.236,51.455-28.143,69.834
		c-18.893,18.429-44.177,29.413-75.666,33.006v34.45h-52.411v-35.896c-41.704-6.555-80.285-25.54-115.46-56.749l46.067-55.328
		c25.658,22.346,48.704,36.457,69.393,42.709V2048.1c-34.474-8.865-59.573-20.947-75.69-35.876
		c-16.094-14.951-24.258-36.457-24.258-64.517c0-28.129,9.284-51.15,27.665-69.368c18.379-18.241,42.404-29.391,72.283-32.981
		V1821.076z M729.788,1913.746c-14.137,4.945-21.343,13.994-21.343,27.15c0,13.155,7.206,23.185,21.343,30.089V1913.746z
		 M782.199,2063.144v60.646c16.747-5.248,24.725-15.466,24.725-30.557c0-6.928-1.725-12.386-5.317-17.004
		C797.968,2071.633,791.717,2067.085,782.199,2063.144z"/>
	<path d="M591.633,1426.251h317.28c52.716,0,95.167,42.453,95.167,95.167v200.946c0,52.738-42.451,95.189-95.167,95.189h-317.28
		c-52.737,0-95.164-42.451-95.164-95.189v-200.946C496.469,1468.704,538.896,1426.251,591.633,1426.251L591.633,1426.251z
		 M891.326,1249.682c0,77.857-63.176,141.046-141.083,141.046c-77.883,0-141.023-63.188-141.023-141.046
		c0-77.908,63.141-141.048,141.023-141.048C828.15,1108.634,891.326,1171.774,891.326,1249.682z"/>
	<g transform="matrix(0.50480441,0,0,0.50480441,7.9488285,979.22088)">
		<path d="M2455.047,658.034c0-1.201-0.184-60.531-0.555-62.656c0-2.08,0-3.699,0-4.992c0-13.63,4.066-24.489,12.385-32.621
			c8.222-7.992,21.35-17.05,39.089-26.984c10.814-6.192,19.779-11.691,26.985-16.45c7.297-4.759,14.23-10.767,20.792-17.974
			c6.657-7.253,11.921-15.941,15.895-26.108c3.882-10.163,5.825-21.809,5.825-35.069c0-40.567-15.436-71.85-46.578-93.754
			c-30.957-21.946-71.344-32.945-120.971-32.945c-23.286,0-45.185,2.961-65.891,8.688c-20.701,5.823-38.905,14.463-54.61,26.107
			c-16.541,12.383-29.759,27.816-39.461,46.253c-9.702,18.39-15.155,39.599-16.451,63.626h128.546
			c0-16.544,3.232-29.25,9.702-38.167c6.376-8.871,16.542-13.309,30.68-13.309c12.845,0,23.66,2.867,32.533,8.687
			c8.961,5.777,13.398,14.879,13.398,27.262c0,10.811-3.051,18.853-8.962,24.212c-6.1,5.452-15.895,10.998-29.484,16.818
			c-9.977,4.9-18.574,9.472-25.871,13.632c-7.117,4.113-13.958,9.935-20.425,17.375c-6.467,7.487-11.648,17.326-15.523,29.524
			c-3.974,12.154-5.917,27.217-5.917,45.007c0,1.663,0.184,4.157,0.648,7.483c0,4.53,0,65.153,0,66.355H2455.047z M2341.01,676.885
			v90.473h114.684v-90.473H2341.01z"/>
	</g>
</g>
</svg>
