<?xml version="1.0" encoding="utf-8"?>
<!-- Generator: Adobe Illustrator 16.0.0, SVG Export Plug-In . SVG Version: 6.00 Build 0)  -->
<!DOCTYPE svg PUBLIC "-//W3C//DTD SVG 1.1//EN" "http://www.w3.org/Graphics/SVG/1.1/DTD/svg11.dtd">
<svg version="1.1" id="Layer_1" xmlns="http://www.w3.org/2000/svg" xmlns:xlink="http://www.w3.org/1999/xlink" x="0px" y="0px"
	 width="488px" height="488px" viewBox="0 0 488 488" enable-background="new 0 0 488 488" xml:space="preserve">
<g>
	<path d="M466.855,411.785l-80.36-115.587l-28.742,19.997l80.354,115.565c0.156,0.226,0.148,0.291,0.046,0.486
		c-0.112,0.215-0.175,0.253-0.417,0.253H53.368c-0.243,0-0.31-0.04-0.404-0.221c-0.123-0.236-0.105-0.305,0.028-0.496
		l80.358-115.581l-28.741-19.997L24.245,411.803c-7.559,10.883-8.441,24.932-2.305,36.662c6.137,11.741,18.18,19.035,31.428,19.035
		h384.368c13.261,0,25.305-7.301,31.425-19.039C475.304,436.726,474.421,422.673,466.855,411.785z"/>
	<path d="M245.238,175.627c-8.164-1.994-15.874-3.877-22.589-6.169c-11.161-3.813-20.299-12.184-23.282-21.328
		c-3.062-9.374-0.384-20.167,7.961-32.084c9.015-12.884,21.367-20.424,35.709-21.805c1.574-0.15,3.19-0.226,4.805-0.226
		c17.511,0,36.824,8.958,52.988,24.576l6.831,6.6l24.322-25.162l-6.828-6.603c-17.428-16.853-37.979-28.184-58.655-32.481V16.5h-35
		v44.099c-21.113,4.186-39.656,16.531-52.844,35.368c-18.673,26.668-17.137,48.981-12.561,63.004
		c6.473,19.83,23.386,36.124,45.243,43.587c8.176,2.791,16.624,4.854,25.65,7.059c21.484,5.251,43.699,10.682,53.201,25.729
		c5.315,8.411,6.497,22.194,3.011,35.119c-3.47,12.884-10.869,23.096-20.303,28.019c-10.357,5.405-20.857,8.146-31.208,8.146
		c-7.474,0-14.668-1.461-21.379-4.342c-16.484-7.086-29.056-22.062-34.49-41.09l-2.609-9.134l-33.655,9.611l2.611,9.136
		c8.339,29.185,28.141,52.377,54.331,63.631c8,3.435,16.375,5.653,25,6.63V379.5h35v-41.146c7.651-2.031,15.218-4.984,22.582-8.818
		c18.078-9.43,31.897-27.633,37.916-49.942c6.092-22.596,3.399-46.117-7.207-62.924
		C302.723,189.661,270.849,181.879,245.238,175.627z"/>
</g>
</svg>
