<?xml version="1.0" encoding="utf-8"?>
<!-- Generator: Adobe Illustrator 16.0.0, SVG Export Plug-In . SVG Version: 6.00 Build 0)  -->
<!DOCTYPE svg PUBLIC "-//W3C//DTD SVG 1.1//EN" "http://www.w3.org/Graphics/SVG/1.1/DTD/svg11.dtd">
<svg version="1.1" id="Your_Icon" xmlns="http://www.w3.org/2000/svg" xmlns:xlink="http://www.w3.org/1999/xlink" x="0px" y="0px"
	 width="100px" height="100px" viewBox="0 0 100 100" enable-background="new 0 0 100 100" xml:space="preserve">
<g id="_x36_h9iDe_1_">
	<g>
		<path fill-rule="evenodd" clip-rule="evenodd" d="M28.854,62.576c-0.416-0.066-0.834-0.115-1.246-0.199
			c-2.003-0.412-3.731-1.299-5.01-2.943c-0.713-0.916-1.1-1.969-1.308-3.104c-0.231-1.262-0.356-2.529-0.275-3.809
			c0.13-2.04,0.725-3.903,2.174-5.416c1.068-1.114,2.391-1.77,3.878-2.123c1.883-0.446,3.738-0.326,5.536,0.364
			c2.154,0.828,3.5,2.436,4.233,4.588c0.509,1.497,0.631,3.043,0.573,4.61c-0.006,0.17,0,0.342,0,0.525c-3.808,0-7.579,0-11.4,0
			c0.036,0.271,0.057,0.541,0.107,0.805c0.279,1.438,1.421,2.445,2.877,2.58c0.862,0.078,1.678-0.045,2.404-0.523
			c0.287-0.189,0.505-0.48,0.76-0.721c0.062-0.057,0.145-0.131,0.219-0.131c1.441,0.012,2.883,0.031,4.325,0.051
			c0.015,0.002,0.028,0.012,0.065,0.025c-0.038,0.641-0.202,1.252-0.478,1.834c-0.712,1.504-1.932,2.43-3.448,3.012
			c-0.749,0.287-1.527,0.455-2.326,0.523c-0.068,0.006-0.135,0.033-0.202,0.051C29.825,62.576,29.339,62.576,28.854,62.576z
			 M26.179,51.811c2.014,0,4.029,0,6.043,0c0.056-1.131-0.558-2.129-1.39-2.61c-1.126-0.648-2.62-0.564-3.63,0.2
			C26.464,49.958,26.039,50.971,26.179,51.811z"/>
		<path fill-rule="evenodd" clip-rule="evenodd" d="M87.237,55.066c-0.498,0-0.981,0.002-1.465,0
			c-2.703-0.012-5.407-0.023-8.111-0.037c-0.517-0.002-1.033-0.014-1.551-0.02c-0.119,0-0.245-0.014-0.232,0.172
			c0.076,1.082,0.441,2.016,1.366,2.658c1.196,0.832,3.028,0.816,4.175-0.047c0.21-0.158,0.393-0.359,0.553-0.57
			c0.102-0.131,0.187-0.193,0.357-0.189c1.371,0.023,2.743,0.037,4.114,0.053c0.054,0.002,0.107,0.006,0.226,0.012
			c-0.102,0.443-0.166,0.873-0.301,1.281c-0.564,1.709-1.782,2.797-3.399,3.482c-1.468,0.621-3.003,0.777-4.579,0.621
			c-1.392-0.137-2.697-0.539-3.895-1.266c-1.877-1.141-2.994-2.795-3.359-4.967c-0.201-1.186-0.337-2.373-0.276-3.574
			c0.106-2.1,0.685-4.024,2.171-5.585c1.093-1.148,2.455-1.813,3.987-2.159c1.779-0.399,3.536-0.298,5.248,0.312
			c2.289,0.817,3.71,2.48,4.456,4.754c0.467,1.422,0.604,2.891,0.551,4.379C87.264,54.602,87.249,54.828,87.237,55.066z
			 M76.01,51.773c2.034,0,4.049,0,6.092,0c-0.027-1.072-0.386-1.971-1.308-2.542c-1.167-0.723-2.383-0.714-3.547,0.006
			C76.328,49.804,75.967,50.691,76.01,51.773z"/>
		<path fill-rule="evenodd" clip-rule="evenodd" d="M3.042,44.912c0.143,0,0.243,0,0.344,0c1.238,0,2.477,0.004,3.715-0.004
			c0.182-0.002,0.258,0.057,0.309,0.23c0.14,0.479,0.303,0.95,0.465,1.451c0.069-0.051,0.118-0.082,0.161-0.121
			c1.445-1.294,3.141-1.869,5.07-1.762c1.691,0.094,3.169,0.697,4.366,1.915c0.939,0.956,1.505,2.117,1.58,3.45
			c0.09,1.61,0.082,3.225,0.104,4.838c0.031,2.195,0.05,4.389,0.076,6.582c0.004,0.416-0.308,0.762-0.727,0.758
			c-1.199-0.012-2.397-0.037-3.596-0.057c-0.252-0.004-0.385-0.162-0.454-0.375c-0.042-0.131-0.059-0.275-0.059-0.414
			c-0.003-3.002-0.01-6.004,0.003-9.004c0.003-0.623,0.009-1.236-0.2-1.83c-0.39-1.105-1.363-1.81-2.533-1.834
			c-2.215-0.043-3.918,1.631-3.918,3.852c0,2.969,0,5.939,0,8.91c0,0.436-0.204,0.686-0.638,0.689
			c-1.159,0.012-2.32,0.004-3.479-0.004c-0.122,0-0.247-0.039-0.365-0.078c-0.18-0.059-0.305-0.154-0.232-0.381
			c0.027-0.086,0.01-0.188,0.01-0.281c0-5.391,0-10.783,0-16.175C3.042,45.161,3.042,45.052,3.042,44.912z"/>
		<path fill-rule="evenodd" clip-rule="evenodd" d="M59.017,44.989c0.73,0,1.447,0,2.192,0c0-1.451,0-2.872,0-4.313
			c0.111-0.008,0.195-0.018,0.277-0.018c1.442-0.001,2.885,0.006,4.326-0.006c0.24-0.002,0.305,0.068,0.303,0.305
			c-0.011,1.237-0.005,2.476-0.005,3.714c0.001,0.316,0.002,0.316,0.326,0.316c1.113,0.001,2.226,0.001,3.339,0.001
			c0.091,0,0.184,0,0.292,0c0,1.29,0,2.555,0,3.857c-1.291,0-2.578,0-3.891,0c0,0.129,0,0.222,0,0.313
			c-0.001,2.673-0.003,5.345-0.002,8.017c0,0.148,0.01,0.299,0.044,0.441c0.103,0.426,0.336,0.598,0.773,0.598
			c0.972-0.002,1.942,0,2.937,0c0,1.365,0,2.723,0,4.109c-0.086,0-0.169,0-0.253,0c-1.293-0.018-2.585-0.047-3.878-0.049
			c-1.821-0.002-3.089-0.885-3.911-2.455c-0.427-0.814-0.626-1.688-0.625-2.619c0.002-2.68-0.026-5.359-0.044-8.04
			c-0.001-0.069-0.007-0.139-0.014-0.242c-0.73,0-1.453,0-2.188,0C59.017,47.596,59.017,46.307,59.017,44.989z"/>
		<path fill-rule="evenodd" clip-rule="evenodd" d="M96.964,62.281c-0.09,0-0.175,0-0.259,0c-1.058,0-2.116-0.027-3.174,0.008
			c-0.813,0.029-1.526-0.223-2.198-0.629c-1.262-0.762-1.977-1.91-2.17-3.35c-0.107-0.795-0.1-1.609-0.104-2.414
			c-0.03-5.369-0.051-10.737-0.074-16.106c-0.002-0.775,0-1.55,0-2.366c1.601,0,3.209,0,4.848,0c0,0.061,0,0.145,0,0.228
			c-0.004,4.875-0.008,9.75-0.015,14.625c-0.003,1.527-0.015,3.055-0.019,4.584c-0.003,0.912,0.516,1.426,1.427,1.426
			c0.518,0,1.034,0.002,1.552,0c0.119,0,0.212,0.004,0.211,0.17c-0.006,1.238-0.004,2.477-0.005,3.715
			C96.984,62.201,96.974,62.23,96.964,62.281z"/>
		<path fill-rule="evenodd" clip-rule="evenodd" d="M58.047,44.912c0,0.112,0.002,0.197,0,0.28
			c-0.032,0.956-0.062,1.911-0.104,2.865c-0.005,0.106-0.066,0.224-0.132,0.312c-1.245,1.7-2.492,3.398-3.748,5.089
			c-0.126,0.17-0.123,0.273,0.006,0.439c1.249,1.609,2.49,3.223,3.727,4.842c0.086,0.113,0.141,0.281,0.143,0.422
			c0.013,0.895,0.003,1.787,0.01,2.682c0.002,0.17-0.027,0.25-0.229,0.252c-1.05,0.006-2.099,0.025-3.149,0.049
			c-0.157,0.002-0.252-0.049-0.347-0.176c-1.894-2.525-3.789-5.051-5.69-7.57c-0.135-0.18-0.173-0.365-0.207-0.58
			c-0.09-0.574,0.11-1.01,0.461-1.467c1.84-2.389,3.648-4.803,5.46-7.215c0.128-0.167,0.258-0.23,0.467-0.229
			c1.019,0.011,2.038,0.005,3.057,0.005C57.854,44.912,57.938,44.912,58.047,44.912z"/>
		<path fill-rule="evenodd" clip-rule="evenodd" d="M38.08,62.193c0-0.164,0-0.25,0-0.334c0-0.877-0.007-1.756,0.007-2.633
			c0.002-0.15,0.058-0.324,0.148-0.443c1.235-1.621,2.478-3.234,3.727-4.844c0.119-0.152,0.118-0.248,0.004-0.402
			c-1.254-1.693-2.503-3.39-3.746-5.093c-0.081-0.11-0.132-0.266-0.139-0.402c-0.043-0.932-0.066-1.864-0.11-2.795
			c-0.01-0.214,0.057-0.265,0.261-0.264c1.058,0.01,2.116,0.008,3.174,0.001c0.15-0.001,0.24,0.051,0.329,0.17
			c1.93,2.588,3.864,5.171,5.792,7.76c0.077,0.104,0.105,0.252,0.127,0.383c0.104,0.645-0.137,1.148-0.534,1.662
			c-1.792,2.33-3.543,4.689-5.304,7.041c-0.104,0.139-0.205,0.199-0.384,0.197C40.328,62.188,39.223,62.193,38.08,62.193z"/>
	</g>
</g>
</svg>
