<?xml version="1.0" encoding="utf-8"?>
<!-- Generator: Adobe Illustrator 16.0.0, SVG Export Plug-In . SVG Version: 6.00 Build 0)  -->
<!DOCTYPE svg PUBLIC "-//W3C//DTD SVG 1.1//EN" "http://www.w3.org/Graphics/SVG/1.1/DTD/svg11.dtd">
<svg version="1.1" id="Your_Icon" xmlns="http://www.w3.org/2000/svg" xmlns:xlink="http://www.w3.org/1999/xlink" x="0px" y="0px"
	 width="100px" height="100px" viewBox="0 0 100 100" enable-background="new 0 0 100 100" xml:space="preserve">
<g>
	<path fill-rule="evenodd" clip-rule="evenodd" d="M31.815,51.863l-0.105,0.025l-0.11,0.023l-0.117,0.019l-0.122,0.02l-0.264,0.03
		l-0.288,0.018l-0.306,0.02l-0.318,0.006H29.86h-0.336l-0.336-0.006l-0.337-0.006l-0.33-0.007l-0.325-0.007l-0.318-0.006
		l-0.294-0.006l-0.281-0.006h-0.258l-0.318,0.006h-0.3l-0.135-0.006l-0.135-0.012l-0.061-0.007L26.04,51.95l-0.055-0.02
		l-0.055-0.019l-0.049-0.018l-0.049-0.025l-0.043-0.029l-0.042-0.031l-0.037-0.03l-0.031-0.044l-0.03-0.042l-0.025-0.05
		l-0.019-0.055l-0.018-0.055l-0.013-0.062l-0.006-0.073v-0.073v-0.081l0.012-0.085l0.013-0.099l0.03-0.152l0.042-0.154l0.055-0.152
		l0.067-0.148l0.074-0.141l0.086-0.135l0.092-0.135l0.104-0.129l0.11-0.124l0.123-0.116l0.123-0.111l0.134-0.104l0.142-0.098
		l0.146-0.093l0.153-0.086l0.16-0.08l0.159-0.074l0.171-0.062l0.172-0.055l0.177-0.048l0.178-0.037l0.183-0.031l0.184-0.024
		l0.184-0.006l0.19-0.006l0.19,0.006l0.195,0.018l0.191,0.031l0.189,0.037l0.189,0.05l0.19,0.061l0.19,0.073l0.092,0.043
		l0.098,0.043l0.092,0.05l0.092,0.055l0.086,0.055l0.092,0.068l0.085,0.061l0.086,0.074l0.085,0.074l0.086,0.074l0.08,0.08
		l0.08,0.086l0.074,0.086l0.067,0.085l0.067,0.093l0.067,0.098l0.061,0.092l0.055,0.098l0.05,0.104l0.048,0.098l0.043,0.104
		l0.036,0.11l0.031,0.105l0.024,0.104l0.019,0.11l0.019,0.11l0.006,0.109v0.111l-0.006,0.111l-0.019,0.115l-0.019,0.111
		L31.815,51.863L31.815,51.863L31.815,51.863z M25.818,55.784l10.49-0.021l0.131-0.001c0.393-0.001,0.712-0.316,0.715-0.709
		c0.015-1.479-0.016-3.53-0.318-4.809c-0.352-1.485-1.092-2.585-2.192-3.621c-1.106-1.041-2.23-1.628-3.754-1.981
		c-1.399-0.324-3.024-0.309-4.409,0.031c-1.528,0.373-2.927,1.135-3.993,2.257c-1.279,1.349-1.985,3.053-2.254,4.896
		c-0.359,2.473-0.072,5.093,1.127,7.214c0.8,1.414,1.968,2.551,3.454,3.233c1.494,0.687,3.105,0.964,4.776,0.902
		c1.501-0.056,2.954-0.405,4.146-1.179c1.116-0.724,2.656-2.154,2.811-3.563c0.014-0.129,0.07-0.341,0.091-0.542
		c0.026-0.244-0.15-0.463-0.394-0.49C36.228,57.4,36.213,57.4,36.196,57.4l0,0c-0.402-0.001-3.983,0.006-3.983,0.006
		c-0.236,0.047-0.444,0.136-0.625,0.316c-0.369,0.367-0.355,0.482-0.716,0.693c-0.69,0.401-1.812,0.489-2.578,0.344
		c-1.024-0.196-1.961-0.818-2.474-1.67c-0.173-0.288-0.435-0.875-0.177-1.195c0.015-0.019,0.072-0.079,0.112-0.098
		C25.779,55.785,25.786,55.784,25.818,55.784L25.818,55.784z"/>
	<path fill-rule="evenodd" clip-rule="evenodd" d="M65.821,62.912c1.112-0.012,3.025-0.033,3.996-0.047
		c0.338-0.005,0.607-0.281,0.605-0.618l0,0c-0.004-0.84-0.017-2.122-0.025-3.091c-0.004-0.343-0.282-0.618-0.624-0.619
		c-0.495-0.002-2.423-0.007-2.423-0.007c-0.016-0.001-0.028-0.002-0.04-0.004c-0.509-0.073-0.54-0.556-0.607-1.073
		c-0.009-0.061-0.016-0.124-0.022-0.192l-0.01-7.311c0.006-0.147,0.012-0.294,0.016-0.443c0.007-0.208,0.174-0.372,0.381-0.376
		c0.824-0.017,2.66,0.044,3.038-0.042c0.271-0.062,0.49-0.156,0.569-0.393c0.043-0.127,0.056-0.249,0.061-0.377
		c0,0-0.039-2.477-0.039-2.983c0.002-0.36-0.289-0.668-0.649-0.672c-1.104-0.01-2.646,0.004-2.772-0.009
		c-0.328-0.033-0.618,0.036-0.717-0.223c-0.029-0.075-0.049-0.324-0.061-0.427l-0.017-3.219c-0.006-0.341-0.282-0.615-0.624-0.619
		l0,0c-0.851-0.01-0.907-0.009-0.965-0.009c-0.222,0.003-1.781-0.036-2.944-0.01c-0.385,0.008-0.691,0.32-0.691,0.705
		c-0.001,0.618-0.005,3.542-0.005,3.542c0,0.133-0.087,0.28-0.22,0.29c-0.585,0.047-1.449-0.004-1.522,0.017
		c-0.313,0.092-0.414,0.264-0.453,0.587l-0.002,2.941c0.023,0.199,0.076,0.393,0.204,0.521c0.277,0.282,0.67,0.214,1.088,0.223
		l0.43,0.008c0.327,0.006,0.529,0.265,0.54,0.591c0.019,0.599,0.02,0.604,0.02,0.608c0,0.016,0,0.035,0.001,0.059l0.002,8.207
		c-0.041,2.563,1.313,4.459,3.604,4.438C64.975,62.886,65.789,62.912,65.821,62.912L65.821,62.912z"/>
	<path fill-rule="evenodd" clip-rule="evenodd" d="M5.842,62.624c0.316-0.015,0.563-0.275,0.559-0.593
		c0.001-0.553,0.018-8.137,0.018-8.137s0.008-0.433,0.024-0.743c0.073-1.407,0.515-2.843,1.494-3.631
		c0.769-0.619,1.802-0.82,2.878-0.742c1.144,0.083,1.896,0.615,2.223,1.748c0.199,0.687,0.248,1.563,0.251,2.338
		c0.001,0.239,0,0.54,0,0.54v0.552c0,0,0.071,7.655,0.075,8.123c-0.066,0.286,0.18,0.551,0.472,0.498
		c0.326,0.002,2.816,0.018,3.959,0.025c0.383,0.035,0.684-0.329,0.568-0.701c-0.001-0.641-0.017-6.964-0.017-6.964
		s0.007-0.9,0.007-1.527c-0.001-2.252-0.127-4.745-1.384-6.546c-0.664-0.951-1.556-1.569-2.639-1.963
		c-1.249-0.454-2.91-0.628-4.183-0.381c-0.735,0.144-1.459,0.438-2.138,0.786c-0.45,0.231-1.121,0.601-1.121,0.601l-0.404,0.221
		c0,0-0.292-0.591-0.484-0.98c-0.133-0.27-0.162-0.333-0.632-0.33c-1.028,0.007-3.405,0.023-3.621,0.025
		c-0.196,0.069-0.316,0.255-0.297,0.462C1.449,45.73,1.415,60.858,1.412,61.998C1.373,62.342,1.653,62.639,2,62.618
		C2.578,62.619,5.473,62.624,5.842,62.624L5.842,62.624z"/>
	<path fill-rule="evenodd" clip-rule="evenodd" d="M47.99,53.155l-0.004,1.171c0,0.002,0.004,0.009,0.012,0.02l5.808,7.783
		c0.237,0.307,0.588,0.468,0.984,0.451c0.399-0.001,1.973-0.003,2.714-0.004c0.234-0.034,0.401-0.238,0.392-0.475l0.009-2.557
		l-0.019-0.05l-0.037-0.073l-0.318-0.503l-0.526-0.768l-0.661-0.926l-2.406-3.276l-0.111-0.152c0,0,2.922-4.085,3.846-5.376
		c0.211-0.259,0.304-0.553,0.281-0.887c0.008-0.636,0.019-1.689,0.023-2.133l0.001-0.085c0.003-0.293-0.232-0.535-0.526-0.538
		c-0.003,0-0.006,0-0.008,0c-0.427,0.002-2.305-0.021-2.6-0.006c-0.549,0.029-0.767,0.259-1.133,0.73
		c-0.443,0.567-0.963,1.315-1.458,1.981c-0.517,0.696-1.348,1.723-2.014,2.583C49.667,50.8,48.004,53.13,47.99,53.155L47.99,53.155z
		"/>
	<path fill-rule="evenodd" clip-rule="evenodd" d="M47.637,54.326l-0.005-1.171c-0.006-0.009-0.014-0.019-0.02-0.028l-5.81-7.7
		c-0.035-0.047-0.069-0.092-0.102-0.136c-0.213-0.316-0.534-0.494-0.917-0.504c-0.823,0.003-2.336,0.011-2.647,0.013
		c-0.281,0.006-0.503,0.239-0.497,0.52c0,0.005,0.001,0.01,0.001,0.015c0,0.316,0.005,1.558,0.008,2.246
		c-0.075,0.326,0,0.637,0.217,0.893c0.001,0.001,0.084,0.126,0.084,0.126l0.202,0.282l3.454,4.553l0.104,0.189l0.037,0.093
		l0.037,0.08c0,0-2.909,4.016-3.865,5.334c-0.21,0.277-0.306,0.577-0.296,0.925c0.003,0.554,0.008,1.407,0.011,1.779
		c-0.004,0.009-0.008,0.019-0.011,0.027c-0.016,0.373,0.255,0.692,0.626,0.736c0.362,0,1.758-0.003,2.534-0.004
		c0.303-0.005,0.559-0.117,0.766-0.336l0.143-0.192c0,0,0.048-0.064,0.126-0.166C41.975,61.696,47.532,54.525,47.637,54.326
		L47.637,54.326z"/>
	<path fill-rule="evenodd" clip-rule="evenodd" d="M83.192,51.863l-0.104,0.025l-0.11,0.023l-0.116,0.019l-0.123,0.02l-0.264,0.03
		l-0.287,0.018l-0.306,0.02l-0.319,0.006h-0.324h-0.337l-0.336-0.006l-0.338-0.006l-0.33-0.007l-0.324-0.007l-0.319-0.006
		l-0.294-0.006l-0.281-0.006h-0.257l-0.319,0.006h-0.3l-0.135-0.006l-0.134-0.012l-0.062-0.007l-0.056-0.012l-0.055-0.02
		l-0.055-0.019l-0.049-0.018l-0.049-0.025l-0.042-0.029l-0.044-0.031l-0.036-0.03l-0.031-0.044l-0.03-0.042l-0.024-0.05l-0.02-0.055
		l-0.018-0.055l-0.013-0.062l-0.006-0.073v-0.073v-0.081l0.013-0.085l0.013-0.099l0.03-0.152l0.043-0.154l0.055-0.152l0.068-0.148
		l0.072-0.141l0.086-0.135l0.091-0.135l0.104-0.129l0.111-0.124l0.122-0.116l0.123-0.111l0.134-0.104l0.142-0.098l0.146-0.093
		l0.153-0.086l0.159-0.08l0.158-0.074l0.172-0.062l0.171-0.055l0.178-0.048l0.179-0.037l0.184-0.031l0.184-0.024l0.184-0.006
		l0.19-0.006l0.189,0.006l0.196,0.018l0.189,0.031l0.189,0.037l0.19,0.05l0.189,0.061l0.189,0.073l0.093,0.043l0.099,0.043
		l0.091,0.05l0.093,0.055l0.085,0.055l0.091,0.068l0.087,0.061l0.086,0.074l0.085,0.074l0.086,0.074l0.08,0.08l0.078,0.086
		l0.074,0.086l0.067,0.085l0.067,0.093l0.067,0.098l0.062,0.092l0.056,0.098l0.049,0.104l0.049,0.098l0.044,0.104l0.036,0.11
		l0.03,0.105l0.024,0.104l0.019,0.11l0.018,0.11l0.008,0.109v0.111l-0.008,0.111l-0.018,0.115l-0.019,0.111L83.192,51.863
		L83.192,51.863L83.192,51.863z M77.195,55.784l10.491-0.021l0.131-0.001c0.393-0.001,0.712-0.316,0.716-0.709
		c0.015-1.479-0.018-3.53-0.319-4.809c-0.352-1.485-1.092-2.585-2.193-3.621c-1.105-1.041-2.229-1.628-3.753-1.981
		c-1.399-0.324-3.024-0.309-4.41,0.031c-1.527,0.373-2.927,1.135-3.993,2.257c-1.279,1.349-1.984,3.053-2.252,4.896
		c-0.361,2.473-0.073,5.093,1.126,7.214c0.799,1.414,1.968,2.551,3.454,3.233c1.493,0.687,3.105,0.964,4.776,0.902
		c1.501-0.056,2.953-0.405,4.146-1.179c1.117-0.724,2.658-2.154,2.812-3.563c0.015-0.129,0.069-0.341,0.091-0.542
		c0.027-0.244-0.149-0.463-0.395-0.49C87.604,57.4,87.591,57.4,87.574,57.4l0,0c-0.402-0.001-3.983,0.006-3.983,0.006
		c-0.236,0.047-0.444,0.136-0.626,0.316c-0.369,0.367-0.355,0.482-0.716,0.693c-0.691,0.401-1.812,0.489-2.579,0.344
		c-1.024-0.196-1.96-0.818-2.474-1.67c-0.174-0.288-0.436-0.875-0.178-1.195c0.016-0.019,0.073-0.079,0.113-0.098
		C77.157,55.785,77.163,55.784,77.195,55.784L77.195,55.784z"/>
	<path fill-rule="evenodd" clip-rule="evenodd" d="M98.592,58.954c0-0.243-0.196-0.441-0.44-0.444
		c-0.027-0.005-0.058-0.01-0.087-0.015l-1.524-0.017c-0.113,0.008-0.174,0.012-0.174,0.012c-0.051,0.003-0.102,0.005-0.15,0.005
		c-0.221,0.001-0.387-0.054-0.496-0.232c-0.1-0.163-0.139-0.294-0.178-0.491c-0.194-0.971-0.177-3.845-0.171-4.344
		c0.012-1.267,0.002-15.854,0-15.903c-0.031-0.566-0.108-0.664-0.769-0.697c-0.264-0.014-2.568-0.021-3.73,0.003l-0.214,0.003
		c-0.212,0.004-0.384,0.16-0.408,0.371l0,0c-0.029,0.235-0.031,0.326-0.029,0.423l0.022,17.702c-0.001,2.002,0.115,4.298,1.22,5.81
		c0.552,0.754,1.274,1.304,2.157,1.597c0.924,0.308,3.512,0.225,2.963,0.224c0.717,0.001,1.05,0.057,1.532-0.033
		c0.279-0.051,0.477-0.289,0.477-0.572C98.592,61.397,98.592,59.22,98.592,58.954L98.592,58.954z"/>
</g>
</svg>
