<?xml version="1.0" encoding="utf-8"?>
<!-- Generator: Adobe Illustrator 16.0.0, SVG Export Plug-In . SVG Version: 6.00 Build 0)  -->
<!DOCTYPE svg PUBLIC "-//W3C//DTD SVG 1.1//EN" "http://www.w3.org/Graphics/SVG/1.1/DTD/svg11.dtd">
<svg version="1.1" id="Layer_1" xmlns="http://www.w3.org/2000/svg" xmlns:xlink="http://www.w3.org/1999/xlink" x="0px" y="0px"
	 width="1500.5px" height="1480.5px" viewBox="0 0 1500.5 1480.5" enable-background="new 0 0 1500.5 1480.5" xml:space="preserve">
<path d="M1274.645,697.813c-1.096,6.768-2.415,11.446-2.522,16.148c-0.632,27.396-1.117,54.8-1.337,82.201
	c-0.073,8.962,0.684,17.938,1.259,26.899c1.528,23.991-7.534,44.48-20.362,63.958c-2.592,3.928-4.752,9.314-4.391,13.81
	c1.231,15.394-2.777,28.614-11.638,41.245c-9.3,13.26-17.503,27.328-25.616,41.375c-3.34,5.784-5.907,12.245-7.527,18.724
	c-1.853,7.394-5.1,13.145-11.228,17.844c-7.813,5.998-15.115,12.685-22.435,19.295c-5.986,5.405-12.827,7.848-20.864,8.332
	c-17.267,1.026-34.515,2.446-51.733,4.059c-3.112,0.295-6.253,1.933-9.065,3.517c-23.149,12.998-46.693,24.868-72.126,33.186
	c-9.787,3.199-19.124,10.061-26.668,17.329c-12.587,12.129-23.68,25.826-35.112,39.108c-1.999,2.322-3.493,5.806-3.673,8.845
	c-1.172,20.111-2.147,40.243-2.723,60.38c-0.313,11.095-3.626,19.077-13.088,26.674c-11.213,9.005-20.34,21.101-28.701,33.029
	c-11.681,16.663-21.441,34.663-32.774,51.589c-5.57,8.317-12.47,15.849-19.419,23.117c-9.435,9.86-15.59,10.644-28.12,4.579
	c-0.655,3.753-1.063,7.375-1.946,10.876c-1.217,4.842-1.614,10.479-4.435,14.203c-8.192,10.814-17.119,21.127-26.347,31.086
	c-5.943,6.417-13.649,7.327-19.746,3.781c-6.11-3.553-10.797-13.773-7.649-20.692c5.901-12.988,2.391-21.218-8.842-29.63
	c-16.633-12.459-31.709-26.979-47.727-40.287c-1.856-1.54-5.844-1.943-8.256-1.128c-8.375,2.824-14.556,0.48-19.474-6.461
	c-1.012-1.431-2.46-2.603-3.245-4.132c-7.753-15.08-21.814-16.332-36.347-17.141c-3.027-0.171-7.606-1.863-8.474-4.048
	c-1.119-2.813-0.364-7.698,1.543-10.195c24.699-32.309,53.253-60.521,88.637-81.207c8.135-4.754,16.507-9.122,24.494-14.112
	c5.353-3.349,10.669-7.011,15.182-11.375c6.983-6.745,8.13-14.316,1.944-21.818c-6.307-7.647-14.145-14.17-21.937-20.409
	c-4.359-3.494-7.968-6.727-7.913-13.555c-8.343,1.022-16.438,1.903-24.5,3.018c-18.689,2.588-37.259,4.327-56.318,2.86
	c-21.313-1.642-41.794-5.766-61.681-13.238c-20.569-7.728-38.673-19.401-55.826-33.182c-13.386-10.753-28.029-20.118-42.817-28.916
	c-45.893-27.296-74.251-67.223-87.794-118.44c-8.19-30.973-10.711-62.506-8.883-94.254c1.088-18.909,3.459-37.946,7.522-56.43
	c5.844-26.59,13.757-52.724,20.748-79.064c0.324-1.216,0.233-2.542,0.384-4.452c-2.921-0.431-5.722-1.405-8.407-1.152
	c-17.617,1.662-28.288-8.712-38.602-20.87c-12.587-14.842-13.745-32.687-14.93-50.593c-1.126-17.012-1.024-15.974-17.534-18.613
	c-12.811-2.047-21.173,0.881-29.75,10.989c-12.967,15.284-31.076,24.011-49.589,31.298c-2.766,1.089-5.984,1.422-9,1.443
	c-17.552,0.131-35.107,0.135-52.661,0.04c-9.527-0.053-12.665-3.207-12.732-12.632c-0.087-12.694-0.022-25.393-0.022-39.151
	c-3.188,0.724-5.674,1.034-7.979,1.856c-10.942,3.902-21.895,7.786-32.718,11.999c-6.137,2.386-11.366,1.895-16.44-2.53
	c-6.774-5.908-13.697-11.663-20.81-17.159c-6.155-4.756-10.374-10.571-12.13-18.178c-0.442-1.913-1.097-3.804-1.88-5.605
	c-9.462-21.772-12.84-44.557-10.56-68.063c0.517-5.35,2.266-11.381,5.478-15.522c10.168-13.109,21.301-25.471,33.264-39.538
	c-3.618,18.827-6.961,36.222-10.428,54.255c16.957,0,32.648,0,49.269,0c9.624-54.259,19.226-108.398,29.04-163.717
	c1.145,2.198,1.536,3.222,2.149,4.087c9.173,12.917,5.799,26.707,2.897,40.486c-1.243,5.904-2.364,11.838-3.483,17.769
	c-0.784,4.158,1.979,4.988,5.092,4.86c5.898-0.244,11.817-0.548,17.668-1.289c4.295-0.542,6.133,1.304,7.666,5.033
	c7.584,18.455,15.341,36.839,23.183,55.186c4.612,10.789,9.617,21.405,14.185,32.211c1.638,3.873,3.58,5.623,8.206,5.48
	c13.592-0.417,27.205-0.258,40.808-0.091c4.321,0.054,6.17-0.633,7.054-5.844c6.563-38.612,13.869-77.098,20.663-115.671
	c6.825-38.725,13.29-77.513,20.018-116.255c0.924-5.324,2.455-10.545,3.796-16.197c-1.551-0.347-2.745-0.841-3.938-0.846
	c-13.604-0.057-27.209,0.021-40.812-0.087c-3.656-0.03-5.349,1.071-6.039,5.045c-5.911,34.04-12.218,68.01-18.127,102.05
	c-3.44,19.82-6.372,39.728-9.799,61.27c-5.746-13.106-10.902-24.872-16.063-36.635c-17.933-40.863-35.808-81.75-53.884-122.547
	c-2.019-4.555-1.625-7.36,3.15-9.224c1.145-0.446,2.105-1.354,3.6-2.346c-3.845-4.179-7.38-8.013-10.911-11.85
	c-5.988-6.505-5.755-11.014,0.171-17.719c4.908-5.554,10.847-8.363,18.103-9.624c22.872-3.977,45.684-8.301,68.493-12.63
	c9.803-1.862,14.695,1.85,14.96,11.791c0.335,12.608,8.853,21.863,21.381,23.277c4.354,0.492,8.958,0.318,12.997,1.735
	c9.703,3.404,18.158-0.317,27.349-2.509c13.633-3.252,22.113-11.493,28.581-22.923c3.378-5.973,8.363-8.709,15.257-8.061
	c2.298,0.217,4.634,0.036,8.412,0.036c-1.683-2.276-2.31-3.563-3.316-4.382c-1.694-1.373-3.516-2.694-5.483-3.613
	c-23.025-10.782-17.572-16.874-15.306-34.718c0.63-4.97,1.272-8.601-5.169-10.376c-6.368-1.756-9.378-7.764-8.568-13.875
	c0.854-6.432,5.56-11.94,12.239-11.61c8.629,0.423,17.35,1.986,25.689,4.301c6.677,1.853,12.927,5.378,19.195,8.505
	c3.398,1.695,5.096,0.893,7.718-1.828c4.128-4.28,8.818-8.585,14.12-11.062c14.285-6.672,28.963-12.518,43.606-18.383
	c4.181-1.674,6.347-3.709,6.367-8.551c0.031-7.803,2.91-10.969,10.586-12.75c5.762-1.339,11.57-2.525,17.397-3.528
	c6.637-1.14,11.262,2.369,11.691,9.089c0.364,5.684,0.39,11.417,0.111,17.105c-0.248,5.052,1.783,8.067,6.209,10.43
	c16.666,8.901,17.179,9.226,10.447,26.993c-6.097,16.091-7.282,32.853-9.127,49.583c-0.2,1.822,0.837,4.985,2.171,5.581
	c10.614,4.755,16.522,14.201,23.303,22.724c2.672,3.354,5.12,3.169,8.505,1.46c7.429-3.753,15.031-7.163,22.502-10.842
	c15.814-7.791,32.277-12.364,50.095-10.231c5.01,0.6,6.934-1.913,8.022-6.439c2.963-12.302,4.479-12.854,17.008-13.449
	c17.135-0.814,32.661,2.278,47.527,11.814c5.285,3.39,14.256,1.48,21.516,1.219c6.979-0.252,13.988-1.152,20.847-2.484
	c2.573-0.501,5.983-2.495,6.921-4.698c9.409-22.122,24.559-40.419,39.062-59.1c2.508-3.23,7.112-6.386,10.956-6.658
	c5.584-0.395,7.285,5.343,8.836,9.996c4.43,13.298,8.315,26.812,13.436,39.839c4.219,10.729,9.551,21.08,15.166,31.164
	c1.452,2.609,5.634,4.52,8.881,5.167c15.335,3.063,29.531-2.926,43.787-6.868c31.753-8.778,64.102-11.622,96.733-9.65
	c37.461,2.264,72.37,13.357,102.964,35.686c15.707,11.463,30.525,24.144,45.922,36.042c15.876,12.267,32.973,23.161,47.625,36.723
	c10.607,9.819,18.77,22.565,26.811,34.804c10.341,15.742,16.401,33.5,21.61,51.582c1.34,4.65,4.642,9.557,8.456,12.528
	c18.513,14.412,37.395,28.365,56.392,42.139c7.575,5.493,16.616,3.141,24.919,2.335c12.757-1.234,15.992-0.014,22.268,11.181
	c23.662,42.199,26.191,85.687,7.592,130.245c-8.736,20.937-22.033,38.241-42.26,49.622c-2.924,1.647-5.337,4.515-7.459,7.229
	c-14.85,19.017-29.543,38.154-44.329,57.218c-1.743,2.248-3.732,4.308-5.626,6.436
	C1291.33,701.601,1285.042,706.999,1274.645,697.813z M881.191,689.441c-7.009,10.6-12.787,21.632-20.702,30.831
	c-17.312,20.118-39.341,29.459-66.381,25.638c-25.885-3.658-45.141-15.765-54.526-41.039c-6.49-17.476-6.103-35.395-3.203-53.892
	c88.085,0,175.785,0,264.56,0c2.157-17.135,4.734-33.913,6.292-50.785c2.77-29.979,2.87-59.948-5.475-89.219
	c-10.758-37.731-32.121-67.348-67.909-85.128c-16.157-8.027-33.479-12.09-51.378-14.699c-21.787-3.174-43.467-2.879-64.944,0.635
	c-23.696,3.876-46.218,11.734-67.163,23.957c-28.841,16.835-53.025,38.556-72.552,65.69c-17.339,24.093-29.229,50.676-37.961,78.858
	c-7.824,25.25-12.906,51.127-14.189,77.427c-0.835,17.086,0.827,34.383,2.448,51.483c1.658,17.507,7.562,34.05,15.772,49.514
	c15.244,28.713,39.4,47.407,69.622,58.051c43.037,15.16,87.042,15.59,131.215,5.831c44.936-9.926,81.733-33.499,110.58-69.152
	c10.272-12.694,19.263-26.44,28.536-39.912c2.34-3.403,0.721-6.362-3.483-7.063c-16.378-2.737-32.796-5.245-49.163-8.054
	C914.44,695.547,897.735,692.422,881.191,689.441z M604.947,242.167c-59.073,0-117.931,0-176.427,0
	c-15.044,85.457-29.984,170.328-44.917,255.143c18.644,0,35.671,0,52.832,0c0.737-2.51,1.454-4.316,1.789-6.194
	c5.68-31.904,11.557-63.777,16.735-95.763c0.937-5.8,3.179-6.383,7.982-6.359c30.49,0.162,60.98,0.082,91.472,0.082
	c2.346,0,4.694,0,6.761,0c3.021-15.262,5.868-29.646,8.747-44.198c-35.557,0-70.539,0-106.029,0
	c3.456-19.505,6.891-38.893,10.385-58.62c40.997,0,81.302,0,121.697,0C599.002,271.383,601.938,256.945,604.947,242.167z
	 M535.014,754.15c-2.148,1.165-2.443,1.22-2.497,1.365c-12.605,34.336-21.385,69.578-25.846,105.931
	c-2.932,23.896-3.11,47.727-1.429,71.739c1.56,22.288,7.68,43.239,15.339,63.958c6.879,18.607,19.275,31.3,39.104,34.922
	c19.075,3.483,38.378,5.016,57.775,2.155c15.597-2.297,31.216-4.444,46.801-6.821c1.638-0.251,3.106-1.616,4.654-2.461
	c-0.159-0.615-0.317-1.23-0.475-1.846c-9.595-1.598-19.157-3.446-28.794-4.735c-14.816-1.98-17.408-4.411-19.752-19.292
	c-1.76-11.192-3.487-22.403-5.724-33.506c-2.228-11.047-2.745-21.694,0.296-32.901c4.801-17.683,8.316-35.81,6.714-54.309
	c-0.803-9.227-1.413-19.408-10.973-24.515c-7.238-3.869-9.785-9.468-9.728-17.042c0.037-4.743,0.005-9.486,0.005-14.79
	c-15.379,0-29.81,0.037-44.236-0.011c-12.814-0.036-16.08-3.556-16.385-16.5c-0.282-12.03-0.748-24.067-1.629-36.068
	C537.873,764.484,536.215,759.633,535.014,754.15z M1178.192,357.063c0-2.283,0.398-4.323-0.063-6.148
	c-3.283-12.942-6.163-26.028-10.304-38.697c-4.353-13.314-11.056-25.258-22.906-33.96c-19.282-14.152-41.901-12.731-63.719-13.912
	c-11.739-0.637-23.778,1.57-35.484,3.629c-16.755,2.945-33.337,6.893-49.968,10.535c-1.214,0.267-2.215,1.512-4.271,2.99
	c3.426,1.467,5.729,2.588,8.126,3.458c19.476,7.086,39.035,13.949,58.411,21.3c4.974,1.886,11.095,4.149,13.721,8.175
	c7.744,11.875,19.271,22.808,14.718,39.42c-0.038,0.138,0.228,0.358,0.881,1.318c14.148-5.255,28.459-12.733,44.364-9.579
	C1147.008,348.629,1162.048,353.021,1178.192,357.063z M459.004,715.789c-0.896,2.339-1.766,4.321-2.426,6.37
	c-10.481,32.509-17.994,65.636-20.812,99.742c-2.479,29.982-2.448,59.841,4.095,89.423c4.473,20.224,10.974,39.6,22.744,56.9
	c2.599,3.821,5.376,6.919,12.183,3.88c-16.132-82.766,0.537-162.251,28.97-240.074C488.4,726.458,473.881,721.188,459.004,715.789z
	 M1012.582,214.268c-12.334,1.17-24.708,2.063-37.002,3.571c-27.839,3.409-54.465,11.627-80.662,21.279
	c-4.371,1.611-9.064,3.955-12.101,7.321c-15.853,17.572-31.285,35.523-46.632,53.54c-1.391,1.631-2.226,5.229-1.355,6.87
	c0.85,1.603,4.215,2.56,6.484,2.583c6.13,0.065,12.294-0.267,18.384-0.964c2.597-0.297,5.047-1.898,7.563-2.906
	c-1.365-1.995-2.449-4.276-4.151-5.925c-4.857-4.717-5.909-9.889-1.709-14.418c5.803-6.265,11.701-12.597,18.395-17.831
	c5.098-3.982,9.48-7.626,11.868-14.065c2.849-7.676,9.655-11.502,15.645-10.625c6.275,0.921,10.749,6.547,11.608,15.43
	c0.415,4.27,2.27,5.643,6.36,5.429c7.217-0.377,14.454-0.316,21.674-0.634c3.797-0.166,7.826-0.025,11.322-1.247
	c30.488-10.658,61.355-19.574,93.629-23.063c7.221-0.781,14.413-2.639,21.359-4.827c4.956-1.564,5.076-4.705,0.71-7.615
	c-2.661-1.772-5.572-3.327-8.583-4.387C1048.314,215.772,1030.509,215.258,1012.582,214.268z M708.256,1086.644
	c-4.727-8.82-9.284-17.054-13.556-25.437c-1.642-3.225-3.671-3.479-6.91-2.763c-14.46,3.185-28.965,6.174-43.485,9.089
	c-8.723,1.751-17.541,3.047-26.215,4.99c-1.78,0.4-4.27,2.737-4.34,4.281c-0.08,1.688,1.918,4.036,3.627,5.121
	c2.499,1.587,5.464,2.716,8.381,3.316c6.603,1.376,13.258,2.839,19.961,3.33C666.895,1090.119,688.058,1090.214,708.256,1086.644z
	 M1241.16,360.929c-1.035-3.222-1.25-5.043-2.131-6.445c-8.583-13.669-17.166-27.342-26.053-40.816
	c-1.467-2.225-4.223-3.794-6.672-5.134c-4.692-2.566-7.38-1.168-6.846,4.07c0.659,6.439,2.543,12.746,3.744,19.138
	c1.991,10.585,3.858,21.195,5.942,32.692C1219.895,363.259,1229.97,362.155,1241.16,360.929z M941.805,305.147
	c-0.433-0.425-0.866-0.85-1.3-1.274c-16.913,6.473-33.824,12.945-51.372,19.661c10.714,6.661,20.186,6.907,29.426,1.356
	c3.187-1.914,6.754-3.398,9.478-5.829C932.893,314.724,937.24,309.816,941.805,305.147z"/>
<path d="M749.742,583.979c1.516-6.035,2.695-12.207,4.621-18.138c10.883-33.526,31.318-58.377,65.796-69.189
	c20.795-6.522,41.53-6.007,60.199,7.032c14.372,10.04,22.078,24.685,23.888,41.707c1.319,12.403,0.26,25.058,0.26,38.589
	C853.152,583.979,802.178,583.979,749.742,583.979z"/>
</svg>
