<?xml version="1.0" encoding="utf-8"?>
<!-- Generator: Adobe Illustrator 16.0.0, SVG Export Plug-In . SVG Version: 6.00 Build 0)  -->
<!DOCTYPE svg PUBLIC "-//W3C//DTD SVG 1.1//EN" "http://www.w3.org/Graphics/SVG/1.1/DTD/svg11.dtd">
<svg version="1.1" id="Your_Icon" xmlns="http://www.w3.org/2000/svg" xmlns:xlink="http://www.w3.org/1999/xlink" x="0px" y="0px"
	 width="100px" height="100px" viewBox="0 0 100 100" enable-background="new 0 0 100 100" xml:space="preserve">
<g>
	<path fill-rule="evenodd" clip-rule="evenodd" fill="#020202" d="M59.57,9.174c-15.206,0-51.831,6.213-51.831,40.713
		c0,18.641,18.313,41.531,50.851,41.531c14.716,0,14.226-3.598,14.226-7.521c0-6.54-3.271-10.301-3.271-18.476
		c0-17.986,22.073-15.37,22.073-35.318C91.618,19.312,82.789,9.174,59.57,9.174z M37.498,82.589c-6.683,0-12.1-5.729-12.1-12.795
		c0-7.065,5.417-12.794,12.1-12.794c6.682,0,12.1,5.729,12.1,12.794C49.597,76.86,44.18,82.589,37.498,82.589z M56.505,45.636
		c2.506,0,4.538,1.995,4.538,4.455c0,2.461-2.032,4.456-4.538,4.456c-2.505,0-4.537-1.995-4.537-4.456
		C51.968,47.631,54,45.636,56.505,45.636z M56.669,82.098c-2.506,0-4.538-5.636-4.538-12.59s2.032-12.59,4.538-12.59
		c2.505,0,4.537,5.636,4.537,12.59S59.174,82.098,56.669,82.098z"/>
	<ellipse fill-rule="evenodd" clip-rule="evenodd" fill="#020202" cx="37.539" cy="69.958" rx="4.865" ry="6.254"/>
</g>
</svg>
