<?xml version="1.0" encoding="utf-8"?>
<!-- Generator: Adobe Illustrator 16.0.0, SVG Export Plug-In . SVG Version: 6.00 Build 0)  -->
<!DOCTYPE svg PUBLIC "-//W3C//DTD SVG 1.1//EN" "http://www.w3.org/Graphics/SVG/1.1/DTD/svg11.dtd">
<svg version="1.1"
	 id="Layer_1" xmlns:svg="http://www.w3.org/2000/svg" xmlns:rdf="http://www.w3.org/1999/02/22-rdf-syntax-ns#" xmlns:cc="http://creativecommons.org/ns#" xmlns:dc="http://purl.org/dc/elements/1.1/"
	 xmlns="http://www.w3.org/2000/svg" xmlns:xlink="http://www.w3.org/1999/xlink" x="0px" y="0px" width="12.316px"
	 height="22.242px" viewBox="0 0 12.316 22.242" enable-background="new 0 0 12.316 22.242" xml:space="preserve">
<g id="g66" transform="translate(58.829335,-120.38301)">
	<path id="path68" fill="#818282" d="M-56.792,135.428l4.155,7.197l0.06-0.104l4.023-6.971c-1.205,0.598-2.562,0.934-3.999,0.934
		C-54.083,136.487-55.526,136.102-56.792,135.428"/>
</g>
<path id="path72" fill="#818282" d="M10.365,8.933c0-0.583-0.108-1.137-0.32-1.661s-0.519-0.992-0.916-1.4
	C8.74,5.466,8.29,5.157,7.781,4.94C7.267,4.722,6.727,4.613,6.164,4.613c-0.566,0-1.106,0.106-1.621,0.322
	C4.032,5.149,3.575,5.461,3.179,5.872C2.781,6.276,2.474,6.74,2.266,7.263c-0.211,0.524-0.315,1.08-0.315,1.668
	c0,0.583,0.104,1.134,0.315,1.653c0.208,0.518,0.515,0.982,0.913,1.391c0.396,0.411,0.852,0.723,1.361,0.938
	c0.507,0.214,1.05,0.321,1.623,0.321c0.562,0,1.092-0.107,1.602-0.321c0.506-0.215,0.962-0.527,1.364-0.938
	c0.397-0.409,0.704-0.874,0.917-1.395C10.258,10.058,10.365,9.51,10.365,8.933 M12.317,8.933c0,0.819-0.153,1.593-0.46,2.321
	c-0.31,0.729-0.754,1.38-1.343,1.953c-0.591,0.573-1.261,1.01-2.008,1.314c-0.743,0.303-1.525,0.455-2.342,0.455
	c-0.831,0-1.621-0.152-2.375-0.459c-0.752-0.309-1.417-0.744-1.994-1.312c-0.589-0.573-1.034-1.22-1.337-1.945
	C0.153,10.538,0,9.762,0,8.933c0-0.825,0.153-1.603,0.457-2.33C0.76,5.872,1.205,5.22,1.794,4.641c0.588-0.571,1.255-1.006,2-1.306
	c0.745-0.298,1.534-0.448,2.37-0.448c0.827,0,1.612,0.15,2.355,0.448c0.742,0.3,1.409,0.734,1.994,1.306
	c0.589,0.584,1.034,1.242,1.343,1.974C12.163,7.347,12.317,8.119,12.317,8.933 M6.164,1.261L9.013,0v1.625l-2.85,0.449V1.261z"/>
</svg>
