<?xml version="1.0" encoding="utf-8"?>
<!-- Generator: Adobe Illustrator 16.0.0, SVG Export Plug-In . SVG Version: 6.00 Build 0)  -->
<!DOCTYPE svg PUBLIC "-//W3C//DTD SVG 1.1//EN" "http://www.w3.org/Graphics/SVG/1.1/DTD/svg11.dtd">
<svg version="1.1" id="Layer_1" xmlns="http://www.w3.org/2000/svg" xmlns:xlink="http://www.w3.org/1999/xlink" x="0px" y="0px"
	 width="18px" height="18px" viewBox="0 -1 18 18" enable-background="new 0 -1 18 18" xml:space="preserve">
<path d="M16.86,0H1.14C0.793,0,0.5,0.297,0.5,0.649v3.009c0,0.354,0.293,0.652,0.64,0.652c0.168,0,0.328-0.068,0.449-0.19
	c0.123-0.125,0.192-0.295,0.19-0.461v-2.36h10.668v1.977c0,0.353,0.293,0.651,0.64,0.651c0.168,0,0.328-0.068,0.449-0.191
	c0.123-0.125,0.192-0.294,0.19-0.46V1.299h2.494v6.056H7.452V4.967c0-0.352-0.293-0.649-0.674-0.649L6.646,4.335
	C6.364,4.412,6.165,4.684,6.173,4.967l0,4.05l0,2.025c0,0.359,0.287,0.651,0.639,0.651c0.168,0,0.328-0.067,0.45-0.19
	c0.123-0.125,0.192-0.295,0.19-0.461V8.654h8.769v6.047h-2.494l-0.001-1.939c0.011-0.177-0.055-0.354-0.179-0.485
	c-0.121-0.129-0.297-0.198-0.545-0.197c-0.328,0.045-0.571,0.344-0.555,0.654v1.968H1.779V6.332c0-0.354-0.292-0.652-0.639-0.652
	c-0.168,0-0.328,0.068-0.45,0.191C0.567,5.995,0.498,6.166,0.5,6.332v9.019C0.5,15.702,0.793,16,1.14,16H16.86
	c0.347,0,0.64-0.298,0.64-0.649V0.649C17.5,0.297,17.207,0,16.86,0z"/>
</svg>
