<?xml version="1.0" encoding="utf-8"?>
<!-- Generator: Adobe Illustrator 16.0.0, SVG Export Plug-In . SVG Version: 6.00 Build 0)  -->
<!DOCTYPE svg PUBLIC "-//W3C//DTD SVG 1.1//EN" "http://www.w3.org/Graphics/SVG/1.1/DTD/svg11.dtd">
<svg version="1.1" id="Layer_1" xmlns="http://www.w3.org/2000/svg" xmlns:xlink="http://www.w3.org/1999/xlink" x="0px" y="0px"
	 width="18px" height="18px" viewBox="0 0 18 18" enable-background="new 0 0 18 18" xml:space="preserve">
<path d="M16.859,1.125H1.14c-0.279,0-0.515,0.24-0.515,0.524v3.009c0,0.423,0.573,0.678,0.875,0.374
	c0.099-0.101,0.155-0.239,0.154-0.374V2.174h10.918v2.102c0,0.422,0.574,0.677,0.875,0.373c0.1-0.101,0.156-0.238,0.154-0.373V2.174
	h2.743V8.48H7.327V5.967c0-0.284-0.236-0.524-0.549-0.524L6.679,5.456C6.452,5.518,6.292,5.737,6.298,5.967v4.051v2.024
	c0,0.423,0.575,0.675,0.875,0.373c0.1-0.101,0.155-0.238,0.154-0.373V9.529h9.019v6.297h-2.744v-2.071
	c0.008-0.144-0.045-0.286-0.146-0.394c-0.099-0.104-0.243-0.166-0.438-0.158c-0.264,0.036-0.459,0.277-0.445,0.529v2.094H1.654
	V7.332c0-0.423-0.574-0.678-0.875-0.373c-0.1,0.101-0.155,0.238-0.154,0.373v9.02c0,0.283,0.236,0.523,0.515,0.523h15.719
	c0.279,0,0.516-0.24,0.516-0.523V1.649C17.375,1.365,17.141,1.125,16.859,1.125z"/>
</svg>
