<?xml version="1.0" encoding="utf-8"?>
<!-- Generator: Adobe Illustrator 16.0.0, SVG Export Plug-In . SVG Version: 6.00 Build 0)  -->
<!DOCTYPE svg PUBLIC "-//W3C//DTD SVG 1.1//EN" "http://www.w3.org/Graphics/SVG/1.1/DTD/svg11.dtd">
<svg version="1.1" id="Layer_1" xmlns="http://www.w3.org/2000/svg" xmlns:xlink="http://www.w3.org/1999/xlink" x="0px" y="0px"
	 width="18.008px" height="18.105px" viewBox="0 0 18.008 18.105" enable-background="new 0 0 18.008 18.105" xml:space="preserve">
<g>
	<path fill="#818282" d="M2.988,2.581V0.44H2.581c-1.4,0-2.548,1.136-2.548,2.548v12.128c0,1.4,1.136,2.549,2.548,2.549h15.394
		V2.581H2.988z M2.174,1.302v11.303c-0.502,0.085-0.969,0.3-1.34,0.646V2.976C0.834,2.175,1.409,1.469,2.174,1.302z M17.173,3.383
		V16.85H2.581c-0.957,0-1.734-0.776-1.734-1.734c0-0.957,0.777-1.733,1.734-1.733h0.407v-10H17.173z"/>
	<polygon fill="#818282" points="14.578,7.665 10.774,7.665 10.774,7.437 10.092,7.437 10.092,8.347 13.897,8.347 13.897,13.478 
		10.774,13.478 10.774,9.448 10.092,9.448 10.092,13.478 5.966,13.478 5.966,8.347 8.538,8.347 8.538,7.329 7.855,7.329 
		7.855,7.665 5.966,7.665 5.966,6.11 10.092,6.11 10.092,6.325 10.774,6.325 10.774,5.428 5.284,5.428 5.284,14.159 14.578,14.159 	
		"/>
</g>
</svg>
