<svg xmlns="http://www.w3.org/2000/svg" xmlns:xlink="http://www.w3.org/1999/xlink" version="1.1" id="&#1057;&#1083;&#1086;&#1081;_1" x="0px" y="0px" viewBox="0 0 100 100" enable-background="new 0 0 100 100" xml:space="preserve" height="100px" width="100px">
<path d="M81.1,81.1C98.3,64,98.3,36,81.1,18.9C72.8,10.6,61.8,6,50,6s-22.8,4.6-31.1,12.9C1.7,36,1.7,64,18.9,81.1  C27.2,89.4,38.2,94,50,94S72.8,89.4,81.1,81.1z M21,21c7.7-7.7,18-12,29-12s21.2,4.3,29,12c16,16,16,42,0,58c-7.7,7.7-18,12-29,12  s-21.2-4.3-29-12C5,63,5,37,21,21z"/>
<path d="M51.5,71.2V51.5h19.7c0.8,0,1.5-0.7,1.5-1.5s-0.7-1.5-1.5-1.5H51.5V28.8c0-0.8-0.7-1.5-1.5-1.5s-1.5,0.7-1.5,1.5v19.7H28.8  c-0.8,0-1.5,0.7-1.5,1.5s0.7,1.5,1.5,1.5h19.7v19.7c0,0.8,0.7,1.5,1.5,1.5S51.5,72,51.5,71.2z"/>
</svg>