<?xml version="1.0" encoding="utf-8"?>
<!-- Generator: Adobe Illustrator 16.0.0, SVG Export Plug-In . SVG Version: 6.00 Build 0)  -->
<!DOCTYPE svg PUBLIC "-//W3C//DTD SVG 1.1//EN" "http://www.w3.org/Graphics/SVG/1.1/DTD/svg11.dtd">
<svg version="1.1" id="Layer_1" xmlns="http://www.w3.org/2000/svg" xmlns:xlink="http://www.w3.org/1999/xlink" x="0px" y="0px"
	 width="100px" height="100px" viewBox="0 0 100 100" enable-background="new 0 0 100 100" xml:space="preserve">
<g id="Capa_86">
	<g>
		<path stroke="#000000" stroke-width="2" stroke-miterlimit="10" d="M95,15.167H5c-0.414,0-0.75,0.336-0.75,0.75v68.696
			c0,0.414,0.336,0.75,0.75,0.75h57.471v-1.5H5.75V29.388h88.5v54.477h-5.232v1.5H95c0.414,0,0.75-0.336,0.75-0.75V15.917
			C95.75,15.503,95.414,15.167,95,15.167z M5.75,27.888v-11.22h88.5v11.22H5.75z"/>
		<polygon stroke="#000000" stroke-width="2" stroke-miterlimit="10" points="89.996,20.397 88.936,19.336 87.018,21.254 
			85.1,19.336 84.038,20.397 85.956,22.315 84.038,24.233 85.1,25.293 87.018,23.375 88.936,25.293 89.996,24.233 88.078,22.315 		
			"/>
		<rect x="9.37" y="21.527" stroke="#000000" stroke-width="2" stroke-miterlimit="10" width="51.373" height="1.5"/>
		<path stroke="#000000" stroke-width="2" stroke-miterlimit="10" d="M21.283,49.517c-2.814,0-5.104,2.289-5.104,5.104
			c0,2.815,2.289,5.104,5.104,5.104h18.642c2.814,0,5.104-2.289,5.104-5.104c0-2.812-2.289-5.104-5.104-5.104H21.283z
			 M43.528,54.619c0,1.987-1.616,3.604-3.604,3.604H21.283c-1.987,0-3.604-1.616-3.604-3.604s1.616-3.604,3.604-3.604h18.642
			C41.912,51.017,43.528,52.633,43.528,54.619z"/>
		<path stroke="#000000" stroke-width="2" stroke-miterlimit="10" d="M83.818,54.619c0-2.812-2.289-5.104-5.104-5.104h-18.64
			c-2.814,0-5.104,2.289-5.104,5.104c0,2.815,2.286,5.104,5.104,5.104h18.642C81.529,59.724,83.818,57.435,83.818,54.619z
			 M56.471,54.619c0-1.986,1.616-3.604,3.604-3.604h18.642c1.987,0,3.604,1.615,3.604,3.604s-1.613,3.604-3.604,3.604H60.074
			C58.087,58.224,56.471,56.607,56.471,54.619z"/>
		<path stroke="#000000" stroke-width="2" stroke-miterlimit="10" d="M70.421,64.156c-0.203-0.229-0.526-0.31-0.815-0.206
			c-0.289,0.105-0.481,0.376-0.494,0.684l-0.676,22.725c-0.01,0.316,0.185,0.605,0.479,0.723c0.088,0.033,0.18,0.051,0.271,0.051
			c0.215,0,0.424-0.092,0.568-0.263l5.445-6.353l3.289,9.033l1.41-0.515l-3.289-9.032l8.256,1.365
			c0.316,0.053,0.626-0.102,0.779-0.378c0.15-0.278,0.111-0.624-0.101-0.86L70.421,64.156z M75.587,79.312
			c-0.253-0.046-0.521,0.052-0.69,0.252L70,85.279l0.561-18.718l12.459,13.98L75.587,79.312z"/>
	</g>
</g>
</svg>
