<?xml version="1.0" encoding="utf-8"?>
<!-- Generator: Adobe Illustrator 16.0.0, SVG Export Plug-In . SVG Version: 6.00 Build 0)  -->
<!DOCTYPE svg PUBLIC "-//W3C//DTD SVG 1.1//EN" "http://www.w3.org/Graphics/SVG/1.1/DTD/svg11.dtd">
<svg version="1.1" id="Layer_1" xmlns="http://www.w3.org/2000/svg" xmlns:xlink="http://www.w3.org/1999/xlink" x="0px" y="0px"
	 width="96px" height="96px" viewBox="0 0 96 96" enable-background="new 0 0 96 96" xml:space="preserve">
<path d="M90.311,5.189C88.254,3.133,85.52,2,82.611,2H13.389c-2.909,0-5.643,1.133-7.7,3.189S2.5,9.98,2.5,12.889V92
	c0,0.404,0.244,0.77,0.617,0.924C3.241,92.977,3.371,93,3.5,93c0.26,0,0.516-0.102,0.707-0.293l19.485-19.484h58.919
	c2.908,0,5.643-1.133,7.699-3.188c2.057-2.058,3.188-4.792,3.188-7.699V12.889C93.5,9.98,92.367,7.246,90.311,5.189z M91.5,62.334
	c0,2.373-0.925,4.605-2.604,6.285c-1.68,1.679-3.912,2.604-6.285,2.604H23.278c-0.265,0-0.52,0.105-0.707,0.293L4.5,89.586V12.889
	c0-2.374,0.925-4.606,2.604-6.285S11.015,4,13.389,4h69.222c2.375,0,4.606,0.925,6.285,2.604s2.604,3.911,2.604,6.285V62.334z"/>
<path d="M65.523,31.001L49.059,18.229c-0.36-0.28-0.865-0.28-1.227,0L31.368,31.001c-0.244,0.189-0.387,0.481-0.387,0.79v20.068
	c0,1.242,0.485,2.41,1.366,3.289c0.88,0.877,2.05,1.36,3.293,1.36h25.613c1.242,0,2.412-0.481,3.294-1.36
	c0.88-0.879,1.364-2.047,1.364-3.289V31.791C65.91,31.482,65.768,31.19,65.523,31.001z M52.934,54.51h-8.977V38.265h8.977V54.51z
	 M63.91,51.859c0,0.707-0.276,1.373-0.777,1.873c-0.503,0.5-1.171,0.776-1.881,0.776h-6.318V37.265c0-0.552-0.447-1-1-1H42.957
	c-0.552,0-1,0.448-1,1V54.51h-6.318c-0.7,0-1.386-0.283-1.88-0.775c-0.502-0.502-0.779-1.168-0.779-1.873v-19.58l15.465-11.996
	L63.91,32.281V51.859z"/>
</svg>
