<?xml version="1.0" encoding="utf-8"?>
<!-- Generator: Adobe Illustrator 16.0.0, SVG Export Plug-In . SVG Version: 6.00 Build 0)  -->
<!DOCTYPE svg PUBLIC "-//W3C//DTD SVG 1.0//EN" "http://www.w3.org/TR/2001/REC-SVG-20010904/DTD/svg10.dtd">
<svg version="1.0" id="Layer_1" xmlns="http://www.w3.org/2000/svg" xmlns:xlink="http://www.w3.org/1999/xlink" x="0px" y="0px"
	 width="405.73px" height="405.73px" viewBox="94.772 142.04 405.73 405.73" enable-background="new 94.772 142.04 405.73 405.73"
	 xml:space="preserve">
<g>
	<g>
		<path d="M435.657,421.087c-3.282,2.813-7.272,4.093-11.259,4.093c-5.055,0-9.958-2.09-13.501-6.334L221.135,191.551
			c-6.216-7.518-5.162-18.65,2.22-24.867c7.527-6.227,18.533-5.162,24.867,2.218l74.728,89.613
			c12.071-3.402,25.442,0.351,34.015,10.675c8.552,10.193,9.833,24.163,4.33,35.423l76.606,91.716
			C444.208,403.728,443.165,414.86,435.657,421.087z"/>
	</g>
	<g>
		<path d="M384.156,512.58H213.287l-24.762-44.467c1.407-0.832,2.816-1.88,4.105-2.923c8.926-7.508,14.438-18.084,15.484-29.687
			c0.703-7.636-0.576-15.144-3.636-21.923l17.361-14.417c48.901,51.483,122.69,66.965,186.841,44.08L196.855,189.428
			c-34.133,58.883-31.904,134.187,9.958,191.663l-17.455,14.535c-7.166-5.034-15.729-7.732-24.762-7.732
			c-10.204,0-20.176,3.635-28.023,10.204c-18.415,15.355-20.889,43.036-5.523,61.464c8.329,9.979,20.526,15.696,33.547,15.696h0.949
			l20.87,37.322h-15.377c-9.725,0-17.594,7.846-17.594,17.57c0,9.726,7.869,17.618,17.594,17.618h213.115
			c9.746,0,17.615-7.893,17.615-17.618C401.769,520.426,393.9,512.58,384.156,512.58z M149.116,444.547
			c-7.145-8.575-5.983-21.35,2.581-28.515c3.635-3.05,8.083-4.671,12.902-4.671c5.971,0,11.613,2.687,15.483,7.252
			c3.53,4.223,5.162,9.383,4.691,14.777c-0.47,5.396-3.049,10.215-7.272,13.714C169.174,454.037,156.035,452.862,149.116,444.547z"
			/>
	</g>
	<g>
		<path d="M453.638,322.336c-1.535,0-3.072-0.309-4.565-0.928c-5.971-2.537-8.766-9.415-6.227-15.387
			c13.245-31.232,10.151-62.294-8.682-87.482c-22.113-29.558-61.633-44.935-103.285-40.146c-6.472,0.745-12.23-3.881-12.978-10.312
			c-0.744-6.43,3.872-12.251,10.311-12.989c49.778-5.716,97.655,13.178,124.739,49.402c23.692,31.679,27.895,72.029,11.495,110.685
			C462.553,319.659,458.201,322.336,453.638,322.336z"/>
	</g>
	<g>
		<path d="M412.179,317.218c-1.471,0-2.942-0.267-4.372-0.832c-5.994-2.409-8.937-9.224-6.546-15.238
			c6.909-17.275,4.905-34.347-5.609-48.112c-12.093-15.824-33.505-24.077-55.981-21.465c-6.42,0.735-12.241-3.881-12.968-10.322
			c-0.767-6.43,3.86-12.251,10.28-12.989c30.58-3.52,60.227,8.18,77.309,30.539c15.505,20.282,18.703,46.172,8.766,71.039
			C421.219,314.434,416.807,317.218,412.179,317.218z"/>
	</g>
	<g>
		<path stroke="#000000" stroke-width="3" stroke-linecap="round" stroke-miterlimit="10" d="M408.638,142.041"/>
	</g>
</g>
</svg>
