<?xml version="1.0" encoding="utf-8"?>
<!-- Generator: Adobe Illustrator 16.0.0, SVG Export Plug-In . SVG Version: 6.00 Build 0)  -->
<!DOCTYPE svg PUBLIC "-//W3C//DTD SVG 1.1//EN" "http://www.w3.org/Graphics/SVG/1.1/DTD/svg11.dtd">
<svg version="1.1" id="Layer_1" xmlns="http://www.w3.org/2000/svg" xmlns:xlink="http://www.w3.org/1999/xlink" x="0px" y="0px"
	 width="405.73px" height="405.73px" viewBox="0 0 405.73 405.73" enable-background="new 0 0 405.73 405.73" xml:space="preserve">
<g>
	<g>
		<path d="M340.885,279.048c-3.281,2.813-7.271,4.093-11.258,4.093c-5.057,0-9.959-2.09-13.502-6.334L126.363,49.512
			c-6.216-7.518-5.161-18.65,2.221-24.867c7.526-6.227,18.533-5.162,24.867,2.218l74.727,89.614
			c12.072-3.402,25.443,0.351,34.016,10.674c8.553,10.193,9.832,24.164,4.33,35.424l76.605,91.716
			C349.435,261.688,348.392,272.821,340.885,279.048z"/>
	</g>
	<g>
		<path d="M289.385,370.541h-170.87l-24.762-44.467c1.407-0.832,2.815-1.88,4.104-2.923c8.927-7.509,14.438-18.084,15.484-29.688
			c0.703-7.636-0.576-15.144-3.636-21.923l17.36-14.417c48.901,51.483,122.691,66.965,186.841,44.08L102.083,47.389
			c-34.133,58.883-31.904,134.188,9.958,191.663l-17.455,14.535c-7.166-5.034-15.729-7.732-24.762-7.732
			c-10.204,0-20.177,3.636-28.023,10.204c-18.415,15.355-20.889,43.036-5.523,61.465c8.329,9.979,20.526,15.695,33.548,15.695h0.948
			l20.87,37.322H76.267c-9.725,0-17.594,7.846-17.594,17.57c0,9.726,7.869,17.617,17.594,17.617h213.116
			c9.746,0,17.615-7.893,17.615-17.617S299.129,370.541,289.385,370.541z M54.344,302.508c-7.145-8.575-5.983-21.35,2.581-28.515
			c3.635-3.05,8.083-4.671,12.902-4.671c5.971,0,11.612,2.687,15.482,7.252c3.53,4.223,5.162,9.383,4.691,14.776
			c-0.471,5.396-3.049,10.216-7.272,13.714C74.402,311.998,61.263,310.823,54.344,302.508z"/>
	</g>
	<g>
		<path d="M358.865,180.297c-1.533,0-3.07-0.309-4.564-0.928c-5.971-2.537-8.766-9.415-6.227-15.387
			c13.244-31.232,10.15-62.295-8.682-87.482c-22.113-29.558-61.633-44.935-103.285-40.146c-6.473,0.745-12.23-3.881-12.979-10.312
			c-0.744-6.43,3.873-12.251,10.311-12.989c49.779-5.716,97.656,13.178,124.74,49.402c23.691,31.679,27.895,72.029,11.494,110.685
			C367.781,177.62,363.429,180.297,358.865,180.297z"/>
	</g>
	<g>
		<path d="M317.406,175.179c-1.471,0-2.941-0.267-4.371-0.832c-5.994-2.409-8.938-9.224-6.547-15.237
			c6.91-17.275,4.906-34.348-5.607-48.112c-12.094-15.824-33.506-24.077-55.982-21.466c-6.42,0.736-12.24-3.881-12.967-10.321
			c-0.768-6.431,3.859-12.251,10.279-12.989c30.58-3.52,60.227,8.18,77.309,30.539c15.506,20.282,18.703,46.172,8.766,71.039
			C326.447,172.395,322.035,175.179,317.406,175.179z"/>
	</g>
	<g>
		<path stroke="#000000" stroke-width="3" stroke-linecap="round" stroke-miterlimit="10" d="M313.867,0.002"/>
	</g>
</g>
</svg>
