<?xml version="1.0" encoding="utf-8"?>
<!-- Generator: Adobe Illustrator 16.0.0, SVG Export Plug-In . SVG Version: 6.00 Build 0)  -->
<!DOCTYPE svg PUBLIC "-//W3C//DTD SVG 1.1//EN" "http://www.w3.org/Graphics/SVG/1.1/DTD/svg11.dtd">
<svg version="1.1" id="Ebene_1" xmlns="http://www.w3.org/2000/svg" xmlns:xlink="http://www.w3.org/1999/xlink" x="0px" y="0px"
	 width="100px" height="100px" viewBox="0 0 100 100" enable-background="new 0 0 100 100" xml:space="preserve">
<path d="M49.834,9.001c22.607,0,41,18.392,41,40.999c0,22.607-18.393,41-41,41c-22.607,0-41-18.393-41-41
	C8.834,27.393,27.227,9.001,49.834,9.001 M49.834,5.001c-24.854,0-45,20.146-45,44.999c0,24.854,20.146,45,45,45
	c24.854,0,45-20.146,45-45C94.834,25.147,74.688,5.001,49.834,5.001L49.834,5.001z"/>
<path d="M49.834,45.001c-2.759,0-5,2.238-5,4.999c0,2.76,2.241,5,5,5s5-2.24,5-5C54.834,47.239,52.593,45.001,49.834,45.001
	L49.834,45.001z"/>
<path d="M49.834,78c-2.759,0-5,2.238-5,5c0,2.76,2.241,5,5,5s5-2.24,5-5C54.834,80.238,52.593,78,49.834,78L49.834,78z"/>
<path d="M71.168,38.692c-2.207,0-4,1.791-4,4c0,2.208,1.793,4,4,4s4-1.792,4-4C75.168,40.483,73.375,38.692,71.168,38.692
	L71.168,38.692z"/>
<path d="M25.371,25.001c-1.655,0-3,1.343-3,3c0,1.656,1.345,3,3,3c1.655,0,3-1.344,3-3C28.371,26.344,27.026,25.001,25.371,25.001
	L25.371,25.001z"/>
<path d="M27.788,71.795c0,0,0.519,0.482,1.489,1.391c0.243,0.228,0.515,0.479,0.813,0.76c0.296,0.227,0.619,0.473,0.969,0.74
	c0.349,0.268,0.723,0.556,1.122,0.862c0.391,0.315,0.896,0.578,1.38,0.897c1.937,1.313,4.543,2.51,7.646,3.5
	c3.123,0.994,6.798,1.484,10.895,1.25c1.104,0.006,2.034-0.209,3.062-0.336c1.011-0.09,2.054-0.416,3.112-0.657
	c2.113-0.536,4.213-1.388,6.297-2.413c4.141-2.109,7.982-5.373,11.013-9.469c0.409-0.49,0.745-1.035,1.078-1.584
	c0.341-0.547,0.683-1.094,1.024-1.644c0.289-0.581,0.576-1.163,0.867-1.748c0.299-0.581,0.588-1.169,0.797-1.794
	c0.232-0.613,0.467-1.23,0.701-1.85c0.228-0.621,0.358-1.274,0.545-1.913c0.404-1.272,0.565-2.604,0.791-3.933
	c0.144-0.66,0.131-1.338,0.188-2.013c0.033-0.651,0.102-1.401,0.109-1.977l-0.084-2.109L81.561,46.7l-0.144-0.995l-0.281-1.996
	c-0.133-0.666-0.317-1.33-0.475-1.996c-0.265-1.351-0.82-2.615-1.252-3.92c-1.089-2.515-2.336-5-4.034-7.166
	c-0.764-1.148-1.743-2.116-2.636-3.154c-0.464-0.502-0.992-0.94-1.483-1.414c-0.502-0.463-0.984-0.948-1.544-1.339
	c-4.252-3.391-9.271-5.732-14.421-6.593c-5.133-0.918-10.322-0.582-14.919,0.743c-4.626,1.331-8.646,3.681-11.86,6.388
	c-3.213,2.725-5.665,5.8-7.348,8.794c-0.442,0.736-0.768,1.506-1.138,2.218c-0.173,0.362-0.366,0.708-0.514,1.066
	c-0.137,0.362-0.271,0.717-0.403,1.065c-0.255,0.699-0.536,1.359-0.739,2.01c-0.178,0.66-0.347,1.289-0.508,1.886
	c-0.373,1.184-0.465,2.292-0.643,3.238c-0.188,0.946-0.227,1.765-0.262,2.428C16.878,49.292,16.834,50,16.834,50
	s0.028-0.708,0.08-2.037c0.021-0.665,0.04-1.487,0.209-2.438c0.157-0.951,0.226-2.068,0.573-3.265
	c0.148-0.604,0.305-1.241,0.469-1.908c0.19-0.66,0.458-1.33,0.7-2.04c0.125-0.354,0.253-0.715,0.383-1.083
	c0.142-0.364,0.328-0.717,0.494-1.086c0.357-0.727,0.67-1.512,1.101-2.266c1.635-3.065,4.05-6.239,7.262-9.088
	c3.214-2.83,7.271-5.328,11.999-6.802c4.733-1.473,10.045-1.938,15.401-1.104c5.37,0.778,10.671,3.098,15.215,6.563
	c0.597,0.399,1.115,0.896,1.653,1.371c0.527,0.485,1.093,0.937,1.594,1.455c0.965,1.068,2.02,2.072,2.854,3.264
	c1.841,2.251,3.227,4.848,4.438,7.499c0.493,1.373,1.108,2.71,1.427,4.141c0.183,0.708,0.394,1.406,0.551,2.124l0.359,2.196
	l0.174,1.098l0.063,1.056l0.13,2.107c0.014,0.828-0.044,1.479-0.064,2.226c-0.041,0.724-0.02,1.451-0.151,2.164
	c-0.208,1.431-0.356,2.869-0.759,4.25c-0.184,0.693-0.315,1.4-0.543,2.078c-0.238,0.674-0.477,1.346-0.713,2.015
	c-0.215,0.68-0.512,1.323-0.819,1.959c-0.302,0.64-0.601,1.276-0.897,1.913c-0.357,0.604-0.715,1.205-1.07,1.806
	c-0.35,0.604-0.703,1.202-1.133,1.746c-3.188,4.521-7.305,8.176-11.797,10.594c-2.26,1.181-4.554,2.165-6.871,2.81
	c-1.168,0.3-2.28,0.67-3.478,0.813c-1.164,0.177-2.365,0.429-3.394,0.44c-4.383,0.351-8.585-0.1-12.068-1.131
	c-3.493-1.022-6.443-2.312-8.651-3.731c-0.56-0.351-1.107-0.624-1.589-0.987c-0.484-0.355-0.938-0.688-1.36-1
	c-0.42-0.313-0.808-0.604-1.164-0.869c-0.305-0.271-0.581-0.52-0.829-0.74c-0.991-0.885-1.52-1.357-1.52-1.357L27.788,71.795z"/>
<path d="M34.868,64.729c0,0,0.359,0.338,1.033,0.976c0.168,0.157,0.356,0.336,0.563,0.53c0.197,0.152,0.413,0.318,0.646,0.498
	c0.461,0.36,0.979,0.787,1.676,1.194c1.307,0.902,3.071,1.722,5.174,2.411c2.121,0.689,4.604,1.037,7.413,0.895
	c0.781,0.007,1.393-0.135,2.085-0.217c0.677-0.055,1.392-0.271,2.112-0.435c1.443-0.356,2.878-0.929,4.303-1.621
	c2.835-1.421,5.472-3.637,7.562-6.425c2.127-2.771,3.487-6.24,4.033-9.881c0.102-0.452,0.098-0.918,0.137-1.379
	c0.025-0.439,0.074-0.979,0.084-1.34l-0.051-1.47l-0.025-0.737l-0.094-0.679l-0.186-1.36c-0.087-0.456-0.214-0.914-0.318-1.372
	c-0.177-0.93-0.554-1.8-0.847-2.698c-0.737-1.733-1.588-3.447-2.749-4.945c-0.521-0.793-1.191-1.464-1.804-2.182
	c-0.316-0.35-0.681-0.651-1.017-0.98c-0.346-0.32-0.676-0.658-1.06-0.929c-2.92-2.353-6.375-3.992-9.931-4.604
	c-3.543-0.654-7.143-0.439-10.325,0.462c-3.209,0.906-6.005,2.522-8.246,4.39c-2.239,1.88-3.955,4.008-5.136,6.084
	c-0.31,0.511-0.538,1.044-0.799,1.539c-0.27,0.492-0.468,0.992-0.646,1.479c-0.18,0.485-0.378,0.944-0.521,1.396
	c-0.126,0.458-0.246,0.896-0.36,1.311c-0.264,0.824-0.331,1.595-0.459,2.253c-0.135,0.659-0.163,1.229-0.19,1.69
	C26.867,49.507,26.834,50,26.834,50s0.018-0.494,0.049-1.42c0.013-0.464,0.023-1.037,0.138-1.701c0.106-0.664,0.15-1.443,0.39-2.28
	c0.102-0.422,0.209-0.867,0.321-1.333c0.131-0.461,0.315-0.93,0.482-1.426c0.164-0.499,0.35-1.012,0.605-1.518
	c0.248-0.509,0.464-1.06,0.762-1.587c1.134-2.146,2.812-4.374,5.05-6.378c2.24-1.991,5.074-3.754,8.385-4.804
	c3.319-1.049,7.041-1.393,10.809-0.822c3.776,0.531,7.512,2.148,10.724,4.574c0.42,0.28,0.786,0.628,1.168,0.96
	c0.373,0.34,0.773,0.656,1.127,1.021c0.686,0.749,1.43,1.455,2.021,2.292c1.304,1.583,2.291,3.409,3.152,5.278
	c0.354,0.967,0.791,1.911,1.021,2.92c0.131,0.5,0.283,0.991,0.396,1.5l0.262,1.561l0.125,0.78l0.049,0.735l0.098,1.468
	c0.012,0.616-0.027,1.054-0.039,1.59c-0.027,0.511-0.012,1.025-0.104,1.531c-0.471,4.055-1.877,7.986-4.164,11.183
	c-2.249,3.214-5.159,5.819-8.346,7.55c-1.602,0.846-3.229,1.553-4.877,2.018c-0.83,0.219-1.617,0.479-2.479,0.59
	c-0.833,0.132-1.709,0.311-2.414,0.322c-3.101,0.258-6.108-0.051-8.591-0.776c-2.493-0.724-4.601-1.638-6.18-2.644
	c-0.813-0.444-1.514-0.969-2.122-1.423c-0.303-0.226-0.583-0.435-0.84-0.626c-0.213-0.188-0.406-0.359-0.58-0.514
	c-0.693-0.614-1.063-0.941-1.063-0.941L34.868,64.729z"/>
<path d="M41.989,57.71c0,0,0.201,0.192,0.578,0.556c0.095,0.092,0.2,0.192,0.315,0.305c0.099,0.076,0.207,0.16,0.323,0.25
	c0.228,0.184,0.482,0.402,0.852,0.623c0.682,0.483,1.604,0.927,2.709,1.304c1.122,0.377,2.404,0.583,3.938,0.521
	c0.459,0.008,0.729-0.069,1.099-0.103c0.342-0.019,0.733-0.14,1.116-0.215c0.771-0.183,1.536-0.478,2.304-0.835
	c1.521-0.745,2.949-1.91,4.092-3.396c1.16-1.479,1.918-3.337,2.24-5.305c0.079-0.471,0.098-1.046,0.137-1.451l-0.02-0.831
	l-0.011-0.415l-0.047-0.36c-0.069-0.949-0.361-1.989-0.695-2.948c-0.75-1.914-1.976-3.679-3.569-4.987
	c-1.588-1.313-3.479-2.238-5.439-2.601c-1.954-0.386-3.959-0.291-5.728,0.188c-1.79,0.483-3.36,1.363-4.626,2.393
	c-1.265,1.036-2.241,2.216-2.919,3.374c-0.659,1.165-1.118,2.26-1.347,3.204c-0.246,0.937-0.366,1.699-0.394,2.22
	c-0.041,0.521-0.063,0.8-0.063,0.8s0.006-0.279,0.019-0.803c-0.003-0.524,0.074-1.295,0.271-2.257
	c0.179-0.969,0.58-2.107,1.191-3.343c0.63-1.228,1.568-2.508,2.833-3.667c1.264-1.152,2.873-2.181,4.764-2.808
	c1.904-0.626,4.034-0.85,6.21-0.547c2.181,0.28,4.354,1.184,6.232,2.569c1.887,1.378,3.414,3.313,4.412,5.499
	c0.213,0.562,0.476,1.109,0.616,1.697l0.243,0.874l0.164,0.925l0.079,0.464L63.9,49.02l0.065,0.829
	c0.017,0.399-0.007,0.628-0.01,0.95c-0.015,0.301,0.002,0.604-0.048,0.898c-0.245,2.382-1.047,4.703-2.366,6.604
	c-1.301,1.912-3.003,3.47-4.873,4.521c-0.942,0.513-1.903,0.942-2.877,1.233c-0.495,0.133-0.949,0.297-1.478,0.369
	c-0.494,0.082-1.062,0.2-1.441,0.21c-1.806,0.181-3.625,0.013-5.105-0.399c-1.494-0.407-2.761-0.943-3.714-1.53
	c-0.485-0.259-0.921-0.571-1.298-0.849c-0.187-0.138-0.36-0.265-0.519-0.381c-0.122-0.104-0.232-0.199-0.332-0.285
	c-0.397-0.34-0.609-0.522-0.609-0.522L41.989,57.71z"/>
<rect x="12.773" y="63.297" transform="matrix(0.7072 -0.7071 0.7071 0.7072 -36.0577 43.5358)" width="43.512" height="4.001"/>
</svg>
