<?xml version="1.0" encoding="utf-8"?>
<!-- Generator: Adobe Illustrator 16.0.0, SVG Export Plug-In . SVG Version: 6.00 Build 0)  -->
<!DOCTYPE svg PUBLIC "-//W3C//DTD SVG 1.1//EN" "http://www.w3.org/Graphics/SVG/1.1/DTD/svg11.dtd">
<svg version="1.1" id="Layer_1" xmlns="http://www.w3.org/2000/svg" xmlns:xlink="http://www.w3.org/1999/xlink" x="0px" y="0px"
	 width="45px" height="45px" viewBox="0 0 45 45" enable-background="new 0 0 45 45" xml:space="preserve">
<g>
	<path d="M42.28,38.24c0.189,0,0.345-0.152,0.345-0.342V33.1c0-0.092-0.035-0.178-0.1-0.24c-0.064-0.066-0.151-0.104-0.244-0.104
		h-4.618v-4.454c0-0.188-0.154-0.345-0.345-0.345h-5.119v-4.454c0-0.188-0.155-0.343-0.346-0.343h-4.599v-4.457
		c0-0.189-0.153-0.343-0.345-0.343h-9.885c-0.19,0-0.345,0.154-0.345,0.343v4.457h-4.597c-0.19,0-0.345,0.154-0.345,0.343v4.454
		H7.663c-0.19,0-0.345,0.154-0.345,0.345v4.454H2.72c-0.189,0-0.345,0.154-0.345,0.344v4.799c0,0.188,0.155,0.342,0.345,0.342
		h29.729H42.28z M41.936,33.441v4.113H32.74v-4.113H41.936z M36.973,28.645v4.111h-9.195v-4.111H36.973z M31.51,23.846v4.111h-9.195
		v-4.111H31.51z M27.088,28.645v4.111h-9.195v-4.111H27.088z M17.371,19.047h9.195v4.113h-9.195V19.047z M12.429,23.846h9.195v4.111
		h-9.195V23.846z M8.007,28.643h9.195v4.113H8.007V28.643z M12.261,37.555H3.064v-4.113h9.196L12.261,37.555L12.261,37.555z
		 M22.146,37.555H12.95v-4.113h9.196V37.555z M32.03,37.555h-9.195v-4.113h9.195V37.555z"/>
	<g>
		<path d="M22.805,7.808V7.804V7.808z"/>
		<path d="M19.738,14.635l4.114-0.008c1.094-0.024,1.938-0.458,2.396-1.193c0.462-0.74,0.479-1.696,0.045-2.625l-0.369-0.793
			l1.469-1.792l0.256,0.527c0.107,0.228,0.332,0.275,0.479,0.207l4.463-2.067c0.37-0.171,0.651-0.477,0.791-0.86
			c0.141-0.382,0.123-0.796-0.048-1.165c-0.33-0.71-1.312-1.075-2.033-0.74l-4.464,2.066c-0.084,0.039-0.146,0.107-0.178,0.192
			c-0.032,0.087-0.027,0.181,0.011,0.263l0.41,0.878l-1.478,1.799L25.184,8.43c-0.49-1.055-1.379-1.685-2.377-1.685
			c-0.812,0.018-1.548,0.401-2.124,1.08l-2.661,3.13c-1.01,1.19-0.734,2.146-0.568,2.501c0.166,0.354,0.721,1.18,2.277,1.18
			 M31.59,4.746c0.4-0.188,0.93,0.005,1.116,0.406c0.095,0.203,0.104,0.431,0.026,0.642c-0.076,0.211-0.23,0.379-0.435,0.474
			L28.148,8.19l-0.709-1.522L31.59,4.746z M18.078,13.163c-0.136-0.293-0.255-0.913,0.471-1.768l2.66-3.13
			c0.447-0.526,1-0.823,1.56-0.836h0.036c0.733,0,1.372,0.469,1.753,1.287l1.109,2.379c0.338,0.726,0.336,1.427-0.004,1.974
			c-0.338,0.543-0.959,0.853-1.747,0.872l-4.18,0.008C18.609,13.949,18.213,13.457,18.078,13.163z"/>
	</g>
</g>
</svg>
