<?xml version="1.0" encoding="utf-8"?>
<!-- Generator: Adobe Illustrator 16.0.0, SVG Export Plug-In . SVG Version: 6.00 Build 0)  -->
<!DOCTYPE svg PUBLIC "-//W3C//DTD SVG 1.1//EN" "http://www.w3.org/Graphics/SVG/1.1/DTD/svg11.dtd">
<svg version="1.1" id="Layer_1" xmlns="http://www.w3.org/2000/svg" xmlns:xlink="http://www.w3.org/1999/xlink" x="0px" y="0px"
	 width="1500.5px" height="1480.5px" viewBox="0 0 1500.5 1480.5" enable-background="new 0 0 1500.5 1480.5" xml:space="preserve">
<g>
	<path d="M1314.277,527.922H635.173c-70.833,0-129.579,42.299-129.579,113.064v104.027c0,70.834,58.745,134.977,129.579,134.977
		h679.104c70.849,0,130.165-64.143,130.165-134.977V640.986C1444.442,570.221,1385.126,527.922,1314.277,527.922z M1327.086,745.014
		c0,10.109-2.684,34.386-12.809,34.386H635.173c-10.144,0-28.987-24.276-28.987-34.386V640.986
		c0-10.092,18.844-12.473,28.987-12.473h679.104c10.125,0,12.809,2.381,12.809,12.473V745.014z"/>
	<path d="M1314.277,125.469H635.173c-70.833,0-129.579,42.299-129.579,113.065v104.028c0,70.833,58.745,134.976,129.579,134.976
		h679.104c70.849,0,130.165-64.143,130.165-134.976V238.534C1444.442,167.768,1385.126,125.469,1314.277,125.469z M1327.086,342.562
		c0,10.109-2.684,34.385-12.809,34.385H635.173c-10.144,0-28.987-24.276-28.987-34.385V238.534
		c0-10.092,18.844-12.473,28.987-12.473h679.104c10.125,0,12.809,2.381,12.809,12.473V342.562z"/>
	<path d="M1314.277,940.854H635.173c-70.833,0-129.579,54.504-129.579,125.253v104.028c0,70.831,58.745,139.551,129.579,139.551
		h679.104c70.849,0,130.165-68.72,130.165-139.553v-104.026C1444.442,995.357,1385.126,940.854,1314.277,940.854z
		 M1327.086,1170.133c0,10.111-2.684,22.197-12.809,22.197H635.173c-10.144,0-28.987-12.086-28.987-22.197v-104.026
		c0-10.109,18.844-7.896,28.987-7.896h679.104c10.125,0,12.809-2.213,12.809,7.896V1170.133z"/>
	<path d="M343.46,586.188l-10.362,5.8l0.487,74.487C183.604,672.427,63.112,795.383,63.112,946.821
		c0,155.23,126.292,281.403,281.47,281.403c30.396,0,55.075-24.678,55.075-55.074c0-30.394-24.679-55.037-55.075-55.037
		c-94.488,0-171.339-76.804-171.339-171.292c0-90.983,71.52-164.899,161.163-170.282l0.571,85.032l6.723,5.952l106.978-106.895
		c28.636-28.602,26.523-42.651-2.179-71.335L343.46,586.188z"/>
</g>
</svg>
