<?xml version="1.0" encoding="utf-8"?>
<!-- Generator: Adobe Illustrator 16.0.0, SVG Export Plug-In . SVG Version: 6.00 Build 0)  -->
<!DOCTYPE svg PUBLIC "-//W3C//DTD SVG 1.1//EN" "http://www.w3.org/Graphics/SVG/1.1/DTD/svg11.dtd">
<svg version="1.1" id="Layer_1" xmlns="http://www.w3.org/2000/svg" xmlns:xlink="http://www.w3.org/1999/xlink" x="0px" y="0px"
	 width="1500.5px" height="1480.5px" viewBox="0 0 1500.5 1480.5" enable-background="new 0 0 1500.5 1480.5" xml:space="preserve">
<path d="M1314.277,336.922H635.173c-70.833,0-129.579,42.299-129.579,113.064v104.026c0,70.834,58.745,134.978,129.579,134.978
	h679.104c70.849,0,130.165-64.144,130.165-134.978V449.986C1444.442,379.221,1385.126,336.922,1314.277,336.922z M1327.086,554.014
	c0,10.109-2.684,34.387-12.809,34.387H635.173c-10.144,0-28.987-24.276-28.987-34.387V449.986c0-10.092,18.845-12.474,28.987-12.474
	h679.104c10.125,0,12.809,2.381,12.809,12.474V554.014L1327.086,554.014z"/>
<path d="M1314.277,749.854H635.173c-70.833,0-129.579,54.505-129.579,125.254v104.027c0,70.831,58.745,139.551,129.579,139.551
	h679.104c70.849,0,130.165-68.72,130.165-139.553V875.107C1444.442,804.357,1385.126,749.854,1314.277,749.854z M1327.086,979.133
	c0,10.111-2.684,22.197-12.809,22.197H635.173c-10.144,0-28.987-12.086-28.987-22.197V875.107c0-10.109,18.845-7.896,28.987-7.896
	h679.104c10.125,0,12.809-2.213,12.809,7.896V979.133L1327.086,979.133z"/>
<path d="M343.46,395.188l-10.362,5.801l0.487,74.486C183.604,481.427,63.112,604.383,63.112,755.821
	c0,155.229,126.292,281.402,281.47,281.402c30.396,0,55.075-24.678,55.075-55.073c0-30.395-24.679-55.037-55.075-55.037
	c-94.488,0-171.339-76.805-171.339-171.292c0-90.983,71.52-164.899,161.163-170.282l0.57,85.032l6.724,5.952l106.978-106.896
	c28.637-28.602,26.523-42.651-2.179-71.335L343.46,395.188z"/>
</svg>
