<?xml version="1.0" encoding="utf-8"?>
<!-- Generator: Adobe Illustrator 16.0.0, SVG Export Plug-In . SVG Version: 6.00 Build 0)  -->
<!DOCTYPE svg PUBLIC "-//W3C//DTD SVG 1.1//EN" "http://www.w3.org/Graphics/SVG/1.1/DTD/svg11.dtd">
<svg version="1.1" id="Layer_1" xmlns="http://www.w3.org/2000/svg" xmlns:xlink="http://www.w3.org/1999/xlink" x="0px" y="0px"
	 width="22px" height="22px" viewBox="0 0 22 22" enable-background="new 0 0 22 22" xml:space="preserve">
<rect x="1" y="1" fill-opacity="0" width="18" height="20"/>
<path d="M20.307,7.605l-9-7c-0.18-0.141-0.434-0.141-0.613,0l-9,7C1.571,7.7,1.5,7.846,1.5,8v11c0,0.668,0.26,1.295,0.732,1.768
	S3.332,21.5,4,21.5h14c0.668,0,1.295-0.26,1.768-0.732S20.5,19.668,20.5,19V8C20.5,7.846,20.429,7.7,20.307,7.605z M13.5,20.5h-5v-9
	h5V20.5z M19.5,19c0,0.395-0.16,0.781-0.439,1.061S18.395,20.5,18,20.5h-3.5V11c0-0.276-0.224-0.5-0.5-0.5H8
	c-0.276,0-0.5,0.224-0.5,0.5v9.5H4c-0.395,0-0.781-0.16-1.061-0.439S2.5,19.395,2.5,19V8.245L11,1.633l8.5,6.611V19z"/>
</svg>
