<?xml version="1.0" encoding="utf-8"?>
<!-- Generator: Adobe Illustrator 16.0.0, SVG Export Plug-In . SVG Version: 6.00 Build 0)  -->
<!DOCTYPE svg PUBLIC "-//W3C//DTD SVG 1.1//EN" "http://www.w3.org/Graphics/SVG/1.1/DTD/svg11.dtd">
<svg version="1.1" id="Layer_1" xmlns="http://www.w3.org/2000/svg" xmlns:xlink="http://www.w3.org/1999/xlink" x="0px" y="0px"
	 width="100px" height="100px" viewBox="0 0 100 100" enable-background="new 0 0 100 100" xml:space="preserve">
<path d="M93.92,46H90V22.8c0-1.153-0.872-1.8-2.023-1.8H7.179C6.026,21,5,21.647,5,22.8v45.532C5,69.484,6.026,71,7.179,71h30.918
	l-0.904,6.799l-3.04,0.537c-0.195,0.046-0.325,0.173-0.301,0.372C33.874,78.907,34.042,79,34.243,79H59.5
	c0.2,0,0.369-0.184,0.393-0.381c0.022-0.199-0.106-0.41-0.303-0.456l-3.04-0.392L55.646,71H63v6.682C63,78.396,63.475,79,64.189,79
	h7.014h2.268H93.92c0.655,0,1.08-0.555,1.08-1.209V47.309C95,46.654,94.575,46,93.92,46z M46.948,22.599
	c0.175,0,0.316,0.142,0.316,0.317s-0.142,0.316-0.316,0.316c-0.175,0-0.317-0.142-0.317-0.316S46.773,22.599,46.948,22.599z
	 M63,56.746v0.926l0,0v1l0,0v1l0,0v1l0,0v1l0,0v1l0,0V65H8V25h79v21H71.203C70.548,46,70,46.654,70,47.309V56h-5.811
	C63.475,56,63,56.031,63,56.746z M82.855,47.915c0,0.171-0.14,0.31-0.311,0.31s-0.311-0.139-0.311-0.31s0.14-0.31,0.311-0.31
	S82.855,47.744,82.855,47.915z M69.878,57.393c0,0.135-0.108,0.244-0.242,0.244l-1.511-0.002c-0.133,0-0.242-0.109-0.242-0.244
	c0-0.134,0.108-0.244,0.242-0.244h1.511C69.77,57.146,69.878,57.259,69.878,57.393z M67.128,57.396c0,0.134-0.108,0.242-0.242,0.242
	c-0.133,0-0.241-0.108-0.241-0.242c0-0.133,0.107-0.242,0.241-0.242C67.02,57.155,67.128,57.264,67.128,57.396z M68.927,77.865
	c-0.583,0-1.056-0.473-1.056-1.055c0-0.584,0.473-1.057,1.056-1.057s1.056,0.473,1.056,1.057
	C69.982,77.393,69.509,77.865,68.927,77.865z M74,75H64V60h10V75z M82.545,78.036c-0.402,0-0.73-0.327-0.73-0.729
	c0-0.404,0.328-0.73,0.73-0.73c0.403,0,0.73,0.326,0.73,0.73C83.275,77.709,82.948,78.036,82.545,78.036z M93,76H75V56.746
	C75,56.031,74.186,56,73.471,56H73v-6h20V76z"/>
</svg>
