<?xml version="1.0" encoding="utf-8"?>
<!-- Generator: Adobe Illustrator 16.0.0, SVG Export Plug-In . SVG Version: 6.00 Build 0)  -->
<!DOCTYPE svg PUBLIC "-//W3C//DTD SVG 1.1//EN" "http://www.w3.org/Graphics/SVG/1.1/DTD/svg11.dtd">
<svg version="1.1" id="Layer_1" xmlns="http://www.w3.org/2000/svg" xmlns:xlink="http://www.w3.org/1999/xlink" x="0px" y="0px"
	 width="100px" height="100px" viewBox="0 0 100 100" enable-background="new 0 0 100 100" xml:space="preserve">
<path d="M93.738,16.712c2.087,0,4.175,0,6.262,0V0L0,100h16.712c0-2.087,0-4.174,0-6.262c0-0.903,1.404-0.903,1.404,0
	c0,2.088,0,4.175,0,6.262h8.764c0-2.087,0-4.174,0-6.262c0-0.903,1.405-0.903,1.405,0c0,2.088,0,4.175,0,6.262h8.764
	c0-2.087,0-4.174,0-6.262c0-0.903,1.405-0.903,1.405,0c0,2.088,0,4.175,0,6.262h8.766c0-2.087,0-4.174,0-6.262
	c0-0.903,1.404-0.903,1.404,0c0,2.088,0,4.175,0,6.262h8.765c0-2.087,0-4.174,0-6.262c0-0.903,1.404-0.903,1.404,0
	c0,2.088,0,4.175,0,6.262h8.766c0-2.087,0-4.174,0-6.262c0-0.903,1.402-0.903,1.402,0c0,2.088,0,4.175,0,6.262h8.766
	c0-2.087,0-4.174,0-6.262c0-0.903,1.402-0.903,1.402,0c0,2.088,0,4.175,0,6.262h8.768c0-2.087,0-4.174,0-6.262
	c0-0.903,1.403-0.903,1.403,0c0,2.088,0,4.175,0,6.262H100V89.3c-2.087,0-4.175,0-6.262,0c-0.903,0-0.903-1.403,0-1.403
	c2.087,0,4.175,0,6.262,0V79.13c-2.087,0-4.175,0-6.262,0c-0.903,0-0.903-1.403,0-1.403c2.087,0,4.175,0,6.262,0v-8.766
	c-2.087,0-4.175,0-6.262,0c-0.903,0-0.903-1.402,0-1.402c2.087,0,4.175,0,6.262,0v-8.766c-2.087,0-4.175,0-6.262,0
	c-0.903,0-0.903-1.402,0-1.402c2.087,0,4.175,0,6.262,0v-8.767c-2.087,0-4.175,0-6.262,0c-0.903,0-0.903-1.404,0-1.404
	c2.087,0,4.175,0,6.262,0v-8.765c-2.087,0-4.175,0-6.262,0c-0.903,0-0.903-1.404,0-1.404c2.087,0,4.175,0,6.262,0v-8.766
	c-2.087,0-4.175,0-6.262,0c-0.903,0-0.903-1.403,0-1.403c2.087,0,4.175,0,6.262,0v-8.765c-2.087,0-4.175,0-6.262,0
	C92.835,18.117,92.835,16.712,93.738,16.712z M84.964,84.963l-48.838,0.001l48.838-48.838V84.963z"/>
<path display="none" d="M30.511,92.747c0,1.338-1.16,2.426-2.59,2.426H17.569c-1.431,0-2.591-1.086-2.591-2.426v-27.88
	c0-1.338,1.16-2.424,2.591-2.424h10.352c1.431,0,2.59,1.086,2.59,2.424V92.747z"/>
<path display="none" d="M50.818,4.827C50.527,4.823,50.267,4.86,50,4.895c-0.265-0.035-0.527-0.071-0.818-0.067
	C22.049,5.293,0.467,26.875,0,54.009c0,6.656,0,13.313,0,19.97c0,6.438,9.985,6.438,9.985,0c0-6.654,0-13.312,0-19.97
	c0.374-21.667,17.53-38.823,39.197-39.195c0.291-0.005,0.554-0.053,0.818-0.096c0.267,0.043,0.527,0.091,0.818,0.095
	c21.666,0.373,38.824,17.528,39.197,39.196c0,6.654,0,13.312,0,19.97c0,6.438,9.983,6.438,9.983,0c0-6.655,0-13.312,0-19.97
	C99.531,26.875,77.953,5.293,50.818,4.827z"/>
<path display="none" d="M69.492,92.747c0,1.338,1.158,2.426,2.587,2.426h10.354c1.43,0,2.588-1.086,2.588-2.426v-27.88
	c0-1.338-1.158-2.424-2.588-2.424H72.079c-1.429,0-2.587,1.086-2.587,2.424V92.747z"/>
<path display="none" d="M73.857,23.889c0-1.889-1.146-3.508-2.781-4.199c0.811-0.824,1.312-1.952,1.312-3.199
	c0-2.506-2.02-4.536-4.521-4.557c0.216-0.529,0.335-1.105,0.335-1.711c0-2.519-2.04-4.56-4.561-4.56
	c-0.603,0-1.172,0.118-1.699,0.331c-0.021-2.5-2.051-4.521-4.557-4.521c-1.242,0-2.367,0.499-3.189,1.306
	C53.505,1.145,51.887,0,50,0c-1.886,0-3.503,1.145-4.197,2.779c-0.822-0.807-1.946-1.306-3.19-1.306
	c-2.505,0-4.537,2.02-4.556,4.521c-0.527-0.21-1.1-0.331-1.701-0.331c-2.519,0-4.561,2.041-4.561,4.56
	c0,0.604,0.121,1.182,0.334,1.711c-2.498,0.021-4.518,2.051-4.518,4.555c0,1.249,0.5,2.375,1.311,3.199
	c-1.633,0.692-2.779,2.311-2.781,4.196l0,0c0,0,0,0.002,0,0.005c0,0.002,0,0.004,0,0.006v-0.002c0,1.888,1.148,3.504,2.781,4.196
	c-0.81,0.823-1.311,1.951-1.311,3.198c0,2.505,2.02,4.535,4.519,4.557c-0.214,0.53-0.334,1.105-0.334,1.711
	c0,2.52,2.041,4.559,4.56,4.559c0.602,0,1.174-0.118,1.701-0.331c0.018,2.002,1.321,3.692,3.125,4.288L29.73,97.133l7.873-5.165
	L42.515,100L50,66.62L57.484,100l4.914-8.032l7.871,5.166L58.818,46.07c1.806-0.596,3.108-2.286,3.127-4.288
	c0.525,0.213,1.098,0.331,1.697,0.331c2.521,0,4.562-2.041,4.562-4.559c0-0.604-0.12-1.181-0.334-1.711
	c2.499-0.021,4.519-2.052,4.519-4.557c0-1.247-0.502-2.375-1.312-3.199C72.711,27.396,73.857,25.777,73.857,23.889z M50,38.715
	c-8.189,0-14.829-6.638-14.829-14.829c0-8.187,6.64-14.825,14.829-14.825c8.188,0,14.827,6.639,14.827,14.825
	C64.827,32.078,58.188,38.715,50,38.715z"/>
<path display="none" d="M50,100h4.559V76.896l0.002,0.002h25.463c0.494-0.006,0.871-0.524,0.871-1.037
	c0-0.188-0.051-0.362-0.143-0.516L67.459,52.984c-0.145-0.241-0.346-0.922,0.424-1.051l3.312-0.336
	c0.49-0.008,0.863-0.525,0.863-1.039c0-0.187-0.053-0.361-0.142-0.515l-10.688-18.34c-0.215-0.335-0.117-0.824,0.338-0.893
	l1.935-0.331c0.488-0.082,0.772-0.66,0.688-1.167c-0.021-0.12-0.062-0.231-0.116-0.33l-7.708-13.359
	c-0.15-0.284,0.027-0.623,0.283-0.7l1.008-0.306c0.476-0.143,0.688-0.756,0.537-1.249c-0.023-0.078-0.057-0.154-0.098-0.22
	L50.749,0.428C50.59,0.173,50.321,0,50,0c-0.322,0-0.59,0.173-0.749,0.428l-7.346,12.725c-0.037,0.066-0.07,0.141-0.096,0.22
	c-0.149,0.491,0.063,1.104,0.537,1.248l1.008,0.306c0.257,0.078,0.436,0.417,0.286,0.7l-7.71,13.358
	c-0.055,0.099-0.094,0.212-0.114,0.33c-0.087,0.507,0.199,1.085,0.687,1.169l1.935,0.328c0.454,0.069,0.552,0.559,0.337,0.894
	l-10.69,18.339c-0.089,0.152-0.141,0.327-0.141,0.516c0,0.512,0.374,1.03,0.862,1.037l3.312,0.336
	c0.768,0.129,0.569,0.811,0.426,1.051L19.248,75.346c-0.092,0.151-0.142,0.326-0.142,0.514c0,0.514,0.379,1.033,0.871,1.039h25.462
	l0.005-0.006V100H50z"/>
</svg>
