<?xml version="1.0" encoding="utf-8"?>
<!-- Generator: Adobe Illustrator 16.0.0, SVG Export Plug-In . SVG Version: 6.00 Build 0)  -->
<!DOCTYPE svg PUBLIC "-//W3C//DTD SVG 1.1//EN" "http://www.w3.org/Graphics/SVG/1.1/DTD/svg11.dtd">
<svg version="1.1" id="Layer_1" xmlns="http://www.w3.org/2000/svg" xmlns:xlink="http://www.w3.org/1999/xlink" x="0px" y="0px"
	 width="103.47px" height="103.47px" viewBox="0 0 103.47 103.47" enable-background="new 0 0 103.47 103.47" xml:space="preserve">
<g>
	
		<path fill-rule="evenodd" clip-rule="evenodd" fill="none" stroke="#000000" stroke-width="2" stroke-linecap="round" stroke-linejoin="round" stroke-miterlimit="10" d="
		M23.169,59.871c4.776,4.075,9.646,4.167,14.519,0.047c4.31,4.532,9.189,3.39,13.81,0.108"/>
	
		<path fill-rule="evenodd" clip-rule="evenodd" fill="none" stroke="#000000" stroke-width="2" stroke-linecap="round" stroke-linejoin="round" stroke-miterlimit="10" d="
		M51.498,60.026c4.673,4.087,9.594,4.376,14.281-0.075c4.669,4.578,11.502,3.537,14.522,0.044"/>
	
		<line fill="none" stroke="#000000" stroke-width="0.25" stroke-linecap="round" stroke-linejoin="round" stroke-miterlimit="10" x1="51.312" y1="59.618" x2="50.654" y2="60.026"/>
</g>
<g>
	
		<path fill-rule="evenodd" clip-rule="evenodd" fill="none" stroke="#000000" stroke-width="2" stroke-linecap="round" stroke-linejoin="round" stroke-miterlimit="10" d="
		M8.934,51.251c4.734,4.14,9.401,4.071,14.087-0.38c4.813,4.868,9.646,4.167,14.519,0.047c4.31,4.532,9.189,3.39,13.81,0.108"/>
	
		<path fill-rule="evenodd" clip-rule="evenodd" fill="none" stroke="#000000" stroke-width="2" stroke-linecap="round" stroke-linejoin="round" stroke-miterlimit="10" d="
		M51.349,51.026c4.673,4.087,9.594,4.376,14.28-0.075c4.813,4.868,9.646,4.167,14.522,0.044c4.79,5.063,9.62,3.727,14.385,0.256"/>
	
		<line fill="none" stroke="#000000" stroke-width="0.25" stroke-linecap="round" stroke-linejoin="round" stroke-miterlimit="10" x1="51.163" y1="50.618" x2="50.505" y2="51.026"/>
</g>
<g>
	
		<path fill-rule="evenodd" clip-rule="evenodd" fill="none" stroke="#000000" stroke-width="2" stroke-linecap="round" stroke-linejoin="round" stroke-miterlimit="10" d="
		M4.391,41.247c5.306,4.14,10.11,5.075,15.361,0.624c5.395,4.868,10.811,4.167,16.271,0.047c4.83,4.532,10.299,3.39,15.477,0.108"/>
	
		<path fill-rule="evenodd" clip-rule="evenodd" fill="none" stroke="#000000" stroke-width="2" stroke-linecap="round" stroke-linejoin="round" stroke-miterlimit="10" d="
		M51.5,42.026c5.238,4.087,10.752,4.376,16.005-0.075c5.395,4.868,10.81,4.167,16.275,0.044c5.368,5.063,9.958,2.723,15.298-0.748"
		/>
	
		<line fill="none" stroke="#000000" stroke-width="0.25" stroke-linecap="round" stroke-linejoin="round" stroke-miterlimit="10" x1="51.292" y1="41.618" x2="50.555" y2="42.026"/>
</g>
<g>
	
		<path fill-rule="evenodd" clip-rule="evenodd" fill="none" stroke="#000000" stroke-width="2" stroke-linecap="round" stroke-linejoin="round" stroke-miterlimit="10" d="
		M1.001,31.685c3.093,4.312,11.122,5.795,16.665,1.097c5.694,5.139,11.411,4.399,17.176,0.05c5.099,4.784,10.872,3.578,16.337,0.114
		"/>
	
		<path fill-rule="evenodd" clip-rule="evenodd" fill="none" stroke="#000000" stroke-width="2" stroke-linecap="round" stroke-linejoin="round" stroke-miterlimit="10" d="
		M51.179,32.945c5.529,4.314,11.351,4.619,16.896-0.079c5.694,5.139,11.41,4.398,17.18,0.046c5.667,5.345,13.84,2.21,17.215-1.54"/>
	
		<line fill="none" stroke="#000000" stroke-width="0.25" stroke-linecap="round" stroke-linejoin="round" stroke-miterlimit="10" x1="50.959" y1="32.515" x2="50.182" y2="32.945"/>
</g>
<g>
	
		<path fill-rule="evenodd" clip-rule="evenodd" fill="none" stroke="#000000" stroke-width="2" stroke-linecap="round" stroke-linejoin="round" stroke-miterlimit="10" d="
		M33.903,69.695c4.12,3.5,8.073,3.02,12.151-0.428c3.607,3.792,7.692,2.836,11.56,0.091"/>
	
		<path fill-rule="evenodd" clip-rule="evenodd" fill="none" stroke="#000000" stroke-width="2" stroke-linecap="round" stroke-linejoin="round" stroke-miterlimit="10" d="
		M57.614,69.358c3.911,3.42,8.029,3.661,11.952-0.063"/>
	
		<line fill="none" stroke="#000000" stroke-width="0.25" stroke-linecap="round" stroke-linejoin="round" stroke-miterlimit="10" x1="57.459" y1="69.016" x2="56.908" y2="69.358"/>
</g>
</svg>
