<?xml version="1.0" encoding="utf-8"?>
<!-- Generator: Adobe Illustrator 16.0.0, SVG Export Plug-In . SVG Version: 6.00 Build 0)  -->
<!DOCTYPE svg PUBLIC "-//W3C//DTD SVG 1.1//EN" "http://www.w3.org/Graphics/SVG/1.1/DTD/svg11.dtd">
<svg version="1.1" id="Layer_1" xmlns="http://www.w3.org/2000/svg" xmlns:xlink="http://www.w3.org/1999/xlink" x="0px" y="0px"
	 width="158.11px" height="158.11px" viewBox="341.068 217.69 158.11 158.11" enable-background="new 341.068 217.69 158.11 158.11"
	 xml:space="preserve">
<path d="M453.777,321.66c9.041-11.204,13.953-25.055,13.953-39.616c0-34.92-28.41-63.331-63.33-63.331
	c-34.923,0-63.332,28.411-63.332,63.331c0,34.909,28.409,63.316,63.332,63.316c14.782,0,28.785-5.038,40.082-14.312l45.312,45.728
	l9.381-9.287L453.777,321.66z M404.4,338.76c-31.285,0-56.729-25.441-56.729-56.716c0-31.285,25.444-56.727,56.729-56.727
	c31.271,0,56.728,25.442,56.728,56.727C461.128,313.319,435.671,338.76,404.4,338.76z"/>
</svg>
