<?xml version="1.0" encoding="utf-8"?>
<!-- Generator: Adobe Illustrator 16.0.0, SVG Export Plug-In . SVG Version: 6.00 Build 0)  -->
<!DOCTYPE svg PUBLIC "-//W3C//DTD SVG 1.1//EN" "http://www.w3.org/Graphics/SVG/1.1/DTD/svg11.dtd">
<svg version="1.1" id="Layer_1" xmlns="http://www.w3.org/2000/svg" xmlns:xlink="http://www.w3.org/1999/xlink" x="0px" y="0px"
	 width="158.109px" height="158.109px" viewBox="0 0 158.109 158.109" enable-background="new 0 0 158.109 158.109"
	 xml:space="preserve">
<path d="M112.71,102.948c9.041-11.204,13.953-25.056,13.953-39.616C126.663,28.411,98.253,0,63.333,0C28.409,0,0,28.411,0,63.331
	c0,34.909,28.409,63.316,63.333,63.316c14.781,0,28.785-5.038,40.082-14.312l45.312,45.729l9.381-9.287L112.71,102.948z
	 M63.333,120.047c-31.285,0-56.729-25.44-56.729-56.716c0-31.285,25.444-56.728,56.729-56.728c31.271,0,56.728,25.442,56.728,56.728
	C120.061,94.607,94.604,120.047,63.333,120.047z"/>
</svg>
