<?xml version="1.0" encoding="utf-8"?>
<!-- Generator: Adobe Illustrator 16.0.0, SVG Export Plug-In . SVG Version: 6.00 Build 0)  -->
<!DOCTYPE svg PUBLIC "-//W3C//DTD SVG 1.1//EN" "http://www.w3.org/Graphics/SVG/1.1/DTD/svg11.dtd">
<svg version="1.1" id="Isolation_Mode" xmlns="http://www.w3.org/2000/svg" xmlns:xlink="http://www.w3.org/1999/xlink" x="0px"
	 y="0px" width="192px" height="192px" viewBox="0 0 192 192" enable-background="new 0 0 192 192" xml:space="preserve">
<g>
	<path fill-rule="evenodd" clip-rule="evenodd" d="M128.039,106.109c18.002,17.981,35.875,35.899,53.83,53.731
		c5.176,5.139,7.219,11.142,5.337,18.166c-3.167,11.827-16.847,16.841-26.994,9.964c-1.942-1.315-3.663-2.999-5.333-4.665
		c-16.459-16.411-32.92-32.818-49.277-49.328c-2.147-2.166-3.715-2.721-6.784-1.357c-25.309,11.24-49.43,8.642-70.6-9.1
		C6.271,105.125-0.816,80.839,7.46,53.534c8.01-26.428,26.938-42.07,54.275-45.995c8.67-1.245,17.86,0.771,26.763,1.74
		c2.361,0.257,3.963,0.389,5.964-1.216c12.795-10.262,29.664-9.366,40.591,1.956c10.752,11.139,11.088,27.993,0.98,40.426
		c-1.027,1.263-1.839,3.44-1.526,4.938C138.663,75.381,137.314,86.895,128.039,106.109z M85.613,19.87
		c-16.679-6.21-45.122-1.815-61.272,22.104c-14.786,21.899-11.783,51.842,7.091,70.47c18.932,18.681,48.782,21.275,70.562,6.303
		c23.601-16.228,27.772-45.36,21.79-59.811C99.294,66.665,77.425,44.721,85.613,19.87z M122.004,115.175
		c-3.188,3.537-6.227,6.908-9.446,10.481c0.071,0.085,0.672,0.899,1.381,1.607c16.608,16.631,33.227,33.253,49.858,49.861
		c0.831,0.83,1.711,1.665,2.712,2.264c4.819,2.888,11.023-0.504,10.539-6.092c-0.201-2.346-1.803-4.976-3.527-6.727
		c-16.295-16.525-32.751-32.892-49.169-49.295C123.642,116.566,122.856,115.935,122.004,115.175z M93.034,30.589
		c-0.056,11.438,9.022,20.743,20.339,20.843c11.503,0.102,21.016-9.321,20.973-20.775c-0.042-11.223-9.506-20.699-20.669-20.692
		C102.383,9.971,93.091,19.254,93.034,30.589z"/>
	<path fill-rule="evenodd" clip-rule="evenodd" d="M113.547,24.878c3.061-1.119,5.011-7.284,9.097-3.055
		c3.791,3.923-1.723,5.868-3.281,8.818c1.11,3.014,7.494,5.065,3.041,9.226c-3.94,3.682-5.796-2.091-8.787-3.334
		c-3.022,1.045-4.86,7.272-9.005,3.154c-3.978-3.952,1.705-5.854,3.095-8.902c-0.652-3.103-7.55-4.998-2.896-9.228
		C108.849,17.887,110.624,23.652,113.547,24.878z"/>
</g>
</svg>
