<?xml version="1.0" encoding="utf-8"?>
<!-- Generator: Adobe Illustrator 16.0.0, SVG Export Plug-In . SVG Version: 6.00 Build 0)  -->
<!DOCTYPE svg PUBLIC "-//W3C//DTD SVG 1.1//EN" "http://www.w3.org/Graphics/SVG/1.1/DTD/svg11.dtd">
<svg version="1.1" id="Layer_1" xmlns="http://www.w3.org/2000/svg" xmlns:xlink="http://www.w3.org/1999/xlink" x="0px" y="0px"
	 width="100px" height="100px" viewBox="0 0 100 100" enable-background="new 0 0 100 100" xml:space="preserve">
<path d="M50.724,12.007c10.182,7.011,26.415,10.41,33.336,11.602c0.264,2.425,0.397,4.836,0.397,7.195
	c0,24.179-12.886,46.311-33.781,58.308c-20.9-12-33.787-34.132-33.787-58.308c0-2.335,0.135-4.727,0.398-7.148
	C24.353,22.532,40.902,19.251,50.724,12.007 M50.608,6.505c-10.345,10.236-37.143,13.37-37.143,13.37
	c-0.549,3.568-0.857,7.209-0.857,10.928c0,27.41,15.434,51.195,38.066,63.197c22.634-12.002,38.062-35.787,38.062-63.197
	c0-3.718-0.304-7.36-0.852-10.928C87.887,19.875,61.793,16.427,50.608,6.505L50.608,6.505z"/>
<path d="M24.97,29.267c-0.38,2.471-0.592,4.989-0.592,7.558c0,18.928,10.666,35.355,26.295,43.644
	c15.63-8.291,26.294-24.716,26.294-43.644c0-2.569-0.217-5.087-0.59-7.558c0,0-18.025-2.379-25.752-9.232
	C43.479,27.103,24.97,29.267,24.97,29.267z"/>
</svg>
