<?xml version="1.0" encoding="utf-8"?>
<!-- Generator: Adobe Illustrator 16.0.0, SVG Export Plug-In . SVG Version: 6.00 Build 0)  -->
<!DOCTYPE svg PUBLIC "-//W3C//DTD SVG 1.1//EN" "http://www.w3.org/Graphics/SVG/1.1/DTD/svg11.dtd">
<svg version="1.1" id="Layer_1" xmlns="http://www.w3.org/2000/svg" xmlns:xlink="http://www.w3.org/1999/xlink" x="0px" y="0px"
	 width="24px" height="24px" viewBox="0 0 24 24" enable-background="new 0 0 24 24" xml:space="preserve">
<path d="M22.989,1.943c-0.005-0.091-0.022-0.178-0.052-0.264c-0.011-0.032-0.021-0.062-0.035-0.093
	c-0.049-0.106-0.109-0.208-0.195-0.294s-0.188-0.147-0.295-0.196c-0.03-0.014-0.061-0.024-0.092-0.035
	c-0.086-0.029-0.173-0.046-0.264-0.051c-0.026-0.001-0.052-0.007-0.079-0.007c-0.104,0.002-0.207,0.017-0.308,0.052l-20,7
	C1.283,8.19,1.018,8.548,1.001,8.958c-0.017,0.41,0.218,0.788,0.593,0.954l8.648,3.844l3.844,8.648
	c0.161,0.362,0.521,0.594,0.914,0.594c0.014,0,0.027,0,0.041-0.001c0.409-0.017,0.768-0.281,0.903-0.669l7-20
	c0.035-0.101,0.05-0.205,0.052-0.309C22.996,1.994,22.99,1.97,22.989,1.943z M18.194,4.391l-7.416,7.416L4.711,9.11L18.194,4.391z
	 M14.89,19.288l-2.697-6.067l7.416-7.417L14.89,19.288z"/>
</svg>
