<?xml version="1.0" encoding="utf-8"?>
<!-- Generator: Adobe Illustrator 16.0.0, SVG Export Plug-In . SVG Version: 6.00 Build 0)  -->
<!DOCTYPE svg PUBLIC "-//W3C//DTD SVG 1.1//EN" "http://www.w3.org/Graphics/SVG/1.1/DTD/svg11.dtd">
<svg version="1.1" id="Layer_1" xmlns="http://www.w3.org/2000/svg" xmlns:xlink="http://www.w3.org/1999/xlink" x="0px" y="0px"
	 width="25px" height="25px" viewBox="0 0 25 25" enable-background="new 0 0 25 25" xml:space="preserve">
<path d="M24.606,0.906c-0.004-0.027-0.007-0.051-0.015-0.077c-0.028-0.099-0.072-0.193-0.149-0.271s-0.172-0.122-0.271-0.15
	c-0.027-0.008-0.052-0.011-0.08-0.015c-0.088-0.013-0.176-0.01-0.262,0.015c-0.012,0.003-0.024-0.002-0.036,0.002l-23,8.05
	C0.552,8.544,0.386,8.768,0.375,9.024C0.365,9.28,0.512,9.517,0.746,9.621l10.13,4.503l4.502,10.13
	c0.101,0.227,0.325,0.371,0.571,0.371c0.009,0,0.017,0,0.025-0.001c0.256-0.01,0.479-0.176,0.564-0.418l8.05-23
	c0.004-0.012-0.001-0.025,0.002-0.037C24.616,1.083,24.62,0.995,24.606,0.906z M21.621,2.495l-10.41,10.41L2.694,9.119L21.621,2.495
	z M15.881,22.306l-3.785-8.517l10.409-10.41L15.881,22.306z"/>
</svg>
