<?xml version="1.0" encoding="utf-8"?>
<!-- Generator: Adobe Illustrator 16.0.0, SVG Export Plug-In . SVG Version: 6.00 Build 0)  -->
<!DOCTYPE svg PUBLIC "-//W3C//DTD SVG 1.1//EN" "http://www.w3.org/Graphics/SVG/1.1/DTD/svg11.dtd">
<svg version="1.1" id="Layer_1" xmlns="http://www.w3.org/2000/svg" xmlns:xlink="http://www.w3.org/1999/xlink" x="0px" y="0px"
	 width="25px" height="25px" viewBox="0 0 25 25" enable-background="new 0 0 25 25" xml:space="preserve">
<g>
	<path d="M18.865,15.766c-1.171,0-2.228,0.487-2.986,1.265l-5.718-3.323c0.109-0.37,0.186-0.755,0.186-1.16
		c0-0.406-0.077-0.791-0.186-1.162l5.715-3.327c0.759,0.78,1.816,1.27,2.99,1.27c2.302,0,4.174-1.868,4.174-4.164S21.167,1,18.865,1
		s-4.174,1.868-4.174,4.164c0,0.406,0.077,0.791,0.186,1.162L9.162,9.652c-0.759-0.78-1.816-1.269-2.989-1.269
		C3.872,8.383,2,10.251,2,12.547s1.872,4.164,4.173,4.164c1.174,0,2.231-0.49,2.991-1.271l5.715,3.321
		c-0.11,0.373-0.188,0.76-0.188,1.168c0,2.296,1.872,4.164,4.174,4.164s4.174-1.868,4.174-4.164S21.167,15.766,18.865,15.766z
		 M18.865,3c1.198,0,2.174,0.971,2.174,2.164s-0.976,2.164-2.174,2.164s-2.174-0.971-2.174-2.164S17.667,3,18.865,3z M6.173,14.711
		C4.975,14.711,4,13.74,4,12.547s0.975-2.164,2.173-2.164s2.173,0.971,2.173,2.164S7.371,14.711,6.173,14.711z M18.865,22.094
		c-1.198,0-2.174-0.971-2.174-2.164c0-0.396,0.115-0.764,0.304-1.084c0.002-0.003,0.004-0.005,0.006-0.008s0.001-0.006,0.003-0.009
		c0.38-0.634,1.068-1.063,1.861-1.063c1.198,0,2.174,0.971,2.174,2.164S20.063,22.094,18.865,22.094z"/>
</g>
</svg>
