<?xml version="1.0" encoding="utf-8"?>
<!-- Generator: Adobe Illustrator 16.0.0, SVG Export Plug-In . SVG Version: 6.00 Build 0)  -->
<!DOCTYPE svg PUBLIC "-//W3C//DTD SVG 1.1//EN" "http://www.w3.org/Graphics/SVG/1.1/DTD/svg11.dtd">
<svg version="1.1" id="Layer_1" xmlns="http://www.w3.org/2000/svg" xmlns:xlink="http://www.w3.org/1999/xlink" x="0px" y="0px"
	 width="41.958px" height="42.574px" viewBox="283.708 373.399 41.958 42.574"
	 enable-background="new 283.708 373.399 41.958 42.574" xml:space="preserve">
<g>
	<g>
		<path fill="#5E5E5E" d="M317.734,386.965c-2.153,0-3.947,0.897-5.383,2.153l-12.92-6.459c0-0.359,0-0.539,0-0.897
			c0.18-4.306-3.409-7.716-7.716-7.716s-7.716,3.41-7.716,7.716c0,4.307,3.409,7.716,7.716,7.716c2.153,0,3.948-0.897,5.383-2.153
			l12.919,6.46c0,0.359,0,0.539,0,0.897s0,0.538,0,0.897l-12.919,6.46c-1.436-1.256-3.23-2.153-5.383-2.153
			c-4.307,0-7.716,3.409-7.716,7.716s3.409,7.716,7.716,7.716s7.716-3.409,7.716-7.716c0-0.359,0-0.538,0-0.897l12.92-6.46
			c1.436,1.257,3.229,2.153,5.383,2.153c4.307,0,7.716-3.409,7.716-7.715C325.63,390.554,322.041,386.965,317.734,386.965z"/>
	</g>
</g>
</svg>
