<?xml version="1.0" encoding="utf-8"?>
<!-- Generator: Adobe Illustrator 16.0.0, SVG Export Plug-In . SVG Version: 6.00 Build 0)  -->
<!DOCTYPE svg PUBLIC "-//W3C//DTD SVG 1.1//EN" "http://www.w3.org/Graphics/SVG/1.1/DTD/svg11.dtd">
<svg version="1.1" id="Layer_1" xmlns="http://www.w3.org/2000/svg" xmlns:xlink="http://www.w3.org/1999/xlink" x="0px" y="0px"
	 width="100px" height="100px" viewBox="0 0 100 100" enable-background="new 0 0 100 100" xml:space="preserve">
<g>
	<g>
		<path fill="#5E5E5E" d="M79.988,33.076c-4.805,0-8.803,2-12.009,4.802L39.165,23.474c0-0.801,0-1.202,0-2.001
			C39.57,11.87,31.564,4.265,21.959,4.265c-9.605,0-17.21,7.605-17.21,17.208c0,9.605,7.605,17.21,17.21,17.21
			c4.8,0,8.803-2.001,12.004-4.802l28.811,14.407c0,0.801,0,1.202,0,2c0,0.798,0,1.199,0,2L33.964,66.695
			c-3.202-2.801-7.205-4.805-12.004-4.805c-9.605,0-17.21,7.605-17.21,17.21s7.605,17.21,17.21,17.21
			c9.604,0,17.205-7.605,17.205-17.21c0-0.802,0-1.197,0-1.999l28.815-14.409c3.206,2.806,7.204,4.805,12.009,4.805
			c9.604,0,17.205-7.605,17.205-17.207C97.595,41.082,89.593,33.076,79.988,33.076z"/>
	</g>
</g>
</svg>
