<?xml version="1.0" encoding="utf-8"?>
<!-- Generator: Adobe Illustrator 16.0.0, SVG Export Plug-In . SVG Version: 6.00 Build 0)  -->
<!DOCTYPE svg PUBLIC "-//W3C//DTD SVG 1.1//EN" "http://www.w3.org/Graphics/SVG/1.1/DTD/svg11.dtd">
<svg version="1.1" id="Layer_1" xmlns="http://www.w3.org/2000/svg" xmlns:xlink="http://www.w3.org/1999/xlink" x="0px" y="0px"
	 width="1500.5px" height="1480.5px" viewBox="0 0 1500.5 1480.5" enable-background="new 0 0 1500.5 1480.5" xml:space="preserve">
<g>
	<path d="M1328.467,217.217L1288.031,105.1c-1.836-5.513-7.35-9.189-11.027-9.189H222.011c-3.675,0-9.189,3.676-11.028,7.352
		l-40.434,113.954c0,3.676-5.514,7.352-11.028,7.352h-40.436c-7.352,0-12.866,5.514-12.866,12.866v36.759
		c0,7.351,5.514,12.866,12.866,12.866H1381.77c7.352,0,12.864-5.515,12.864-12.866v-36.759c-1.836-7.352-7.352-12.866-14.702-12.866
		h-42.274C1333.982,224.568,1328.467,220.893,1328.467,217.217z"/>
	<path d="M1361.552,1308.971v-36.76c0-7.354-5.515-12.865-12.867-12.865l0,0c-7.351,0-12.864-5.514-12.864-12.867V351.388
		c0-7.351-5.514-12.865-12.865-12.865H172.385c-7.351,0-12.865,5.514-12.865,12.865v896.93c0,7.351-5.514,12.866-12.867,12.866l0,0
		c-7.351,0-12.865,5.512-12.865,12.864v36.761c0,7.352-5.514,12.864-12.866,12.864h-1.838c-7.352-1.836-12.866,3.677-12.866,9.191
		v36.76c0,7.352,5.514,12.865,12.866,12.865H1381.77c7.352,0,12.864-5.514,12.864-12.865v-36.76c0-7.354-5.513-12.866-12.864-12.866
		h-7.352C1367.064,1321.837,1361.552,1316.321,1361.552,1308.971z M688.854,1290.591H427.863c-7.351,0-12.865-5.516-12.865-12.866
		V877.048c0-7.352,5.514-12.866,12.865-12.866h260.992c7.352,0,12.867,5.515,12.867,12.866v402.515
		C699.882,1285.075,694.37,1290.591,688.854,1290.591z M1071.151,1290.591h-260.99c-7.352,0-12.866-5.516-12.866-12.866V877.048
		c0-7.352,5.515-12.866,12.866-12.866h260.99c7.354,0,12.867,5.515,12.867,12.866v402.515
		C1084.019,1285.075,1078.505,1290.591,1071.151,1290.591z M1129.967,768.607H369.048c-7.351,0-12.865-5.516-12.865-12.866v-47.787
		c0-7.353,5.514-12.866,12.865-12.866h760.919c7.354,0,12.867,5.513,12.867,12.866v47.787
		C1142.834,763.092,1137.32,768.607,1129.967,768.607z"/>
</g>
</svg>
