<?xml version="1.0" encoding="utf-8"?>
<!-- Generator: Adobe Illustrator 16.0.0, SVG Export Plug-In . SVG Version: 6.00 Build 0)  -->
<!DOCTYPE svg PUBLIC "-//W3C//DTD SVG 1.1//EN" "http://www.w3.org/Graphics/SVG/1.1/DTD/svg11.dtd">
<svg version="1.1" id="Camada_1" xmlns="http://www.w3.org/2000/svg" xmlns:xlink="http://www.w3.org/1999/xlink" x="0px" y="0px"
	 width="852px" height="852px" viewBox="0 0 852 852" enable-background="new 0 0 852 852" xml:space="preserve">
<g>
	<path d="M829.165,274.166h-45.967c-2.356-28.287-12.966-54.218-30.646-74.254l31.823-31.823c5.894-5.893,0-17.68-7.071-16.501
		c-2.357,0-3.536,1.179-5.895,2.357l-31.823,31.823c-20.035-17.68-45.967-28.287-74.254-30.645v-45.967
		c1.181-3.536-3.535-8.251-9.429-7.072c-4.714,1.179-7.071,5.894-7.071,9.43v45.967c-28.287,2.357-53.039,14.143-73.076,30.645
		l-33.002-33.002c-2.356-2.357-5.893-3.536-8.25-2.357c-7.071,1.179-9.43,11.786-4.715,16.5l31.823,31.824
		c-17.68,20.037-28.287,45.967-30.646,74.254h-45.967c0,0,0,0-1.179,0c-4.715,0-9.43,4.715-9.43,9.429
		c0,4.715,4.715,9.429,9.43,9.429h45.967c2.357,28.287,12.965,54.218,30.646,74.254l-31.823,31.824
		c-3.536,3.535-4.714,10.607-1.179,14.144c3.535,3.536,10.606,3.536,14.144-1.179l31.823-31.824
		c20.037,17.68,45.967,28.288,74.254,30.646v45.967c0,4.714,4.715,9.429,9.43,9.429s9.43-4.715,9.43-9.429v-45.969
		c28.287-2.357,54.218-12.966,74.255-30.646l31.821,31.824c3.536,3.535,10.608,4.715,14.146,1.179
		c3.535-3.536,3.535-10.608-1.181-14.144l-33.002-33.002c17.681-20.037,28.288-45.967,30.646-74.254h45.967
		c4.714,0,9.43-4.715,9.43-9.43C838.595,278.881,833.88,274.166,829.165,274.166z M657.085,394.388
		c-60.11,0-109.613-49.504-109.613-109.613c0-60.111,49.503-109.613,109.613-109.613c60.109,0,109.612,49.502,109.612,109.613
		C766.698,344.884,718.374,394.388,657.085,394.388z"/>
	<path d="M604.046,720.87H367.14L251.634,522.859l177.975-101.363c4.714-2.357,5.893-8.251,3.535-12.965
		c-44.788-71.897-122.578-111.971-201.547-109.614c-29.466,0-58.932,7.072-87.219,20.037c-9.431,3.536-20.037,10.608-30.646,16.502
		C15.905,399.102-15.917,528.752,43.014,630.114c2.356,4.715,8.251,5.894,12.965,3.536l177.974-101.362L344.747,720.87H132.591
		c-4.715,1.178-8.25,5.893-8.25,10.607c1.179,4.715,5.894,8.25,10.606,8.25h469.099c4.715,0,9.43-4.715,9.43-9.43
		C613.476,725.585,608.761,720.87,604.046,720.87z M229.239,317.776c70.719-2.357,140.258,30.645,181.512,93.111l-78.97,44.789
		c-29.466-48.324-64.825-87.22-101.362-110.793c-15.322-9.428-30.646-17.679-44.788-21.215
		C199.773,320.133,213.917,317.776,229.239,317.776z M54.802,613.614C13.55,534.646,30.051,439.175,91.34,377.885
		c-3.536,14.145-4.714,31.824-3.536,49.503c3.536,42.432,18.857,91.935,45.967,141.437L54.802,613.614z M150.271,559.396
		c-25.93-47.146-41.252-94.291-43.609-133.187c-2.356-35.36,4.715-61.29,20.037-75.433l97.827,166.188L150.271,559.396z
		 M142.021,342.526c7.072-3.535,12.965-3.535,18.857-3.535c17.68,1.179,37.717,8.25,58.933,23.572
		c33.002,21.216,67.183,57.754,94.291,103.721l-74.254,42.431L142.021,342.526z"/>
</g>
</svg>
