<?xml version="1.0" encoding="utf-8"?>
<!-- Generator: Adobe Illustrator 16.0.0, SVG Export Plug-In . SVG Version: 6.00 Build 0)  -->
<!DOCTYPE svg PUBLIC "-//W3C//DTD SVG 1.1//EN" "http://www.w3.org/Graphics/SVG/1.1/DTD/svg11.dtd">
<svg version="1.1" id="Camada_1" xmlns="http://www.w3.org/2000/svg" xmlns:xlink="http://www.w3.org/1999/xlink" x="0px" y="0px"
	 width="852px" height="852px" viewBox="0 0 852 852" enable-background="new 0 0 852 852" xml:space="preserve">
<g>
	<path d="M833.056,201.429h-51.373c-2.634-31.615-14.491-60.595-34.252-82.988l35.566-35.566c6.588-6.586,0-19.759-7.902-18.442
		c-2.634,0-3.952,1.318-6.588,2.634l-35.566,35.566c-22.393-19.76-51.374-31.615-82.988-34.25V17.009
		c1.319-3.952-3.951-9.222-10.538-7.904c-5.269,1.318-7.903,6.587-7.903,10.54v51.374c-31.614,2.634-59.277,15.807-81.672,34.25
		l-36.884-36.884c-2.632-2.634-6.585-3.952-9.22-2.634c-7.902,1.317-10.539,13.172-5.27,18.441l35.566,35.567
		c-19.761,22.394-31.614,51.375-34.251,82.988h-51.374c0,0,0,0-1.317,0c-5.27,0-10.54,5.27-10.54,10.538
		c0,5.27,5.271,10.539,10.54,10.539h51.373c2.635,31.614,14.49,60.595,34.251,82.988l-35.565,35.568
		c-3.952,3.951-5.269,11.854-1.318,15.807c3.951,3.952,11.854,3.952,15.808-1.317l35.566-35.567
		c22.394,19.759,51.374,31.615,82.988,34.251v51.374c0,5.268,5.27,10.538,10.539,10.538s10.539-5.27,10.539-10.538V355.55
		c31.614-2.635,60.597-14.492,82.989-34.251l35.564,35.567c3.952,3.951,11.855,5.27,15.811,1.317
		c3.949-3.952,3.949-11.855-1.321-15.807l-36.884-36.884c19.762-22.394,31.615-51.375,34.252-82.989h51.373
		c5.269,0,10.539-5.269,10.539-10.539C843.595,206.699,838.325,201.429,833.056,201.429z M640.734,335.792
		c-67.181,0-122.506-55.327-122.506-122.506c0-67.182,55.325-122.506,122.506-122.506c67.18,0,122.506,55.325,122.506,122.506
		C763.241,280.465,709.233,335.792,640.734,335.792z"/>
	<path d="M689.663,818.104H418.015L285.57,591.056l204.076-116.228c5.405-2.703,6.757-9.461,4.054-14.866
		c-51.357-82.441-140.555-128.392-231.104-125.689c-33.787,0-67.574,8.109-100.01,22.976c-10.813,4.055-22.976,12.163-35.14,18.922
		C15.272,449.149-21.217,597.812,46.356,714.04c2.701,5.406,9.461,6.758,14.866,4.055l204.074-116.228l127.042,216.237H149.069
		c-5.406,1.351-9.46,6.757-9.46,12.162c1.352,5.407,6.758,9.46,12.162,9.46h537.892c5.406,0,10.813-5.406,10.813-10.812
		C700.477,823.511,695.069,818.104,689.663,818.104z M259.891,355.898c81.09-2.703,160.827,35.138,208.13,106.765l-90.551,51.356
		c-33.787-55.41-74.332-100.01-116.227-127.04c-17.568-10.811-35.14-20.271-51.356-24.326
		C226.104,358.6,242.322,355.898,259.891,355.898z M59.873,695.12C12.571,604.571,31.492,495.1,101.769,424.821
		c-4.054,16.22-5.405,36.492-4.054,56.762c4.054,48.656,21.622,105.418,52.708,162.18L59.873,695.12z M169.342,632.951
		c-29.733-54.061-47.301-108.119-50.004-152.72c-2.702-40.546,5.406-70.278,22.975-86.494l112.173,190.559L169.342,632.951z
		 M159.882,384.277c8.109-4.054,14.866-4.054,21.623-4.054c20.273,1.352,43.248,9.46,67.575,27.028
		c37.842,24.328,77.036,66.225,108.119,118.932l-85.144,48.653L159.882,384.277z"/>
</g>
</svg>
