<?xml version="1.0" encoding="utf-8"?>
<!-- Generator: Adobe Illustrator 16.0.0, SVG Export Plug-In . SVG Version: 6.00 Build 0)  -->
<!DOCTYPE svg PUBLIC "-//W3C//DTD SVG 1.1//EN" "http://www.w3.org/Graphics/SVG/1.1/DTD/svg11.dtd">
<svg version="1.1" id="Layer_1" xmlns="http://www.w3.org/2000/svg" xmlns:xlink="http://www.w3.org/1999/xlink" x="0px" y="0px"
	 width="583.539px" height="583.54px" viewBox="0 0 583.539 583.54" enable-background="new 0 0 583.539 583.54"
	 xml:space="preserve">
<g>
	<path d="M436.037,153.82c-1.9,0-3.814-0.715-5.276-2.16c-2.96-2.912-2.997-7.671-0.084-10.637l47.002-47.76
		c2.911-2.948,7.677-3.002,10.637-0.084c2.961,2.912,2.997,7.671,0.085,10.637l-47.003,47.76
		C439.924,153.068,437.98,153.82,436.037,153.82z"/>
	<path d="M436.037,153.82c-1.9,0-3.814-0.715-5.276-2.16c-2.96-2.912-2.997-7.671-0.084-10.637l47.002-47.76
		c2.911-2.948,7.677-3.002,10.637-0.084c2.961,2.912,2.997,7.671,0.085,10.637l-47.003,47.76
		C439.924,153.068,437.98,153.82,436.037,153.82z"/>
	<path d="M564.149,302.557h-70.251c-4.15,0-7.521-3.367-7.521-7.52c0-4.152,3.37-7.522,7.521-7.522h70.251
		c4.151,0,7.521,3.37,7.521,7.522C571.671,299.19,568.302,302.557,564.149,302.557z"/>
	<path d="M564.149,302.557h-70.251c-4.15,0-7.521-3.367-7.521-7.52c0-4.152,3.37-7.522,7.521-7.522h70.251
		c4.151,0,7.521,3.37,7.521,7.522C571.671,299.19,568.302,302.557,564.149,302.557z"/>
	<path d="M483.039,492.504c-1.943,0-3.887-0.746-5.36-2.246l-47.002-47.736c-2.913-2.959-2.882-7.717,0.084-10.635
		c2.966-2.922,7.73-2.883,10.637,0.082l47.003,47.736c2.912,2.959,2.882,7.719-0.085,10.637
		C486.854,491.788,484.94,492.504,483.039,492.504z"/>
	<path d="M483.039,492.504c-1.943,0-3.887-0.746-5.36-2.246l-47.002-47.736c-2.913-2.959-2.882-7.717,0.084-10.635
		c2.966-2.922,7.73-2.883,10.637,0.082l47.003,47.736c2.912,2.959,2.882,7.719-0.085,10.637
		C486.854,491.788,484.94,492.504,483.039,492.504z"/>
	<path d="M295.187,574.415c-4.151,0-7.521-3.371-7.521-7.521v-71.262c0-4.15,3.37-7.52,7.521-7.52s7.521,3.367,7.521,7.52v71.262
		C302.707,571.043,299.345,574.415,295.187,574.415z"/>
	<path d="M295.187,574.415c-4.151,0-7.521-3.371-7.521-7.521v-71.262c0-4.15,3.37-7.52,7.521-7.52s7.521,3.367,7.521,7.52v71.262
		C302.707,571.043,299.345,574.415,295.187,574.415z"/>
	<path d="M100.511,492.504c-1.907,0-3.809-0.717-5.277-2.162c-2.96-2.91-2.996-7.672-0.084-10.637l47.002-47.748
		c2.913-2.953,7.671-3.004,10.637-0.084c2.96,2.912,2.997,7.672,0.085,10.637l-47.003,47.748
		C104.398,491.752,102.461,492.504,100.511,492.504z"/>
	<path d="M100.511,492.504c-1.907,0-3.809-0.717-5.277-2.162c-2.96-2.91-2.996-7.672-0.084-10.637l47.002-47.748
		c2.913-2.953,7.671-3.004,10.637-0.084c2.96,2.912,2.997,7.672,0.085,10.637l-47.003,47.748
		C104.398,491.752,102.461,492.504,100.511,492.504z"/>
	<path d="M89.67,302.557H19.388c-4.151,0-7.521-3.367-7.521-7.52c0-4.152,3.369-7.522,7.521-7.522h70.274
		c4.151,0,7.521,3.37,7.521,7.522C97.184,299.19,93.821,302.557,89.67,302.557z"/>
	<path d="M89.67,302.557H19.388c-4.151,0-7.521-3.367-7.521-7.52c0-4.152,3.369-7.522,7.521-7.522h70.274
		c4.151,0,7.521,3.37,7.521,7.522C97.184,299.19,93.821,302.557,89.67,302.557z"/>
	<path d="M147.52,153.832c-1.944,0-3.887-0.752-5.362-2.244l-47.002-47.767c-2.912-2.96-2.876-7.726,0.084-10.638
		c2.966-2.918,7.731-2.87,10.639,0.084l47.002,47.766c2.911,2.96,2.876,7.726-0.085,10.638
		C151.328,153.116,149.422,153.832,147.52,153.832z"/>
	<path d="M147.52,153.832c-1.944,0-3.887-0.752-5.362-2.244l-47.002-47.767c-2.912-2.96-2.876-7.726,0.084-10.638
		c2.966-2.918,7.731-2.87,10.639,0.084l47.002,47.766c2.911,2.96,2.876,7.726-0.085,10.638
		C151.328,153.116,149.422,153.832,147.52,153.832z"/>
	<path d="M295.187,95.416c-4.151,0-7.521-3.369-7.521-7.521v-71.25c0-4.151,3.37-7.521,7.521-7.521s7.521,3.369,7.521,7.521v71.25
		C302.707,92.053,299.345,95.416,295.187,95.416z"/>
	<path d="M295.187,95.416c-4.151,0-7.521-3.369-7.521-7.521v-71.25c0-4.151,3.37-7.521,7.521-7.521s7.521,3.369,7.521,7.521v71.25
		C302.707,92.053,299.345,95.416,295.187,95.416z"/>
	<path d="M295.187,448.516c-87.949,0-159.5-72.225-159.5-161c0-88.776,71.552-161,159.5-161c87.948,0,159.5,72.224,159.5,161
		C454.687,376.292,383.135,448.516,295.187,448.516z M294.769,142.516c-79.126,0-143.5,65.047-143.5,145
		c0,79.954,64.374,145,143.5,145c79.126,0,143.5-65.047,143.5-145C438.269,207.562,373.895,142.516,294.769,142.516z"/>
</g>
</svg>
