<?xml version="1.0" encoding="utf-8"?>
<!-- Generator: Adobe Illustrator 16.0.0, SVG Export Plug-In . SVG Version: 6.00 Build 0)  -->
<!DOCTYPE svg PUBLIC "-//W3C//DTD SVG 1.1//EN" "http://www.w3.org/Graphics/SVG/1.1/DTD/svg11.dtd">
<svg version="1.1" id="Layer_1" xmlns="http://www.w3.org/2000/svg" xmlns:xlink="http://www.w3.org/1999/xlink" x="0px" y="0px"
	 width="211.697px" height="211.697px" viewBox="0 0 211.697 211.697" enable-background="new 0 0 211.697 211.697"
	 xml:space="preserve">
<g>
	<path fill="#010101" d="M105.757,34.039h0.165c4.627,0,8.381-3.749,8.381-8.398l0.013-17.246C114.299,3.749,110.567,0,105.914,0
		h-0.148c-4.615,0-8.376,3.747-8.376,8.395l-0.011,17.244C97.378,30.277,101.14,34.039,105.757,34.039z"/>
	<path fill="#010101" d="M105.914,177.662h-0.148c-4.615,0-8.376,3.746-8.376,8.393L97.378,203.3c0,4.633,3.762,8.396,8.379,8.396
		h0.165c4.627,0,8.381-3.748,8.381-8.396l0.013-17.246C114.299,181.41,110.567,177.662,105.914,177.662z"/>
	<path fill="#010101" d="M203.303,95.334l-17.244-0.011c-4.635,0-8.4,3.762-8.4,8.379v0.165c0,4.628,3.749,8.381,8.4,8.381
		l17.244,0.014c4.645-0.018,8.395-3.75,8.395-8.403v-0.147C211.697,99.098,207.949,95.334,203.303,95.334z"/>
	<path fill="#010101" d="M34.037,103.858v-0.147c0-4.615-3.747-8.377-8.394-8.377L8.398,95.323c-4.64,0-8.398,3.762-8.398,8.379
		v0.165c0,4.628,3.747,8.381,8.398,8.381l17.245,0.014C30.287,112.244,34.037,108.512,34.037,103.858z"/>
	<path fill="#010101" d="M154.86,55.463c3.272,3.271,8.578,3.275,11.864-0.013l12.206-12.186c3.271-3.296,3.283-8.587-0.009-11.876
		l-0.104-0.106c-3.265-3.264-8.574-3.274-11.859,0.011L154.752,43.48c-3.278,3.279-3.274,8.6-0.012,11.863L154.86,55.463z"/>
	<path fill="#010101" d="M53.193,156.908c-3.263-3.262-8.572-3.273-11.859,0.012l-12.203,12.189
		c-3.279,3.281-3.277,8.598-0.012,11.863l0.116,0.115c3.271,3.273,8.576,3.277,11.863-0.01l12.205-12.188
		c3.271-3.297,3.283-8.588-0.006-11.875L53.193,156.908z"/>
	<path fill="#010101" d="M168.189,155.462c-3.281-3.279-8.6-3.279-11.864-0.012l-0.116,0.115c-3.273,3.271-3.275,8.58,0.013,11.865
		l12.188,12.203c3.294,3.273,8.587,3.287,11.874-0.004l0.105-0.107c3.263-3.264,3.275-8.572-0.012-11.857L168.189,155.462z"/>
	<path fill="#010101" d="M42.782,54.009c3.296,3.271,8.586,3.283,11.876-0.007l0.106-0.105c3.262-3.265,3.275-8.571-0.011-11.859
		L42.566,29.835c-3.279-3.279-8.599-3.277-11.864-0.013l-0.116,0.116c-3.273,3.271-3.279,8.576,0.01,11.863L42.782,54.009z"/>
	<circle fill="#010101" cx="105.849" cy="103.793" r="54.73"/>
</g>
</svg>
