<?xml version="1.0" encoding="utf-8"?>
<!-- Generator: Adobe Illustrator 16.0.0, SVG Export Plug-In . SVG Version: 6.00 Build 0)  -->
<!DOCTYPE svg PUBLIC "-//W3C//DTD SVG 1.1//EN" "http://www.w3.org/Graphics/SVG/1.1/DTD/svg11.dtd">
<svg version="1.1" id="Camada_1" xmlns="http://www.w3.org/2000/svg" xmlns:xlink="http://www.w3.org/1999/xlink" x="0px" y="0px"
	 width="852px" height="852px" viewBox="464.5 -212 852 852" enable-background="new 464.5 -212 852 852" xml:space="preserve">
<g>
	<path d="M1295.229,61.21h-45.967c-2.357-28.287-12.966-54.218-30.646-74.254l31.824-31.823c5.893-5.893,0-17.68-7.072-16.501
		c-2.357,0-3.536,1.179-5.894,2.357l-31.823,31.823c-20.036-17.68-45.967-28.287-74.254-30.645v-45.967
		c1.18-3.536-3.535-8.251-9.429-7.072c-4.714,1.179-7.071,5.894-7.071,9.43v45.967c-28.288,2.357-53.039,14.143-73.076,30.645
		l-33.002-33.002c-2.357-2.357-5.893-3.536-8.25-2.357c-7.072,1.179-9.43,11.786-4.715,16.5l31.823,31.824
		c-17.68,20.037-28.287,45.967-30.645,74.254h-45.967c0,0,0,0-1.179,0c-4.715,0-9.43,4.715-9.43,9.429
		c0,4.715,4.715,9.429,9.43,9.429h45.967c2.357,28.287,12.965,54.218,30.645,74.254l-31.823,31.824
		c-3.536,3.535-4.714,10.607-1.179,14.144c3.536,3.536,10.607,3.536,14.144-1.179l31.823-31.824
		c20.037,17.68,45.967,28.288,74.254,30.646v45.967c0,4.714,4.715,9.429,9.43,9.429s9.429-4.715,9.429-9.429V199.11
		c28.288-2.357,54.218-12.966,74.255-30.646l31.822,31.824c3.536,3.535,10.608,4.715,14.145,1.179
		c3.535-3.536,3.535-10.608-1.18-14.144l-33.002-33.002c17.68-20.037,28.288-45.967,30.646-74.254h45.967
		c4.714,0,9.429-4.715,9.429-9.43C1304.658,65.925,1299.943,61.21,1295.229,61.21z M1123.148,181.432
		c-60.11,0-109.613-49.504-109.613-109.613c0-60.111,49.503-109.613,109.613-109.613s109.613,49.502,109.613,109.613
		C1232.762,131.928,1184.438,181.432,1123.148,181.432z"/>
	<path d="M1070.109,507.914H833.203L717.697,309.903L895.672,208.54c4.714-2.357,5.893-8.251,3.535-12.965
		C854.419,123.678,776.629,83.604,697.66,85.961c-29.466,0-58.932,7.072-87.219,20.037c-9.43,3.536-20.037,10.608-30.645,16.502
		c-97.827,63.646-129.65,193.296-70.719,294.658c2.357,4.715,8.251,5.894,12.965,3.536l177.974-101.362L810.81,507.914H598.654
		c-4.714,1.178-8.25,5.893-8.25,10.607c1.179,4.715,5.894,8.25,10.607,8.25h469.098c4.715,0,9.43-4.714,9.43-9.429
		C1079.539,512.629,1074.824,507.914,1070.109,507.914z M695.303,104.82c70.719-2.357,140.258,30.645,181.511,93.111l-78.969,44.789
		c-29.466-48.324-64.825-87.22-101.363-110.793c-15.322-9.428-30.645-17.679-44.788-21.215
		C665.837,107.177,679.98,104.82,695.303,104.82z M520.865,400.658c-41.252-78.969-24.751-174.439,36.538-235.729
		c-3.536,14.145-4.714,31.824-3.536,49.504c3.536,42.431,18.858,91.934,45.967,141.436L520.865,400.658z M616.334,346.44
		c-25.93-47.146-41.252-94.291-43.609-133.186c-2.357-35.36,4.715-61.29,20.037-75.433l97.827,166.188L616.334,346.44z
		 M608.084,129.57c7.072-3.535,12.965-3.535,18.858-3.535c17.679,1.179,37.716,8.25,58.932,23.572
		c33.002,21.216,67.183,57.754,94.291,103.721l-74.254,42.431L608.084,129.57z"/>
</g>
</svg>
