<?xml version="1.0" encoding="utf-8"?>
<!-- Generator: Adobe Illustrator 16.0.0, SVG Export Plug-In . SVG Version: 6.00 Build 0)  -->
<!DOCTYPE svg PUBLIC "-//W3C//DTD SVG 1.1//EN" "http://www.w3.org/Graphics/SVG/1.1/DTD/svg11.dtd">
<svg version="1.1" id="Layer_1" xmlns="http://www.w3.org/2000/svg" xmlns:xlink="http://www.w3.org/1999/xlink" x="0px" y="0px"
	 width="21px" height="21px" viewBox="0 0 21 21" enable-background="new 0 0 21 21" xml:space="preserve">
<g>
	<rect x="1" y="1" fill-opacity="0" width="19" height="19"/>
	<path d="M9.053,0.75H1.44c-0.387,0-0.69,0.307-0.69,0.698v7.549c0,0.391,0.303,0.698,0.69,0.698h7.424
		c0.387,0,0.69-0.307,0.69-0.698V1.256C9.555,0.991,9.315,0.75,9.053,0.75z M9.055,8.997c0,0.118-0.077,0.198-0.19,0.198H1.44
		c-0.114,0-0.19-0.08-0.19-0.198V1.448c0-0.118,0.077-0.198,0.19-0.198l7.614,0.006L9.055,8.997L9.055,8.997z"/>
	<path d="M19.748,0.75h-7.612c-0.387,0-0.69,0.307-0.69,0.698v7.549c0,0.391,0.305,0.698,0.69,0.698h7.425
		c0.387,0,0.689-0.307,0.689-0.698V1.256C20.25,0.991,20.011,0.75,19.748,0.75z M19.75,8.997c0,0.118-0.076,0.198-0.189,0.198
		h-7.425c-0.114,0-0.19-0.08-0.19-0.198V1.448c0-0.118,0.076-0.198,0.19-0.198l7.614,0.006V8.997z"/>
	<path d="M9.053,11.307H1.44c-0.387,0-0.69,0.307-0.69,0.697v7.549c0,0.391,0.303,0.697,0.69,0.697h7.424
		c0.387,0,0.69-0.307,0.69-0.697v-7.74C9.555,11.547,9.315,11.307,9.053,11.307z M9.055,19.553c0,0.118-0.077,0.197-0.19,0.197H1.44
		c-0.114,0-0.19-0.079-0.19-0.197v-7.549c0-0.118,0.077-0.197,0.19-0.197l7.614,0.006L9.055,19.553L9.055,19.553z"/>
	<path d="M19.748,11.307h-7.612c-0.387,0-0.69,0.307-0.69,0.697v7.549c0,0.391,0.305,0.697,0.69,0.697h7.425
		c0.387,0,0.689-0.307,0.689-0.697v-7.74C20.25,11.547,20.011,11.307,19.748,11.307z M19.75,19.553c0,0.118-0.076,0.197-0.189,0.197
		h-7.425c-0.114,0-0.19-0.079-0.19-0.197v-7.549c0-0.117,0.078-0.197,0.19-0.197l7.614,0.006V19.553z"/>
</g>
</svg>
