<?xml version="1.0" encoding="utf-8"?>
<!-- Generator: Adobe Illustrator 16.0.0, SVG Export Plug-In . SVG Version: 6.00 Build 0)  -->
<!DOCTYPE svg PUBLIC "-//W3C//DTD SVG 1.1//EN" "http://www.w3.org/Graphics/SVG/1.1/DTD/svg11.dtd">
<svg version="1.1" id="Layer_1" xmlns="http://www.w3.org/2000/svg" xmlns:xlink="http://www.w3.org/1999/xlink" x="0px" y="0px"
	 width="1500.5px" height="1480.5px" viewBox="0 0 1500.5 1480.5" enable-background="new 0 0 1500.5 1480.5" xml:space="preserve">
<path d="M894.592,632.485c26.961,0,44.884-13.49,44.884-25.402c0-19.481-26.981-28.442-43.403-28.442
	c-31.402,0-58.383-10.432-76.286-28.441c-14.961-14.961-22.441-32.883-22.441-52.364c0-35.932,31.402-67.324,73.325-76.286v-29.922
	c0-14.961,12-26.971,26.961-26.971s26.961,12.01,26.961,26.971v29.922c35.942,8.962,71.864,34.452,71.864,76.286
	c0,14.962-12.02,26.962-28.441,26.962c-13.5,0-26.98-13.48-26.98-26.962c0-19.471-28.442-25.402-44.884-25.402
	c-26.961,0-44.884,13.49-44.884,25.402c0,19.481,26.981,26.962,44.884,26.962c29.922,0,56.903,10.441,76.286,29.922
	c13.48,13.49,22.441,32.883,22.441,52.364c0,37.402-29.922,65.854-71.845,76.286v31.402c0,14.961-12,25.402-26.961,25.402
	s-26.98-12-26.98-26.961v-29.922c-35.941-7.48-71.864-37.403-71.864-77.757c0-13.49,12.02-26.971,26.98-26.971
	c14.962,0,26.981,12.01,26.981,28.441C849.709,626.475,876.67,632.485,894.592,632.485z M1087.606,755.213v-67.315h207.976v67.315
	H1087.606z M1087.606,454.422v-68.796h207.976v68.796H1087.606z M1087.606,605.612v-68.825h207.976v68.825H1087.606z
	 M402.444,743.213v-80.806c0-16.441-13.49-29.922-29.922-29.922c-16.461,0-29.923,13.48-29.923,29.922v151.091
	c0,12,7.48,22.441,17.913,26.961c2.951,1.48,7.48,1.48,12.01,1.48c7.48,0,16.432-1.48,20.941-7.48l88.296-88.285
	c10.451-13.481,10.451-31.403,0-41.922c-13.49-12.01-31.402-12.01-41.912,0L402.444,743.213z M822.825,912.305v-67.326h472.756
	v67.326H822.825z M822.825,1070.877v-67.325h472.756v67.325H822.825z M369.473,1045.396c-128.65,0-231.897-104.729-231.897-231.898
	c0-127.178,103.247-231.907,231.897-231.907c130.14,0,231.897,104.729,231.897,231.907
	C601.37,940.668,499.691,1045.396,369.473,1045.396z M631.292,605.612c16.432-14.962,16.432-41.933,0-55.335
	c-16.441-16.441-40.364-16.441-56.874,0l-26.971,26.971c-44.883-32.893-97.247-52.364-154.121-58.374v-59.922h28.423
	c13.49,0,25.422-12.01,25.422-26.971c0-13.461-13.49-25.394-25.422-25.394H314.07c-14.961,0-26.971,10.433-26.971,25.394
	c0,16.461,12.01,26.971,26.971,26.971h26.952v61.325C192.989,533.757,76.25,660.926,76.25,813.498
	c0,161.611,130.121,294.684,294.693,294.684c161.621,0,294.712-134.65,294.712-294.684c0-68.805-23.912-131.708-62.814-179.542
	L631.292,605.612z M716.627,270.458c-23.941,0-43.413,17.922-43.413,41.912v149.611c10.442,6.01,17.923,13.49,25.403,19.49
	c26.961,25.393,38.873,59.845,38.873,95.776c0,26.951-7.48,52.364-20.941,73.306c25.393,50.893,37.402,104.738,37.402,163.101
	c0,86.806-31.422,169.092-80.814,233.378v127.169c0,22.442,19.471,40.345,43.412,40.345h662.799
	c23.922,0,43.402-17.902,43.402-40.345v-861.91c0-23.912-19.48-41.912-43.402-41.912H716.627V270.458z"/>
</svg>
