<?xml version="1.0" encoding="utf-8"?>
<!-- Generator: Adobe Illustrator 16.0.0, SVG Export Plug-In . SVG Version: 6.00 Build 0)  -->
<!DOCTYPE svg PUBLIC "-//W3C//DTD SVG 1.1//EN" "http://www.w3.org/Graphics/SVG/1.1/DTD/svg11.dtd">
<svg version="1.1" id="Camada_1" xmlns="http://www.w3.org/2000/svg" xmlns:xlink="http://www.w3.org/1999/xlink" x="0px" y="0px"
	 width="18.143px" height="18.143px" viewBox="0 0 18.143 18.143" enable-background="new 0 0 18.143 18.143" xml:space="preserve">
<g>
	<path fill="#818282" d="M4.82,15.553c0,0.742-0.604,1.346-1.346,1.346h-1.75c-0.743,0-1.347-0.604-1.347-1.346v-0.057
		c0-0.742,0.604-1.348,1.347-1.348h1.75c0.742,0,1.346,0.605,1.346,1.348V15.553z"/>
	<path fill="#818282" d="M4.82,11.251c0,0.742-0.604,1.346-1.346,1.346h-1.75c-0.743,0-1.347-0.604-1.347-1.346v-0.059
		c0-0.74,0.604-1.346,1.347-1.346h1.75c0.742,0,1.346,0.605,1.346,1.346V11.251z"/>
	<path fill="#818282" d="M4.82,6.949c0,0.741-0.604,1.346-1.346,1.346h-1.75c-0.743,0-1.347-0.604-1.347-1.346V6.89
		c0-0.742,0.604-1.346,1.347-1.346h1.75c0.742,0,1.346,0.604,1.346,1.346V6.949z"/>
	<path fill="#818282" d="M11.302,15.553c0,0.742-0.604,1.346-1.345,1.346H8.206c-0.742,0-1.345-0.604-1.345-1.346v-0.057
		c0-0.742,0.604-1.348,1.345-1.348h1.751c0.742,0,1.345,0.605,1.345,1.348V15.553z"/>
	<path fill="#818282" d="M11.302,11.251c0,0.742-0.604,1.346-1.345,1.346H8.206c-0.742,0-1.345-0.604-1.345-1.346v-0.059
		c0-0.74,0.604-1.346,1.345-1.346h1.751c0.742,0,1.345,0.605,1.345,1.346V11.251z"/>
	<path fill="#818282" d="M11.302,6.949c0,0.741-0.604,1.346-1.345,1.346H8.206c-0.742,0-1.345-0.604-1.345-1.346V6.89
		c0-0.742,0.604-1.346,1.345-1.346h1.751c0.742,0,1.345,0.604,1.345,1.346V6.949z"/>
	<path fill="#818282" d="M17.774,15.553c0,0.742-0.604,1.346-1.347,1.346h-1.75c-0.742,0-1.346-0.604-1.346-1.346v-0.057
		c0-0.742,0.604-1.348,1.346-1.348h1.75c0.743,0,1.347,0.605,1.347,1.348V15.553z"/>
	<path fill="#818282" d="M17.774,11.251c0,0.742-0.604,1.346-1.347,1.346h-1.75c-0.742,0-1.346-0.604-1.346-1.346v-0.059
		c0-0.74,0.604-1.346,1.346-1.346h1.75c0.743,0,1.347,0.605,1.347,1.346V11.251z"/>
	<path fill="#818282" d="M17.774,6.949c0,0.741-0.604,1.346-1.347,1.346h-1.75c-0.742,0-1.346-0.604-1.346-1.346V6.89
		c0-0.742,0.604-1.346,1.346-1.346h1.75c0.743,0,1.347,0.604,1.347,1.346V6.949z"/>
	<path fill="#818282" d="M4.82,2.646c0,0.741-0.604,1.346-1.346,1.346h-1.75C0.981,4.004,0.378,3.4,0.378,2.646V2.589
		c0-0.743,0.604-1.346,1.347-1.346h1.75c0.742,0,1.346,0.603,1.346,1.346V2.646z"/>
	<path fill="#818282" d="M11.302,2.646c0,0.741-0.604,1.346-1.345,1.346H8.206c-0.742,0-1.345-0.604-1.345-1.346V2.589
		c0-0.743,0.604-1.346,1.345-1.346h1.751c0.742,0,1.345,0.603,1.345,1.346V2.646z"/>
	<path fill="#818282" d="M17.774,2.646c0,0.741-0.604,1.346-1.347,1.346h-1.75c-0.742,0-1.346-0.604-1.346-1.346V2.589
		c0-0.743,0.604-1.346,1.346-1.346h1.75c0.743,0,1.347,0.603,1.347,1.346V2.646z"/>
</g>
</svg>
