<?xml version="1.0" encoding="utf-8"?>
<!-- Generator: Adobe Illustrator 16.0.0, SVG Export Plug-In . SVG Version: 6.00 Build 0)  -->
<!DOCTYPE svg PUBLIC "-//W3C//DTD SVG 1.1//EN" "http://www.w3.org/Graphics/SVG/1.1/DTD/svg11.dtd">
<svg version="1.1" id="Your_Icon" xmlns="http://www.w3.org/2000/svg" xmlns:xlink="http://www.w3.org/1999/xlink" x="0px" y="0px"
	 width="100px" height="100px" viewBox="0 0 100 100" enable-background="new 0 0 100 100" xml:space="preserve">
<path fill-rule="evenodd" clip-rule="evenodd" fill="#020202" d="M97.733,40.99c-0.517-0.819-1.337-1.2-2.183-1.554
	c-3.809-1.589-7.808-2.497-11.847-3.229c-8.328-1.51-16.748-2.091-25.194-2.293c-8.474-0.203-16.945-0.054-25.407,0.529
	c-6.432,0.444-12.834,1.123-19.163,2.382c-3.363,0.67-6.692,1.477-9.877,2.786c-1.562,0.642-2.337,1.786-2.329,3.503
	c0.022,4.579,0.03,9.158-0.004,13.736c-0.013,1.754,0.756,2.904,2.349,3.567c1.849,0.771,3.758,1.352,5.696,1.838
	c8.071,2.024,16.308,2.884,24.586,3.414c5.732,0.368,11.474,0.543,17.221,0.49c4.212,0.045,8.42-0.063,12.627-0.271
	c7.09-0.35,14.145-1.002,21.117-2.381c3.695-0.731,7.348-1.629,10.809-3.164c1.357-0.602,2.129-1.632,2.132-3.151
	c0.007-4.786,0.001-9.574,0.005-14.361C98.271,42.162,98.09,41.557,97.733,40.99z M41.231,58.313
	c-0.067,0.345-0.267,0.388-0.556,0.385c-1.144-0.013-2.289,0.02-3.431-0.027c-1.064-0.044-1.946-0.483-2.577-1.382
	c-0.462-0.659-0.979-1.28-1.418-1.954c-0.275-0.421-0.523-0.497-1.008-0.317c-2.381,0.885-4.787,1.702-7.168,2.584
	c-1.997,0.738-4.064,1.054-6.177,1.087c-1.975,0.03-3.952-0.008-5.928,0.016c-0.514,0.006-0.681-0.078-0.524-0.644
	c0.261-0.949,0.445-1.921,0.613-2.892c0.078-0.45,0.263-0.578,0.712-0.567c1.325,0.033,2.654-0.045,3.977,0.022
	c3.458,0.18,6.767-0.452,9.99-1.662c1.333-0.5,2.695-0.931,4.024-1.442c0.565-0.218,0.93-0.215,1.251,0.385
	c0.304,0.567,0.719,1.079,1.113,1.595c0.567,0.742,1.294,1.143,2.271,1.124c1.843-0.035,3.688-0.01,5.598-0.01
	C41.728,55.886,41.466,57.097,41.231,58.313z M43.161,48.702c-0.274,0.916-0.438,1.868-0.612,2.812
	c-0.067,0.371-0.19,0.537-0.594,0.523c-1.117-0.04-2.236-0.008-3.351-0.07c-1.035-0.06-1.888-0.511-2.5-1.382
	c-0.478-0.681-0.998-1.331-1.465-2.018c-0.25-0.369-0.488-0.406-0.904-0.252c-2.089,0.776-4.212,1.465-6.286,2.277
	c-2.504,0.981-5.094,1.41-7.765,1.434c-1.768,0.017-3.537-0.007-5.305,0.011c-0.458,0.005-0.66-0.044-0.509-0.598
	c0.265-0.976,0.468-1.971,0.639-2.968c0.074-0.429,0.246-0.556,0.661-0.548c1.222,0.021,2.444,0.007,3.667,0.007
	c4.778,0.508,9.104-1.195,13.458-2.756c1.691-0.606,1.748-0.647,2.688,0.848c0.876,1.394,1.989,2.081,3.678,1.93
	c1.264-0.111,2.547,0.007,3.82-0.033C43.104,47.899,43.382,47.964,43.161,48.702z M44.641,41.722
	c-0.248,1.034-0.469,2.076-0.678,3.12c-0.065,0.329-0.182,0.491-0.551,0.48c-1.142-0.034-2.288-0.006-3.428-0.06
	c-1.045-0.048-1.879-0.527-2.487-1.396c-0.462-0.658-0.969-1.287-1.414-1.957c-0.266-0.4-0.523-0.446-0.968-0.281
	c-2.43,0.9-4.875,1.763-7.312,2.644c-2.001,0.723-4.079,1.002-6.19,1.038c-1.924,0.031-3.849-0.003-5.773,0.013
	c-0.479,0.005-0.717-0.035-0.545-0.633c0.257-0.896,0.468-1.813,0.586-2.737c0.086-0.666,0.395-0.768,0.976-0.747
	c1.169,0.041,2.34,0.012,3.51,0.012c4.616,0.512,8.802-1.116,13.014-2.616c0.658-0.234,1.414-0.762,1.954-0.595
	c0.536,0.165,0.894,1.01,1.265,1.598c0.749,1.188,1.753,1.73,3.193,1.635c1.449-0.097,2.911-0.015,4.367-0.026
	C44.535,41.208,44.754,41.248,44.641,41.722z M59.056,45.103c-0.857-0.021-1.72,0.042-2.572-0.022
	c-0.648-0.049-0.88,0.165-1.007,0.8c-0.794,3.995-1.647,7.979-2.44,11.973c-0.115,0.584-0.322,0.767-0.903,0.739
	c-1.012-0.048-2.028-0.037-3.041-0.004c-0.513,0.016-0.647-0.075-0.527-0.636c0.854-3.982,1.654-7.975,2.498-11.96
	c0.139-0.652,0.119-0.991-0.705-0.913c-0.824,0.077-1.663-0.008-2.493,0.025c-0.495,0.021-0.569-0.181-0.478-0.602
	c0.211-0.962,0.43-1.925,0.588-2.896c0.08-0.491,0.289-0.623,0.769-0.617c1.846,0.027,3.691,0.012,5.537,0.012
	c1.819,0,3.641,0.02,5.457-0.013c0.553-0.01,0.678,0.164,0.562,0.672c-0.216,0.962-0.429,1.928-0.579,2.9
	C59.651,45.005,59.458,45.111,59.056,45.103z M63.384,58.596c-1.012-0.061-2.029-0.052-3.042-0.002
	c-0.61,0.029-0.759-0.136-0.632-0.735c0.764-3.606,1.498-7.214,2.244-10.824c0.377-1.83,0.774-3.651,1.124-5.487
	c0.081-0.423,0.242-0.825,0.659-0.804c0.57,0.03,1.144-0.243,1.715-0.243c0.182,0,0.365,0,0.547,0c1.692,0,1.68,0.248,1.329,1.94
	c-1.046,5.058-2.085,10.231-3.109,15.292C64.118,58.229,63.978,58.631,63.384,58.596z M87.358,41.616
	c-0.407,3.381-0.789,6.765-1.182,10.146c-0.237,2.04-0.498,4.077-0.703,6.12c-0.051,0.512-0.17,0.738-0.73,0.708
	c-0.855-0.047-1.718-0.048-2.574,0c-0.574,0.032-0.611-0.18-0.542-0.674c0.419-2.985,0.807-5.975,1.204-8.963
	c0.036-0.143,0.112-0.291-0.043-0.407c-0.01-0.008-0.074,0.061-0.113,0.096c-1.489,3.168-2.984,6.333-4.463,9.507
	c-0.157,0.337-0.364,0.448-0.723,0.436c-0.675-0.023-1.354-0.048-2.026,0.006c-0.555,0.044-0.714-0.18-0.741-0.687
	c-0.168-2.931-0.355-5.859-0.536-8.789c-0.17-0.173,0.169-0.561-0.263-0.622c-0.786,3.255-1.782,6.453-2.688,9.676
	c-0.083,0.294-0.231,0.419-0.55,0.415c-1.194-0.015-2.389-0.007-3.674-0.007c0.577-1.918,1.137-3.775,1.692-5.634
	c1.117-3.729,2.24-7.456,3.336-11.192c0.161-0.549,0.381-0.8,1.004-0.767c1.141,0.059,2.29,0.053,3.434,0.002
	c0.58-0.026,0.753,0.159,0.783,0.724c0.164,3.034,0.389,6.065,0.42,9.115c0.257,0,0.244-0.226,0.313-0.371
	c1.425-2.972,2.859-5.939,4.261-8.922c0.199-0.423,0.436-0.553,0.881-0.542c1.224,0.029,2.447,0.034,3.67-0.001
	C87.312,40.975,87.417,41.136,87.358,41.616z"/>
</svg>
