<?xml version="1.0" encoding="utf-8"?>
<!-- Generator: Adobe Illustrator 16.0.0, SVG Export Plug-In . SVG Version: 6.00 Build 0)  -->
<!DOCTYPE svg PUBLIC "-//W3C//DTD SVG 1.1//EN" "http://www.w3.org/Graphics/SVG/1.1/DTD/svg11.dtd">
<svg version="1.1" id="Layer_1" xmlns="http://www.w3.org/2000/svg" xmlns:xlink="http://www.w3.org/1999/xlink" x="0px" y="0px"
	 width="18.008px" height="18.105px" viewBox="0 0 18.008 18.105" enable-background="new 0 0 18.008 18.105" xml:space="preserve">
<g id="XMLID_44_">
	<path id="XMLID_45_" fill="#333333" d="M16.215,15.446c0,0.433-0.203,0.817-0.625,1.166c-0.42,0.348-0.984,0.625-1.684,0.829
		c-0.695,0.205-1.465,0.361-2.307,0.469c-0.842,0.108-1.707,0.156-2.596,0.156c-0.89,0-1.754-0.048-2.596-0.156
		c-0.841-0.107-1.611-0.264-2.308-0.469c-0.697-0.204-1.262-0.481-1.683-0.829c-0.42-0.349-0.625-0.733-0.625-1.166
		c0-0.337,0.108-0.637,0.336-0.901c0.229-0.264,0.541-0.492,0.938-0.685c0.397-0.181,0.793-0.337,1.214-0.457
		c0.409-0.12,0.854-0.217,1.346-0.301c0.181-0.036,0.337,0,0.493,0.109c0.145,0.106,0.24,0.252,0.265,0.42
		c0.036,0.18,0,0.336-0.108,0.492c-0.109,0.146-0.253,0.24-0.421,0.265c-0.396,0.071-0.757,0.145-1.082,0.239
		c-0.324,0.097-0.589,0.182-0.781,0.266s-0.36,0.168-0.493,0.24c-0.132,0.084-0.228,0.145-0.276,0.204s-0.084,0.097-0.084,0.121
		c0.024,0.07,0.108,0.168,0.276,0.275c0.168,0.109,0.408,0.217,0.745,0.337c0.336,0.121,0.721,0.228,1.166,0.337
		c0.445,0.107,0.998,0.192,1.647,0.252c0.649,0.072,1.346,0.108,2.067,0.108c0.722,0,1.405-0.036,2.067-0.108
		c0.648-0.072,1.201-0.156,1.646-0.252c0.445-0.109,0.828-0.216,1.164-0.337c0.338-0.12,0.59-0.24,0.746-0.349
		c0.17-0.108,0.252-0.204,0.277-0.276c-0.012-0.023-0.037-0.061-0.084-0.108c-0.049-0.047-0.145-0.108-0.275-0.192
		c-0.133-0.084-0.303-0.156-0.494-0.239c-0.193-0.085-0.457-0.169-0.781-0.253s-0.686-0.169-1.082-0.24
		c-0.18-0.024-0.324-0.121-0.421-0.265c-0.107-0.145-0.144-0.312-0.107-0.493c0.024-0.18,0.12-0.324,0.265-0.42
		c0.145-0.108,0.312-0.145,0.492-0.108c0.48,0.085,0.938,0.18,1.346,0.3c0.41,0.121,0.818,0.276,1.215,0.458
		c0.396,0.18,0.709,0.407,0.938,0.685C16.107,14.809,16.215,15.109,16.215,15.446z M12.285,6.264v3.93
		c0,0.181-0.061,0.337-0.192,0.457c-0.132,0.132-0.289,0.191-0.457,0.191h-0.661v3.931c0,0.181-0.061,0.336-0.191,0.456
		c-0.133,0.133-0.289,0.193-0.457,0.193H7.694c-0.18,0-0.337-0.061-0.457-0.193c-0.132-0.132-0.192-0.288-0.192-0.456v-3.919H6.384
		c-0.181,0-0.336-0.06-0.457-0.191c-0.132-0.132-0.192-0.288-0.192-0.457V6.264c0-0.36,0.133-0.673,0.385-0.926
		c0.252-0.252,0.564-0.385,0.925-0.385h3.93c0.361,0,0.674,0.133,0.926,0.385C12.152,5.592,12.285,5.904,12.285,6.264z
		 M10.626,0.712c0.445,0.444,0.673,0.985,0.673,1.622c0,0.638-0.228,1.179-0.673,1.623C10.182,4.401,9.641,4.63,9.003,4.63
		c-0.637,0-1.177-0.229-1.623-0.673C6.937,3.512,6.708,2.971,6.708,2.334c0-0.637,0.229-1.178,0.673-1.622
		c0.445-0.444,0.986-0.673,1.623-0.673C9.641,0.039,10.182,0.267,10.626,0.712z"/>
</g>
</svg>
