<?xml version="1.0" encoding="utf-8"?>
<!-- Generator: Adobe Illustrator 16.0.0, SVG Export Plug-In . SVG Version: 6.00 Build 0)  -->
<!DOCTYPE svg PUBLIC "-//W3C//DTD SVG 1.1//EN" "http://www.w3.org/Graphics/SVG/1.1/DTD/svg11.dtd">
<svg version="1.1" id="Layer_1" xmlns="http://www.w3.org/2000/svg" xmlns:xlink="http://www.w3.org/1999/xlink" x="0px" y="0px"
	 width="18px" height="18px" viewBox="0 0 18 18" enable-background="new 0 0 18 18" xml:space="preserve">
<g>
	<path d="M15.746,4.922C15.746,4.921,15.746,4.921,15.746,4.922c0-0.01,0-0.019,0-0.029c0-0.034-0.019-0.06-0.023-0.092
		c-0.008-0.065-0.008-0.133-0.036-0.192c-0.003-0.007-0.012-0.011-0.016-0.018c-0.022-0.044-0.063-0.073-0.097-0.11
		c-0.038-0.044-0.061-0.099-0.115-0.131l-2.293-1.308c-0.531-0.305-1.063-0.61-1.597-0.912l-1.84-1.052
		c-0.145-0.084-0.29-0.168-0.439-0.25c-0.193-0.104-0.387-0.104-0.581,0L2.541,4.351c-0.089,0.051-0.16,0.131-0.209,0.227
		C2.281,4.67,2.253,4.778,2.253,4.894l-0.002,7.745c-0.001,0.229-0.003,0.458,0.002,0.698c0,0.187,0.089,0.427,0.288,0.54
		c0.161,0.091,0.32,0.183,0.479,0.275l5.146,2.954c0.178,0.104,0.355,0.206,0.54,0.308c0.086,0.057,0.183,0.087,0.283,0.087
		c0.008,0,0.017,0,0.025,0c0.042-0.003,0.083-0.01,0.121-0.021c0.013-0.003,0.025-0.007,0.038-0.011
		c0.028-0.009,0.049-0.029,0.075-0.043c0.013-0.006,0.027-0.004,0.04-0.011l2.088-1.199c0.593-0.342,1.186-0.682,1.779-1.021
		l1.826-1.044c0.159-0.089,0.319-0.179,0.479-0.276c0.115-0.066,0.199-0.182,0.245-0.313c0.026-0.07,0.04-0.146,0.04-0.226
		l0.002-7.744C15.75,5.371,15.75,5.15,15.746,4.922z M8.775,2.201C8.85,2.16,8.925,2.118,9.003,2.073l4.938,2.82
		c-0.381,0.219-0.762,0.438-1.146,0.656L9.237,7.583c-0.08,0.044-0.159,0.092-0.238,0.138l-4.94-2.83L8.775,2.201z M3.627,13.085
		c-0.075-0.044-0.149-0.089-0.225-0.132V5.926l4.794,2.75c0.076,0.045,0.152,0.091,0.229,0.136l-0.002,7.03L3.627,13.085z
		 M14.596,12.637c-0.001,0.108-0.001,0.217-0.002,0.325c-0.108,0.063-0.217,0.126-0.325,0.189l-1.474,0.845
		c-0.593,0.342-1.185,0.682-1.778,1.021l-1.442,0.827l0.001-1.413l0.002-5.303C9.578,9.021,9.58,8.912,9.58,8.802l2.988-1.714
		l2.029-1.162L14.596,12.637z"/>
</g>
</svg>
