<?xml version="1.0" encoding="utf-8"?>
<!-- Generator: Adobe Illustrator 16.0.0, SVG Export Plug-In . SVG Version: 6.00 Build 0)  -->
<!DOCTYPE svg PUBLIC "-//W3C//DTD SVG 1.1//EN" "http://www.w3.org/Graphics/SVG/1.1/DTD/svg11.dtd">
<svg version="1.1" id="Layer_1" xmlns="http://www.w3.org/2000/svg" xmlns:xlink="http://www.w3.org/1999/xlink" x="0px" y="0px"
	 width="22px" height="22px" viewBox="0 0 22 22" enable-background="new 0 0 22 22" xml:space="preserve">
<path d="M20.49,5.51c-0.001-0.035-0.006-0.067-0.014-0.102c-0.001-0.005-0.004-0.01-0.006-0.015
	c-0.01-0.038-0.017-0.078-0.038-0.111c-0.005-0.008-0.013-0.012-0.019-0.02c-0.023-0.039-0.057-0.069-0.093-0.098
	c-0.011-0.008-0.019-0.018-0.029-0.025c-0.013-0.008-0.019-0.021-0.032-0.028c-0.301-0.152-0.602-0.304-0.902-0.456
	c-0.723-0.364-1.445-0.73-2.168-1.094c-0.871-0.441-1.744-0.882-2.615-1.321c-0.751-0.378-1.502-0.759-2.25-1.137
	c-0.358-0.181-0.711-0.369-1.073-0.542c-0.176-0.084-0.33-0.082-0.502,0C10.71,0.581,10.67,0.601,10.632,0.62
	c-0.187,0.094-0.371,0.188-0.559,0.282c-0.68,0.344-1.362,0.687-2.042,1.031C7.167,2.369,6.304,2.805,5.439,3.241
	C4.655,3.637,3.871,4.034,3.087,4.429C2.658,4.646,2.229,4.863,1.801,5.08c-0.019,0.009-0.04,0.019-0.059,0.031
	c-0.119,0.06-0.177,0.177-0.205,0.302c-0.01,0.04-0.031,0.072-0.031,0.117c0,0.364,0,0.725,0,1.089c0,0.868,0,1.735,0,2.603
	c0,1.048,0,2.099,0,3.147c0,0.912,0,1.822,0,2.73c0,0.441-0.012,0.883,0,1.322c0,0.008,0,0.012,0,0.02
	c0,0.162,0.087,0.342,0.234,0.418c0.301,0.15,0.599,0.303,0.9,0.457c0.718,0.363,1.433,0.729,2.151,1.092
	c0.867,0.441,1.734,0.879,2.601,1.32c0.753,0.381,1.504,0.764,2.258,1.145c0.365,0.186,0.727,0.375,1.094,0.555
	c0.005,0.002,0.009,0.004,0.017,0.006c0.008,0.004,0.017,0.004,0.024,0.008c0.046,0.025,0.094,0.037,0.146,0.045
	c0.004,0,0.008,0.002,0.012,0.002C10.962,21.49,10.979,21.5,11,21.5c0.026-0.002,0.048-0.012,0.073-0.018
	c0.031-0.004,0.061-0.012,0.09-0.021c0.013-0.004,0.025-0.01,0.037-0.016c0.002-0.002,0.005-0.002,0.007-0.004
	c0.011-0.004,0.022-0.002,0.032-0.008c0.302-0.15,0.6-0.303,0.901-0.457c0.717-0.363,1.433-0.729,2.15-1.092
	c0.867-0.441,1.734-0.879,2.602-1.32c0.753-0.381,1.504-0.764,2.258-1.145c0.361-0.186,0.736-0.357,1.094-0.555
	c0.005-0.002,0.01-0.004,0.017-0.008c0.032-0.016,0.055-0.045,0.081-0.07c0.006-0.006,0.012-0.01,0.017-0.014
	c0.031-0.033,0.056-0.07,0.077-0.113c0.01-0.02,0.02-0.039,0.027-0.061c0.012-0.033,0.017-0.068,0.021-0.105
	c0.002-0.018,0.011-0.033,0.011-0.053c0-0.363,0-0.725,0-1.09c0-0.867,0-1.734,0-2.602c0-1.049,0-2.099,0-3.147
	c0-0.911,0-1.822,0-2.73c0-0.441,0.012-0.882,0-1.323c0-0.007,0-0.012,0-0.02C20.495,5.522,20.49,5.518,20.49,5.51z M3.113,5.492
	C3.831,5.13,4.549,4.767,5.267,4.405c0.87-0.438,1.736-0.877,2.606-1.316c0.751-0.378,1.502-0.759,2.252-1.137
	c0.291-0.146,0.584-0.291,0.874-0.441c0.219,0.11,0.438,0.221,0.657,0.333c0.717,0.361,1.436,0.725,2.152,1.087
	c0.869,0.438,1.736,0.877,2.606,1.315c0.751,0.378,1.502,0.759,2.253,1.137c0.097,0.049,0.193,0.098,0.29,0.147
	c-0.025,0.013-0.051,0.026-0.076,0.039c-0.718,0.364-1.433,0.726-2.151,1.089c-0.866,0.438-1.733,0.877-2.601,1.318
	c-0.753,0.381-1.505,0.762-2.258,1.142c-0.288,0.146-0.582,0.29-0.871,0.441c-0.221-0.112-0.441-0.223-0.662-0.335
	C9.621,8.861,8.906,8.5,8.188,8.136C7.321,7.697,6.454,7.258,5.587,6.817c-0.753-0.38-1.504-0.761-2.258-1.142
	C3.324,5.672,3.318,5.67,3.313,5.667c-0.09-0.045-0.179-0.093-0.269-0.14C3.067,5.515,3.09,5.503,3.113,5.492z M8.188,19.051
	c-0.867-0.439-1.734-0.879-2.601-1.32c-0.753-0.381-1.504-0.764-2.258-1.145c-0.29-0.146-0.582-0.301-0.876-0.443
	c0-0.264,0-0.525,0-0.789c0-0.869,0-1.736,0-2.604c0-1.049,0-2.099,0-3.147c0-0.911,0-1.822,0-2.73c0-0.187,0.003-0.374,0.006-0.562
	C2.519,6.342,2.58,6.373,2.64,6.403c0.718,0.364,1.433,0.726,2.151,1.089C5.658,7.931,6.525,8.369,7.392,8.81
	c0.369,0.187,0.736,0.373,1.104,0.559C8.89,9.568,9.283,9.769,9.676,9.967C9.7,9.979,9.725,9.992,9.75,10.005
	c0.254,0.131,0.51,0.265,0.769,0.391c0.002,0.001,0.005,0.002,0.008,0.004c0,0.263,0,0.526,0,0.787c0,0.869,0,1.738,0,2.605
	c0,1.051,0,2.1,0,3.15c0,0.91,0,1.82,0,2.732c0,0.188,0.002,0.375,0,0.564c-0.062-0.033-0.125-0.064-0.188-0.096
	C9.621,19.779,8.906,19.416,8.188,19.051z M18.882,16.482c-0.718,0.363-1.433,0.729-2.151,1.092
	c-0.866,0.441-1.733,0.879-2.601,1.32c-0.753,0.381-1.505,0.764-2.258,1.145c-0.132,0.066-0.265,0.137-0.398,0.201
	c0-0.104,0-0.209,0-0.312c0-0.867,0-1.736,0-2.604c0-1.051,0-2.1,0-3.15c0-0.91,0-1.822,0-2.732c0-0.347,0.008-0.694,0.004-1.042
	c0.149-0.076,0.298-0.153,0.448-0.229c0.68-0.345,1.357-0.689,2.037-1.034c0.867-0.438,1.732-0.879,2.599-1.318
	c0.411-0.208,0.823-0.417,1.234-0.626c0.451-0.228,0.902-0.457,1.354-0.685c0.131-0.066,0.264-0.136,0.397-0.202
	c0,0.104,0,0.208,0,0.312c0,0.867,0,1.735,0,2.603c0,1.048,0,2.099,0,3.147c0,0.91,0,1.822,0,2.73c0,0.348-0.003,0.695,0,1.045
	C19.326,16.256,19.105,16.367,18.882,16.482z"/>
</svg>
