<?xml version="1.0" encoding="utf-8"?>
<!-- Generator: Adobe Illustrator 16.0.0, SVG Export Plug-In . SVG Version: 6.00 Build 0)  -->
<!DOCTYPE svg PUBLIC "-//W3C//DTD SVG 1.0//EN" "http://www.w3.org/TR/2001/REC-SVG-20010904/DTD/svg10.dtd">
<svg version="1.0" id="Layer_1" xmlns="http://www.w3.org/2000/svg" xmlns:xlink="http://www.w3.org/1999/xlink" x="0px" y="0px"
	 width="641.88px" height="641.88px" viewBox="-22.33 18.567 641.88 641.88" enable-background="new -22.33 18.567 641.88 641.88"
	 xml:space="preserve">
<rect x="132.523" y="584.958" width="134.526" height="75.49"/>
<rect x="330.168" y="584.958" width="134.529" height="75.49"/>
<path d="M132.523,579.809h332.175V98.792H132.523V579.809z M367.774,132.289h63.116v78.065h-63.116V132.289z M367.774,234.323
	h63.116v78.065h-63.116V234.323z M367.774,339.639h63.116v78.066h-63.116V339.639z M367.774,454.907h63.116v78.065h-63.116V454.907z
	 M267.049,132.289h63.119v78.065h-63.119V132.289z M267.049,234.323h63.119v78.065h-63.119V234.323z M267.049,339.639h63.119v78.066
	h-63.119V339.639z M267.049,454.907h63.119v78.065h-63.119V454.907z M168.141,132.289h63.119v78.065h-63.119V132.289z
	 M168.141,234.323h63.119v78.065h-63.119V234.323z M168.141,339.639h63.119v78.066h-63.119V339.639z M168.141,454.907h63.119v78.065
	h-63.119V454.907z"/>
<polygon points="399.329,48.678 399.329,18.565 197.887,18.565 197.887,48.678 132.523,48.678 132.523,93.646 464.695,93.646 
	464.695,48.678 "/>
</svg>
