<?xml version="1.0" encoding="utf-8"?>
<!-- Generator: Adobe Illustrator 16.0.0, SVG Export Plug-In . SVG Version: 6.00 Build 0)  -->
<!DOCTYPE svg PUBLIC "-//W3C//DTD SVG 1.1//EN" "http://www.w3.org/Graphics/SVG/1.1/DTD/svg11.dtd">
<svg version="1.1" id="Layer_1" xmlns="http://www.w3.org/2000/svg" xmlns:xlink="http://www.w3.org/1999/xlink" x="0px" y="0px"
	 width="22px" height="22px" viewBox="0 0 22 22" enable-background="new 0 0 22 22" xml:space="preserve">
<g>
	<path d="M18.182,14.818C17.344,13.98,16.186,13.5,15,13.5H7c-1.201,0-2.332,0.468-3.182,1.318C2.968,15.668,2.5,16.798,2.5,18v2
		c0,0.275,0.224,0.5,0.5,0.5s0.5-0.225,0.5-0.5v-2c0-0.936,0.364-1.812,1.025-2.475C5.187,14.864,6.065,14.5,7,14.5h8
		c0.921,0,1.823,0.374,2.475,1.025C18.127,16.176,18.5,17.079,18.5,18v2c0,0.275,0.225,0.5,0.5,0.5s0.5-0.225,0.5-0.5v-2
		C19.5,16.814,19.02,15.656,18.182,14.818z"/>
	<path d="M11,10.5c2.48,0,4.5-2.019,4.5-4.5S13.48,1.5,11,1.5C8.52,1.5,6.5,3.519,6.5,6S8.52,10.5,11,10.5z M11,2.5
		c1.93,0,3.5,1.57,3.5,3.5S12.93,9.5,11,9.5C9.07,9.5,7.5,7.93,7.5,6S9.07,2.5,11,2.5z"/>
</g>
</svg>
