<?xml version="1.0" encoding="utf-8"?>
<!-- Generator: Adobe Illustrator 16.0.0, SVG Export Plug-In . SVG Version: 6.00 Build 0)  -->
<!DOCTYPE svg PUBLIC "-//W3C//DTD SVG 1.1//EN" "http://www.w3.org/Graphics/SVG/1.1/DTD/svg11.dtd">
<svg version="1.1" id="Your_Icon" xmlns="http://www.w3.org/2000/svg" xmlns:xlink="http://www.w3.org/1999/xlink" x="0px" y="0px"
	 width="100px" height="100px" viewBox="0 0 100 100" enable-background="new 0 0 100 100" xml:space="preserve">
<g>
	<path fill-rule="evenodd" clip-rule="evenodd" fill="#020202" d="M15.217,57.516c0,0,5.704-11.257,6.402-12.588
		c0.423-0.806,1.558-1.719,3.178-0.855c1.833,0.977,2.02,1.079,3.071,1.665c0.878,0.49,1.746,1.918,0.779,3.575
		c-0.855,1.467-7.557,13.19-8.524,14.805c-0.825,1.374-2.2,3.895-4.95,3.895c-3.346,0-4.171-1.925-4.904-3.07L1.697,49.449
		c-0.83-1.573-0.825-2.571,0.596-3.62l2.567-1.695c2.337-1.317,2.971,0.214,3.667,1.374C9.259,46.73,15.217,57.516,15.217,57.516
		L15.217,57.516z"/>
	<path fill-rule="evenodd" clip-rule="evenodd" fill="#020202" d="M34.952,44.438c1.833,0,2.533,0,3.877,0
		c1.463,0,2.223,0.357,2.223,1.95c0,1.1,0,18.09,0,19.556c0,1.468-0.795,2.205-1.773,2.205s-3.245,0-4.468,0
		c-1.222,0-2.07-0.521-2.07-2.231c0-1.713,0-17.614,0-19.081C32.742,44.717,33.778,44.438,34.952,44.438L34.952,44.438z"/>
	<path fill-rule="evenodd" clip-rule="evenodd" fill="#020202" d="M41.664,36.25c0,2.564-2.08,4.644-4.644,4.644
		c-2.565,0-4.645-2.079-4.645-4.644c0-2.565,2.08-4.645,4.645-4.645C39.584,31.605,41.664,33.685,41.664,36.25L41.664,36.25z"/>
	<path fill-rule="evenodd" clip-rule="evenodd" fill="#020202" d="M58.606,57.395c0,0,5.704-11.258,6.402-12.589
		c0.422-0.807,1.558-1.72,3.178-0.855c1.833,0.978,2.02,1.078,3.071,1.665c0.877,0.49,1.745,1.918,0.779,3.575
		c-0.855,1.467-7.558,13.19-8.525,14.804c-0.825,1.375-2.2,3.896-4.95,3.896c-3.347,0-4.172-1.926-4.905-3.071l-8.57-15.491
		c-0.829-1.574-0.824-2.572,0.596-3.621l2.567-1.696c2.337-1.316,2.97,0.216,3.667,1.375C52.648,46.608,58.606,57.395,58.606,57.395
		L58.606,57.395z"/>
	<path fill-rule="evenodd" clip-rule="evenodd" fill="#020202" d="M86.336,44.193c-6.919,0-12.527,5.418-12.527,12.101
		s5.608,12.101,12.527,12.101s12.528-5.418,12.528-12.101S93.255,44.193,86.336,44.193L86.336,44.193L86.336,44.193z M86.275,61.184
		c-2.769,0-5.011-2.189-5.011-4.89c0-2.699,2.242-4.889,5.011-4.889c2.768,0,5.011,2.189,5.011,4.889
		C91.286,58.994,89.043,61.184,86.275,61.184L86.275,61.184z"/>
</g>
</svg>
