<?xml version="1.0" encoding="utf-8"?>
<!-- Generator: Adobe Illustrator 16.0.0, SVG Export Plug-In . SVG Version: 6.00 Build 0)  -->
<!DOCTYPE svg PUBLIC "-//W3C//DTD SVG 1.1//EN" "http://www.w3.org/Graphics/SVG/1.1/DTD/svg11.dtd">
<svg version="1.1" id="Layer_1" xmlns="http://www.w3.org/2000/svg" xmlns:xlink="http://www.w3.org/1999/xlink" x="0px" y="0px"
	 width="1500.5px" height="1480.5px" viewBox="0 0 1500.5 1480.5" enable-background="new 0 0 1500.5 1480.5" xml:space="preserve">
<g>
	<g>
		<path fill-rule="evenodd" clip-rule="evenodd" d="M1227.996,263.292C1106.812,142.007,945.65,75.179,773.943,75.11
			c-353.792,0-641.734,287.833-641.876,641.627c-0.046,113.091,29.511,223.485,85.679,320.791l-91.061,332.512l340.268-89.228
			c93.75,51.117,199.306,78.057,306.734,78.101h0.263c0.021,0-0.019,0,0.002,0c353.755,0,641.724-287.869,641.867-641.665
			C1415.886,545.795,1349.184,384.577,1227.996,263.292z M773.95,1250.54h-0.219c-95.728-0.038-189.623-25.744-271.533-74.339
			l-19.482-11.56l-201.918,52.95l53.896-196.805l-12.686-20.178c-53.403-84.915-81.61-183.061-81.569-283.832
			c0.118-294.06,239.446-533.294,533.722-533.294c142.496,0.055,276.446,55.604,377.173,156.412
			c100.726,100.808,156.166,234.807,156.111,377.313C1307.326,1011.289,1068,1250.54,773.95,1250.54z M1066.584,851.105
			c-16.038-8.024-94.889-46.813-109.591-52.163c-14.701-5.35-25.392-8.024-36.085,8.025c-10.69,16.05-41.427,52.165-50.782,62.863
			c-9.354,10.701-18.711,12.04-34.747,4.014c-16.039-8.025-67.718-24.956-128.976-79.578c-47.676-42.51-79.867-95.02-89.222-111.07
			c-9.354-16.051-0.995-24.729,7.034-32.721c7.214-7.184,16.037-18.726,24.057-28.089c8.019-9.363,10.692-16.05,16.037-26.75
			c5.347-10.701,2.673-20.064-1.336-28.089c-4.008-8.025-36.083-86.941-49.449-119.042c-13.018-31.265-26.24-27.035-36.085-27.524
			c-9.344-0.465-20.047-0.563-30.739-0.563s-28.066,4.012-42.768,20.062c-14.7,16.051-56.131,54.84-56.131,133.756
			c0,78.915,57.468,155.154,65.488,165.856c8.018,10.7,113.091,172.647,273.977,242.094c38.264,16.52,68.139,26.383,91.429,33.774
			c38.423,12.202,73.386,10.481,101.021,6.354c30.812-4.603,94.888-38.789,108.254-76.241c13.363-37.451,13.363-69.552,9.354-76.24
			C1093.314,863.145,1082.622,859.133,1066.584,851.105z"/>
	</g>
</g>
</svg>
